%TF.GenerationSoftware,KiCad,Pcbnew,5.1.10-88a1d61d58~90~ubuntu20.04.1*%
%TF.CreationDate,2021-11-13T21:20:41-05:00*%
%TF.ProjectId,d1shield,64317368-6965-46c6-942e-6b696361645f,rev?*%
%TF.SameCoordinates,Original*%
%TF.FileFunction,Copper,L1,Top*%
%TF.FilePolarity,Positive*%
%FSLAX46Y46*%
G04 Gerber Fmt 4.6, Leading zero omitted, Abs format (unit mm)*
G04 Created by KiCad (PCBNEW 5.1.10-88a1d61d58~90~ubuntu20.04.1) date 2021-11-13 21:20:41*
%MOMM*%
%LPD*%
G01*
G04 APERTURE LIST*
%TA.AperFunction,ComponentPad*%
%ADD10C,1.800000*%
%TD*%
%TA.AperFunction,ConnectorPad*%
%ADD11R,1.000000X4.000000*%
%TD*%
%TA.AperFunction,Conductor*%
%ADD12C,0.400000*%
%TD*%
G04 APERTURE END LIST*
D10*
%TO.P,U1,16*%
%TO.N,Net-(U1-Pad16)*%
X118110000Y-97270000D03*
%TO.P,U1,1*%
%TO.N,Net-(U1-Pad1)*%
X118110000Y-120130000D03*
%TO.P,U1,15*%
%TO.N,Net-(U1-Pad15)*%
X120650000Y-97270000D03*
%TO.P,U1,2*%
%TO.N,Net-(U1-Pad2)*%
X120650000Y-120130000D03*
%TO.P,U1,14*%
%TO.N,Net-(J2-Pad1)*%
X123190000Y-97270000D03*
%TO.P,U1,3*%
%TO.N,Net-(J1-Pad1)*%
X123190000Y-120130000D03*
%TO.P,U1,13*%
%TO.N,Net-(J2-Pad2)*%
X125730000Y-97270000D03*
%TO.P,U1,4*%
%TO.N,Net-(J1-Pad2)*%
X125730000Y-120130000D03*
%TO.P,U1,12*%
%TO.N,Net-(J2-Pad3)*%
X128270000Y-97270000D03*
%TO.P,U1,5*%
%TO.N,Net-(J1-Pad3)*%
X128270000Y-120130000D03*
%TO.P,U1,11*%
%TO.N,Net-(J2-Pad4)*%
X130810000Y-97270000D03*
%TO.P,U1,6*%
%TO.N,Net-(J1-Pad4)*%
X130810000Y-120130000D03*
%TO.P,U1,10*%
%TO.N,Net-(J2-Pad5)*%
X133350000Y-97270000D03*
%TO.P,U1,7*%
%TO.N,Net-(J1-Pad5)*%
X133350000Y-120130000D03*
%TO.P,U1,9*%
%TO.N,Net-(J2-Pad6)*%
X135890000Y-97270000D03*
%TO.P,U1,8*%
%TO.N,Net-(J1-Pad6)*%
X135890000Y-120130000D03*
%TD*%
D11*
%TO.P,J2,1*%
%TO.N,Net-(J2-Pad1)*%
X127000000Y-128000000D03*
%TO.P,J2,6*%
%TO.N,Net-(J2-Pad6)*%
X117000000Y-128000000D03*
%TO.P,J2,5*%
%TO.N,Net-(J2-Pad5)*%
X119000000Y-128000000D03*
%TO.P,J2,4*%
%TO.N,Net-(J2-Pad4)*%
X121000000Y-128000000D03*
%TO.P,J2,2*%
%TO.N,Net-(J2-Pad2)*%
X125000000Y-128000000D03*
%TO.P,J2,3*%
%TO.N,Net-(J2-Pad3)*%
X123000000Y-128000000D03*
%TD*%
D12*
%TO.N,Net-(J2-Pad1)*%
X111800000Y-95700000D02*
X121620000Y-95700000D01*
X108800000Y-98700000D02*
X111800000Y-95700000D01*
X108800000Y-119600000D02*
X108800000Y-98700000D01*
X110630001Y-121430001D02*
X108800000Y-119600000D01*
X125530001Y-121430001D02*
X110630001Y-121430001D01*
X127000000Y-122900000D02*
X125530001Y-121430001D01*
X121620000Y-95700000D02*
X123190000Y-97270000D01*
X127000000Y-128000000D02*
X127000000Y-122900000D01*
%TO.N,Net-(J2-Pad6)*%
X110557340Y-92699950D02*
X131319950Y-92699950D01*
X105799955Y-97457335D02*
X110557340Y-92699950D01*
X105799954Y-120842656D02*
X105799955Y-97457335D01*
X131319950Y-92699950D02*
X135890000Y-97270000D01*
X115900033Y-124500033D02*
X109457326Y-124500033D01*
X117000000Y-125600000D02*
X115900033Y-124500033D01*
X109457326Y-124500033D02*
X105799954Y-120842656D01*
X117000000Y-128000000D02*
X117000000Y-125600000D01*
%TO.N,Net-(J2-Pad5)*%
X129379960Y-93299960D02*
X133350000Y-97270000D01*
X110805872Y-93299960D02*
X129379960Y-93299960D01*
X106399964Y-97705868D02*
X110805872Y-93299960D01*
X106399963Y-120594125D02*
X106399964Y-97705868D01*
X109705859Y-123900025D02*
X106399963Y-120594125D01*
X118651486Y-123900028D02*
X109705859Y-123900025D01*
X119000000Y-124248542D02*
X118651486Y-123900028D01*
X119000000Y-128000000D02*
X119000000Y-124248542D01*
%TO.N,Net-(J2-Pad4)*%
X127439970Y-93899970D02*
X130810000Y-97270000D01*
X111054404Y-93899970D02*
X127439970Y-93899970D01*
X106999973Y-97954401D02*
X111054404Y-93899970D01*
X106999972Y-120345594D02*
X106999973Y-97954401D01*
X109954392Y-123300017D02*
X106999972Y-120345594D01*
X118900019Y-123300019D02*
X109954392Y-123300017D01*
X121000000Y-125400000D02*
X118900019Y-123300019D01*
X121000000Y-128000000D02*
X121000000Y-125400000D01*
%TO.N,Net-(J2-Pad2)*%
X123559990Y-95099990D02*
X125730000Y-97270000D01*
X111551468Y-95099990D02*
X123559990Y-95099990D01*
X108199990Y-119848532D02*
X108199991Y-98451467D01*
X110451458Y-122100000D02*
X108199990Y-119848532D01*
X122900000Y-122100000D02*
X110451458Y-122100000D01*
X108199991Y-98451467D02*
X111551468Y-95099990D01*
X125000000Y-124200000D02*
X122900000Y-122100000D01*
X125000000Y-128000000D02*
X125000000Y-124200000D01*
%TO.N,Net-(J2-Pad3)*%
X125499980Y-94499980D02*
X128270000Y-97270000D01*
X111302936Y-94499980D02*
X125499980Y-94499980D01*
X107599982Y-98202934D02*
X111302936Y-94499980D01*
X107599981Y-120097063D02*
X107599982Y-98202934D01*
X110202925Y-122700009D02*
X107599981Y-120097063D01*
X122651468Y-122700010D02*
X110202925Y-122700009D01*
X123000000Y-123048542D02*
X122651468Y-122700010D01*
X123000000Y-128000000D02*
X123000000Y-123048542D01*
%TD*%
M02*
