%TF.GenerationSoftware,KiCad,Pcbnew,5.1.10-88a1d61d58~90~ubuntu20.04.1*%
%TF.CreationDate,2021-11-13T21:20:41-05:00*%
%TF.ProjectId,d1shield,64317368-6965-46c6-942e-6b696361645f,rev?*%
%TF.SameCoordinates,Original*%
%TF.FileFunction,Copper,L2,Bot*%
%TF.FilePolarity,Positive*%
%FSLAX46Y46*%
G04 Gerber Fmt 4.6, Leading zero omitted, Abs format (unit mm)*
G04 Created by KiCad (PCBNEW 5.1.10-88a1d61d58~90~ubuntu20.04.1) date 2021-11-13 21:20:41*
%MOMM*%
%LPD*%
G01*
G04 APERTURE LIST*
%TA.AperFunction,ComponentPad*%
%ADD10C,1.800000*%
%TD*%
%TA.AperFunction,ConnectorPad*%
%ADD11R,1.000000X4.000000*%
%TD*%
%TA.AperFunction,Conductor*%
%ADD12C,0.400000*%
%TD*%
G04 APERTURE END LIST*
D10*
%TO.P,U1,16*%
%TO.N,Net-(U1-Pad16)*%
X118110000Y-97270000D03*
%TO.P,U1,1*%
%TO.N,Net-(U1-Pad1)*%
X118110000Y-120130000D03*
%TO.P,U1,15*%
%TO.N,Net-(U1-Pad15)*%
X120650000Y-97270000D03*
%TO.P,U1,2*%
%TO.N,Net-(U1-Pad2)*%
X120650000Y-120130000D03*
%TO.P,U1,14*%
%TO.N,Net-(J2-Pad1)*%
X123190000Y-97270000D03*
%TO.P,U1,3*%
%TO.N,Net-(J1-Pad1)*%
X123190000Y-120130000D03*
%TO.P,U1,13*%
%TO.N,Net-(J2-Pad2)*%
X125730000Y-97270000D03*
%TO.P,U1,4*%
%TO.N,Net-(J1-Pad2)*%
X125730000Y-120130000D03*
%TO.P,U1,12*%
%TO.N,Net-(J2-Pad3)*%
X128270000Y-97270000D03*
%TO.P,U1,5*%
%TO.N,Net-(J1-Pad3)*%
X128270000Y-120130000D03*
%TO.P,U1,11*%
%TO.N,Net-(J2-Pad4)*%
X130810000Y-97270000D03*
%TO.P,U1,6*%
%TO.N,Net-(J1-Pad4)*%
X130810000Y-120130000D03*
%TO.P,U1,10*%
%TO.N,Net-(J2-Pad5)*%
X133350000Y-97270000D03*
%TO.P,U1,7*%
%TO.N,Net-(J1-Pad5)*%
X133350000Y-120130000D03*
%TO.P,U1,9*%
%TO.N,Net-(J2-Pad6)*%
X135890000Y-97270000D03*
%TO.P,U1,8*%
%TO.N,Net-(J1-Pad6)*%
X135890000Y-120130000D03*
%TD*%
D11*
%TO.P,J1,1*%
%TO.N,Net-(J1-Pad1)*%
X117000000Y-128000000D03*
%TO.P,J1,6*%
%TO.N,Net-(J1-Pad6)*%
X127000000Y-128000000D03*
%TO.P,J1,5*%
%TO.N,Net-(J1-Pad5)*%
X125000000Y-128000000D03*
%TO.P,J1,4*%
%TO.N,Net-(J1-Pad4)*%
X123000000Y-128000000D03*
%TO.P,J1,2*%
%TO.N,Net-(J1-Pad2)*%
X119000000Y-128000000D03*
%TO.P,J1,3*%
%TO.N,Net-(J1-Pad3)*%
X121000000Y-128000000D03*
%TD*%
D12*
%TO.N,Net-(J1-Pad1)*%
X117000000Y-125600000D02*
X117000000Y-128000000D01*
X118000000Y-124600000D02*
X117000000Y-125600000D01*
X120302916Y-124600000D02*
X118000000Y-124600000D01*
X123190000Y-121712916D02*
X120302916Y-124600000D01*
X123190000Y-120130000D02*
X123190000Y-121712916D01*
%TO.N,Net-(J1-Pad6)*%
X127000000Y-125600000D02*
X127025010Y-125574990D01*
X127000000Y-128000000D02*
X127000000Y-125600000D01*
X127025010Y-125574990D02*
X133025010Y-125574990D01*
X135890000Y-122710000D02*
X135890000Y-120130000D01*
X133025010Y-125574990D02*
X135890000Y-122710000D01*
%TO.N,Net-(J1-Pad5)*%
X125000000Y-125600000D02*
X125625020Y-124974980D01*
X125000000Y-128000000D02*
X125000000Y-125600000D01*
X125625020Y-124974980D02*
X131225020Y-124974980D01*
X133350000Y-122850000D02*
X133350000Y-120130000D01*
X131225020Y-124974980D02*
X133350000Y-122850000D01*
%TO.N,Net-(J1-Pad4)*%
X123000000Y-125600000D02*
X124225030Y-124374970D01*
X123000000Y-128000000D02*
X123000000Y-125600000D01*
X124225030Y-124374970D02*
X129225030Y-124374970D01*
X130810000Y-122790000D02*
X130810000Y-120130000D01*
X129225030Y-124374970D02*
X130810000Y-122790000D01*
%TO.N,Net-(J1-Pad2)*%
X119000000Y-128000000D02*
X119000000Y-126751458D01*
X119000000Y-126751458D02*
X122576508Y-123174950D01*
X122576508Y-123174950D02*
X124525050Y-123174950D01*
X125730000Y-121970000D02*
X125730000Y-120130000D01*
X124525050Y-123174950D02*
X125730000Y-121970000D01*
%TO.N,Net-(J1-Pad3)*%
X121000000Y-128000000D02*
X121000000Y-126500000D01*
X121000000Y-125600000D02*
X122825040Y-123774960D01*
X121000000Y-128000000D02*
X121000000Y-125600000D01*
X122825040Y-123774960D02*
X127025040Y-123774960D01*
X128270000Y-122530000D02*
X128270000Y-120130000D01*
X127025040Y-123774960D02*
X128270000Y-122530000D01*
%TD*%
M02*
