  0
SECTION
  2
HEADER
  9
$ANGBASE
  50
0.0
  9
$ANGDIR
  70
1
  9
$MEASUREMENT
  70
0
  0
ENDSEC
  0
SECTION
  2
TABLES
  0
TABLE
  2
LTYPE
  70
4
  0
LTYPE
  5
40F
  2
CONTINUOUS
  70
0
  3
Solid line
  72
65
  73
0
  40
0.0
  0
LTYPE
  5
410
  2
DASHDOT
 70
0
  3
Dash Dot ____ _ ____ _
 72
65
 73
4
 40
2.0
 49
1.25
 49
-0.25
 49
0.25
 49
-0.25
  0
LTYPE
  5
411
  2
DASHED
 70
0
  3
Dashed __ __ __ __ __
 72
65
 73
2
 40
0.75
 49
0.5
 49
-0.25
  0
LTYPE
  5
43B
  2
DOTTED
 70
0
  3
Dotted .  .  .  .
 72
65
 73
2
 40
0.2
 49
0.0
 49
-0.2
  0
ENDTAB
  0
TABLE
  2
STYLE
  70
4
  0
STYLE
  2
KICAD
  70
0
  40
0
  41
1
  42
1
  50
0
  71
0
  3
isocp.shx
  0
STYLE
  2
KICADB
  70
0
  40
0
  41
1
  42
1
  50
0
  71
0
  3
isocp.shx
  0
STYLE
  2
KICADI
  70
0
  40
0
  41
1
  42
1
  50
15
  71
0
  3
isocp.shx
  0
STYLE
  2
KICADBI
  70
0
  40
0
  41
1
  42
1
  50
15
  71
0
  3
isocp.shx
  0
ENDTAB
  0
TABLE
  2
LAYER
  70
1
  0
LAYER
  2
BLACK
  70
0
  62
7
  6
CONTINUOUS
  0
ENDTAB
  0
ENDSEC
  0
SECTION
  2
ENTITIES
0
LINE
8
BLACK
6
CONTINUOUS
10
5.72839
20
-3.62106
11
5.72854
21
-3.62108
0
LINE
8
BLACK
6
CONTINUOUS
10
5.72854
20
-3.62108
11
5.72872
21
-3.62113
0
LINE
8
BLACK
6
CONTINUOUS
10
5.72872
20
-3.62113
11
5.7289
21
-3.62122
0
LINE
8
BLACK
6
CONTINUOUS
10
5.7289
20
-3.62122
11
5.72905
21
-3.62135
0
LINE
8
BLACK
6
CONTINUOUS
10
5.72905
20
-3.62135
11
5.72917
21
-3.6215
0
LINE
8
BLACK
6
CONTINUOUS
10
5.72917
20
-3.6215
11
5.72926
21
-3.62167
0
LINE
8
BLACK
6
CONTINUOUS
10
5.72926
20
-3.62167
11
5.72932
21
-3.62185
0
LINE
8
BLACK
6
CONTINUOUS
10
5.72932
20
-3.62185
11
5.72934
21
-3.62205
0
LINE
8
BLACK
6
CONTINUOUS
10
5.72934
20
-3.62205
11
5.72933
21
-3.6221
0
LINE
8
BLACK
6
CONTINUOUS
10
5.72933
20
-3.6221
11
5.72933
21
-3.90153
0
LINE
8
BLACK
6
CONTINUOUS
10
5.72933
20
-3.90153
11
5.72934
21
-3.90158
0
LINE
8
BLACK
6
CONTINUOUS
10
5.72934
20
-3.90158
11
5.72933
21
-3.90167
0
LINE
8
BLACK
6
CONTINUOUS
10
5.72933
20
-3.90167
11
5.72932
21
-3.90177
0
LINE
8
BLACK
6
CONTINUOUS
10
5.72932
20
-3.90177
11
5.72932
21
-3.90177
0
LINE
8
BLACK
6
CONTINUOUS
10
5.72932
20
-3.90177
11
5.72932
21
-3.90177
0
LINE
8
BLACK
6
CONTINUOUS
10
5.72932
20
-3.90177
11
5.72929
21
-3.90185
0
LINE
8
BLACK
6
CONTINUOUS
10
5.72929
20
-3.90185
11
5.72926
21
-3.90195
0
LINE
8
BLACK
6
CONTINUOUS
10
5.72926
20
-3.90195
11
5.72926
21
-3.90195
0
LINE
8
BLACK
6
CONTINUOUS
10
5.72926
20
-3.90195
11
5.72926
21
-3.90196
0
LINE
8
BLACK
6
CONTINUOUS
10
5.72926
20
-3.90196
11
5.72922
21
-3.90203
0
LINE
8
BLACK
6
CONTINUOUS
10
5.72922
20
-3.90203
11
5.72917
21
-3.90212
0
LINE
8
BLACK
6
CONTINUOUS
10
5.72917
20
-3.90212
11
5.72917
21
-3.90213
0
LINE
8
BLACK
6
CONTINUOUS
10
5.72917
20
-3.90213
11
5.72917
21
-3.90213
0
LINE
8
BLACK
6
CONTINUOUS
10
5.72917
20
-3.90213
11
5.72911
21
-3.90219
0
LINE
8
BLACK
6
CONTINUOUS
10
5.72911
20
-3.90219
11
5.72905
21
-3.90227
0
LINE
8
BLACK
6
CONTINUOUS
10
5.72905
20
-3.90227
11
5.72904
21
-3.90228
0
LINE
8
BLACK
6
CONTINUOUS
10
5.72904
20
-3.90228
11
5.72904
21
-3.90228
0
LINE
8
BLACK
6
CONTINUOUS
10
5.72904
20
-3.90228
11
5.72897
21
-3.90234
0
LINE
8
BLACK
6
CONTINUOUS
10
5.72897
20
-3.90234
11
5.7289
21
-3.9024
0
LINE
8
BLACK
6
CONTINUOUS
10
5.7289
20
-3.9024
11
5.72889
21
-3.9024
0
LINE
8
BLACK
6
CONTINUOUS
10
5.72889
20
-3.9024
11
5.72889
21
-3.9024
0
LINE
8
BLACK
6
CONTINUOUS
10
5.72889
20
-3.9024
11
5.72881
21
-3.90244
0
LINE
8
BLACK
6
CONTINUOUS
10
5.72881
20
-3.90244
11
5.72872
21
-3.90249
0
LINE
8
BLACK
6
CONTINUOUS
10
5.72872
20
-3.90249
11
5.72872
21
-3.90249
0
LINE
8
BLACK
6
CONTINUOUS
10
5.72872
20
-3.90249
11
5.72872
21
-3.90249
0
LINE
8
BLACK
6
CONTINUOUS
10
5.72872
20
-3.90249
11
5.72864
21
-3.90251
0
LINE
8
BLACK
6
CONTINUOUS
10
5.72864
20
-3.90251
11
5.72854
21
-3.90254
0
LINE
8
BLACK
6
CONTINUOUS
10
5.72854
20
-3.90254
11
5.72854
21
-3.90254
0
LINE
8
BLACK
6
CONTINUOUS
10
5.72854
20
-3.90254
11
5.72854
21
-3.90255
0
LINE
8
BLACK
6
CONTINUOUS
10
5.72854
20
-3.90255
11
5.72845
21
-3.90255
0
LINE
8
BLACK
6
CONTINUOUS
10
5.72845
20
-3.90255
11
5.72835
21
-3.90256
0
LINE
8
BLACK
6
CONTINUOUS
10
5.72835
20
-3.90256
11
5.7283
21
-3.90256
0
LINE
8
BLACK
6
CONTINUOUS
10
5.7283
20
-3.90256
11
4.33169
21
-3.89862
0
LINE
8
BLACK
6
CONTINUOUS
10
4.33169
20
-3.89862
11
4.33169
21
-4.64469
0
LINE
8
BLACK
6
CONTINUOUS
10
4.33169
20
-4.64469
11
5.7283
21
-4.64469
0
LINE
8
BLACK
6
CONTINUOUS
10
5.7283
20
-4.64469
11
5.72835
21
-4.64468
0
LINE
8
BLACK
6
CONTINUOUS
10
5.72835
20
-4.64468
11
5.72839
21
-4.64469
0
LINE
8
BLACK
6
CONTINUOUS
10
5.72839
20
-4.64469
11
5.72854
21
-4.6447
0
LINE
8
BLACK
6
CONTINUOUS
10
5.72854
20
-4.6447
11
5.72872
21
-4.64476
0
LINE
8
BLACK
6
CONTINUOUS
10
5.72872
20
-4.64476
11
5.7289
21
-4.64485
0
LINE
8
BLACK
6
CONTINUOUS
10
5.7289
20
-4.64485
11
5.72905
21
-4.64497
0
LINE
8
BLACK
6
CONTINUOUS
10
5.72905
20
-4.64497
11
5.72917
21
-4.64512
0
LINE
8
BLACK
6
CONTINUOUS
10
5.72917
20
-4.64512
11
5.72926
21
-4.64529
0
LINE
8
BLACK
6
CONTINUOUS
10
5.72926
20
-4.64529
11
5.72932
21
-4.64548
0
LINE
8
BLACK
6
CONTINUOUS
10
5.72932
20
-4.64548
11
5.72934
21
-4.64567
0
LINE
8
BLACK
6
CONTINUOUS
10
5.72934
20
-4.64567
11
5.72933
21
-4.64572
0
LINE
8
BLACK
6
CONTINUOUS
10
5.72933
20
-4.64572
11
5.72933
21
-4.96058
0
LINE
8
BLACK
6
CONTINUOUS
10
5.72933
20
-4.96058
11
5.72934
21
-4.96063
0
LINE
8
BLACK
6
CONTINUOUS
10
5.72934
20
-4.96063
11
5.72932
21
-4.96082
0
LINE
8
BLACK
6
CONTINUOUS
10
5.72932
20
-4.96082
11
5.72926
21
-4.96101
0
LINE
8
BLACK
6
CONTINUOUS
10
5.72926
20
-4.96101
11
5.72917
21
-4.96118
0
LINE
8
BLACK
6
CONTINUOUS
10
5.72917
20
-4.96118
11
5.72905
21
-4.96133
0
LINE
8
BLACK
6
CONTINUOUS
10
5.72905
20
-4.96133
11
5.7289
21
-4.96145
0
LINE
8
BLACK
6
CONTINUOUS
10
5.7289
20
-4.96145
11
5.72872
21
-4.96154
0
LINE
8
BLACK
6
CONTINUOUS
10
5.72872
20
-4.96154
11
5.72854
21
-4.9616
0
LINE
8
BLACK
6
CONTINUOUS
10
5.72854
20
-4.9616
11
5.72839
21
-4.96161
0
LINE
8
BLACK
6
CONTINUOUS
10
5.72839
20
-4.96161
11
5.72839
21
-4.96161
0
LINE
8
BLACK
6
CONTINUOUS
10
5.72839
20
-4.96161
11
5.72835
21
-4.96162
0
LINE
8
BLACK
6
CONTINUOUS
10
5.72835
20
-4.96162
11
5.7283
21
-4.96161
0
LINE
8
BLACK
6
CONTINUOUS
10
5.7283
20
-4.96161
11
5.04035
21
-4.96161
0
LINE
8
BLACK
6
CONTINUOUS
10
5.04035
20
-4.96161
11
5.04035
21
-5.13775
0
LINE
8
BLACK
6
CONTINUOUS
10
5.04035
20
-5.13775
11
5.04036
21
-5.1378
0
LINE
8
BLACK
6
CONTINUOUS
10
5.04036
20
-5.1378
11
5.04035
21
-5.13784
0
LINE
8
BLACK
6
CONTINUOUS
10
5.04035
20
-5.13784
11
5.04035
21
-5.13784
0
LINE
8
BLACK
6
CONTINUOUS
10
5.04035
20
-5.13784
11
5.04034
21
-5.13799
0
LINE
8
BLACK
6
CONTINUOUS
10
5.04034
20
-5.13799
11
5.04028
21
-5.13817
0
LINE
8
BLACK
6
CONTINUOUS
10
5.04028
20
-5.13817
11
5.04019
21
-5.13834
0
LINE
8
BLACK
6
CONTINUOUS
10
5.04019
20
-5.13834
11
5.04007
21
-5.13849
0
LINE
8
BLACK
6
CONTINUOUS
10
5.04007
20
-5.13849
11
5.03992
21
-5.13862
0
LINE
8
BLACK
6
CONTINUOUS
10
5.03992
20
-5.13862
11
5.03975
21
-5.13871
0
LINE
8
BLACK
6
CONTINUOUS
10
5.03975
20
-5.13871
11
5.03956
21
-5.13877
0
LINE
8
BLACK
6
CONTINUOUS
10
5.03956
20
-5.13877
11
5.03937
21
-5.13878
0
LINE
8
BLACK
6
CONTINUOUS
10
5.03937
20
-5.13878
11
5.03932
21
-5.13878
0
LINE
8
BLACK
6
CONTINUOUS
10
5.03932
20
-5.13878
11
4.54729
21
-5.13878
0
LINE
8
BLACK
6
CONTINUOUS
10
4.54729
20
-5.13878
11
4.54724
21
-5.13878
0
LINE
8
BLACK
6
CONTINUOUS
10
4.54724
20
-5.13878
11
4.54705
21
-5.13877
0
LINE
8
BLACK
6
CONTINUOUS
10
4.54705
20
-5.13877
11
4.54687
21
-5.13871
0
LINE
8
BLACK
6
CONTINUOUS
10
4.54687
20
-5.13871
11
4.54669
21
-5.13862
0
LINE
8
BLACK
6
CONTINUOUS
10
4.54669
20
-5.13862
11
4.54654
21
-5.13849
0
LINE
8
BLACK
6
CONTINUOUS
10
4.54654
20
-5.13849
11
4.54642
21
-5.13834
0
LINE
8
BLACK
6
CONTINUOUS
10
4.54642
20
-5.13834
11
4.54633
21
-5.13817
0
LINE
8
BLACK
6
CONTINUOUS
10
4.54633
20
-5.13817
11
4.54627
21
-5.13799
0
LINE
8
BLACK
6
CONTINUOUS
10
4.54627
20
-5.13799
11
4.54626
21
-5.1378
0
LINE
8
BLACK
6
CONTINUOUS
10
4.54626
20
-5.1378
11
4.54626
21
-5.13775
0
LINE
8
BLACK
6
CONTINUOUS
10
4.54626
20
-5.13775
11
4.54626
21
-4.96161
0
LINE
8
BLACK
6
CONTINUOUS
10
4.54626
20
-4.96161
11
4.05517
21
-4.96161
0
LINE
8
BLACK
6
CONTINUOUS
10
4.05517
20
-4.96161
11
4.05512
21
-4.96162
0
LINE
8
BLACK
6
CONTINUOUS
10
4.05512
20
-4.96162
11
4.05493
21
-4.9616
0
LINE
8
BLACK
6
CONTINUOUS
10
4.05493
20
-4.9616
11
4.05474
21
-4.96154
0
LINE
8
BLACK
6
CONTINUOUS
10
4.05474
20
-4.96154
11
4.05457
21
-4.96145
0
LINE
8
BLACK
6
CONTINUOUS
10
4.05457
20
-4.96145
11
4.05442
21
-4.96133
0
LINE
8
BLACK
6
CONTINUOUS
10
4.05442
20
-4.96133
11
4.0543
21
-4.96118
0
LINE
8
BLACK
6
CONTINUOUS
10
4.0543
20
-4.96118
11
4.0542
21
-4.96101
0
LINE
8
BLACK
6
CONTINUOUS
10
4.0542
20
-4.96101
11
4.05415
21
-4.96082
0
LINE
8
BLACK
6
CONTINUOUS
10
4.05415
20
-4.96082
11
4.05413
21
-4.96063
0
LINE
8
BLACK
6
CONTINUOUS
10
4.05413
20
-4.96063
11
4.05413
21
-4.96058
0
LINE
8
BLACK
6
CONTINUOUS
10
4.05413
20
-4.96058
11
4.05413
21
-3.6221
0
LINE
8
BLACK
6
CONTINUOUS
10
4.05413
20
-3.6221
11
4.05413
21
-3.62205
0
LINE
8
BLACK
6
CONTINUOUS
10
4.05413
20
-3.62205
11
4.05415
21
-3.62185
0
LINE
8
BLACK
6
CONTINUOUS
10
4.05415
20
-3.62185
11
4.0542
21
-3.62167
0
LINE
8
BLACK
6
CONTINUOUS
10
4.0542
20
-3.62167
11
4.0543
21
-3.6215
0
LINE
8
BLACK
6
CONTINUOUS
10
4.0543
20
-3.6215
11
4.05442
21
-3.62135
0
LINE
8
BLACK
6
CONTINUOUS
10
4.05442
20
-3.62135
11
4.05457
21
-3.62122
0
LINE
8
BLACK
6
CONTINUOUS
10
4.05457
20
-3.62122
11
4.05474
21
-3.62113
0
LINE
8
BLACK
6
CONTINUOUS
10
4.05474
20
-3.62113
11
4.05493
21
-3.62108
0
LINE
8
BLACK
6
CONTINUOUS
10
4.05493
20
-3.62108
11
4.05507
21
-3.62106
0
LINE
8
BLACK
6
CONTINUOUS
10
4.05507
20
-3.62106
11
4.05507
21
-3.62106
0
LINE
8
BLACK
6
CONTINUOUS
10
4.05507
20
-3.62106
11
4.05512
21
-3.62106
0
LINE
8
BLACK
6
CONTINUOUS
10
4.05512
20
-3.62106
11
4.05517
21
-3.62106
0
LINE
8
BLACK
6
CONTINUOUS
10
4.05517
20
-3.62106
11
5.7283
21
-3.62106
0
LINE
8
BLACK
6
CONTINUOUS
10
5.7283
20
-3.62106
11
5.72835
21
-3.62106
0
LINE
8
BLACK
6
CONTINUOUS
10
5.72835
20
-3.62106
11
5.72839
21
-3.62106
0
LINE
8
BLACK
6
CONTINUOUS
10
4.0561
20
-3.62303
11
4.0561
21
-4.95965
0
LINE
8
BLACK
6
CONTINUOUS
10
4.0561
20
-4.95965
11
4.5472
21
-4.95965
0
LINE
8
BLACK
6
CONTINUOUS
10
4.5472
20
-4.95965
11
4.54724
21
-4.95964
0
LINE
8
BLACK
6
CONTINUOUS
10
4.54724
20
-4.95964
11
4.54729
21
-4.95965
0
LINE
8
BLACK
6
CONTINUOUS
10
4.54729
20
-4.95965
11
4.54744
21
-4.95966
0
LINE
8
BLACK
6
CONTINUOUS
10
4.54744
20
-4.95966
11
4.54762
21
-4.95972
0
LINE
8
BLACK
6
CONTINUOUS
10
4.54762
20
-4.95972
11
4.54779
21
-4.95981
0
LINE
8
BLACK
6
CONTINUOUS
10
4.54779
20
-4.95981
11
4.54794
21
-4.95993
0
LINE
8
BLACK
6
CONTINUOUS
10
4.54794
20
-4.95993
11
4.54807
21
-4.96008
0
LINE
8
BLACK
6
CONTINUOUS
10
4.54807
20
-4.96008
11
4.54816
21
-4.96025
0
LINE
8
BLACK
6
CONTINUOUS
10
4.54816
20
-4.96025
11
4.54821
21
-4.96044
0
LINE
8
BLACK
6
CONTINUOUS
10
4.54821
20
-4.96044
11
4.54823
21
-4.96063
0
LINE
8
BLACK
6
CONTINUOUS
10
4.54823
20
-4.96063
11
4.54823
21
-4.96068
0
LINE
8
BLACK
6
CONTINUOUS
10
4.54823
20
-4.96068
11
4.54823
21
-5.13681
0
LINE
8
BLACK
6
CONTINUOUS
10
4.54823
20
-5.13681
11
5.03839
21
-5.13681
0
LINE
8
BLACK
6
CONTINUOUS
10
5.03839
20
-5.13681
11
5.03839
21
-4.96068
0
LINE
8
BLACK
6
CONTINUOUS
10
5.03839
20
-4.96068
11
5.03838
21
-4.96063
0
LINE
8
BLACK
6
CONTINUOUS
10
5.03838
20
-4.96063
11
5.0384
21
-4.96044
0
LINE
8
BLACK
6
CONTINUOUS
10
5.0384
20
-4.96044
11
5.03846
21
-4.96025
0
LINE
8
BLACK
6
CONTINUOUS
10
5.03846
20
-4.96025
11
5.03855
21
-4.96008
0
LINE
8
BLACK
6
CONTINUOUS
10
5.03855
20
-4.96008
11
5.03867
21
-4.95993
0
LINE
8
BLACK
6
CONTINUOUS
10
5.03867
20
-4.95993
11
5.03882
21
-4.95981
0
LINE
8
BLACK
6
CONTINUOUS
10
5.03882
20
-4.95981
11
5.03899
21
-4.95972
0
LINE
8
BLACK
6
CONTINUOUS
10
5.03899
20
-4.95972
11
5.03918
21
-4.95966
0
LINE
8
BLACK
6
CONTINUOUS
10
5.03918
20
-4.95966
11
5.03932
21
-4.95965
0
LINE
8
BLACK
6
CONTINUOUS
10
5.03932
20
-4.95965
11
5.03937
21
-4.95964
0
LINE
8
BLACK
6
CONTINUOUS
10
5.03937
20
-4.95964
11
5.03942
21
-4.95965
0
LINE
8
BLACK
6
CONTINUOUS
10
5.03942
20
-4.95965
11
5.72736
21
-4.95965
0
LINE
8
BLACK
6
CONTINUOUS
10
5.72736
20
-4.95965
11
5.72736
21
-4.64665
0
LINE
8
BLACK
6
CONTINUOUS
10
5.72736
20
-4.64665
11
4.33076
21
-4.64665
0
LINE
8
BLACK
6
CONTINUOUS
10
4.33076
20
-4.64665
11
4.33071
21
-4.64666
0
LINE
8
BLACK
6
CONTINUOUS
10
4.33071
20
-4.64666
11
4.33052
21
-4.64664
0
LINE
8
BLACK
6
CONTINUOUS
10
4.33052
20
-4.64664
11
4.33033
21
-4.64658
0
LINE
8
BLACK
6
CONTINUOUS
10
4.33033
20
-4.64658
11
4.33016
21
-4.64649
0
LINE
8
BLACK
6
CONTINUOUS
10
4.33016
20
-4.64649
11
4.33001
21
-4.64637
0
LINE
8
BLACK
6
CONTINUOUS
10
4.33001
20
-4.64637
11
4.32989
21
-4.64622
0
LINE
8
BLACK
6
CONTINUOUS
10
4.32989
20
-4.64622
11
4.32979
21
-4.64605
0
LINE
8
BLACK
6
CONTINUOUS
10
4.32979
20
-4.64605
11
4.32974
21
-4.64586
0
LINE
8
BLACK
6
CONTINUOUS
10
4.32974
20
-4.64586
11
4.32972
21
-4.64567
0
LINE
8
BLACK
6
CONTINUOUS
10
4.32972
20
-4.64567
11
4.32972
21
-4.64562
0
LINE
8
BLACK
6
CONTINUOUS
10
4.32972
20
-4.64562
11
4.32972
21
-3.89768
0
LINE
8
BLACK
6
CONTINUOUS
10
4.32972
20
-3.89768
11
4.32972
21
-3.89764
0
LINE
8
BLACK
6
CONTINUOUS
10
4.32972
20
-3.89764
11
4.32973
21
-3.89753
0
LINE
8
BLACK
6
CONTINUOUS
10
4.32973
20
-3.89753
11
4.32974
21
-3.89744
0
LINE
8
BLACK
6
CONTINUOUS
10
4.32974
20
-3.89744
11
4.32974
21
-3.89744
0
LINE
8
BLACK
6
CONTINUOUS
10
4.32974
20
-3.89744
11
4.32974
21
-3.89744
0
LINE
8
BLACK
6
CONTINUOUS
10
4.32974
20
-3.89744
11
4.32977
21
-3.89735
0
LINE
8
BLACK
6
CONTINUOUS
10
4.32977
20
-3.89735
11
4.32979
21
-3.89726
0
LINE
8
BLACK
6
CONTINUOUS
10
4.32979
20
-3.89726
11
4.3298
21
-3.89726
0
LINE
8
BLACK
6
CONTINUOUS
10
4.3298
20
-3.89726
11
4.3298
21
-3.89726
0
LINE
8
BLACK
6
CONTINUOUS
10
4.3298
20
-3.89726
11
4.32984
21
-3.89717
0
LINE
8
BLACK
6
CONTINUOUS
10
4.32984
20
-3.89717
11
4.32989
21
-3.89709
0
LINE
8
BLACK
6
CONTINUOUS
10
4.32989
20
-3.89709
11
4.32989
21
-3.89709
0
LINE
8
BLACK
6
CONTINUOUS
10
4.32989
20
-3.89709
11
4.32989
21
-3.89709
0
LINE
8
BLACK
6
CONTINUOUS
10
4.32989
20
-3.89709
11
4.32995
21
-3.89702
0
LINE
8
BLACK
6
CONTINUOUS
10
4.32995
20
-3.89702
11
4.33001
21
-3.89694
0
LINE
8
BLACK
6
CONTINUOUS
10
4.33001
20
-3.89694
11
4.33001
21
-3.89694
0
LINE
8
BLACK
6
CONTINUOUS
10
4.33001
20
-3.89694
11
4.33001
21
-3.89694
0
LINE
8
BLACK
6
CONTINUOUS
10
4.33001
20
-3.89694
11
4.33008
21
-3.89688
0
LINE
8
BLACK
6
CONTINUOUS
10
4.33008
20
-3.89688
11
4.33016
21
-3.89682
0
LINE
8
BLACK
6
CONTINUOUS
10
4.33016
20
-3.89682
11
4.33016
21
-3.89681
0
LINE
8
BLACK
6
CONTINUOUS
10
4.33016
20
-3.89681
11
4.33016
21
-3.89681
0
LINE
8
BLACK
6
CONTINUOUS
10
4.33016
20
-3.89681
11
4.33024
21
-3.89677
0
LINE
8
BLACK
6
CONTINUOUS
10
4.33024
20
-3.89677
11
4.33033
21
-3.89672
0
LINE
8
BLACK
6
CONTINUOUS
10
4.33033
20
-3.89672
11
4.33033
21
-3.89672
0
LINE
8
BLACK
6
CONTINUOUS
10
4.33033
20
-3.89672
11
4.33033
21
-3.89672
0
LINE
8
BLACK
6
CONTINUOUS
10
4.33033
20
-3.89672
11
4.33041
21
-3.8967
0
LINE
8
BLACK
6
CONTINUOUS
10
4.33041
20
-3.8967
11
4.33052
21
-3.89667
0
LINE
8
BLACK
6
CONTINUOUS
10
4.33052
20
-3.89667
11
4.33052
21
-3.89667
0
LINE
8
BLACK
6
CONTINUOUS
10
4.33052
20
-3.89667
11
4.33052
21
-3.89667
0
LINE
8
BLACK
6
CONTINUOUS
10
4.33052
20
-3.89667
11
4.33061
21
-3.89666
0
LINE
8
BLACK
6
CONTINUOUS
10
4.33061
20
-3.89666
11
4.33071
21
-3.89665
0
LINE
8
BLACK
6
CONTINUOUS
10
4.33071
20
-3.89665
11
4.33076
21
-3.89665
0
LINE
8
BLACK
6
CONTINUOUS
10
4.33076
20
-3.89665
11
5.72736
21
-3.90059
0
LINE
8
BLACK
6
CONTINUOUS
10
5.72736
20
-3.90059
11
5.72736
21
-3.62303
0
LINE
8
BLACK
6
CONTINUOUS
10
5.72736
20
-3.62303
11
4.0561
21
-3.62303
  0
ENDSEC
  0
EOF
