  0
SECTION
  2
HEADER
  9
$ANGBASE
  50
0.0
  9
$ANGDIR
  70
1
  9
$MEASUREMENT
  70
0
  0
ENDSEC
  0
SECTION
  2
TABLES
  0
TABLE
  2
LTYPE
  70
4
  0
LTYPE
  5
40F
  2
CONTINUOUS
  70
0
  3
Solid line
  72
65
  73
0
  40
0.0
  0
LTYPE
  5
410
  2
DASHDOT
 70
0
  3
Dash Dot ____ _ ____ _
 72
65
 73
4
 40
2.0
 49
1.25
 49
-0.25
 49
0.25
 49
-0.25
  0
LTYPE
  5
411
  2
DASHED
 70
0
  3
Dashed __ __ __ __ __
 72
65
 73
2
 40
0.75
 49
0.5
 49
-0.25
  0
LTYPE
  5
43B
  2
DOTTED
 70
0
  3
Dotted .  .  .  .
 72
65
 73
2
 40
0.2
 49
0.0
 49
-0.2
  0
ENDTAB
  0
TABLE
  2
STYLE
  70
4
  0
STYLE
  2
KICAD
  70
0
  40
0
  41
1
  42
1
  50
0
  71
0
  3
isocp.shx
  0
STYLE
  2
KICADB
  70
0
  40
0
  41
1
  42
1
  50
0
  71
0
  3
isocp.shx
  0
STYLE
  2
KICADI
  70
0
  40
0
  41
1
  42
1
  50
15
  71
0
  3
isocp.shx
  0
STYLE
  2
KICADBI
  70
0
  40
0
  41
1
  42
1
  50
15
  71
0
  3
isocp.shx
  0
ENDTAB
  0
TABLE
  2
LAYER
  70
1
  0
LAYER
  2
BLACK
  70
0
  62
7
  6
CONTINUOUS
  0
ENDTAB
  0
ENDSEC
  0
SECTION
  2
ENTITIES
0
LINE
8
BLACK
6
CONTINUOUS
10
2.25591
20
-5.16142
11
2.24409
21
-5.16142
0
LINE
8
BLACK
6
CONTINUOUS
10
2.24409
20
-5.16142
11
2.24409
21
-5.12717
0
LINE
8
BLACK
6
CONTINUOUS
10
2.24409
20
-5.12717
11
2.25591
21
-5.12717
0
LINE
8
BLACK
6
CONTINUOUS
10
2.25591
20
-5.12717
11
2.25591
21
-5.16142
0
LINE
8
BLACK
6
CONTINUOUS
10
2.47244
20
-5.16142
11
2.46063
21
-5.16142
0
LINE
8
BLACK
6
CONTINUOUS
10
2.46063
20
-5.16142
11
2.46063
21
-5.12717
0
LINE
8
BLACK
6
CONTINUOUS
10
2.46063
20
-5.12717
11
2.47244
21
-5.12717
0
LINE
8
BLACK
6
CONTINUOUS
10
2.47244
20
-5.12717
11
2.47244
21
-5.16142
0
LINE
8
BLACK
6
CONTINUOUS
10
2.35433
20
-5.16142
11
2.34252
21
-5.16142
0
LINE
8
BLACK
6
CONTINUOUS
10
2.34252
20
-5.16142
11
2.34252
21
-5.12717
0
LINE
8
BLACK
6
CONTINUOUS
10
2.34252
20
-5.12717
11
2.35433
21
-5.12717
0
LINE
8
BLACK
6
CONTINUOUS
10
2.35433
20
-5.12717
11
2.35433
21
-5.16142
0
LINE
8
BLACK
6
CONTINUOUS
10
2.37402
20
-5.16142
11
2.3622
21
-5.16142
0
LINE
8
BLACK
6
CONTINUOUS
10
2.3622
20
-5.16142
11
2.3622
21
-5.12717
0
LINE
8
BLACK
6
CONTINUOUS
10
2.3622
20
-5.12717
11
2.37402
21
-5.12717
0
LINE
8
BLACK
6
CONTINUOUS
10
2.37402
20
-5.12717
11
2.37402
21
-5.16142
0
LINE
8
BLACK
6
CONTINUOUS
10
2.33465
20
-5.16142
11
2.32283
21
-5.16142
0
LINE
8
BLACK
6
CONTINUOUS
10
2.32283
20
-5.16142
11
2.32283
21
-5.12717
0
LINE
8
BLACK
6
CONTINUOUS
10
2.32283
20
-5.12717
11
2.33465
21
-5.12717
0
LINE
8
BLACK
6
CONTINUOUS
10
2.33465
20
-5.12717
11
2.33465
21
-5.16142
0
LINE
8
BLACK
6
CONTINUOUS
10
2.31496
20
-5.16142
11
2.30315
21
-5.16142
0
LINE
8
BLACK
6
CONTINUOUS
10
2.30315
20
-5.16142
11
2.30315
21
-5.12717
0
LINE
8
BLACK
6
CONTINUOUS
10
2.30315
20
-5.12717
11
2.31496
21
-5.12717
0
LINE
8
BLACK
6
CONTINUOUS
10
2.31496
20
-5.12717
11
2.31496
21
-5.16142
0
LINE
8
BLACK
6
CONTINUOUS
10
2.3937
20
-5.16142
11
2.38189
21
-5.16142
0
LINE
8
BLACK
6
CONTINUOUS
10
2.38189
20
-5.16142
11
2.38189
21
-5.12717
0
LINE
8
BLACK
6
CONTINUOUS
10
2.38189
20
-5.12717
11
2.3937
21
-5.12717
0
LINE
8
BLACK
6
CONTINUOUS
10
2.3937
20
-5.12717
11
2.3937
21
-5.16142
0
LINE
8
BLACK
6
CONTINUOUS
10
2.41339
20
-5.16142
11
2.40157
21
-5.16142
0
LINE
8
BLACK
6
CONTINUOUS
10
2.40157
20
-5.16142
11
2.40157
21
-5.12717
0
LINE
8
BLACK
6
CONTINUOUS
10
2.40157
20
-5.12717
11
2.41339
21
-5.12717
0
LINE
8
BLACK
6
CONTINUOUS
10
2.41339
20
-5.12717
11
2.41339
21
-5.16142
0
LINE
8
BLACK
6
CONTINUOUS
10
2.35433
20
-5.09331
11
2.34252
21
-5.09331
0
LINE
8
BLACK
6
CONTINUOUS
10
2.34252
20
-5.09331
11
2.34252
21
-5.05906
0
LINE
8
BLACK
6
CONTINUOUS
10
2.34252
20
-5.05906
11
2.35433
21
-5.05906
0
LINE
8
BLACK
6
CONTINUOUS
10
2.35433
20
-5.05906
11
2.35433
21
-5.09331
0
LINE
8
BLACK
6
CONTINUOUS
10
2.37402
20
-5.09331
11
2.3622
21
-5.09331
0
LINE
8
BLACK
6
CONTINUOUS
10
2.3622
20
-5.09331
11
2.3622
21
-5.05906
0
LINE
8
BLACK
6
CONTINUOUS
10
2.3622
20
-5.05906
11
2.37402
21
-5.05906
0
LINE
8
BLACK
6
CONTINUOUS
10
2.37402
20
-5.05906
11
2.37402
21
-5.09331
0
LINE
8
BLACK
6
CONTINUOUS
10
2.33465
20
-5.09331
11
2.32283
21
-5.09331
0
LINE
8
BLACK
6
CONTINUOUS
10
2.32283
20
-5.09331
11
2.32283
21
-5.05906
0
LINE
8
BLACK
6
CONTINUOUS
10
2.32283
20
-5.05906
11
2.33465
21
-5.05906
0
LINE
8
BLACK
6
CONTINUOUS
10
2.33465
20
-5.05906
11
2.33465
21
-5.09331
0
LINE
8
BLACK
6
CONTINUOUS
10
2.31496
20
-5.09331
11
2.30315
21
-5.09331
0
LINE
8
BLACK
6
CONTINUOUS
10
2.30315
20
-5.09331
11
2.30315
21
-5.05906
0
LINE
8
BLACK
6
CONTINUOUS
10
2.30315
20
-5.05906
11
2.31496
21
-5.05906
0
LINE
8
BLACK
6
CONTINUOUS
10
2.31496
20
-5.05906
11
2.31496
21
-5.09331
0
LINE
8
BLACK
6
CONTINUOUS
10
2.3937
20
-5.09331
11
2.38189
21
-5.09331
0
LINE
8
BLACK
6
CONTINUOUS
10
2.38189
20
-5.09331
11
2.38189
21
-5.05906
0
LINE
8
BLACK
6
CONTINUOUS
10
2.38189
20
-5.05906
11
2.3937
21
-5.05906
0
LINE
8
BLACK
6
CONTINUOUS
10
2.3937
20
-5.05906
11
2.3937
21
-5.09331
0
LINE
8
BLACK
6
CONTINUOUS
10
2.41339
20
-5.09331
11
2.40157
21
-5.09331
0
LINE
8
BLACK
6
CONTINUOUS
10
2.40157
20
-5.09331
11
2.40157
21
-5.05906
0
LINE
8
BLACK
6
CONTINUOUS
10
2.40157
20
-5.05906
11
2.41339
21
-5.05906
0
LINE
8
BLACK
6
CONTINUOUS
10
2.41339
20
-5.05906
11
2.41339
21
-5.09331
0
LINE
8
BLACK
6
CONTINUOUS
10
2.47244
20
-5.09331
11
2.46063
21
-5.09331
0
LINE
8
BLACK
6
CONTINUOUS
10
2.46063
20
-5.09331
11
2.46063
21
-5.05906
0
LINE
8
BLACK
6
CONTINUOUS
10
2.46063
20
-5.05906
11
2.47244
21
-5.05906
0
LINE
8
BLACK
6
CONTINUOUS
10
2.47244
20
-5.05906
11
2.47244
21
-5.09331
0
LINE
8
BLACK
6
CONTINUOUS
10
2.25591
20
-5.09331
11
2.24409
21
-5.09331
0
LINE
8
BLACK
6
CONTINUOUS
10
2.24409
20
-5.09331
11
2.24409
21
-5.05906
0
LINE
8
BLACK
6
CONTINUOUS
10
2.24409
20
-5.05906
11
2.25591
21
-5.05906
0
LINE
8
BLACK
6
CONTINUOUS
10
2.25591
20
-5.05906
11
2.25591
21
-5.09331
0
LINE
8
BLACK
6
CONTINUOUS
10
2.85428
20
-3.13011
11
2.85613
21
-3.13067
0
LINE
8
BLACK
6
CONTINUOUS
10
2.85613
20
-3.13067
11
2.85783
21
-3.13158
0
LINE
8
BLACK
6
CONTINUOUS
10
2.85783
20
-3.13158
11
2.85932
21
-3.1328
0
LINE
8
BLACK
6
CONTINUOUS
10
2.85932
20
-3.1328
11
2.86055
21
-3.1343
0
LINE
8
BLACK
6
CONTINUOUS
10
2.86055
20
-3.1343
11
2.86146
21
-3.136
0
LINE
8
BLACK
6
CONTINUOUS
10
2.86146
20
-3.136
11
2.86202
21
-3.13784
0
LINE
8
BLACK
6
CONTINUOUS
10
2.86202
20
-3.13784
11
2.8622
21
-3.13976
0
LINE
8
BLACK
6
CONTINUOUS
10
2.8622
20
-3.13976
11
2.8622
21
-3.23819
0
LINE
8
BLACK
6
CONTINUOUS
10
2.8622
20
-3.23819
11
2.86202
21
-3.24011
0
LINE
8
BLACK
6
CONTINUOUS
10
2.86202
20
-3.24011
11
2.86146
21
-3.24196
0
LINE
8
BLACK
6
CONTINUOUS
10
2.86146
20
-3.24196
11
2.86055
21
-3.24366
0
LINE
8
BLACK
6
CONTINUOUS
10
2.86055
20
-3.24366
11
2.85932
21
-3.24515
0
LINE
8
BLACK
6
CONTINUOUS
10
2.85932
20
-3.24515
11
2.85783
21
-3.24637
0
LINE
8
BLACK
6
CONTINUOUS
10
2.85783
20
-3.24637
11
2.85613
21
-3.24728
0
LINE
8
BLACK
6
CONTINUOUS
10
2.85613
20
-3.24728
11
2.85428
21
-3.24784
0
LINE
8
BLACK
6
CONTINUOUS
10
2.85428
20
-3.24784
11
2.85236
21
-3.24803
0
LINE
8
BLACK
6
CONTINUOUS
10
2.85236
20
-3.24803
11
2.78937
21
-3.24803
0
LINE
8
BLACK
6
CONTINUOUS
10
2.78937
20
-3.24803
11
2.78745
21
-3.24784
0
LINE
8
BLACK
6
CONTINUOUS
10
2.78745
20
-3.24784
11
2.7856
21
-3.24728
0
LINE
8
BLACK
6
CONTINUOUS
10
2.7856
20
-3.24728
11
2.7839
21
-3.24637
0
LINE
8
BLACK
6
CONTINUOUS
10
2.7839
20
-3.24637
11
2.78241
21
-3.24515
0
LINE
8
BLACK
6
CONTINUOUS
10
2.78241
20
-3.24515
11
2.78119
21
-3.24366
0
LINE
8
BLACK
6
CONTINUOUS
10
2.78119
20
-3.24366
11
2.78028
21
-3.24196
0
LINE
8
BLACK
6
CONTINUOUS
10
2.78028
20
-3.24196
11
2.77972
21
-3.24011
0
LINE
8
BLACK
6
CONTINUOUS
10
2.77972
20
-3.24011
11
2.77953
21
-3.23819
0
LINE
8
BLACK
6
CONTINUOUS
10
2.77953
20
-3.23819
11
2.77953
21
-3.13976
0
LINE
8
BLACK
6
CONTINUOUS
10
2.77953
20
-3.13976
11
2.77972
21
-3.13784
0
LINE
8
BLACK
6
CONTINUOUS
10
2.77972
20
-3.13784
11
2.78028
21
-3.136
0
LINE
8
BLACK
6
CONTINUOUS
10
2.78028
20
-3.136
11
2.78119
21
-3.1343
0
LINE
8
BLACK
6
CONTINUOUS
10
2.78119
20
-3.1343
11
2.78241
21
-3.1328
0
LINE
8
BLACK
6
CONTINUOUS
10
2.78241
20
-3.1328
11
2.7839
21
-3.13158
0
LINE
8
BLACK
6
CONTINUOUS
10
2.7839
20
-3.13158
11
2.7856
21
-3.13067
0
LINE
8
BLACK
6
CONTINUOUS
10
2.7856
20
-3.13067
11
2.78745
21
-3.13011
0
LINE
8
BLACK
6
CONTINUOUS
10
2.78745
20
-3.13011
11
2.78937
21
-3.12992
0
LINE
8
BLACK
6
CONTINUOUS
10
2.78937
20
-3.12992
11
2.85236
21
-3.12992
0
LINE
8
BLACK
6
CONTINUOUS
10
2.85236
20
-3.12992
11
2.85428
21
-3.13011
0
LINE
8
BLACK
6
CONTINUOUS
10
3.20271
20
-3.13011
11
3.20455
21
-3.13067
0
LINE
8
BLACK
6
CONTINUOUS
10
3.20455
20
-3.13067
11
3.20626
21
-3.13158
0
LINE
8
BLACK
6
CONTINUOUS
10
3.20626
20
-3.13158
11
3.20775
21
-3.1328
0
LINE
8
BLACK
6
CONTINUOUS
10
3.20775
20
-3.1328
11
3.20897
21
-3.1343
0
LINE
8
BLACK
6
CONTINUOUS
10
3.20897
20
-3.1343
11
3.20988
21
-3.136
0
LINE
8
BLACK
6
CONTINUOUS
10
3.20988
20
-3.136
11
3.21044
21
-3.13784
0
LINE
8
BLACK
6
CONTINUOUS
10
3.21044
20
-3.13784
11
3.21063
21
-3.13976
0
LINE
8
BLACK
6
CONTINUOUS
10
3.21063
20
-3.13976
11
3.21063
21
-3.23819
0
LINE
8
BLACK
6
CONTINUOUS
10
3.21063
20
-3.23819
11
3.21044
21
-3.24011
0
LINE
8
BLACK
6
CONTINUOUS
10
3.21044
20
-3.24011
11
3.20988
21
-3.24196
0
LINE
8
BLACK
6
CONTINUOUS
10
3.20988
20
-3.24196
11
3.20897
21
-3.24366
0
LINE
8
BLACK
6
CONTINUOUS
10
3.20897
20
-3.24366
11
3.20775
21
-3.24515
0
LINE
8
BLACK
6
CONTINUOUS
10
3.20775
20
-3.24515
11
3.20626
21
-3.24637
0
LINE
8
BLACK
6
CONTINUOUS
10
3.20626
20
-3.24637
11
3.20455
21
-3.24728
0
LINE
8
BLACK
6
CONTINUOUS
10
3.20455
20
-3.24728
11
3.20271
21
-3.24784
0
LINE
8
BLACK
6
CONTINUOUS
10
3.20271
20
-3.24784
11
3.20079
21
-3.24803
0
LINE
8
BLACK
6
CONTINUOUS
10
3.20079
20
-3.24803
11
3.1378
21
-3.24803
0
LINE
8
BLACK
6
CONTINUOUS
10
3.1378
20
-3.24803
11
3.13588
21
-3.24784
0
LINE
8
BLACK
6
CONTINUOUS
10
3.13588
20
-3.24784
11
3.13403
21
-3.24728
0
LINE
8
BLACK
6
CONTINUOUS
10
3.13403
20
-3.24728
11
3.13233
21
-3.24637
0
LINE
8
BLACK
6
CONTINUOUS
10
3.13233
20
-3.24637
11
3.13084
21
-3.24515
0
LINE
8
BLACK
6
CONTINUOUS
10
3.13084
20
-3.24515
11
3.12961
21
-3.24366
0
LINE
8
BLACK
6
CONTINUOUS
10
3.12961
20
-3.24366
11
3.1287
21
-3.24196
0
LINE
8
BLACK
6
CONTINUOUS
10
3.1287
20
-3.24196
11
3.12814
21
-3.24011
0
LINE
8
BLACK
6
CONTINUOUS
10
3.12814
20
-3.24011
11
3.12795
21
-3.23819
0
LINE
8
BLACK
6
CONTINUOUS
10
3.12795
20
-3.23819
11
3.12795
21
-3.13976
0
LINE
8
BLACK
6
CONTINUOUS
10
3.12795
20
-3.13976
11
3.12814
21
-3.13784
0
LINE
8
BLACK
6
CONTINUOUS
10
3.12814
20
-3.13784
11
3.1287
21
-3.136
0
LINE
8
BLACK
6
CONTINUOUS
10
3.1287
20
-3.136
11
3.12961
21
-3.1343
0
LINE
8
BLACK
6
CONTINUOUS
10
3.12961
20
-3.1343
11
3.13084
21
-3.1328
0
LINE
8
BLACK
6
CONTINUOUS
10
3.13084
20
-3.1328
11
3.13233
21
-3.13158
0
LINE
8
BLACK
6
CONTINUOUS
10
3.13233
20
-3.13158
11
3.13403
21
-3.13067
0
LINE
8
BLACK
6
CONTINUOUS
10
3.13403
20
-3.13067
11
3.13588
21
-3.13011
0
LINE
8
BLACK
6
CONTINUOUS
10
3.13588
20
-3.13011
11
3.1378
21
-3.12992
0
LINE
8
BLACK
6
CONTINUOUS
10
3.1378
20
-3.12992
11
3.20079
21
-3.12992
0
LINE
8
BLACK
6
CONTINUOUS
10
3.20079
20
-3.12992
11
3.20271
21
-3.13011
0
LINE
8
BLACK
6
CONTINUOUS
10
1.96107
20
-3.12224
11
1.96292
21
-3.1228
0
LINE
8
BLACK
6
CONTINUOUS
10
1.96292
20
-3.1228
11
1.96462
21
-3.12371
0
LINE
8
BLACK
6
CONTINUOUS
10
1.96462
20
-3.12371
11
1.96611
21
-3.12493
0
LINE
8
BLACK
6
CONTINUOUS
10
1.96611
20
-3.12493
11
1.96734
21
-3.12642
0
LINE
8
BLACK
6
CONTINUOUS
10
1.96734
20
-3.12642
11
1.96825
21
-3.12812
0
LINE
8
BLACK
6
CONTINUOUS
10
1.96825
20
-3.12812
11
1.96881
21
-3.12997
0
LINE
8
BLACK
6
CONTINUOUS
10
1.96881
20
-3.12997
11
1.969
21
-3.13189
0
LINE
8
BLACK
6
CONTINUOUS
10
1.969
20
-3.13189
11
1.969
21
-3.16732
0
LINE
8
BLACK
6
CONTINUOUS
10
1.969
20
-3.16732
11
1.96881
21
-3.16924
0
LINE
8
BLACK
6
CONTINUOUS
10
1.96881
20
-3.16924
11
1.96825
21
-3.17109
0
LINE
8
BLACK
6
CONTINUOUS
10
1.96825
20
-3.17109
11
1.96734
21
-3.17279
0
LINE
8
BLACK
6
CONTINUOUS
10
1.96734
20
-3.17279
11
1.96611
21
-3.17428
0
LINE
8
BLACK
6
CONTINUOUS
10
1.96611
20
-3.17428
11
1.96462
21
-3.17551
0
LINE
8
BLACK
6
CONTINUOUS
10
1.96462
20
-3.17551
11
1.96292
21
-3.17642
0
LINE
8
BLACK
6
CONTINUOUS
10
1.96292
20
-3.17642
11
1.96107
21
-3.17698
0
LINE
8
BLACK
6
CONTINUOUS
10
1.96107
20
-3.17698
11
1.95915
21
-3.17717
0
LINE
8
BLACK
6
CONTINUOUS
10
1.95915
20
-3.17717
11
1.93848
21
-3.17717
0
LINE
8
BLACK
6
CONTINUOUS
10
1.93848
20
-3.17717
11
1.93656
21
-3.17698
0
LINE
8
BLACK
6
CONTINUOUS
10
1.93656
20
-3.17698
11
1.93472
21
-3.17642
0
LINE
8
BLACK
6
CONTINUOUS
10
1.93472
20
-3.17642
11
1.93302
21
-3.17551
0
LINE
8
BLACK
6
CONTINUOUS
10
1.93302
20
-3.17551
11
1.93152
21
-3.17428
0
LINE
8
BLACK
6
CONTINUOUS
10
1.93152
20
-3.17428
11
1.9303
21
-3.17279
0
LINE
8
BLACK
6
CONTINUOUS
10
1.9303
20
-3.17279
11
1.92939
21
-3.17109
0
LINE
8
BLACK
6
CONTINUOUS
10
1.92939
20
-3.17109
11
1.92883
21
-3.16924
0
LINE
8
BLACK
6
CONTINUOUS
10
1.92883
20
-3.16924
11
1.92864
21
-3.16732
0
LINE
8
BLACK
6
CONTINUOUS
10
1.92864
20
-3.16732
11
1.92864
21
-3.13189
0
LINE
8
BLACK
6
CONTINUOUS
10
1.92864
20
-3.13189
11
1.92883
21
-3.12997
0
LINE
8
BLACK
6
CONTINUOUS
10
1.92883
20
-3.12997
11
1.92939
21
-3.12812
0
LINE
8
BLACK
6
CONTINUOUS
10
1.92939
20
-3.12812
11
1.9303
21
-3.12642
0
LINE
8
BLACK
6
CONTINUOUS
10
1.9303
20
-3.12642
11
1.93152
21
-3.12493
0
LINE
8
BLACK
6
CONTINUOUS
10
1.93152
20
-3.12493
11
1.93302
21
-3.12371
0
LINE
8
BLACK
6
CONTINUOUS
10
1.93302
20
-3.12371
11
1.93472
21
-3.1228
0
LINE
8
BLACK
6
CONTINUOUS
10
1.93472
20
-3.1228
11
1.93656
21
-3.12224
0
LINE
8
BLACK
6
CONTINUOUS
10
1.93656
20
-3.12224
11
1.93848
21
-3.12205
0
LINE
8
BLACK
6
CONTINUOUS
10
1.93848
20
-3.12205
11
1.95915
21
-3.12205
0
LINE
8
BLACK
6
CONTINUOUS
10
1.95915
20
-3.12205
11
1.96107
21
-3.12224
0
LINE
8
BLACK
6
CONTINUOUS
10
1.88922
20
-3.12224
11
1.89107
21
-3.1228
0
LINE
8
BLACK
6
CONTINUOUS
10
1.89107
20
-3.1228
11
1.89277
21
-3.12371
0
LINE
8
BLACK
6
CONTINUOUS
10
1.89277
20
-3.12371
11
1.89426
21
-3.12493
0
LINE
8
BLACK
6
CONTINUOUS
10
1.89426
20
-3.12493
11
1.89549
21
-3.12642
0
LINE
8
BLACK
6
CONTINUOUS
10
1.89549
20
-3.12642
11
1.8964
21
-3.12812
0
LINE
8
BLACK
6
CONTINUOUS
10
1.8964
20
-3.12812
11
1.89696
21
-3.12997
0
LINE
8
BLACK
6
CONTINUOUS
10
1.89696
20
-3.12997
11
1.89715
21
-3.13189
0
LINE
8
BLACK
6
CONTINUOUS
10
1.89715
20
-3.13189
11
1.89715
21
-3.16732
0
LINE
8
BLACK
6
CONTINUOUS
10
1.89715
20
-3.16732
11
1.89696
21
-3.16924
0
LINE
8
BLACK
6
CONTINUOUS
10
1.89696
20
-3.16924
11
1.8964
21
-3.17109
0
LINE
8
BLACK
6
CONTINUOUS
10
1.8964
20
-3.17109
11
1.89549
21
-3.17279
0
LINE
8
BLACK
6
CONTINUOUS
10
1.89549
20
-3.17279
11
1.89426
21
-3.17428
0
LINE
8
BLACK
6
CONTINUOUS
10
1.89426
20
-3.17428
11
1.89277
21
-3.17551
0
LINE
8
BLACK
6
CONTINUOUS
10
1.89277
20
-3.17551
11
1.89107
21
-3.17642
0
LINE
8
BLACK
6
CONTINUOUS
10
1.89107
20
-3.17642
11
1.88922
21
-3.17698
0
LINE
8
BLACK
6
CONTINUOUS
10
1.88922
20
-3.17698
11
1.8873
21
-3.17717
0
LINE
8
BLACK
6
CONTINUOUS
10
1.8873
20
-3.17717
11
1.86663
21
-3.17717
0
LINE
8
BLACK
6
CONTINUOUS
10
1.86663
20
-3.17717
11
1.86471
21
-3.17698
0
LINE
8
BLACK
6
CONTINUOUS
10
1.86471
20
-3.17698
11
1.86287
21
-3.17642
0
LINE
8
BLACK
6
CONTINUOUS
10
1.86287
20
-3.17642
11
1.86117
21
-3.17551
0
LINE
8
BLACK
6
CONTINUOUS
10
1.86117
20
-3.17551
11
1.85967
21
-3.17428
0
LINE
8
BLACK
6
CONTINUOUS
10
1.85967
20
-3.17428
11
1.85845
21
-3.17279
0
LINE
8
BLACK
6
CONTINUOUS
10
1.85845
20
-3.17279
11
1.85754
21
-3.17109
0
LINE
8
BLACK
6
CONTINUOUS
10
1.85754
20
-3.17109
11
1.85698
21
-3.16924
0
LINE
8
BLACK
6
CONTINUOUS
10
1.85698
20
-3.16924
11
1.85679
21
-3.16732
0
LINE
8
BLACK
6
CONTINUOUS
10
1.85679
20
-3.16732
11
1.85679
21
-3.13189
0
LINE
8
BLACK
6
CONTINUOUS
10
1.85679
20
-3.13189
11
1.85698
21
-3.12997
0
LINE
8
BLACK
6
CONTINUOUS
10
1.85698
20
-3.12997
11
1.85754
21
-3.12812
0
LINE
8
BLACK
6
CONTINUOUS
10
1.85754
20
-3.12812
11
1.85845
21
-3.12642
0
LINE
8
BLACK
6
CONTINUOUS
10
1.85845
20
-3.12642
11
1.85967
21
-3.12493
0
LINE
8
BLACK
6
CONTINUOUS
10
1.85967
20
-3.12493
11
1.86117
21
-3.12371
0
LINE
8
BLACK
6
CONTINUOUS
10
1.86117
20
-3.12371
11
1.86287
21
-3.1228
0
LINE
8
BLACK
6
CONTINUOUS
10
1.86287
20
-3.1228
11
1.86471
21
-3.12224
0
LINE
8
BLACK
6
CONTINUOUS
10
1.86471
20
-3.12224
11
1.86663
21
-3.12205
0
LINE
8
BLACK
6
CONTINUOUS
10
1.86663
20
-3.12205
11
1.8873
21
-3.12205
0
LINE
8
BLACK
6
CONTINUOUS
10
1.8873
20
-3.12205
11
1.88922
21
-3.12224
0
LINE
8
BLACK
6
CONTINUOUS
10
2.49011
20
-3.09468
11
2.49196
21
-3.09524
0
LINE
8
BLACK
6
CONTINUOUS
10
2.49196
20
-3.09524
11
2.49366
21
-3.09615
0
LINE
8
BLACK
6
CONTINUOUS
10
2.49366
20
-3.09615
11
2.49515
21
-3.09737
0
LINE
8
BLACK
6
CONTINUOUS
10
2.49515
20
-3.09737
11
2.49637
21
-3.09886
0
LINE
8
BLACK
6
CONTINUOUS
10
2.49637
20
-3.09886
11
2.49728
21
-3.10056
0
LINE
8
BLACK
6
CONTINUOUS
10
2.49728
20
-3.10056
11
2.49784
21
-3.10241
0
LINE
8
BLACK
6
CONTINUOUS
10
2.49784
20
-3.10241
11
2.49803
21
-3.10433
0
LINE
8
BLACK
6
CONTINUOUS
10
2.49803
20
-3.10433
11
2.49803
21
-3.14764
0
LINE
8
BLACK
6
CONTINUOUS
10
2.49803
20
-3.14764
11
2.49784
21
-3.14956
0
LINE
8
BLACK
6
CONTINUOUS
10
2.49784
20
-3.14956
11
2.49728
21
-3.1514
0
LINE
8
BLACK
6
CONTINUOUS
10
2.49728
20
-3.1514
11
2.49637
21
-3.15311
0
LINE
8
BLACK
6
CONTINUOUS
10
2.49637
20
-3.15311
11
2.49515
21
-3.1546
0
LINE
8
BLACK
6
CONTINUOUS
10
2.49515
20
-3.1546
11
2.49366
21
-3.15582
0
LINE
8
BLACK
6
CONTINUOUS
10
2.49366
20
-3.15582
11
2.49196
21
-3.15673
0
LINE
8
BLACK
6
CONTINUOUS
10
2.49196
20
-3.15673
11
2.49011
21
-3.15729
0
LINE
8
BLACK
6
CONTINUOUS
10
2.49011
20
-3.15729
11
2.48819
21
-3.15748
0
LINE
8
BLACK
6
CONTINUOUS
10
2.48819
20
-3.15748
11
2.37008
21
-3.15748
0
LINE
8
BLACK
6
CONTINUOUS
10
2.37008
20
-3.15748
11
2.36816
21
-3.15729
0
LINE
8
BLACK
6
CONTINUOUS
10
2.36816
20
-3.15729
11
2.36631
21
-3.15673
0
LINE
8
BLACK
6
CONTINUOUS
10
2.36631
20
-3.15673
11
2.36461
21
-3.15582
0
LINE
8
BLACK
6
CONTINUOUS
10
2.36461
20
-3.15582
11
2.36312
21
-3.1546
0
LINE
8
BLACK
6
CONTINUOUS
10
2.36312
20
-3.1546
11
2.3619
21
-3.15311
0
LINE
8
BLACK
6
CONTINUOUS
10
2.3619
20
-3.15311
11
2.36099
21
-3.1514
0
LINE
8
BLACK
6
CONTINUOUS
10
2.36099
20
-3.1514
11
2.36043
21
-3.14956
0
LINE
8
BLACK
6
CONTINUOUS
10
2.36043
20
-3.14956
11
2.36024
21
-3.14764
0
LINE
8
BLACK
6
CONTINUOUS
10
2.36024
20
-3.14764
11
2.36024
21
-3.10433
0
LINE
8
BLACK
6
CONTINUOUS
10
2.36024
20
-3.10433
11
2.36043
21
-3.10241
0
LINE
8
BLACK
6
CONTINUOUS
10
2.36043
20
-3.10241
11
2.36099
21
-3.10056
0
LINE
8
BLACK
6
CONTINUOUS
10
2.36099
20
-3.10056
11
2.3619
21
-3.09886
0
LINE
8
BLACK
6
CONTINUOUS
10
2.3619
20
-3.09886
11
2.36312
21
-3.09737
0
LINE
8
BLACK
6
CONTINUOUS
10
2.36312
20
-3.09737
11
2.36461
21
-3.09615
0
LINE
8
BLACK
6
CONTINUOUS
10
2.36461
20
-3.09615
11
2.36631
21
-3.09524
0
LINE
8
BLACK
6
CONTINUOUS
10
2.36631
20
-3.09524
11
2.36816
21
-3.09468
0
LINE
8
BLACK
6
CONTINUOUS
10
2.36816
20
-3.09468
11
2.37008
21
-3.09449
0
LINE
8
BLACK
6
CONTINUOUS
10
2.37008
20
-3.09449
11
2.48819
21
-3.09449
0
LINE
8
BLACK
6
CONTINUOUS
10
2.48819
20
-3.09449
11
2.49011
21
-3.09468
0
LINE
8
BLACK
6
CONTINUOUS
10
2.70271
20
-3.09468
11
2.70455
21
-3.09524
0
LINE
8
BLACK
6
CONTINUOUS
10
2.70455
20
-3.09524
11
2.70626
21
-3.09615
0
LINE
8
BLACK
6
CONTINUOUS
10
2.70626
20
-3.09615
11
2.70775
21
-3.09737
0
LINE
8
BLACK
6
CONTINUOUS
10
2.70775
20
-3.09737
11
2.70897
21
-3.09886
0
LINE
8
BLACK
6
CONTINUOUS
10
2.70897
20
-3.09886
11
2.70988
21
-3.10056
0
LINE
8
BLACK
6
CONTINUOUS
10
2.70988
20
-3.10056
11
2.71044
21
-3.10241
0
LINE
8
BLACK
6
CONTINUOUS
10
2.71044
20
-3.10241
11
2.71063
21
-3.10433
0
LINE
8
BLACK
6
CONTINUOUS
10
2.71063
20
-3.10433
11
2.71063
21
-3.14764
0
LINE
8
BLACK
6
CONTINUOUS
10
2.71063
20
-3.14764
11
2.71044
21
-3.14956
0
LINE
8
BLACK
6
CONTINUOUS
10
2.71044
20
-3.14956
11
2.70988
21
-3.1514
0
LINE
8
BLACK
6
CONTINUOUS
10
2.70988
20
-3.1514
11
2.70897
21
-3.15311
0
LINE
8
BLACK
6
CONTINUOUS
10
2.70897
20
-3.15311
11
2.70775
21
-3.1546
0
LINE
8
BLACK
6
CONTINUOUS
10
2.70775
20
-3.1546
11
2.70626
21
-3.15582
0
LINE
8
BLACK
6
CONTINUOUS
10
2.70626
20
-3.15582
11
2.70455
21
-3.15673
0
LINE
8
BLACK
6
CONTINUOUS
10
2.70455
20
-3.15673
11
2.70271
21
-3.15729
0
LINE
8
BLACK
6
CONTINUOUS
10
2.70271
20
-3.15729
11
2.70079
21
-3.15748
0
LINE
8
BLACK
6
CONTINUOUS
10
2.70079
20
-3.15748
11
2.58268
21
-3.15748
0
LINE
8
BLACK
6
CONTINUOUS
10
2.58268
20
-3.15748
11
2.58076
21
-3.15729
0
LINE
8
BLACK
6
CONTINUOUS
10
2.58076
20
-3.15729
11
2.57891
21
-3.15673
0
LINE
8
BLACK
6
CONTINUOUS
10
2.57891
20
-3.15673
11
2.57721
21
-3.15582
0
LINE
8
BLACK
6
CONTINUOUS
10
2.57721
20
-3.15582
11
2.57572
21
-3.1546
0
LINE
8
BLACK
6
CONTINUOUS
10
2.57572
20
-3.1546
11
2.57449
21
-3.15311
0
LINE
8
BLACK
6
CONTINUOUS
10
2.57449
20
-3.15311
11
2.57358
21
-3.1514
0
LINE
8
BLACK
6
CONTINUOUS
10
2.57358
20
-3.1514
11
2.57302
21
-3.14956
0
LINE
8
BLACK
6
CONTINUOUS
10
2.57302
20
-3.14956
11
2.57283
21
-3.14764
0
LINE
8
BLACK
6
CONTINUOUS
10
2.57283
20
-3.14764
11
2.57283
21
-3.10433
0
LINE
8
BLACK
6
CONTINUOUS
10
2.57283
20
-3.10433
11
2.57302
21
-3.10241
0
LINE
8
BLACK
6
CONTINUOUS
10
2.57302
20
-3.10241
11
2.57358
21
-3.10056
0
LINE
8
BLACK
6
CONTINUOUS
10
2.57358
20
-3.10056
11
2.57449
21
-3.09886
0
LINE
8
BLACK
6
CONTINUOUS
10
2.57449
20
-3.09886
11
2.57572
21
-3.09737
0
LINE
8
BLACK
6
CONTINUOUS
10
2.57572
20
-3.09737
11
2.57721
21
-3.09615
0
LINE
8
BLACK
6
CONTINUOUS
10
2.57721
20
-3.09615
11
2.57891
21
-3.09524
0
LINE
8
BLACK
6
CONTINUOUS
10
2.57891
20
-3.09524
11
2.58076
21
-3.09468
0
LINE
8
BLACK
6
CONTINUOUS
10
2.58076
20
-3.09468
11
2.58268
21
-3.09449
0
LINE
8
BLACK
6
CONTINUOUS
10
2.58268
20
-3.09449
11
2.70079
21
-3.09449
0
LINE
8
BLACK
6
CONTINUOUS
10
2.70079
20
-3.09449
11
2.70271
21
-3.09468
0
LINE
8
BLACK
6
CONTINUOUS
10
2.93067
20
-3.05527
11
2.93215
21
-3.05572
0
LINE
8
BLACK
6
CONTINUOUS
10
2.93215
20
-3.05572
11
2.93351
21
-3.05645
0
LINE
8
BLACK
6
CONTINUOUS
10
2.93351
20
-3.05645
11
2.9347
21
-3.05742
0
LINE
8
BLACK
6
CONTINUOUS
10
2.9347
20
-3.05742
11
2.93568
21
-3.05862
0
LINE
8
BLACK
6
CONTINUOUS
10
2.93568
20
-3.05862
11
2.93641
21
-3.05998
0
LINE
8
BLACK
6
CONTINUOUS
10
2.93641
20
-3.05998
11
2.93686
21
-3.06146
0
LINE
8
BLACK
6
CONTINUOUS
10
2.93686
20
-3.06146
11
2.93701
21
-3.06299
0
LINE
8
BLACK
6
CONTINUOUS
10
2.93701
20
-3.06299
11
2.93701
21
-3.09843
0
LINE
8
BLACK
6
CONTINUOUS
10
2.93701
20
-3.09843
11
2.93686
21
-3.09996
0
LINE
8
BLACK
6
CONTINUOUS
10
2.93686
20
-3.09996
11
2.93641
21
-3.10144
0
LINE
8
BLACK
6
CONTINUOUS
10
2.93641
20
-3.10144
11
2.93568
21
-3.1028
0
LINE
8
BLACK
6
CONTINUOUS
10
2.93568
20
-3.1028
11
2.9347
21
-3.10399
0
LINE
8
BLACK
6
CONTINUOUS
10
2.9347
20
-3.10399
11
2.93351
21
-3.10497
0
LINE
8
BLACK
6
CONTINUOUS
10
2.93351
20
-3.10497
11
2.93215
21
-3.1057
0
LINE
8
BLACK
6
CONTINUOUS
10
2.93215
20
-3.1057
11
2.93067
21
-3.10615
0
LINE
8
BLACK
6
CONTINUOUS
10
2.93067
20
-3.10615
11
2.92913
21
-3.1063
0
LINE
8
BLACK
6
CONTINUOUS
10
2.92913
20
-3.1063
11
2.91339
21
-3.1063
0
LINE
8
BLACK
6
CONTINUOUS
10
2.91339
20
-3.1063
11
2.91185
21
-3.10615
0
LINE
8
BLACK
6
CONTINUOUS
10
2.91185
20
-3.10615
11
2.91037
21
-3.1057
0
LINE
8
BLACK
6
CONTINUOUS
10
2.91037
20
-3.1057
11
2.90901
21
-3.10497
0
LINE
8
BLACK
6
CONTINUOUS
10
2.90901
20
-3.10497
11
2.90782
21
-3.10399
0
LINE
8
BLACK
6
CONTINUOUS
10
2.90782
20
-3.10399
11
2.90684
21
-3.1028
0
LINE
8
BLACK
6
CONTINUOUS
10
2.90684
20
-3.1028
11
2.90611
21
-3.10144
0
LINE
8
BLACK
6
CONTINUOUS
10
2.90611
20
-3.10144
11
2.90566
21
-3.09996
0
LINE
8
BLACK
6
CONTINUOUS
10
2.90566
20
-3.09996
11
2.90551
21
-3.09843
0
LINE
8
BLACK
6
CONTINUOUS
10
2.90551
20
-3.09843
11
2.90551
21
-3.06299
0
LINE
8
BLACK
6
CONTINUOUS
10
2.90551
20
-3.06299
11
2.90566
21
-3.06146
0
LINE
8
BLACK
6
CONTINUOUS
10
2.90566
20
-3.06146
11
2.90611
21
-3.05998
0
LINE
8
BLACK
6
CONTINUOUS
10
2.90611
20
-3.05998
11
2.90684
21
-3.05862
0
LINE
8
BLACK
6
CONTINUOUS
10
2.90684
20
-3.05862
11
2.90782
21
-3.05742
0
LINE
8
BLACK
6
CONTINUOUS
10
2.90782
20
-3.05742
11
2.90901
21
-3.05645
0
LINE
8
BLACK
6
CONTINUOUS
10
2.90901
20
-3.05645
11
2.91037
21
-3.05572
0
LINE
8
BLACK
6
CONTINUOUS
10
2.91037
20
-3.05572
11
2.91185
21
-3.05527
0
LINE
8
BLACK
6
CONTINUOUS
10
2.91185
20
-3.05527
11
2.91339
21
-3.05512
0
LINE
8
BLACK
6
CONTINUOUS
10
2.91339
20
-3.05512
11
2.92913
21
-3.05512
0
LINE
8
BLACK
6
CONTINUOUS
10
2.92913
20
-3.05512
11
2.93067
21
-3.05527
0
LINE
8
BLACK
6
CONTINUOUS
10
2.97988
20
-3.05527
11
2.98136
21
-3.05572
0
LINE
8
BLACK
6
CONTINUOUS
10
2.98136
20
-3.05572
11
2.98272
21
-3.05645
0
LINE
8
BLACK
6
CONTINUOUS
10
2.98272
20
-3.05645
11
2.98391
21
-3.05742
0
LINE
8
BLACK
6
CONTINUOUS
10
2.98391
20
-3.05742
11
2.98489
21
-3.05862
0
LINE
8
BLACK
6
CONTINUOUS
10
2.98489
20
-3.05862
11
2.98562
21
-3.05998
0
LINE
8
BLACK
6
CONTINUOUS
10
2.98562
20
-3.05998
11
2.98607
21
-3.06146
0
LINE
8
BLACK
6
CONTINUOUS
10
2.98607
20
-3.06146
11
2.98622
21
-3.06299
0
LINE
8
BLACK
6
CONTINUOUS
10
2.98622
20
-3.06299
11
2.98622
21
-3.09843
0
LINE
8
BLACK
6
CONTINUOUS
10
2.98622
20
-3.09843
11
2.98607
21
-3.09996
0
LINE
8
BLACK
6
CONTINUOUS
10
2.98607
20
-3.09996
11
2.98562
21
-3.10144
0
LINE
8
BLACK
6
CONTINUOUS
10
2.98562
20
-3.10144
11
2.98489
21
-3.1028
0
LINE
8
BLACK
6
CONTINUOUS
10
2.98489
20
-3.1028
11
2.98391
21
-3.10399
0
LINE
8
BLACK
6
CONTINUOUS
10
2.98391
20
-3.10399
11
2.98272
21
-3.10497
0
LINE
8
BLACK
6
CONTINUOUS
10
2.98272
20
-3.10497
11
2.98136
21
-3.1057
0
LINE
8
BLACK
6
CONTINUOUS
10
2.98136
20
-3.1057
11
2.97988
21
-3.10615
0
LINE
8
BLACK
6
CONTINUOUS
10
2.97988
20
-3.10615
11
2.97835
21
-3.1063
0
LINE
8
BLACK
6
CONTINUOUS
10
2.97835
20
-3.1063
11
2.9626
21
-3.1063
0
LINE
8
BLACK
6
CONTINUOUS
10
2.9626
20
-3.1063
11
2.96106
21
-3.10615
0
LINE
8
BLACK
6
CONTINUOUS
10
2.96106
20
-3.10615
11
2.95959
21
-3.1057
0
LINE
8
BLACK
6
CONTINUOUS
10
2.95959
20
-3.1057
11
2.95822
21
-3.10497
0
LINE
8
BLACK
6
CONTINUOUS
10
2.95822
20
-3.10497
11
2.95703
21
-3.10399
0
LINE
8
BLACK
6
CONTINUOUS
10
2.95703
20
-3.10399
11
2.95605
21
-3.1028
0
LINE
8
BLACK
6
CONTINUOUS
10
2.95605
20
-3.1028
11
2.95532
21
-3.10144
0
LINE
8
BLACK
6
CONTINUOUS
10
2.95532
20
-3.10144
11
2.95488
21
-3.09996
0
LINE
8
BLACK
6
CONTINUOUS
10
2.95488
20
-3.09996
11
2.95472
21
-3.09843
0
LINE
8
BLACK
6
CONTINUOUS
10
2.95472
20
-3.09843
11
2.95472
21
-3.06299
0
LINE
8
BLACK
6
CONTINUOUS
10
2.95472
20
-3.06299
11
2.95488
21
-3.06146
0
LINE
8
BLACK
6
CONTINUOUS
10
2.95488
20
-3.06146
11
2.95532
21
-3.05998
0
LINE
8
BLACK
6
CONTINUOUS
10
2.95532
20
-3.05998
11
2.95605
21
-3.05862
0
LINE
8
BLACK
6
CONTINUOUS
10
2.95605
20
-3.05862
11
2.95703
21
-3.05742
0
LINE
8
BLACK
6
CONTINUOUS
10
2.95703
20
-3.05742
11
2.95822
21
-3.05645
0
LINE
8
BLACK
6
CONTINUOUS
10
2.95822
20
-3.05645
11
2.95959
21
-3.05572
0
LINE
8
BLACK
6
CONTINUOUS
10
2.95959
20
-3.05572
11
2.96106
21
-3.05527
0
LINE
8
BLACK
6
CONTINUOUS
10
2.96106
20
-3.05527
11
2.9626
21
-3.05512
0
LINE
8
BLACK
6
CONTINUOUS
10
2.9626
20
-3.05512
11
2.97835
21
-3.05512
0
LINE
8
BLACK
6
CONTINUOUS
10
2.97835
20
-3.05512
11
2.97988
21
-3.05527
0
LINE
8
BLACK
6
CONTINUOUS
10
3.0291
20
-3.05527
11
3.03057
21
-3.05572
0
LINE
8
BLACK
6
CONTINUOUS
10
3.03057
20
-3.05572
11
3.03193
21
-3.05645
0
LINE
8
BLACK
6
CONTINUOUS
10
3.03193
20
-3.05645
11
3.03313
21
-3.05742
0
LINE
8
BLACK
6
CONTINUOUS
10
3.03313
20
-3.05742
11
3.03411
21
-3.05862
0
LINE
8
BLACK
6
CONTINUOUS
10
3.03411
20
-3.05862
11
3.03483
21
-3.05998
0
LINE
8
BLACK
6
CONTINUOUS
10
3.03483
20
-3.05998
11
3.03528
21
-3.06146
0
LINE
8
BLACK
6
CONTINUOUS
10
3.03528
20
-3.06146
11
3.03543
21
-3.06299
0
LINE
8
BLACK
6
CONTINUOUS
10
3.03543
20
-3.06299
11
3.03543
21
-3.09843
0
LINE
8
BLACK
6
CONTINUOUS
10
3.03543
20
-3.09843
11
3.03528
21
-3.09996
0
LINE
8
BLACK
6
CONTINUOUS
10
3.03528
20
-3.09996
11
3.03483
21
-3.10144
0
LINE
8
BLACK
6
CONTINUOUS
10
3.03483
20
-3.10144
11
3.03411
21
-3.1028
0
LINE
8
BLACK
6
CONTINUOUS
10
3.03411
20
-3.1028
11
3.03313
21
-3.10399
0
LINE
8
BLACK
6
CONTINUOUS
10
3.03313
20
-3.10399
11
3.03193
21
-3.10497
0
LINE
8
BLACK
6
CONTINUOUS
10
3.03193
20
-3.10497
11
3.03057
21
-3.1057
0
LINE
8
BLACK
6
CONTINUOUS
10
3.03057
20
-3.1057
11
3.0291
21
-3.10615
0
LINE
8
BLACK
6
CONTINUOUS
10
3.0291
20
-3.10615
11
3.02756
21
-3.1063
0
LINE
8
BLACK
6
CONTINUOUS
10
3.02756
20
-3.1063
11
3.01181
21
-3.1063
0
LINE
8
BLACK
6
CONTINUOUS
10
3.01181
20
-3.1063
11
3.01027
21
-3.10615
0
LINE
8
BLACK
6
CONTINUOUS
10
3.01027
20
-3.10615
11
3.0088
21
-3.1057
0
LINE
8
BLACK
6
CONTINUOUS
10
3.0088
20
-3.1057
11
3.00744
21
-3.10497
0
LINE
8
BLACK
6
CONTINUOUS
10
3.00744
20
-3.10497
11
3.00624
21
-3.10399
0
LINE
8
BLACK
6
CONTINUOUS
10
3.00624
20
-3.10399
11
3.00526
21
-3.1028
0
LINE
8
BLACK
6
CONTINUOUS
10
3.00526
20
-3.1028
11
3.00454
21
-3.10144
0
LINE
8
BLACK
6
CONTINUOUS
10
3.00454
20
-3.10144
11
3.00409
21
-3.09996
0
LINE
8
BLACK
6
CONTINUOUS
10
3.00409
20
-3.09996
11
3.00394
21
-3.09843
0
LINE
8
BLACK
6
CONTINUOUS
10
3.00394
20
-3.09843
11
3.00394
21
-3.06299
0
LINE
8
BLACK
6
CONTINUOUS
10
3.00394
20
-3.06299
11
3.00409
21
-3.06146
0
LINE
8
BLACK
6
CONTINUOUS
10
3.00409
20
-3.06146
11
3.00454
21
-3.05998
0
LINE
8
BLACK
6
CONTINUOUS
10
3.00454
20
-3.05998
11
3.00526
21
-3.05862
0
LINE
8
BLACK
6
CONTINUOUS
10
3.00526
20
-3.05862
11
3.00624
21
-3.05742
0
LINE
8
BLACK
6
CONTINUOUS
10
3.00624
20
-3.05742
11
3.00744
21
-3.05645
0
LINE
8
BLACK
6
CONTINUOUS
10
3.00744
20
-3.05645
11
3.0088
21
-3.05572
0
LINE
8
BLACK
6
CONTINUOUS
10
3.0088
20
-3.05572
11
3.01027
21
-3.05527
0
LINE
8
BLACK
6
CONTINUOUS
10
3.01027
20
-3.05527
11
3.01181
21
-3.05512
0
LINE
8
BLACK
6
CONTINUOUS
10
3.01181
20
-3.05512
11
3.02756
21
-3.05512
0
LINE
8
BLACK
6
CONTINUOUS
10
3.02756
20
-3.05512
11
3.0291
21
-3.05527
0
LINE
8
BLACK
6
CONTINUOUS
10
3.07831
20
-3.05527
11
3.07978
21
-3.05572
0
LINE
8
BLACK
6
CONTINUOUS
10
3.07978
20
-3.05572
11
3.08115
21
-3.05645
0
LINE
8
BLACK
6
CONTINUOUS
10
3.08115
20
-3.05645
11
3.08234
21
-3.05742
0
LINE
8
BLACK
6
CONTINUOUS
10
3.08234
20
-3.05742
11
3.08332
21
-3.05862
0
LINE
8
BLACK
6
CONTINUOUS
10
3.08332
20
-3.05862
11
3.08405
21
-3.05998
0
LINE
8
BLACK
6
CONTINUOUS
10
3.08405
20
-3.05998
11
3.08449
21
-3.06146
0
LINE
8
BLACK
6
CONTINUOUS
10
3.08449
20
-3.06146
11
3.08465
21
-3.06299
0
LINE
8
BLACK
6
CONTINUOUS
10
3.08465
20
-3.06299
11
3.08465
21
-3.09843
0
LINE
8
BLACK
6
CONTINUOUS
10
3.08465
20
-3.09843
11
3.08449
21
-3.09996
0
LINE
8
BLACK
6
CONTINUOUS
10
3.08449
20
-3.09996
11
3.08405
21
-3.10144
0
LINE
8
BLACK
6
CONTINUOUS
10
3.08405
20
-3.10144
11
3.08332
21
-3.1028
0
LINE
8
BLACK
6
CONTINUOUS
10
3.08332
20
-3.1028
11
3.08234
21
-3.10399
0
LINE
8
BLACK
6
CONTINUOUS
10
3.08234
20
-3.10399
11
3.08115
21
-3.10497
0
LINE
8
BLACK
6
CONTINUOUS
10
3.08115
20
-3.10497
11
3.07978
21
-3.1057
0
LINE
8
BLACK
6
CONTINUOUS
10
3.07978
20
-3.1057
11
3.07831
21
-3.10615
0
LINE
8
BLACK
6
CONTINUOUS
10
3.07831
20
-3.10615
11
3.07677
21
-3.1063
0
LINE
8
BLACK
6
CONTINUOUS
10
3.07677
20
-3.1063
11
3.06102
21
-3.1063
0
LINE
8
BLACK
6
CONTINUOUS
10
3.06102
20
-3.1063
11
3.05949
21
-3.10615
0
LINE
8
BLACK
6
CONTINUOUS
10
3.05949
20
-3.10615
11
3.05801
21
-3.1057
0
LINE
8
BLACK
6
CONTINUOUS
10
3.05801
20
-3.1057
11
3.05665
21
-3.10497
0
LINE
8
BLACK
6
CONTINUOUS
10
3.05665
20
-3.10497
11
3.05546
21
-3.10399
0
LINE
8
BLACK
6
CONTINUOUS
10
3.05546
20
-3.10399
11
3.05448
21
-3.1028
0
LINE
8
BLACK
6
CONTINUOUS
10
3.05448
20
-3.1028
11
3.05375
21
-3.10144
0
LINE
8
BLACK
6
CONTINUOUS
10
3.05375
20
-3.10144
11
3.0533
21
-3.09996
0
LINE
8
BLACK
6
CONTINUOUS
10
3.0533
20
-3.09996
11
3.05315
21
-3.09843
0
LINE
8
BLACK
6
CONTINUOUS
10
3.05315
20
-3.09843
11
3.05315
21
-3.06299
0
LINE
8
BLACK
6
CONTINUOUS
10
3.05315
20
-3.06299
11
3.0533
21
-3.06146
0
LINE
8
BLACK
6
CONTINUOUS
10
3.0533
20
-3.06146
11
3.05375
21
-3.05998
0
LINE
8
BLACK
6
CONTINUOUS
10
3.05375
20
-3.05998
11
3.05448
21
-3.05862
0
LINE
8
BLACK
6
CONTINUOUS
10
3.05448
20
-3.05862
11
3.05546
21
-3.05742
0
LINE
8
BLACK
6
CONTINUOUS
10
3.05546
20
-3.05742
11
3.05665
21
-3.05645
0
LINE
8
BLACK
6
CONTINUOUS
10
3.05665
20
-3.05645
11
3.05801
21
-3.05572
0
LINE
8
BLACK
6
CONTINUOUS
10
3.05801
20
-3.05572
11
3.05949
21
-3.05527
0
LINE
8
BLACK
6
CONTINUOUS
10
3.05949
20
-3.05527
11
3.06102
21
-3.05512
0
LINE
8
BLACK
6
CONTINUOUS
10
3.06102
20
-3.05512
11
3.07677
21
-3.05512
0
LINE
8
BLACK
6
CONTINUOUS
10
3.07677
20
-3.05512
11
3.07831
21
-3.05527
0
LINE
8
BLACK
6
CONTINUOUS
10
1.9685
20
-3.10236
11
1.94094
21
-3.10236
0
LINE
8
BLACK
6
CONTINUOUS
10
1.94094
20
-3.10236
11
1.94094
21
-3.06299
0
LINE
8
BLACK
6
CONTINUOUS
10
1.94094
20
-3.06299
11
1.9685
21
-3.06299
0
LINE
8
BLACK
6
CONTINUOUS
10
1.9685
20
-3.06299
11
1.9685
21
-3.10236
0
LINE
8
BLACK
6
CONTINUOUS
10
1.8937
20
-3.10236
11
1.86614
21
-3.10236
0
LINE
8
BLACK
6
CONTINUOUS
10
1.86614
20
-3.10236
11
1.86614
21
-3.06299
0
LINE
8
BLACK
6
CONTINUOUS
10
1.86614
20
-3.06299
11
1.8937
21
-3.06299
0
LINE
8
BLACK
6
CONTINUOUS
10
1.8937
20
-3.06299
11
1.8937
21
-3.10236
0
LINE
8
BLACK
6
CONTINUOUS
10
1.9311
20
-3.00787
11
1.90354
21
-3.00787
0
LINE
8
BLACK
6
CONTINUOUS
10
1.90354
20
-3.00787
11
1.90354
21
-2.9685
0
LINE
8
BLACK
6
CONTINUOUS
10
1.90354
20
-2.9685
11
1.9311
21
-2.9685
0
LINE
8
BLACK
6
CONTINUOUS
10
1.9311
20
-2.9685
11
1.9311
21
-3.00787
0
LINE
8
BLACK
6
CONTINUOUS
10
3.18105
20
-2.82696
11
3.1829
21
-2.82752
0
LINE
8
BLACK
6
CONTINUOUS
10
3.1829
20
-2.82752
11
3.1846
21
-2.82843
0
LINE
8
BLACK
6
CONTINUOUS
10
3.1846
20
-2.82843
11
3.18609
21
-2.82965
0
LINE
8
BLACK
6
CONTINUOUS
10
3.18609
20
-2.82965
11
3.18732
21
-2.83115
0
LINE
8
BLACK
6
CONTINUOUS
10
3.18732
20
-2.83115
11
3.18823
21
-2.83285
0
LINE
8
BLACK
6
CONTINUOUS
10
3.18823
20
-2.83285
11
3.18879
21
-2.83469
0
LINE
8
BLACK
6
CONTINUOUS
10
3.18879
20
-2.83469
11
3.18898
21
-2.83661
0
LINE
8
BLACK
6
CONTINUOUS
10
3.18898
20
-2.83661
11
3.18898
21
-2.89961
0
LINE
8
BLACK
6
CONTINUOUS
10
3.18898
20
-2.89961
11
3.18879
21
-2.90153
0
LINE
8
BLACK
6
CONTINUOUS
10
3.18879
20
-2.90153
11
3.18823
21
-2.90337
0
LINE
8
BLACK
6
CONTINUOUS
10
3.18823
20
-2.90337
11
3.18732
21
-2.90507
0
LINE
8
BLACK
6
CONTINUOUS
10
3.18732
20
-2.90507
11
3.18609
21
-2.90657
0
LINE
8
BLACK
6
CONTINUOUS
10
3.18609
20
-2.90657
11
3.1846
21
-2.90779
0
LINE
8
BLACK
6
CONTINUOUS
10
3.1846
20
-2.90779
11
3.1829
21
-2.9087
0
LINE
8
BLACK
6
CONTINUOUS
10
3.1829
20
-2.9087
11
3.18105
21
-2.90926
0
LINE
8
BLACK
6
CONTINUOUS
10
3.18105
20
-2.90926
11
3.17913
21
-2.90945
0
LINE
8
BLACK
6
CONTINUOUS
10
3.17913
20
-2.90945
11
3.08071
21
-2.90945
0
LINE
8
BLACK
6
CONTINUOUS
10
3.08071
20
-2.90945
11
3.07879
21
-2.90926
0
LINE
8
BLACK
6
CONTINUOUS
10
3.07879
20
-2.90926
11
3.07694
21
-2.9087
0
LINE
8
BLACK
6
CONTINUOUS
10
3.07694
20
-2.9087
11
3.07524
21
-2.90779
0
LINE
8
BLACK
6
CONTINUOUS
10
3.07524
20
-2.90779
11
3.07375
21
-2.90657
0
LINE
8
BLACK
6
CONTINUOUS
10
3.07375
20
-2.90657
11
3.07252
21
-2.90507
0
LINE
8
BLACK
6
CONTINUOUS
10
3.07252
20
-2.90507
11
3.07162
21
-2.90337
0
LINE
8
BLACK
6
CONTINUOUS
10
3.07162
20
-2.90337
11
3.07106
21
-2.90153
0
LINE
8
BLACK
6
CONTINUOUS
10
3.07106
20
-2.90153
11
3.07087
21
-2.89961
0
LINE
8
BLACK
6
CONTINUOUS
10
3.07087
20
-2.89961
11
3.07087
21
-2.83661
0
LINE
8
BLACK
6
CONTINUOUS
10
3.07087
20
-2.83661
11
3.07106
21
-2.83469
0
LINE
8
BLACK
6
CONTINUOUS
10
3.07106
20
-2.83469
11
3.07162
21
-2.83285
0
LINE
8
BLACK
6
CONTINUOUS
10
3.07162
20
-2.83285
11
3.07252
21
-2.83115
0
LINE
8
BLACK
6
CONTINUOUS
10
3.07252
20
-2.83115
11
3.07375
21
-2.82965
0
LINE
8
BLACK
6
CONTINUOUS
10
3.07375
20
-2.82965
11
3.07524
21
-2.82843
0
LINE
8
BLACK
6
CONTINUOUS
10
3.07524
20
-2.82843
11
3.07694
21
-2.82752
0
LINE
8
BLACK
6
CONTINUOUS
10
3.07694
20
-2.82752
11
3.07879
21
-2.82696
0
LINE
8
BLACK
6
CONTINUOUS
10
3.07879
20
-2.82696
11
3.08071
21
-2.82677
0
LINE
8
BLACK
6
CONTINUOUS
10
3.08071
20
-2.82677
11
3.17913
21
-2.82677
0
LINE
8
BLACK
6
CONTINUOUS
10
3.17913
20
-2.82677
11
3.18105
21
-2.82696
0
LINE
8
BLACK
6
CONTINUOUS
10
1.89464
20
-2.79546
11
1.89648
21
-2.79602
0
LINE
8
BLACK
6
CONTINUOUS
10
1.89648
20
-2.79602
11
1.89818
21
-2.79693
0
LINE
8
BLACK
6
CONTINUOUS
10
1.89818
20
-2.79693
11
1.89968
21
-2.79816
0
LINE
8
BLACK
6
CONTINUOUS
10
1.89968
20
-2.79816
11
1.9009
21
-2.79965
0
LINE
8
BLACK
6
CONTINUOUS
10
1.9009
20
-2.79965
11
1.90181
21
-2.80135
0
LINE
8
BLACK
6
CONTINUOUS
10
1.90181
20
-2.80135
11
1.90237
21
-2.8032
0
LINE
8
BLACK
6
CONTINUOUS
10
1.90237
20
-2.8032
11
1.90256
21
-2.80512
0
LINE
8
BLACK
6
CONTINUOUS
10
1.90256
20
-2.80512
11
1.90256
21
-2.8248
0
LINE
8
BLACK
6
CONTINUOUS
10
1.90256
20
-2.8248
11
1.90237
21
-2.82672
0
LINE
8
BLACK
6
CONTINUOUS
10
1.90237
20
-2.82672
11
1.90181
21
-2.82857
0
LINE
8
BLACK
6
CONTINUOUS
10
1.90181
20
-2.82857
11
1.9009
21
-2.83027
0
LINE
8
BLACK
6
CONTINUOUS
10
1.9009
20
-2.83027
11
1.89968
21
-2.83176
0
LINE
8
BLACK
6
CONTINUOUS
10
1.89968
20
-2.83176
11
1.89818
21
-2.83299
0
LINE
8
BLACK
6
CONTINUOUS
10
1.89818
20
-2.83299
11
1.89648
21
-2.8339
0
LINE
8
BLACK
6
CONTINUOUS
10
1.89648
20
-2.8339
11
1.89464
21
-2.83446
0
LINE
8
BLACK
6
CONTINUOUS
10
1.89464
20
-2.83446
11
1.89272
21
-2.83465
0
LINE
8
BLACK
6
CONTINUOUS
10
1.89272
20
-2.83465
11
1.85531
21
-2.83465
0
LINE
8
BLACK
6
CONTINUOUS
10
1.85531
20
-2.83465
11
1.85339
21
-2.83446
0
LINE
8
BLACK
6
CONTINUOUS
10
1.85339
20
-2.83446
11
1.85155
21
-2.8339
0
LINE
8
BLACK
6
CONTINUOUS
10
1.85155
20
-2.8339
11
1.84985
21
-2.83299
0
LINE
8
BLACK
6
CONTINUOUS
10
1.84985
20
-2.83299
11
1.84836
21
-2.83176
0
LINE
8
BLACK
6
CONTINUOUS
10
1.84836
20
-2.83176
11
1.84713
21
-2.83027
0
LINE
8
BLACK
6
CONTINUOUS
10
1.84713
20
-2.83027
11
1.84622
21
-2.82857
0
LINE
8
BLACK
6
CONTINUOUS
10
1.84622
20
-2.82857
11
1.84566
21
-2.82672
0
LINE
8
BLACK
6
CONTINUOUS
10
1.84566
20
-2.82672
11
1.84547
21
-2.8248
0
LINE
8
BLACK
6
CONTINUOUS
10
1.84547
20
-2.8248
11
1.84547
21
-2.80512
0
LINE
8
BLACK
6
CONTINUOUS
10
1.84547
20
-2.80512
11
1.84566
21
-2.8032
0
LINE
8
BLACK
6
CONTINUOUS
10
1.84566
20
-2.8032
11
1.84622
21
-2.80135
0
LINE
8
BLACK
6
CONTINUOUS
10
1.84622
20
-2.80135
11
1.84713
21
-2.79965
0
LINE
8
BLACK
6
CONTINUOUS
10
1.84713
20
-2.79965
11
1.84836
21
-2.79816
0
LINE
8
BLACK
6
CONTINUOUS
10
1.84836
20
-2.79816
11
1.84985
21
-2.79693
0
LINE
8
BLACK
6
CONTINUOUS
10
1.84985
20
-2.79693
11
1.85155
21
-2.79602
0
LINE
8
BLACK
6
CONTINUOUS
10
1.85155
20
-2.79602
11
1.85339
21
-2.79546
0
LINE
8
BLACK
6
CONTINUOUS
10
1.85339
20
-2.79546
11
1.85531
21
-2.79528
0
LINE
8
BLACK
6
CONTINUOUS
10
1.85531
20
-2.79528
11
1.89272
21
-2.79528
0
LINE
8
BLACK
6
CONTINUOUS
10
1.89272
20
-2.79528
11
1.89464
21
-2.79546
0
LINE
8
BLACK
6
CONTINUOUS
10
1.71353
20
-2.7935
11
1.71538
21
-2.79406
0
LINE
8
BLACK
6
CONTINUOUS
10
1.71538
20
-2.79406
11
1.71708
21
-2.79497
0
LINE
8
BLACK
6
CONTINUOUS
10
1.71708
20
-2.79497
11
1.71857
21
-2.79619
0
LINE
8
BLACK
6
CONTINUOUS
10
1.71857
20
-2.79619
11
1.7198
21
-2.79768
0
LINE
8
BLACK
6
CONTINUOUS
10
1.7198
20
-2.79768
11
1.72071
21
-2.79938
0
LINE
8
BLACK
6
CONTINUOUS
10
1.72071
20
-2.79938
11
1.72127
21
-2.80123
0
LINE
8
BLACK
6
CONTINUOUS
10
1.72127
20
-2.80123
11
1.72146
21
-2.80315
0
LINE
8
BLACK
6
CONTINUOUS
10
1.72146
20
-2.80315
11
1.72146
21
-2.82283
0
LINE
8
BLACK
6
CONTINUOUS
10
1.72146
20
-2.82283
11
1.72127
21
-2.82475
0
LINE
8
BLACK
6
CONTINUOUS
10
1.72127
20
-2.82475
11
1.72071
21
-2.8266
0
LINE
8
BLACK
6
CONTINUOUS
10
1.72071
20
-2.8266
11
1.7198
21
-2.8283
0
LINE
8
BLACK
6
CONTINUOUS
10
1.7198
20
-2.8283
11
1.71857
21
-2.82979
0
LINE
8
BLACK
6
CONTINUOUS
10
1.71857
20
-2.82979
11
1.71708
21
-2.83102
0
LINE
8
BLACK
6
CONTINUOUS
10
1.71708
20
-2.83102
11
1.71538
21
-2.83193
0
LINE
8
BLACK
6
CONTINUOUS
10
1.71538
20
-2.83193
11
1.71353
21
-2.83249
0
LINE
8
BLACK
6
CONTINUOUS
10
1.71353
20
-2.83249
11
1.71161
21
-2.83268
0
LINE
8
BLACK
6
CONTINUOUS
10
1.71161
20
-2.83268
11
1.67421
21
-2.83268
0
LINE
8
BLACK
6
CONTINUOUS
10
1.67421
20
-2.83268
11
1.67229
21
-2.83249
0
LINE
8
BLACK
6
CONTINUOUS
10
1.67229
20
-2.83249
11
1.67045
21
-2.83193
0
LINE
8
BLACK
6
CONTINUOUS
10
1.67045
20
-2.83193
11
1.66874
21
-2.83102
0
LINE
8
BLACK
6
CONTINUOUS
10
1.66874
20
-2.83102
11
1.66725
21
-2.82979
0
LINE
8
BLACK
6
CONTINUOUS
10
1.66725
20
-2.82979
11
1.66603
21
-2.8283
0
LINE
8
BLACK
6
CONTINUOUS
10
1.66603
20
-2.8283
11
1.66512
21
-2.8266
0
LINE
8
BLACK
6
CONTINUOUS
10
1.66512
20
-2.8266
11
1.66456
21
-2.82475
0
LINE
8
BLACK
6
CONTINUOUS
10
1.66456
20
-2.82475
11
1.66437
21
-2.82283
0
LINE
8
BLACK
6
CONTINUOUS
10
1.66437
20
-2.82283
11
1.66437
21
-2.80315
0
LINE
8
BLACK
6
CONTINUOUS
10
1.66437
20
-2.80315
11
1.66456
21
-2.80123
0
LINE
8
BLACK
6
CONTINUOUS
10
1.66456
20
-2.80123
11
1.66512
21
-2.79938
0
LINE
8
BLACK
6
CONTINUOUS
10
1.66512
20
-2.79938
11
1.66603
21
-2.79768
0
LINE
8
BLACK
6
CONTINUOUS
10
1.66603
20
-2.79768
11
1.66725
21
-2.79619
0
LINE
8
BLACK
6
CONTINUOUS
10
1.66725
20
-2.79619
11
1.66874
21
-2.79497
0
LINE
8
BLACK
6
CONTINUOUS
10
1.66874
20
-2.79497
11
1.67045
21
-2.79406
0
LINE
8
BLACK
6
CONTINUOUS
10
1.67045
20
-2.79406
11
1.67229
21
-2.7935
0
LINE
8
BLACK
6
CONTINUOUS
10
1.67229
20
-2.7935
11
1.67421
21
-2.79331
0
LINE
8
BLACK
6
CONTINUOUS
10
1.67421
20
-2.79331
11
1.71161
21
-2.79331
0
LINE
8
BLACK
6
CONTINUOUS
10
1.71161
20
-2.79331
11
1.71353
21
-2.7935
0
LINE
8
BLACK
6
CONTINUOUS
10
2.85527
20
-2.77578
11
2.85711
21
-2.77634
0
LINE
8
BLACK
6
CONTINUOUS
10
2.85711
20
-2.77634
11
2.85881
21
-2.77725
0
LINE
8
BLACK
6
CONTINUOUS
10
2.85881
20
-2.77725
11
2.86031
21
-2.77847
0
LINE
8
BLACK
6
CONTINUOUS
10
2.86031
20
-2.77847
11
2.86153
21
-2.77996
0
LINE
8
BLACK
6
CONTINUOUS
10
2.86153
20
-2.77996
11
2.86244
21
-2.78167
0
LINE
8
BLACK
6
CONTINUOUS
10
2.86244
20
-2.78167
11
2.863
21
-2.78351
0
LINE
8
BLACK
6
CONTINUOUS
10
2.863
20
-2.78351
11
2.86319
21
-2.78543
0
LINE
8
BLACK
6
CONTINUOUS
10
2.86319
20
-2.78543
11
2.86319
21
-2.80512
0
LINE
8
BLACK
6
CONTINUOUS
10
2.86319
20
-2.80512
11
2.863
21
-2.80704
0
LINE
8
BLACK
6
CONTINUOUS
10
2.863
20
-2.80704
11
2.86244
21
-2.80888
0
LINE
8
BLACK
6
CONTINUOUS
10
2.86244
20
-2.80888
11
2.86153
21
-2.81059
0
LINE
8
BLACK
6
CONTINUOUS
10
2.86153
20
-2.81059
11
2.86031
21
-2.81208
0
LINE
8
BLACK
6
CONTINUOUS
10
2.86031
20
-2.81208
11
2.85881
21
-2.8133
0
LINE
8
BLACK
6
CONTINUOUS
10
2.85881
20
-2.8133
11
2.85711
21
-2.81421
0
LINE
8
BLACK
6
CONTINUOUS
10
2.85711
20
-2.81421
11
2.85527
21
-2.81477
0
LINE
8
BLACK
6
CONTINUOUS
10
2.85527
20
-2.81477
11
2.85335
21
-2.81496
0
LINE
8
BLACK
6
CONTINUOUS
10
2.85335
20
-2.81496
11
2.81594
21
-2.81496
0
LINE
8
BLACK
6
CONTINUOUS
10
2.81594
20
-2.81496
11
2.81402
21
-2.81477
0
LINE
8
BLACK
6
CONTINUOUS
10
2.81402
20
-2.81477
11
2.81218
21
-2.81421
0
LINE
8
BLACK
6
CONTINUOUS
10
2.81218
20
-2.81421
11
2.81048
21
-2.8133
0
LINE
8
BLACK
6
CONTINUOUS
10
2.81048
20
-2.8133
11
2.80899
21
-2.81208
0
LINE
8
BLACK
6
CONTINUOUS
10
2.80899
20
-2.81208
11
2.80776
21
-2.81059
0
LINE
8
BLACK
6
CONTINUOUS
10
2.80776
20
-2.81059
11
2.80685
21
-2.80888
0
LINE
8
BLACK
6
CONTINUOUS
10
2.80685
20
-2.80888
11
2.80629
21
-2.80704
0
LINE
8
BLACK
6
CONTINUOUS
10
2.80629
20
-2.80704
11
2.8061
21
-2.80512
0
LINE
8
BLACK
6
CONTINUOUS
10
2.8061
20
-2.80512
11
2.8061
21
-2.78543
0
LINE
8
BLACK
6
CONTINUOUS
10
2.8061
20
-2.78543
11
2.80629
21
-2.78351
0
LINE
8
BLACK
6
CONTINUOUS
10
2.80629
20
-2.78351
11
2.80685
21
-2.78167
0
LINE
8
BLACK
6
CONTINUOUS
10
2.80685
20
-2.78167
11
2.80776
21
-2.77996
0
LINE
8
BLACK
6
CONTINUOUS
10
2.80776
20
-2.77996
11
2.80899
21
-2.77847
0
LINE
8
BLACK
6
CONTINUOUS
10
2.80899
20
-2.77847
11
2.81048
21
-2.77725
0
LINE
8
BLACK
6
CONTINUOUS
10
2.81048
20
-2.77725
11
2.81218
21
-2.77634
0
LINE
8
BLACK
6
CONTINUOUS
10
2.81218
20
-2.77634
11
2.81402
21
-2.77578
0
LINE
8
BLACK
6
CONTINUOUS
10
2.81402
20
-2.77578
11
2.81594
21
-2.77559
0
LINE
8
BLACK
6
CONTINUOUS
10
2.81594
20
-2.77559
11
2.85335
21
-2.77559
0
LINE
8
BLACK
6
CONTINUOUS
10
2.85335
20
-2.77559
11
2.85527
21
-2.77578
0
LINE
8
BLACK
6
CONTINUOUS
10
2.77653
20
-2.77578
11
2.77837
21
-2.77634
0
LINE
8
BLACK
6
CONTINUOUS
10
2.77837
20
-2.77634
11
2.78007
21
-2.77725
0
LINE
8
BLACK
6
CONTINUOUS
10
2.78007
20
-2.77725
11
2.78157
21
-2.77847
0
LINE
8
BLACK
6
CONTINUOUS
10
2.78157
20
-2.77847
11
2.78279
21
-2.77996
0
LINE
8
BLACK
6
CONTINUOUS
10
2.78279
20
-2.77996
11
2.7837
21
-2.78167
0
LINE
8
BLACK
6
CONTINUOUS
10
2.7837
20
-2.78167
11
2.78426
21
-2.78351
0
LINE
8
BLACK
6
CONTINUOUS
10
2.78426
20
-2.78351
11
2.78445
21
-2.78543
0
LINE
8
BLACK
6
CONTINUOUS
10
2.78445
20
-2.78543
11
2.78445
21
-2.80512
0
LINE
8
BLACK
6
CONTINUOUS
10
2.78445
20
-2.80512
11
2.78426
21
-2.80704
0
LINE
8
BLACK
6
CONTINUOUS
10
2.78426
20
-2.80704
11
2.7837
21
-2.80888
0
LINE
8
BLACK
6
CONTINUOUS
10
2.7837
20
-2.80888
11
2.78279
21
-2.81059
0
LINE
8
BLACK
6
CONTINUOUS
10
2.78279
20
-2.81059
11
2.78157
21
-2.81208
0
LINE
8
BLACK
6
CONTINUOUS
10
2.78157
20
-2.81208
11
2.78007
21
-2.8133
0
LINE
8
BLACK
6
CONTINUOUS
10
2.78007
20
-2.8133
11
2.77837
21
-2.81421
0
LINE
8
BLACK
6
CONTINUOUS
10
2.77837
20
-2.81421
11
2.77653
21
-2.81477
0
LINE
8
BLACK
6
CONTINUOUS
10
2.77653
20
-2.81477
11
2.77461
21
-2.81496
0
LINE
8
BLACK
6
CONTINUOUS
10
2.77461
20
-2.81496
11
2.7372
21
-2.81496
0
LINE
8
BLACK
6
CONTINUOUS
10
2.7372
20
-2.81496
11
2.73528
21
-2.81477
0
LINE
8
BLACK
6
CONTINUOUS
10
2.73528
20
-2.81477
11
2.73344
21
-2.81421
0
LINE
8
BLACK
6
CONTINUOUS
10
2.73344
20
-2.81421
11
2.73174
21
-2.8133
0
LINE
8
BLACK
6
CONTINUOUS
10
2.73174
20
-2.8133
11
2.73025
21
-2.81208
0
LINE
8
BLACK
6
CONTINUOUS
10
2.73025
20
-2.81208
11
2.72902
21
-2.81059
0
LINE
8
BLACK
6
CONTINUOUS
10
2.72902
20
-2.81059
11
2.72811
21
-2.80888
0
LINE
8
BLACK
6
CONTINUOUS
10
2.72811
20
-2.80888
11
2.72755
21
-2.80704
0
LINE
8
BLACK
6
CONTINUOUS
10
2.72755
20
-2.80704
11
2.72736
21
-2.80512
0
LINE
8
BLACK
6
CONTINUOUS
10
2.72736
20
-2.80512
11
2.72736
21
-2.78543
0
LINE
8
BLACK
6
CONTINUOUS
10
2.72736
20
-2.78543
11
2.72755
21
-2.78351
0
LINE
8
BLACK
6
CONTINUOUS
10
2.72755
20
-2.78351
11
2.72811
21
-2.78167
0
LINE
8
BLACK
6
CONTINUOUS
10
2.72811
20
-2.78167
11
2.72902
21
-2.77996
0
LINE
8
BLACK
6
CONTINUOUS
10
2.72902
20
-2.77996
11
2.73025
21
-2.77847
0
LINE
8
BLACK
6
CONTINUOUS
10
2.73025
20
-2.77847
11
2.73174
21
-2.77725
0
LINE
8
BLACK
6
CONTINUOUS
10
2.73174
20
-2.77725
11
2.73344
21
-2.77634
0
LINE
8
BLACK
6
CONTINUOUS
10
2.73344
20
-2.77634
11
2.73528
21
-2.77578
0
LINE
8
BLACK
6
CONTINUOUS
10
2.73528
20
-2.77578
11
2.7372
21
-2.77559
0
LINE
8
BLACK
6
CONTINUOUS
10
2.7372
20
-2.77559
11
2.77461
21
-2.77559
0
LINE
8
BLACK
6
CONTINUOUS
10
2.77461
20
-2.77559
11
2.77653
21
-2.77578
0
LINE
8
BLACK
6
CONTINUOUS
10
2.93322
20
-2.77627
11
2.93502
21
-2.77681
0
LINE
8
BLACK
6
CONTINUOUS
10
2.93502
20
-2.77681
11
2.93668
21
-2.7777
0
LINE
8
BLACK
6
CONTINUOUS
10
2.93668
20
-2.7777
11
2.93813
21
-2.77889
0
LINE
8
BLACK
6
CONTINUOUS
10
2.93813
20
-2.77889
11
2.93933
21
-2.78035
0
LINE
8
BLACK
6
CONTINUOUS
10
2.93933
20
-2.78035
11
2.94021
21
-2.78201
0
LINE
8
BLACK
6
CONTINUOUS
10
2.94021
20
-2.78201
11
2.94076
21
-2.78381
0
LINE
8
BLACK
6
CONTINUOUS
10
2.94076
20
-2.78381
11
2.94094
21
-2.78568
0
LINE
8
BLACK
6
CONTINUOUS
10
2.94094
20
-2.78568
11
2.94094
21
-2.80487
0
LINE
8
BLACK
6
CONTINUOUS
10
2.94094
20
-2.80487
11
2.94076
21
-2.80674
0
LINE
8
BLACK
6
CONTINUOUS
10
2.94076
20
-2.80674
11
2.94021
21
-2.80854
0
LINE
8
BLACK
6
CONTINUOUS
10
2.94021
20
-2.80854
11
2.93933
21
-2.8102
0
LINE
8
BLACK
6
CONTINUOUS
10
2.93933
20
-2.8102
11
2.93813
21
-2.81166
0
LINE
8
BLACK
6
CONTINUOUS
10
2.93813
20
-2.81166
11
2.93668
21
-2.81285
0
LINE
8
BLACK
6
CONTINUOUS
10
2.93668
20
-2.81285
11
2.93502
21
-2.81374
0
LINE
8
BLACK
6
CONTINUOUS
10
2.93502
20
-2.81374
11
2.93322
21
-2.81428
0
LINE
8
BLACK
6
CONTINUOUS
10
2.93322
20
-2.81428
11
2.93135
21
-2.81447
0
LINE
8
BLACK
6
CONTINUOUS
10
2.93135
20
-2.81447
11
2.89542
21
-2.81447
0
LINE
8
BLACK
6
CONTINUOUS
10
2.89542
20
-2.81447
11
2.89355
21
-2.81428
0
LINE
8
BLACK
6
CONTINUOUS
10
2.89355
20
-2.81428
11
2.89175
21
-2.81374
0
LINE
8
BLACK
6
CONTINUOUS
10
2.89175
20
-2.81374
11
2.89009
21
-2.81285
0
LINE
8
BLACK
6
CONTINUOUS
10
2.89009
20
-2.81285
11
2.88864
21
-2.81166
0
LINE
8
BLACK
6
CONTINUOUS
10
2.88864
20
-2.81166
11
2.88744
21
-2.8102
0
LINE
8
BLACK
6
CONTINUOUS
10
2.88744
20
-2.8102
11
2.88656
21
-2.80854
0
LINE
8
BLACK
6
CONTINUOUS
10
2.88656
20
-2.80854
11
2.88601
21
-2.80674
0
LINE
8
BLACK
6
CONTINUOUS
10
2.88601
20
-2.80674
11
2.88583
21
-2.80487
0
LINE
8
BLACK
6
CONTINUOUS
10
2.88583
20
-2.80487
11
2.88583
21
-2.78568
0
LINE
8
BLACK
6
CONTINUOUS
10
2.88583
20
-2.78568
11
2.88601
21
-2.78381
0
LINE
8
BLACK
6
CONTINUOUS
10
2.88601
20
-2.78381
11
2.88656
21
-2.78201
0
LINE
8
BLACK
6
CONTINUOUS
10
2.88656
20
-2.78201
11
2.88744
21
-2.78035
0
LINE
8
BLACK
6
CONTINUOUS
10
2.88744
20
-2.78035
11
2.88864
21
-2.77889
0
LINE
8
BLACK
6
CONTINUOUS
10
2.88864
20
-2.77889
11
2.89009
21
-2.7777
0
LINE
8
BLACK
6
CONTINUOUS
10
2.89009
20
-2.7777
11
2.89175
21
-2.77681
0
LINE
8
BLACK
6
CONTINUOUS
10
2.89175
20
-2.77681
11
2.89355
21
-2.77627
0
LINE
8
BLACK
6
CONTINUOUS
10
2.89355
20
-2.77627
11
2.89542
21
-2.77608
0
LINE
8
BLACK
6
CONTINUOUS
10
2.89542
20
-2.77608
11
2.93135
21
-2.77608
0
LINE
8
BLACK
6
CONTINUOUS
10
2.93135
20
-2.77608
11
2.93322
21
-2.77627
0
LINE
8
BLACK
6
CONTINUOUS
10
3.04091
20
-2.75212
11
3.04238
21
-2.75257
0
LINE
8
BLACK
6
CONTINUOUS
10
3.04238
20
-2.75257
11
3.04374
21
-2.7533
0
LINE
8
BLACK
6
CONTINUOUS
10
3.04374
20
-2.7533
11
3.04494
21
-2.75427
0
LINE
8
BLACK
6
CONTINUOUS
10
3.04494
20
-2.75427
11
3.04592
21
-2.75547
0
LINE
8
BLACK
6
CONTINUOUS
10
3.04592
20
-2.75547
11
3.04664
21
-2.75683
0
LINE
8
BLACK
6
CONTINUOUS
10
3.04664
20
-2.75683
11
3.04709
21
-2.75831
0
LINE
8
BLACK
6
CONTINUOUS
10
3.04709
20
-2.75831
11
3.04724
21
-2.75984
0
LINE
8
BLACK
6
CONTINUOUS
10
3.04724
20
-2.75984
11
3.04724
21
-2.77559
0
LINE
8
BLACK
6
CONTINUOUS
10
3.04724
20
-2.77559
11
3.04709
21
-2.77713
0
LINE
8
BLACK
6
CONTINUOUS
10
3.04709
20
-2.77713
11
3.04664
21
-2.7786
0
LINE
8
BLACK
6
CONTINUOUS
10
3.04664
20
-2.7786
11
3.04592
21
-2.77997
0
LINE
8
BLACK
6
CONTINUOUS
10
3.04592
20
-2.77997
11
3.04494
21
-2.78116
0
LINE
8
BLACK
6
CONTINUOUS
10
3.04494
20
-2.78116
11
3.04374
21
-2.78214
0
LINE
8
BLACK
6
CONTINUOUS
10
3.04374
20
-2.78214
11
3.04238
21
-2.78287
0
LINE
8
BLACK
6
CONTINUOUS
10
3.04238
20
-2.78287
11
3.04091
21
-2.78331
0
LINE
8
BLACK
6
CONTINUOUS
10
3.04091
20
-2.78331
11
3.03937
21
-2.78346
0
LINE
8
BLACK
6
CONTINUOUS
10
3.03937
20
-2.78346
11
3.00394
21
-2.78346
0
LINE
8
BLACK
6
CONTINUOUS
10
3.00394
20
-2.78346
11
3.0024
21
-2.78331
0
LINE
8
BLACK
6
CONTINUOUS
10
3.0024
20
-2.78331
11
3.00092
21
-2.78287
0
LINE
8
BLACK
6
CONTINUOUS
10
3.00092
20
-2.78287
11
2.99956
21
-2.78214
0
LINE
8
BLACK
6
CONTINUOUS
10
2.99956
20
-2.78214
11
2.99837
21
-2.78116
0
LINE
8
BLACK
6
CONTINUOUS
10
2.99837
20
-2.78116
11
2.99739
21
-2.77997
0
LINE
8
BLACK
6
CONTINUOUS
10
2.99739
20
-2.77997
11
2.99666
21
-2.7786
0
LINE
8
BLACK
6
CONTINUOUS
10
2.99666
20
-2.7786
11
2.99621
21
-2.77713
0
LINE
8
BLACK
6
CONTINUOUS
10
2.99621
20
-2.77713
11
2.99606
21
-2.77559
0
LINE
8
BLACK
6
CONTINUOUS
10
2.99606
20
-2.77559
11
2.99606
21
-2.75984
0
LINE
8
BLACK
6
CONTINUOUS
10
2.99606
20
-2.75984
11
2.99621
21
-2.75831
0
LINE
8
BLACK
6
CONTINUOUS
10
2.99621
20
-2.75831
11
2.99666
21
-2.75683
0
LINE
8
BLACK
6
CONTINUOUS
10
2.99666
20
-2.75683
11
2.99739
21
-2.75547
0
LINE
8
BLACK
6
CONTINUOUS
10
2.99739
20
-2.75547
11
2.99837
21
-2.75427
0
LINE
8
BLACK
6
CONTINUOUS
10
2.99837
20
-2.75427
11
2.99956
21
-2.7533
0
LINE
8
BLACK
6
CONTINUOUS
10
2.99956
20
-2.7533
11
3.00092
21
-2.75257
0
LINE
8
BLACK
6
CONTINUOUS
10
3.00092
20
-2.75257
11
3.0024
21
-2.75212
0
LINE
8
BLACK
6
CONTINUOUS
10
3.0024
20
-2.75212
11
3.00394
21
-2.75197
0
LINE
8
BLACK
6
CONTINUOUS
10
3.00394
20
-2.75197
11
3.03937
21
-2.75197
0
LINE
8
BLACK
6
CONTINUOUS
10
3.03937
20
-2.75197
11
3.04091
21
-2.75212
0
LINE
8
BLACK
6
CONTINUOUS
10
1.89464
20
-2.72066
11
1.89648
21
-2.72122
0
LINE
8
BLACK
6
CONTINUOUS
10
1.89648
20
-2.72122
11
1.89818
21
-2.72213
0
LINE
8
BLACK
6
CONTINUOUS
10
1.89818
20
-2.72213
11
1.89968
21
-2.72336
0
LINE
8
BLACK
6
CONTINUOUS
10
1.89968
20
-2.72336
11
1.9009
21
-2.72485
0
LINE
8
BLACK
6
CONTINUOUS
10
1.9009
20
-2.72485
11
1.90181
21
-2.72655
0
LINE
8
BLACK
6
CONTINUOUS
10
1.90181
20
-2.72655
11
1.90237
21
-2.72839
0
LINE
8
BLACK
6
CONTINUOUS
10
1.90237
20
-2.72839
11
1.90256
21
-2.73031
0
LINE
8
BLACK
6
CONTINUOUS
10
1.90256
20
-2.73031
11
1.90256
21
-2.75
0
LINE
8
BLACK
6
CONTINUOUS
10
1.90256
20
-2.75
11
1.90237
21
-2.75192
0
LINE
8
BLACK
6
CONTINUOUS
10
1.90237
20
-2.75192
11
1.90181
21
-2.75377
0
LINE
8
BLACK
6
CONTINUOUS
10
1.90181
20
-2.75377
11
1.9009
21
-2.75547
0
LINE
8
BLACK
6
CONTINUOUS
10
1.9009
20
-2.75547
11
1.89968
21
-2.75696
0
LINE
8
BLACK
6
CONTINUOUS
10
1.89968
20
-2.75696
11
1.89818
21
-2.75818
0
LINE
8
BLACK
6
CONTINUOUS
10
1.89818
20
-2.75818
11
1.89648
21
-2.75909
0
LINE
8
BLACK
6
CONTINUOUS
10
1.89648
20
-2.75909
11
1.89464
21
-2.75965
0
LINE
8
BLACK
6
CONTINUOUS
10
1.89464
20
-2.75965
11
1.89272
21
-2.75984
0
LINE
8
BLACK
6
CONTINUOUS
10
1.89272
20
-2.75984
11
1.85531
21
-2.75984
0
LINE
8
BLACK
6
CONTINUOUS
10
1.85531
20
-2.75984
11
1.85339
21
-2.75965
0
LINE
8
BLACK
6
CONTINUOUS
10
1.85339
20
-2.75965
11
1.85155
21
-2.75909
0
LINE
8
BLACK
6
CONTINUOUS
10
1.85155
20
-2.75909
11
1.84985
21
-2.75818
0
LINE
8
BLACK
6
CONTINUOUS
10
1.84985
20
-2.75818
11
1.84836
21
-2.75696
0
LINE
8
BLACK
6
CONTINUOUS
10
1.84836
20
-2.75696
11
1.84713
21
-2.75547
0
LINE
8
BLACK
6
CONTINUOUS
10
1.84713
20
-2.75547
11
1.84622
21
-2.75377
0
LINE
8
BLACK
6
CONTINUOUS
10
1.84622
20
-2.75377
11
1.84566
21
-2.75192
0
LINE
8
BLACK
6
CONTINUOUS
10
1.84566
20
-2.75192
11
1.84547
21
-2.75
0
LINE
8
BLACK
6
CONTINUOUS
10
1.84547
20
-2.75
11
1.84547
21
-2.73031
0
LINE
8
BLACK
6
CONTINUOUS
10
1.84547
20
-2.73031
11
1.84566
21
-2.72839
0
LINE
8
BLACK
6
CONTINUOUS
10
1.84566
20
-2.72839
11
1.84622
21
-2.72655
0
LINE
8
BLACK
6
CONTINUOUS
10
1.84622
20
-2.72655
11
1.84713
21
-2.72485
0
LINE
8
BLACK
6
CONTINUOUS
10
1.84713
20
-2.72485
11
1.84836
21
-2.72336
0
LINE
8
BLACK
6
CONTINUOUS
10
1.84836
20
-2.72336
11
1.84985
21
-2.72213
0
LINE
8
BLACK
6
CONTINUOUS
10
1.84985
20
-2.72213
11
1.85155
21
-2.72122
0
LINE
8
BLACK
6
CONTINUOUS
10
1.85155
20
-2.72122
11
1.85339
21
-2.72066
0
LINE
8
BLACK
6
CONTINUOUS
10
1.85339
20
-2.72066
11
1.85531
21
-2.72047
0
LINE
8
BLACK
6
CONTINUOUS
10
1.85531
20
-2.72047
11
1.89272
21
-2.72047
0
LINE
8
BLACK
6
CONTINUOUS
10
1.89272
20
-2.72047
11
1.89464
21
-2.72066
0
LINE
8
BLACK
6
CONTINUOUS
10
1.71353
20
-2.71869
11
1.71538
21
-2.71925
0
LINE
8
BLACK
6
CONTINUOUS
10
1.71538
20
-2.71925
11
1.71708
21
-2.72016
0
LINE
8
BLACK
6
CONTINUOUS
10
1.71708
20
-2.72016
11
1.71857
21
-2.72139
0
LINE
8
BLACK
6
CONTINUOUS
10
1.71857
20
-2.72139
11
1.7198
21
-2.72288
0
LINE
8
BLACK
6
CONTINUOUS
10
1.7198
20
-2.72288
11
1.72071
21
-2.72458
0
LINE
8
BLACK
6
CONTINUOUS
10
1.72071
20
-2.72458
11
1.72127
21
-2.72643
0
LINE
8
BLACK
6
CONTINUOUS
10
1.72127
20
-2.72643
11
1.72146
21
-2.72835
0
LINE
8
BLACK
6
CONTINUOUS
10
1.72146
20
-2.72835
11
1.72146
21
-2.74803
0
LINE
8
BLACK
6
CONTINUOUS
10
1.72146
20
-2.74803
11
1.72127
21
-2.74995
0
LINE
8
BLACK
6
CONTINUOUS
10
1.72127
20
-2.74995
11
1.72071
21
-2.7518
0
LINE
8
BLACK
6
CONTINUOUS
10
1.72071
20
-2.7518
11
1.7198
21
-2.7535
0
LINE
8
BLACK
6
CONTINUOUS
10
1.7198
20
-2.7535
11
1.71857
21
-2.75499
0
LINE
8
BLACK
6
CONTINUOUS
10
1.71857
20
-2.75499
11
1.71708
21
-2.75622
0
LINE
8
BLACK
6
CONTINUOUS
10
1.71708
20
-2.75622
11
1.71538
21
-2.75712
0
LINE
8
BLACK
6
CONTINUOUS
10
1.71538
20
-2.75712
11
1.71353
21
-2.75768
0
LINE
8
BLACK
6
CONTINUOUS
10
1.71353
20
-2.75768
11
1.71161
21
-2.75787
0
LINE
8
BLACK
6
CONTINUOUS
10
1.71161
20
-2.75787
11
1.67421
21
-2.75787
0
LINE
8
BLACK
6
CONTINUOUS
10
1.67421
20
-2.75787
11
1.67229
21
-2.75768
0
LINE
8
BLACK
6
CONTINUOUS
10
1.67229
20
-2.75768
11
1.67045
21
-2.75712
0
LINE
8
BLACK
6
CONTINUOUS
10
1.67045
20
-2.75712
11
1.66874
21
-2.75622
0
LINE
8
BLACK
6
CONTINUOUS
10
1.66874
20
-2.75622
11
1.66725
21
-2.75499
0
LINE
8
BLACK
6
CONTINUOUS
10
1.66725
20
-2.75499
11
1.66603
21
-2.7535
0
LINE
8
BLACK
6
CONTINUOUS
10
1.66603
20
-2.7535
11
1.66512
21
-2.7518
0
LINE
8
BLACK
6
CONTINUOUS
10
1.66512
20
-2.7518
11
1.66456
21
-2.74995
0
LINE
8
BLACK
6
CONTINUOUS
10
1.66456
20
-2.74995
11
1.66437
21
-2.74803
0
LINE
8
BLACK
6
CONTINUOUS
10
1.66437
20
-2.74803
11
1.66437
21
-2.72835
0
LINE
8
BLACK
6
CONTINUOUS
10
1.66437
20
-2.72835
11
1.66456
21
-2.72643
0
LINE
8
BLACK
6
CONTINUOUS
10
1.66456
20
-2.72643
11
1.66512
21
-2.72458
0
LINE
8
BLACK
6
CONTINUOUS
10
1.66512
20
-2.72458
11
1.66603
21
-2.72288
0
LINE
8
BLACK
6
CONTINUOUS
10
1.66603
20
-2.72288
11
1.66725
21
-2.72139
0
LINE
8
BLACK
6
CONTINUOUS
10
1.66725
20
-2.72139
11
1.66874
21
-2.72016
0
LINE
8
BLACK
6
CONTINUOUS
10
1.66874
20
-2.72016
11
1.67045
21
-2.71925
0
LINE
8
BLACK
6
CONTINUOUS
10
1.67045
20
-2.71925
11
1.67229
21
-2.71869
0
LINE
8
BLACK
6
CONTINUOUS
10
1.67229
20
-2.71869
11
1.67421
21
-2.7185
0
LINE
8
BLACK
6
CONTINUOUS
10
1.67421
20
-2.7185
11
1.71161
21
-2.7185
0
LINE
8
BLACK
6
CONTINUOUS
10
1.71161
20
-2.7185
11
1.71353
21
-2.71869
0
LINE
8
BLACK
6
CONTINUOUS
10
2.93322
20
-2.70245
11
2.93502
21
-2.70299
0
LINE
8
BLACK
6
CONTINUOUS
10
2.93502
20
-2.70299
11
2.93668
21
-2.70388
0
LINE
8
BLACK
6
CONTINUOUS
10
2.93668
20
-2.70388
11
2.93813
21
-2.70507
0
LINE
8
BLACK
6
CONTINUOUS
10
2.93813
20
-2.70507
11
2.93933
21
-2.70653
0
LINE
8
BLACK
6
CONTINUOUS
10
2.93933
20
-2.70653
11
2.94021
21
-2.70819
0
LINE
8
BLACK
6
CONTINUOUS
10
2.94021
20
-2.70819
11
2.94076
21
-2.70999
0
LINE
8
BLACK
6
CONTINUOUS
10
2.94076
20
-2.70999
11
2.94094
21
-2.71186
0
LINE
8
BLACK
6
CONTINUOUS
10
2.94094
20
-2.71186
11
2.94094
21
-2.73105
0
LINE
8
BLACK
6
CONTINUOUS
10
2.94094
20
-2.73105
11
2.94076
21
-2.73293
0
LINE
8
BLACK
6
CONTINUOUS
10
2.94076
20
-2.73293
11
2.94021
21
-2.73473
0
LINE
8
BLACK
6
CONTINUOUS
10
2.94021
20
-2.73473
11
2.93933
21
-2.73638
0
LINE
8
BLACK
6
CONTINUOUS
10
2.93933
20
-2.73638
11
2.93813
21
-2.73784
0
LINE
8
BLACK
6
CONTINUOUS
10
2.93813
20
-2.73784
11
2.93668
21
-2.73903
0
LINE
8
BLACK
6
CONTINUOUS
10
2.93668
20
-2.73903
11
2.93502
21
-2.73992
0
LINE
8
BLACK
6
CONTINUOUS
10
2.93502
20
-2.73992
11
2.93322
21
-2.74047
0
LINE
8
BLACK
6
CONTINUOUS
10
2.93322
20
-2.74047
11
2.93135
21
-2.74065
0
LINE
8
BLACK
6
CONTINUOUS
10
2.93135
20
-2.74065
11
2.89542
21
-2.74065
0
LINE
8
BLACK
6
CONTINUOUS
10
2.89542
20
-2.74065
11
2.89355
21
-2.74047
0
LINE
8
BLACK
6
CONTINUOUS
10
2.89355
20
-2.74047
11
2.89175
21
-2.73992
0
LINE
8
BLACK
6
CONTINUOUS
10
2.89175
20
-2.73992
11
2.89009
21
-2.73903
0
LINE
8
BLACK
6
CONTINUOUS
10
2.89009
20
-2.73903
11
2.88864
21
-2.73784
0
LINE
8
BLACK
6
CONTINUOUS
10
2.88864
20
-2.73784
11
2.88744
21
-2.73638
0
LINE
8
BLACK
6
CONTINUOUS
10
2.88744
20
-2.73638
11
2.88656
21
-2.73473
0
LINE
8
BLACK
6
CONTINUOUS
10
2.88656
20
-2.73473
11
2.88601
21
-2.73293
0
LINE
8
BLACK
6
CONTINUOUS
10
2.88601
20
-2.73293
11
2.88583
21
-2.73105
0
LINE
8
BLACK
6
CONTINUOUS
10
2.88583
20
-2.73105
11
2.88583
21
-2.71186
0
LINE
8
BLACK
6
CONTINUOUS
10
2.88583
20
-2.71186
11
2.88601
21
-2.70999
0
LINE
8
BLACK
6
CONTINUOUS
10
2.88601
20
-2.70999
11
2.88656
21
-2.70819
0
LINE
8
BLACK
6
CONTINUOUS
10
2.88656
20
-2.70819
11
2.88744
21
-2.70653
0
LINE
8
BLACK
6
CONTINUOUS
10
2.88744
20
-2.70653
11
2.88864
21
-2.70507
0
LINE
8
BLACK
6
CONTINUOUS
10
2.88864
20
-2.70507
11
2.89009
21
-2.70388
0
LINE
8
BLACK
6
CONTINUOUS
10
2.89009
20
-2.70388
11
2.89175
21
-2.70299
0
LINE
8
BLACK
6
CONTINUOUS
10
2.89175
20
-2.70299
11
2.89355
21
-2.70245
0
LINE
8
BLACK
6
CONTINUOUS
10
2.89355
20
-2.70245
11
2.89542
21
-2.70226
0
LINE
8
BLACK
6
CONTINUOUS
10
2.89542
20
-2.70226
11
2.93135
21
-2.70226
0
LINE
8
BLACK
6
CONTINUOUS
10
2.93135
20
-2.70226
11
2.93322
21
-2.70245
0
LINE
8
BLACK
6
CONTINUOUS
10
2.77653
20
-2.70098
11
2.77837
21
-2.70154
0
LINE
8
BLACK
6
CONTINUOUS
10
2.77837
20
-2.70154
11
2.78007
21
-2.70245
0
LINE
8
BLACK
6
CONTINUOUS
10
2.78007
20
-2.70245
11
2.78157
21
-2.70367
0
LINE
8
BLACK
6
CONTINUOUS
10
2.78157
20
-2.70367
11
2.78279
21
-2.70516
0
LINE
8
BLACK
6
CONTINUOUS
10
2.78279
20
-2.70516
11
2.7837
21
-2.70686
0
LINE
8
BLACK
6
CONTINUOUS
10
2.7837
20
-2.70686
11
2.78426
21
-2.70871
0
LINE
8
BLACK
6
CONTINUOUS
10
2.78426
20
-2.70871
11
2.78445
21
-2.71063
0
LINE
8
BLACK
6
CONTINUOUS
10
2.78445
20
-2.71063
11
2.78445
21
-2.73031
0
LINE
8
BLACK
6
CONTINUOUS
10
2.78445
20
-2.73031
11
2.78426
21
-2.73224
0
LINE
8
BLACK
6
CONTINUOUS
10
2.78426
20
-2.73224
11
2.7837
21
-2.73408
0
LINE
8
BLACK
6
CONTINUOUS
10
2.7837
20
-2.73408
11
2.78279
21
-2.73578
0
LINE
8
BLACK
6
CONTINUOUS
10
2.78279
20
-2.73578
11
2.78157
21
-2.73727
0
LINE
8
BLACK
6
CONTINUOUS
10
2.78157
20
-2.73727
11
2.78007
21
-2.7385
0
LINE
8
BLACK
6
CONTINUOUS
10
2.78007
20
-2.7385
11
2.77837
21
-2.73941
0
LINE
8
BLACK
6
CONTINUOUS
10
2.77837
20
-2.73941
11
2.77653
21
-2.73997
0
LINE
8
BLACK
6
CONTINUOUS
10
2.77653
20
-2.73997
11
2.77461
21
-2.74016
0
LINE
8
BLACK
6
CONTINUOUS
10
2.77461
20
-2.74016
11
2.7372
21
-2.74016
0
LINE
8
BLACK
6
CONTINUOUS
10
2.7372
20
-2.74016
11
2.73528
21
-2.73997
0
LINE
8
BLACK
6
CONTINUOUS
10
2.73528
20
-2.73997
11
2.73344
21
-2.73941
0
LINE
8
BLACK
6
CONTINUOUS
10
2.73344
20
-2.73941
11
2.73174
21
-2.7385
0
LINE
8
BLACK
6
CONTINUOUS
10
2.73174
20
-2.7385
11
2.73025
21
-2.73727
0
LINE
8
BLACK
6
CONTINUOUS
10
2.73025
20
-2.73727
11
2.72902
21
-2.73578
0
LINE
8
BLACK
6
CONTINUOUS
10
2.72902
20
-2.73578
11
2.72811
21
-2.73408
0
LINE
8
BLACK
6
CONTINUOUS
10
2.72811
20
-2.73408
11
2.72755
21
-2.73224
0
LINE
8
BLACK
6
CONTINUOUS
10
2.72755
20
-2.73224
11
2.72736
21
-2.73031
0
LINE
8
BLACK
6
CONTINUOUS
10
2.72736
20
-2.73031
11
2.72736
21
-2.71063
0
LINE
8
BLACK
6
CONTINUOUS
10
2.72736
20
-2.71063
11
2.72755
21
-2.70871
0
LINE
8
BLACK
6
CONTINUOUS
10
2.72755
20
-2.70871
11
2.72811
21
-2.70686
0
LINE
8
BLACK
6
CONTINUOUS
10
2.72811
20
-2.70686
11
2.72902
21
-2.70516
0
LINE
8
BLACK
6
CONTINUOUS
10
2.72902
20
-2.70516
11
2.73025
21
-2.70367
0
LINE
8
BLACK
6
CONTINUOUS
10
2.73025
20
-2.70367
11
2.73174
21
-2.70245
0
LINE
8
BLACK
6
CONTINUOUS
10
2.73174
20
-2.70245
11
2.73344
21
-2.70154
0
LINE
8
BLACK
6
CONTINUOUS
10
2.73344
20
-2.70154
11
2.73528
21
-2.70098
0
LINE
8
BLACK
6
CONTINUOUS
10
2.73528
20
-2.70098
11
2.7372
21
-2.70079
0
LINE
8
BLACK
6
CONTINUOUS
10
2.7372
20
-2.70079
11
2.77461
21
-2.70079
0
LINE
8
BLACK
6
CONTINUOUS
10
2.77461
20
-2.70079
11
2.77653
21
-2.70098
0
LINE
8
BLACK
6
CONTINUOUS
10
2.85527
20
-2.70098
11
2.85711
21
-2.70154
0
LINE
8
BLACK
6
CONTINUOUS
10
2.85711
20
-2.70154
11
2.85881
21
-2.70245
0
LINE
8
BLACK
6
CONTINUOUS
10
2.85881
20
-2.70245
11
2.86031
21
-2.70367
0
LINE
8
BLACK
6
CONTINUOUS
10
2.86031
20
-2.70367
11
2.86153
21
-2.70516
0
LINE
8
BLACK
6
CONTINUOUS
10
2.86153
20
-2.70516
11
2.86244
21
-2.70686
0
LINE
8
BLACK
6
CONTINUOUS
10
2.86244
20
-2.70686
11
2.863
21
-2.70871
0
LINE
8
BLACK
6
CONTINUOUS
10
2.863
20
-2.70871
11
2.86319
21
-2.71063
0
LINE
8
BLACK
6
CONTINUOUS
10
2.86319
20
-2.71063
11
2.86319
21
-2.73031
0
LINE
8
BLACK
6
CONTINUOUS
10
2.86319
20
-2.73031
11
2.863
21
-2.73224
0
LINE
8
BLACK
6
CONTINUOUS
10
2.863
20
-2.73224
11
2.86244
21
-2.73408
0
LINE
8
BLACK
6
CONTINUOUS
10
2.86244
20
-2.73408
11
2.86153
21
-2.73578
0
LINE
8
BLACK
6
CONTINUOUS
10
2.86153
20
-2.73578
11
2.86031
21
-2.73727
0
LINE
8
BLACK
6
CONTINUOUS
10
2.86031
20
-2.73727
11
2.85881
21
-2.7385
0
LINE
8
BLACK
6
CONTINUOUS
10
2.85881
20
-2.7385
11
2.85711
21
-2.73941
0
LINE
8
BLACK
6
CONTINUOUS
10
2.85711
20
-2.73941
11
2.85527
21
-2.73997
0
LINE
8
BLACK
6
CONTINUOUS
10
2.85527
20
-2.73997
11
2.85335
21
-2.74016
0
LINE
8
BLACK
6
CONTINUOUS
10
2.85335
20
-2.74016
11
2.81594
21
-2.74016
0
LINE
8
BLACK
6
CONTINUOUS
10
2.81594
20
-2.74016
11
2.81402
21
-2.73997
0
LINE
8
BLACK
6
CONTINUOUS
10
2.81402
20
-2.73997
11
2.81218
21
-2.73941
0
LINE
8
BLACK
6
CONTINUOUS
10
2.81218
20
-2.73941
11
2.81048
21
-2.7385
0
LINE
8
BLACK
6
CONTINUOUS
10
2.81048
20
-2.7385
11
2.80899
21
-2.73727
0
LINE
8
BLACK
6
CONTINUOUS
10
2.80899
20
-2.73727
11
2.80776
21
-2.73578
0
LINE
8
BLACK
6
CONTINUOUS
10
2.80776
20
-2.73578
11
2.80685
21
-2.73408
0
LINE
8
BLACK
6
CONTINUOUS
10
2.80685
20
-2.73408
11
2.80629
21
-2.73224
0
LINE
8
BLACK
6
CONTINUOUS
10
2.80629
20
-2.73224
11
2.8061
21
-2.73031
0
LINE
8
BLACK
6
CONTINUOUS
10
2.8061
20
-2.73031
11
2.8061
21
-2.71063
0
LINE
8
BLACK
6
CONTINUOUS
10
2.8061
20
-2.71063
11
2.80629
21
-2.70871
0
LINE
8
BLACK
6
CONTINUOUS
10
2.80629
20
-2.70871
11
2.80685
21
-2.70686
0
LINE
8
BLACK
6
CONTINUOUS
10
2.80685
20
-2.70686
11
2.80776
21
-2.70516
0
LINE
8
BLACK
6
CONTINUOUS
10
2.80776
20
-2.70516
11
2.80899
21
-2.70367
0
LINE
8
BLACK
6
CONTINUOUS
10
2.80899
20
-2.70367
11
2.81048
21
-2.70245
0
LINE
8
BLACK
6
CONTINUOUS
10
2.81048
20
-2.70245
11
2.81218
21
-2.70154
0
LINE
8
BLACK
6
CONTINUOUS
10
2.81218
20
-2.70154
11
2.81402
21
-2.70098
0
LINE
8
BLACK
6
CONTINUOUS
10
2.81402
20
-2.70098
11
2.81594
21
-2.70079
0
LINE
8
BLACK
6
CONTINUOUS
10
2.81594
20
-2.70079
11
2.85335
21
-2.70079
0
LINE
8
BLACK
6
CONTINUOUS
10
2.85335
20
-2.70079
11
2.85527
21
-2.70098
0
LINE
8
BLACK
6
CONTINUOUS
10
3.04091
20
-2.70291
11
3.04238
21
-2.70336
0
LINE
8
BLACK
6
CONTINUOUS
10
3.04238
20
-2.70336
11
3.04374
21
-2.70408
0
LINE
8
BLACK
6
CONTINUOUS
10
3.04374
20
-2.70408
11
3.04494
21
-2.70506
0
LINE
8
BLACK
6
CONTINUOUS
10
3.04494
20
-2.70506
11
3.04592
21
-2.70626
0
LINE
8
BLACK
6
CONTINUOUS
10
3.04592
20
-2.70626
11
3.04664
21
-2.70762
0
LINE
8
BLACK
6
CONTINUOUS
10
3.04664
20
-2.70762
11
3.04709
21
-2.70909
0
LINE
8
BLACK
6
CONTINUOUS
10
3.04709
20
-2.70909
11
3.04724
21
-2.71063
0
LINE
8
BLACK
6
CONTINUOUS
10
3.04724
20
-2.71063
11
3.04724
21
-2.72638
0
LINE
8
BLACK
6
CONTINUOUS
10
3.04724
20
-2.72638
11
3.04709
21
-2.72791
0
LINE
8
BLACK
6
CONTINUOUS
10
3.04709
20
-2.72791
11
3.04664
21
-2.72939
0
LINE
8
BLACK
6
CONTINUOUS
10
3.04664
20
-2.72939
11
3.04592
21
-2.73075
0
LINE
8
BLACK
6
CONTINUOUS
10
3.04592
20
-2.73075
11
3.04494
21
-2.73195
0
LINE
8
BLACK
6
CONTINUOUS
10
3.04494
20
-2.73195
11
3.04374
21
-2.73292
0
LINE
8
BLACK
6
CONTINUOUS
10
3.04374
20
-2.73292
11
3.04238
21
-2.73365
0
LINE
8
BLACK
6
CONTINUOUS
10
3.04238
20
-2.73365
11
3.04091
21
-2.7341
0
LINE
8
BLACK
6
CONTINUOUS
10
3.04091
20
-2.7341
11
3.03937
21
-2.73425
0
LINE
8
BLACK
6
CONTINUOUS
10
3.03937
20
-2.73425
11
3.00394
21
-2.73425
0
LINE
8
BLACK
6
CONTINUOUS
10
3.00394
20
-2.73425
11
3.0024
21
-2.7341
0
LINE
8
BLACK
6
CONTINUOUS
10
3.0024
20
-2.7341
11
3.00092
21
-2.73365
0
LINE
8
BLACK
6
CONTINUOUS
10
3.00092
20
-2.73365
11
2.99956
21
-2.73292
0
LINE
8
BLACK
6
CONTINUOUS
10
2.99956
20
-2.73292
11
2.99837
21
-2.73195
0
LINE
8
BLACK
6
CONTINUOUS
10
2.99837
20
-2.73195
11
2.99739
21
-2.73075
0
LINE
8
BLACK
6
CONTINUOUS
10
2.99739
20
-2.73075
11
2.99666
21
-2.72939
0
LINE
8
BLACK
6
CONTINUOUS
10
2.99666
20
-2.72939
11
2.99621
21
-2.72791
0
LINE
8
BLACK
6
CONTINUOUS
10
2.99621
20
-2.72791
11
2.99606
21
-2.72638
0
LINE
8
BLACK
6
CONTINUOUS
10
2.99606
20
-2.72638
11
2.99606
21
-2.71063
0
LINE
8
BLACK
6
CONTINUOUS
10
2.99606
20
-2.71063
11
2.99621
21
-2.70909
0
LINE
8
BLACK
6
CONTINUOUS
10
2.99621
20
-2.70909
11
2.99666
21
-2.70762
0
LINE
8
BLACK
6
CONTINUOUS
10
2.99666
20
-2.70762
11
2.99739
21
-2.70626
0
LINE
8
BLACK
6
CONTINUOUS
10
2.99739
20
-2.70626
11
2.99837
21
-2.70506
0
LINE
8
BLACK
6
CONTINUOUS
10
2.99837
20
-2.70506
11
2.99956
21
-2.70408
0
LINE
8
BLACK
6
CONTINUOUS
10
2.99956
20
-2.70408
11
3.00092
21
-2.70336
0
LINE
8
BLACK
6
CONTINUOUS
10
3.00092
20
-2.70336
11
3.0024
21
-2.70291
0
LINE
8
BLACK
6
CONTINUOUS
10
3.0024
20
-2.70291
11
3.00394
21
-2.70276
0
LINE
8
BLACK
6
CONTINUOUS
10
3.00394
20
-2.70276
11
3.03937
21
-2.70276
0
LINE
8
BLACK
6
CONTINUOUS
10
3.03937
20
-2.70276
11
3.04091
21
-2.70291
0
LINE
8
BLACK
6
CONTINUOUS
10
3.18105
20
-2.57696
11
3.1829
21
-2.57752
0
LINE
8
BLACK
6
CONTINUOUS
10
3.1829
20
-2.57752
11
3.1846
21
-2.57843
0
LINE
8
BLACK
6
CONTINUOUS
10
3.1846
20
-2.57843
11
3.18609
21
-2.57965
0
LINE
8
BLACK
6
CONTINUOUS
10
3.18609
20
-2.57965
11
3.18732
21
-2.58115
0
LINE
8
BLACK
6
CONTINUOUS
10
3.18732
20
-2.58115
11
3.18823
21
-2.58285
0
LINE
8
BLACK
6
CONTINUOUS
10
3.18823
20
-2.58285
11
3.18879
21
-2.58469
0
LINE
8
BLACK
6
CONTINUOUS
10
3.18879
20
-2.58469
11
3.18898
21
-2.58661
0
LINE
8
BLACK
6
CONTINUOUS
10
3.18898
20
-2.58661
11
3.18898
21
-2.64961
0
LINE
8
BLACK
6
CONTINUOUS
10
3.18898
20
-2.64961
11
3.18879
21
-2.65153
0
LINE
8
BLACK
6
CONTINUOUS
10
3.18879
20
-2.65153
11
3.18823
21
-2.65337
0
LINE
8
BLACK
6
CONTINUOUS
10
3.18823
20
-2.65337
11
3.18732
21
-2.65507
0
LINE
8
BLACK
6
CONTINUOUS
10
3.18732
20
-2.65507
11
3.18609
21
-2.65657
0
LINE
8
BLACK
6
CONTINUOUS
10
3.18609
20
-2.65657
11
3.1846
21
-2.65779
0
LINE
8
BLACK
6
CONTINUOUS
10
3.1846
20
-2.65779
11
3.1829
21
-2.6587
0
LINE
8
BLACK
6
CONTINUOUS
10
3.1829
20
-2.6587
11
3.18105
21
-2.65926
0
LINE
8
BLACK
6
CONTINUOUS
10
3.18105
20
-2.65926
11
3.17913
21
-2.65945
0
LINE
8
BLACK
6
CONTINUOUS
10
3.17913
20
-2.65945
11
3.08071
21
-2.65945
0
LINE
8
BLACK
6
CONTINUOUS
10
3.08071
20
-2.65945
11
3.07879
21
-2.65926
0
LINE
8
BLACK
6
CONTINUOUS
10
3.07879
20
-2.65926
11
3.07694
21
-2.6587
0
LINE
8
BLACK
6
CONTINUOUS
10
3.07694
20
-2.6587
11
3.07524
21
-2.65779
0
LINE
8
BLACK
6
CONTINUOUS
10
3.07524
20
-2.65779
11
3.07375
21
-2.65657
0
LINE
8
BLACK
6
CONTINUOUS
10
3.07375
20
-2.65657
11
3.07252
21
-2.65507
0
LINE
8
BLACK
6
CONTINUOUS
10
3.07252
20
-2.65507
11
3.07162
21
-2.65337
0
LINE
8
BLACK
6
CONTINUOUS
10
3.07162
20
-2.65337
11
3.07106
21
-2.65153
0
LINE
8
BLACK
6
CONTINUOUS
10
3.07106
20
-2.65153
11
3.07087
21
-2.64961
0
LINE
8
BLACK
6
CONTINUOUS
10
3.07087
20
-2.64961
11
3.07087
21
-2.58661
0
LINE
8
BLACK
6
CONTINUOUS
10
3.07087
20
-2.58661
11
3.07106
21
-2.58469
0
LINE
8
BLACK
6
CONTINUOUS
10
3.07106
20
-2.58469
11
3.07162
21
-2.58285
0
LINE
8
BLACK
6
CONTINUOUS
10
3.07162
20
-2.58285
11
3.07252
21
-2.58115
0
LINE
8
BLACK
6
CONTINUOUS
10
3.07252
20
-2.58115
11
3.07375
21
-2.57965
0
LINE
8
BLACK
6
CONTINUOUS
10
3.07375
20
-2.57965
11
3.07524
21
-2.57843
0
LINE
8
BLACK
6
CONTINUOUS
10
3.07524
20
-2.57843
11
3.07694
21
-2.57752
0
LINE
8
BLACK
6
CONTINUOUS
10
3.07694
20
-2.57752
11
3.07879
21
-2.57696
0
LINE
8
BLACK
6
CONTINUOUS
10
3.07879
20
-2.57696
11
3.08071
21
-2.57677
0
LINE
8
BLACK
6
CONTINUOUS
10
3.08071
20
-2.57677
11
3.17913
21
-2.57677
0
LINE
8
BLACK
6
CONTINUOUS
10
3.17913
20
-2.57677
11
3.18105
21
-2.57696
0
LINE
8
BLACK
6
CONTINUOUS
10
2.55999
20
-2.32106
11
2.56184
21
-2.32162
0
LINE
8
BLACK
6
CONTINUOUS
10
2.56184
20
-2.32162
11
2.56354
21
-2.32252
0
LINE
8
BLACK
6
CONTINUOUS
10
2.56354
20
-2.32252
11
2.56503
21
-2.32375
0
LINE
8
BLACK
6
CONTINUOUS
10
2.56503
20
-2.32375
11
2.56625
21
-2.32524
0
LINE
8
BLACK
6
CONTINUOUS
10
2.56625
20
-2.32524
11
2.56716
21
-2.32694
0
LINE
8
BLACK
6
CONTINUOUS
10
2.56716
20
-2.32694
11
2.56772
21
-2.32879
0
LINE
8
BLACK
6
CONTINUOUS
10
2.56772
20
-2.32879
11
2.56791
21
-2.33071
0
LINE
8
BLACK
6
CONTINUOUS
10
2.56791
20
-2.33071
11
2.56791
21
-2.35039
0
LINE
8
BLACK
6
CONTINUOUS
10
2.56791
20
-2.35039
11
2.56772
21
-2.35231
0
LINE
8
BLACK
6
CONTINUOUS
10
2.56772
20
-2.35231
11
2.56716
21
-2.35416
0
LINE
8
BLACK
6
CONTINUOUS
10
2.56716
20
-2.35416
11
2.56625
21
-2.35586
0
LINE
8
BLACK
6
CONTINUOUS
10
2.56625
20
-2.35586
11
2.56503
21
-2.35735
0
LINE
8
BLACK
6
CONTINUOUS
10
2.56503
20
-2.35735
11
2.56354
21
-2.35858
0
LINE
8
BLACK
6
CONTINUOUS
10
2.56354
20
-2.35858
11
2.56184
21
-2.35949
0
LINE
8
BLACK
6
CONTINUOUS
10
2.56184
20
-2.35949
11
2.55999
21
-2.36005
0
LINE
8
BLACK
6
CONTINUOUS
10
2.55999
20
-2.36005
11
2.55807
21
-2.36024
0
LINE
8
BLACK
6
CONTINUOUS
10
2.55807
20
-2.36024
11
2.52067
21
-2.36024
0
LINE
8
BLACK
6
CONTINUOUS
10
2.52067
20
-2.36024
11
2.51875
21
-2.36005
0
LINE
8
BLACK
6
CONTINUOUS
10
2.51875
20
-2.36005
11
2.5169
21
-2.35949
0
LINE
8
BLACK
6
CONTINUOUS
10
2.5169
20
-2.35949
11
2.5152
21
-2.35858
0
LINE
8
BLACK
6
CONTINUOUS
10
2.5152
20
-2.35858
11
2.51371
21
-2.35735
0
LINE
8
BLACK
6
CONTINUOUS
10
2.51371
20
-2.35735
11
2.51249
21
-2.35586
0
LINE
8
BLACK
6
CONTINUOUS
10
2.51249
20
-2.35586
11
2.51158
21
-2.35416
0
LINE
8
BLACK
6
CONTINUOUS
10
2.51158
20
-2.35416
11
2.51102
21
-2.35231
0
LINE
8
BLACK
6
CONTINUOUS
10
2.51102
20
-2.35231
11
2.51083
21
-2.35039
0
LINE
8
BLACK
6
CONTINUOUS
10
2.51083
20
-2.35039
11
2.51083
21
-2.33071
0
LINE
8
BLACK
6
CONTINUOUS
10
2.51083
20
-2.33071
11
2.51102
21
-2.32879
0
LINE
8
BLACK
6
CONTINUOUS
10
2.51102
20
-2.32879
11
2.51158
21
-2.32694
0
LINE
8
BLACK
6
CONTINUOUS
10
2.51158
20
-2.32694
11
2.51249
21
-2.32524
0
LINE
8
BLACK
6
CONTINUOUS
10
2.51249
20
-2.32524
11
2.51371
21
-2.32375
0
LINE
8
BLACK
6
CONTINUOUS
10
2.51371
20
-2.32375
11
2.5152
21
-2.32252
0
LINE
8
BLACK
6
CONTINUOUS
10
2.5152
20
-2.32252
11
2.5169
21
-2.32162
0
LINE
8
BLACK
6
CONTINUOUS
10
2.5169
20
-2.32162
11
2.51875
21
-2.32106
0
LINE
8
BLACK
6
CONTINUOUS
10
2.51875
20
-2.32106
11
2.52067
21
-2.32087
0
LINE
8
BLACK
6
CONTINUOUS
10
2.52067
20
-2.32087
11
2.55807
21
-2.32087
0
LINE
8
BLACK
6
CONTINUOUS
10
2.55807
20
-2.32087
11
2.55999
21
-2.32106
0
LINE
8
BLACK
6
CONTINUOUS
10
2.55999
20
-2.24625
11
2.56184
21
-2.24681
0
LINE
8
BLACK
6
CONTINUOUS
10
2.56184
20
-2.24681
11
2.56354
21
-2.24772
0
LINE
8
BLACK
6
CONTINUOUS
10
2.56354
20
-2.24772
11
2.56503
21
-2.24895
0
LINE
8
BLACK
6
CONTINUOUS
10
2.56503
20
-2.24895
11
2.56625
21
-2.25044
0
LINE
8
BLACK
6
CONTINUOUS
10
2.56625
20
-2.25044
11
2.56716
21
-2.25214
0
LINE
8
BLACK
6
CONTINUOUS
10
2.56716
20
-2.25214
11
2.56772
21
-2.25399
0
LINE
8
BLACK
6
CONTINUOUS
10
2.56772
20
-2.25399
11
2.56791
21
-2.25591
0
LINE
8
BLACK
6
CONTINUOUS
10
2.56791
20
-2.25591
11
2.56791
21
-2.27559
0
LINE
8
BLACK
6
CONTINUOUS
10
2.56791
20
-2.27559
11
2.56772
21
-2.27751
0
LINE
8
BLACK
6
CONTINUOUS
10
2.56772
20
-2.27751
11
2.56716
21
-2.27936
0
LINE
8
BLACK
6
CONTINUOUS
10
2.56716
20
-2.27936
11
2.56625
21
-2.28106
0
LINE
8
BLACK
6
CONTINUOUS
10
2.56625
20
-2.28106
11
2.56503
21
-2.28255
0
LINE
8
BLACK
6
CONTINUOUS
10
2.56503
20
-2.28255
11
2.56354
21
-2.28377
0
LINE
8
BLACK
6
CONTINUOUS
10
2.56354
20
-2.28377
11
2.56184
21
-2.28468
0
LINE
8
BLACK
6
CONTINUOUS
10
2.56184
20
-2.28468
11
2.55999
21
-2.28524
0
LINE
8
BLACK
6
CONTINUOUS
10
2.55999
20
-2.28524
11
2.55807
21
-2.28543
0
LINE
8
BLACK
6
CONTINUOUS
10
2.55807
20
-2.28543
11
2.52067
21
-2.28543
0
LINE
8
BLACK
6
CONTINUOUS
10
2.52067
20
-2.28543
11
2.51875
21
-2.28524
0
LINE
8
BLACK
6
CONTINUOUS
10
2.51875
20
-2.28524
11
2.5169
21
-2.28468
0
LINE
8
BLACK
6
CONTINUOUS
10
2.5169
20
-2.28468
11
2.5152
21
-2.28377
0
LINE
8
BLACK
6
CONTINUOUS
10
2.5152
20
-2.28377
11
2.51371
21
-2.28255
0
LINE
8
BLACK
6
CONTINUOUS
10
2.51371
20
-2.28255
11
2.51249
21
-2.28106
0
LINE
8
BLACK
6
CONTINUOUS
10
2.51249
20
-2.28106
11
2.51158
21
-2.27936
0
LINE
8
BLACK
6
CONTINUOUS
10
2.51158
20
-2.27936
11
2.51102
21
-2.27751
0
LINE
8
BLACK
6
CONTINUOUS
10
2.51102
20
-2.27751
11
2.51083
21
-2.27559
0
LINE
8
BLACK
6
CONTINUOUS
10
2.51083
20
-2.27559
11
2.51083
21
-2.25591
0
LINE
8
BLACK
6
CONTINUOUS
10
2.51083
20
-2.25591
11
2.51102
21
-2.25399
0
LINE
8
BLACK
6
CONTINUOUS
10
2.51102
20
-2.25399
11
2.51158
21
-2.25214
0
LINE
8
BLACK
6
CONTINUOUS
10
2.51158
20
-2.25214
11
2.51249
21
-2.25044
0
LINE
8
BLACK
6
CONTINUOUS
10
2.51249
20
-2.25044
11
2.51371
21
-2.24895
0
LINE
8
BLACK
6
CONTINUOUS
10
2.51371
20
-2.24895
11
2.5152
21
-2.24772
0
LINE
8
BLACK
6
CONTINUOUS
10
2.5152
20
-2.24772
11
2.5169
21
-2.24681
0
LINE
8
BLACK
6
CONTINUOUS
10
2.5169
20
-2.24681
11
2.51875
21
-2.24625
0
LINE
8
BLACK
6
CONTINUOUS
10
2.51875
20
-2.24625
11
2.52067
21
-2.24606
0
LINE
8
BLACK
6
CONTINUOUS
10
2.52067
20
-2.24606
11
2.55807
21
-2.24606
0
LINE
8
BLACK
6
CONTINUOUS
10
2.55807
20
-2.24606
11
2.55999
21
-2.24625
  0
ENDSEC
  0
EOF
