  0
SECTION
  2
HEADER
  9
$ANGBASE
  50
0.0
  9
$ANGDIR
  70
1
  9
$MEASUREMENT
  70
0
  0
ENDSEC
  0
SECTION
  2
TABLES
  0
TABLE
  2
LTYPE
  70
4
  0
LTYPE
  5
40F
  2
CONTINUOUS
  70
0
  3
Solid line
  72
65
  73
0
  40
0.0
  0
LTYPE
  5
410
  2
DASHDOT
 70
0
  3
Dash Dot ____ _ ____ _
 72
65
 73
4
 40
2.0
 49
1.25
 49
-0.25
 49
0.25
 49
-0.25
  0
LTYPE
  5
411
  2
DASHED
 70
0
  3
Dashed __ __ __ __ __
 72
65
 73
2
 40
0.75
 49
0.5
 49
-0.25
  0
LTYPE
  5
43B
  2
DOTTED
 70
0
  3
Dotted .  .  .  .
 72
65
 73
2
 40
0.2
 49
0.0
 49
-0.2
  0
ENDTAB
  0
TABLE
  2
STYLE
  70
4
  0
STYLE
  2
KICAD
  70
0
  40
0
  41
1
  42
1
  50
0
  71
0
  3
isocp.shx
  0
STYLE
  2
KICADB
  70
0
  40
0
  41
1
  42
1
  50
0
  71
0
  3
isocp.shx
  0
STYLE
  2
KICADI
  70
0
  40
0
  41
1
  42
1
  50
15
  71
0
  3
isocp.shx
  0
STYLE
  2
KICADBI
  70
0
  40
0
  41
1
  42
1
  50
15
  71
0
  3
isocp.shx
  0
ENDTAB
  0
TABLE
  2
LAYER
  70
1
  0
LAYER
  2
BLACK
  70
0
  62
7
  6
CONTINUOUS
  0
ENDTAB
  0
ENDSEC
  0
SECTION
  2
ENTITIES
0
LINE
8
BLACK
6
CONTINUOUS
10
2.44488
20
-3.98425
11
2.40551
21
-3.98425
0
LINE
8
BLACK
6
CONTINUOUS
10
2.40551
20
-3.98425
11
2.40551
21
-3.9252
0
LINE
8
BLACK
6
CONTINUOUS
10
2.40551
20
-3.9252
11
2.44488
21
-3.9252
0
LINE
8
BLACK
6
CONTINUOUS
10
2.44488
20
-3.9252
11
2.44488
21
-3.98425
0
LINE
8
BLACK
6
CONTINUOUS
10
2.3189
20
-3.98425
11
2.27953
21
-3.98425
0
LINE
8
BLACK
6
CONTINUOUS
10
2.27953
20
-3.98425
11
2.27953
21
-3.9252
0
LINE
8
BLACK
6
CONTINUOUS
10
2.27953
20
-3.9252
11
2.3189
21
-3.9252
0
LINE
8
BLACK
6
CONTINUOUS
10
2.3189
20
-3.9252
11
2.3189
21
-3.98425
0
LINE
8
BLACK
6
CONTINUOUS
10
2.20566
20
-3.87617
11
2.20751
21
-3.87673
0
LINE
8
BLACK
6
CONTINUOUS
10
2.20751
20
-3.87673
11
2.20921
21
-3.87764
0
LINE
8
BLACK
6
CONTINUOUS
10
2.20921
20
-3.87764
11
2.2107
21
-3.87887
0
LINE
8
BLACK
6
CONTINUOUS
10
2.2107
20
-3.87887
11
2.21192
21
-3.88036
0
LINE
8
BLACK
6
CONTINUOUS
10
2.21192
20
-3.88036
11
2.21283
21
-3.88206
0
LINE
8
BLACK
6
CONTINUOUS
10
2.21283
20
-3.88206
11
2.21339
21
-3.88391
0
LINE
8
BLACK
6
CONTINUOUS
10
2.21339
20
-3.88391
11
2.21358
21
-3.88583
0
LINE
8
BLACK
6
CONTINUOUS
10
2.21358
20
-3.88583
11
2.21358
21
-3.90551
0
LINE
8
BLACK
6
CONTINUOUS
10
2.21358
20
-3.90551
11
2.21339
21
-3.90743
0
LINE
8
BLACK
6
CONTINUOUS
10
2.21339
20
-3.90743
11
2.21283
21
-3.90928
0
LINE
8
BLACK
6
CONTINUOUS
10
2.21283
20
-3.90928
11
2.21192
21
-3.91098
0
LINE
8
BLACK
6
CONTINUOUS
10
2.21192
20
-3.91098
11
2.2107
21
-3.91247
0
LINE
8
BLACK
6
CONTINUOUS
10
2.2107
20
-3.91247
11
2.20921
21
-3.9137
0
LINE
8
BLACK
6
CONTINUOUS
10
2.20921
20
-3.9137
11
2.20751
21
-3.91461
0
LINE
8
BLACK
6
CONTINUOUS
10
2.20751
20
-3.91461
11
2.20566
21
-3.91517
0
LINE
8
BLACK
6
CONTINUOUS
10
2.20566
20
-3.91517
11
2.20374
21
-3.91535
0
LINE
8
BLACK
6
CONTINUOUS
10
2.20374
20
-3.91535
11
2.16634
21
-3.91535
0
LINE
8
BLACK
6
CONTINUOUS
10
2.16634
20
-3.91535
11
2.16442
21
-3.91517
0
LINE
8
BLACK
6
CONTINUOUS
10
2.16442
20
-3.91517
11
2.16257
21
-3.91461
0
LINE
8
BLACK
6
CONTINUOUS
10
2.16257
20
-3.91461
11
2.16087
21
-3.9137
0
LINE
8
BLACK
6
CONTINUOUS
10
2.16087
20
-3.9137
11
2.15938
21
-3.91247
0
LINE
8
BLACK
6
CONTINUOUS
10
2.15938
20
-3.91247
11
2.15815
21
-3.91098
0
LINE
8
BLACK
6
CONTINUOUS
10
2.15815
20
-3.91098
11
2.15725
21
-3.90928
0
LINE
8
BLACK
6
CONTINUOUS
10
2.15725
20
-3.90928
11
2.15669
21
-3.90743
0
LINE
8
BLACK
6
CONTINUOUS
10
2.15669
20
-3.90743
11
2.1565
21
-3.90551
0
LINE
8
BLACK
6
CONTINUOUS
10
2.1565
20
-3.90551
11
2.1565
21
-3.88583
0
LINE
8
BLACK
6
CONTINUOUS
10
2.1565
20
-3.88583
11
2.15669
21
-3.88391
0
LINE
8
BLACK
6
CONTINUOUS
10
2.15669
20
-3.88391
11
2.15725
21
-3.88206
0
LINE
8
BLACK
6
CONTINUOUS
10
2.15725
20
-3.88206
11
2.15815
21
-3.88036
0
LINE
8
BLACK
6
CONTINUOUS
10
2.15815
20
-3.88036
11
2.15938
21
-3.87887
0
LINE
8
BLACK
6
CONTINUOUS
10
2.15938
20
-3.87887
11
2.16087
21
-3.87764
0
LINE
8
BLACK
6
CONTINUOUS
10
2.16087
20
-3.87764
11
2.16257
21
-3.87673
0
LINE
8
BLACK
6
CONTINUOUS
10
2.16257
20
-3.87673
11
2.16442
21
-3.87617
0
LINE
8
BLACK
6
CONTINUOUS
10
2.16442
20
-3.87617
11
2.16634
21
-3.87598
0
LINE
8
BLACK
6
CONTINUOUS
10
2.16634
20
-3.87598
11
2.20374
21
-3.87598
0
LINE
8
BLACK
6
CONTINUOUS
10
2.20374
20
-3.87598
11
2.20566
21
-3.87617
0
LINE
8
BLACK
6
CONTINUOUS
10
2.20566
20
-3.80137
11
2.20751
21
-3.80193
0
LINE
8
BLACK
6
CONTINUOUS
10
2.20751
20
-3.80193
11
2.20921
21
-3.80284
0
LINE
8
BLACK
6
CONTINUOUS
10
2.20921
20
-3.80284
11
2.2107
21
-3.80406
0
LINE
8
BLACK
6
CONTINUOUS
10
2.2107
20
-3.80406
11
2.21192
21
-3.80556
0
LINE
8
BLACK
6
CONTINUOUS
10
2.21192
20
-3.80556
11
2.21283
21
-3.80726
0
LINE
8
BLACK
6
CONTINUOUS
10
2.21283
20
-3.80726
11
2.21339
21
-3.8091
0
LINE
8
BLACK
6
CONTINUOUS
10
2.21339
20
-3.8091
11
2.21358
21
-3.81102
0
LINE
8
BLACK
6
CONTINUOUS
10
2.21358
20
-3.81102
11
2.21358
21
-3.83071
0
LINE
8
BLACK
6
CONTINUOUS
10
2.21358
20
-3.83071
11
2.21339
21
-3.83263
0
LINE
8
BLACK
6
CONTINUOUS
10
2.21339
20
-3.83263
11
2.21283
21
-3.83448
0
LINE
8
BLACK
6
CONTINUOUS
10
2.21283
20
-3.83448
11
2.21192
21
-3.83618
0
LINE
8
BLACK
6
CONTINUOUS
10
2.21192
20
-3.83618
11
2.2107
21
-3.83767
0
LINE
8
BLACK
6
CONTINUOUS
10
2.2107
20
-3.83767
11
2.20921
21
-3.83889
0
LINE
8
BLACK
6
CONTINUOUS
10
2.20921
20
-3.83889
11
2.20751
21
-3.8398
0
LINE
8
BLACK
6
CONTINUOUS
10
2.20751
20
-3.8398
11
2.20566
21
-3.84036
0
LINE
8
BLACK
6
CONTINUOUS
10
2.20566
20
-3.84036
11
2.20374
21
-3.84055
0
LINE
8
BLACK
6
CONTINUOUS
10
2.20374
20
-3.84055
11
2.16634
21
-3.84055
0
LINE
8
BLACK
6
CONTINUOUS
10
2.16634
20
-3.84055
11
2.16442
21
-3.84036
0
LINE
8
BLACK
6
CONTINUOUS
10
2.16442
20
-3.84036
11
2.16257
21
-3.8398
0
LINE
8
BLACK
6
CONTINUOUS
10
2.16257
20
-3.8398
11
2.16087
21
-3.83889
0
LINE
8
BLACK
6
CONTINUOUS
10
2.16087
20
-3.83889
11
2.15938
21
-3.83767
0
LINE
8
BLACK
6
CONTINUOUS
10
2.15938
20
-3.83767
11
2.15815
21
-3.83618
0
LINE
8
BLACK
6
CONTINUOUS
10
2.15815
20
-3.83618
11
2.15725
21
-3.83448
0
LINE
8
BLACK
6
CONTINUOUS
10
2.15725
20
-3.83448
11
2.15669
21
-3.83263
0
LINE
8
BLACK
6
CONTINUOUS
10
2.15669
20
-3.83263
11
2.1565
21
-3.83071
0
LINE
8
BLACK
6
CONTINUOUS
10
2.1565
20
-3.83071
11
2.1565
21
-3.81102
0
LINE
8
BLACK
6
CONTINUOUS
10
2.1565
20
-3.81102
11
2.15669
21
-3.8091
0
LINE
8
BLACK
6
CONTINUOUS
10
2.15669
20
-3.8091
11
2.15725
21
-3.80726
0
LINE
8
BLACK
6
CONTINUOUS
10
2.15725
20
-3.80726
11
2.15815
21
-3.80556
0
LINE
8
BLACK
6
CONTINUOUS
10
2.15815
20
-3.80556
11
2.15938
21
-3.80406
0
LINE
8
BLACK
6
CONTINUOUS
10
2.15938
20
-3.80406
11
2.16087
21
-3.80284
0
LINE
8
BLACK
6
CONTINUOUS
10
2.16087
20
-3.80284
11
2.16257
21
-3.80193
0
LINE
8
BLACK
6
CONTINUOUS
10
2.16257
20
-3.80193
11
2.16442
21
-3.80137
0
LINE
8
BLACK
6
CONTINUOUS
10
2.16442
20
-3.80137
11
2.16634
21
-3.80118
0
LINE
8
BLACK
6
CONTINUOUS
10
2.16634
20
-3.80118
11
2.20374
21
-3.80118
0
LINE
8
BLACK
6
CONTINUOUS
10
2.20374
20
-3.80118
11
2.20566
21
-3.80137
0
LINE
8
BLACK
6
CONTINUOUS
10
2.44488
20
-3.79134
11
2.40551
21
-3.79134
0
LINE
8
BLACK
6
CONTINUOUS
10
2.40551
20
-3.79134
11
2.40551
21
-3.73228
0
LINE
8
BLACK
6
CONTINUOUS
10
2.40551
20
-3.73228
11
2.44488
21
-3.73228
0
LINE
8
BLACK
6
CONTINUOUS
10
2.44488
20
-3.73228
11
2.44488
21
-3.79134
0
LINE
8
BLACK
6
CONTINUOUS
10
2.3189
20
-3.79134
11
2.27953
21
-3.79134
0
LINE
8
BLACK
6
CONTINUOUS
10
2.27953
20
-3.79134
11
2.27953
21
-3.73228
0
LINE
8
BLACK
6
CONTINUOUS
10
2.27953
20
-3.73228
11
2.3189
21
-3.73228
0
LINE
8
BLACK
6
CONTINUOUS
10
2.3189
20
-3.73228
11
2.3189
21
-3.79134
0
LINE
8
BLACK
6
CONTINUOUS
10
2.3189
20
-3.57087
11
2.27953
21
-3.57087
0
LINE
8
BLACK
6
CONTINUOUS
10
2.27953
20
-3.57087
11
2.27953
21
-3.51181
0
LINE
8
BLACK
6
CONTINUOUS
10
2.27953
20
-3.51181
11
2.3189
21
-3.51181
0
LINE
8
BLACK
6
CONTINUOUS
10
2.3189
20
-3.51181
11
2.3189
21
-3.57087
0
LINE
8
BLACK
6
CONTINUOUS
10
2.44488
20
-3.57087
11
2.40551
21
-3.57087
0
LINE
8
BLACK
6
CONTINUOUS
10
2.40551
20
-3.57087
11
2.40551
21
-3.51181
0
LINE
8
BLACK
6
CONTINUOUS
10
2.40551
20
-3.51181
11
2.44488
21
-3.51181
0
LINE
8
BLACK
6
CONTINUOUS
10
2.44488
20
-3.51181
11
2.44488
21
-3.57087
0
LINE
8
BLACK
6
CONTINUOUS
10
2.20566
20
-3.46279
11
2.20751
21
-3.46335
0
LINE
8
BLACK
6
CONTINUOUS
10
2.20751
20
-3.46335
11
2.20921
21
-3.46426
0
LINE
8
BLACK
6
CONTINUOUS
10
2.20921
20
-3.46426
11
2.2107
21
-3.46548
0
LINE
8
BLACK
6
CONTINUOUS
10
2.2107
20
-3.46548
11
2.21192
21
-3.46697
0
LINE
8
BLACK
6
CONTINUOUS
10
2.21192
20
-3.46697
11
2.21283
21
-3.46867
0
LINE
8
BLACK
6
CONTINUOUS
10
2.21283
20
-3.46867
11
2.21339
21
-3.47052
0
LINE
8
BLACK
6
CONTINUOUS
10
2.21339
20
-3.47052
11
2.21358
21
-3.47244
0
LINE
8
BLACK
6
CONTINUOUS
10
2.21358
20
-3.47244
11
2.21358
21
-3.49213
0
LINE
8
BLACK
6
CONTINUOUS
10
2.21358
20
-3.49213
11
2.21339
21
-3.49405
0
LINE
8
BLACK
6
CONTINUOUS
10
2.21339
20
-3.49405
11
2.21283
21
-3.49589
0
LINE
8
BLACK
6
CONTINUOUS
10
2.21283
20
-3.49589
11
2.21192
21
-3.49759
0
LINE
8
BLACK
6
CONTINUOUS
10
2.21192
20
-3.49759
11
2.2107
21
-3.49909
0
LINE
8
BLACK
6
CONTINUOUS
10
2.2107
20
-3.49909
11
2.20921
21
-3.50031
0
LINE
8
BLACK
6
CONTINUOUS
10
2.20921
20
-3.50031
11
2.20751
21
-3.50122
0
LINE
8
BLACK
6
CONTINUOUS
10
2.20751
20
-3.50122
11
2.20566
21
-3.50178
0
LINE
8
BLACK
6
CONTINUOUS
10
2.20566
20
-3.50178
11
2.20374
21
-3.50197
0
LINE
8
BLACK
6
CONTINUOUS
10
2.20374
20
-3.50197
11
2.16634
21
-3.50197
0
LINE
8
BLACK
6
CONTINUOUS
10
2.16634
20
-3.50197
11
2.16442
21
-3.50178
0
LINE
8
BLACK
6
CONTINUOUS
10
2.16442
20
-3.50178
11
2.16257
21
-3.50122
0
LINE
8
BLACK
6
CONTINUOUS
10
2.16257
20
-3.50122
11
2.16087
21
-3.50031
0
LINE
8
BLACK
6
CONTINUOUS
10
2.16087
20
-3.50031
11
2.15938
21
-3.49909
0
LINE
8
BLACK
6
CONTINUOUS
10
2.15938
20
-3.49909
11
2.15815
21
-3.49759
0
LINE
8
BLACK
6
CONTINUOUS
10
2.15815
20
-3.49759
11
2.15725
21
-3.49589
0
LINE
8
BLACK
6
CONTINUOUS
10
2.15725
20
-3.49589
11
2.15669
21
-3.49405
0
LINE
8
BLACK
6
CONTINUOUS
10
2.15669
20
-3.49405
11
2.1565
21
-3.49213
0
LINE
8
BLACK
6
CONTINUOUS
10
2.1565
20
-3.49213
11
2.1565
21
-3.47244
0
LINE
8
BLACK
6
CONTINUOUS
10
2.1565
20
-3.47244
11
2.15669
21
-3.47052
0
LINE
8
BLACK
6
CONTINUOUS
10
2.15669
20
-3.47052
11
2.15725
21
-3.46867
0
LINE
8
BLACK
6
CONTINUOUS
10
2.15725
20
-3.46867
11
2.15815
21
-3.46697
0
LINE
8
BLACK
6
CONTINUOUS
10
2.15815
20
-3.46697
11
2.15938
21
-3.46548
0
LINE
8
BLACK
6
CONTINUOUS
10
2.15938
20
-3.46548
11
2.16087
21
-3.46426
0
LINE
8
BLACK
6
CONTINUOUS
10
2.16087
20
-3.46426
11
2.16257
21
-3.46335
0
LINE
8
BLACK
6
CONTINUOUS
10
2.16257
20
-3.46335
11
2.16442
21
-3.46279
0
LINE
8
BLACK
6
CONTINUOUS
10
2.16442
20
-3.46279
11
2.16634
21
-3.4626
0
LINE
8
BLACK
6
CONTINUOUS
10
2.16634
20
-3.4626
11
2.20374
21
-3.4626
0
LINE
8
BLACK
6
CONTINUOUS
10
2.20374
20
-3.4626
11
2.20566
21
-3.46279
0
LINE
8
BLACK
6
CONTINUOUS
10
2.20566
20
-3.38798
11
2.20751
21
-3.38854
0
LINE
8
BLACK
6
CONTINUOUS
10
2.20751
20
-3.38854
11
2.20921
21
-3.38945
0
LINE
8
BLACK
6
CONTINUOUS
10
2.20921
20
-3.38945
11
2.2107
21
-3.39068
0
LINE
8
BLACK
6
CONTINUOUS
10
2.2107
20
-3.39068
11
2.21192
21
-3.39217
0
LINE
8
BLACK
6
CONTINUOUS
10
2.21192
20
-3.39217
11
2.21283
21
-3.39387
0
LINE
8
BLACK
6
CONTINUOUS
10
2.21283
20
-3.39387
11
2.21339
21
-3.39572
0
LINE
8
BLACK
6
CONTINUOUS
10
2.21339
20
-3.39572
11
2.21358
21
-3.39764
0
LINE
8
BLACK
6
CONTINUOUS
10
2.21358
20
-3.39764
11
2.21358
21
-3.41732
0
LINE
8
BLACK
6
CONTINUOUS
10
2.21358
20
-3.41732
11
2.21339
21
-3.41924
0
LINE
8
BLACK
6
CONTINUOUS
10
2.21339
20
-3.41924
11
2.21283
21
-3.42109
0
LINE
8
BLACK
6
CONTINUOUS
10
2.21283
20
-3.42109
11
2.21192
21
-3.42279
0
LINE
8
BLACK
6
CONTINUOUS
10
2.21192
20
-3.42279
11
2.2107
21
-3.42428
0
LINE
8
BLACK
6
CONTINUOUS
10
2.2107
20
-3.42428
11
2.20921
21
-3.42551
0
LINE
8
BLACK
6
CONTINUOUS
10
2.20921
20
-3.42551
11
2.20751
21
-3.42642
0
LINE
8
BLACK
6
CONTINUOUS
10
2.20751
20
-3.42642
11
2.20566
21
-3.42698
0
LINE
8
BLACK
6
CONTINUOUS
10
2.20566
20
-3.42698
11
2.20374
21
-3.42717
0
LINE
8
BLACK
6
CONTINUOUS
10
2.20374
20
-3.42717
11
2.16634
21
-3.42717
0
LINE
8
BLACK
6
CONTINUOUS
10
2.16634
20
-3.42717
11
2.16442
21
-3.42698
0
LINE
8
BLACK
6
CONTINUOUS
10
2.16442
20
-3.42698
11
2.16257
21
-3.42642
0
LINE
8
BLACK
6
CONTINUOUS
10
2.16257
20
-3.42642
11
2.16087
21
-3.42551
0
LINE
8
BLACK
6
CONTINUOUS
10
2.16087
20
-3.42551
11
2.15938
21
-3.42428
0
LINE
8
BLACK
6
CONTINUOUS
10
2.15938
20
-3.42428
11
2.15815
21
-3.42279
0
LINE
8
BLACK
6
CONTINUOUS
10
2.15815
20
-3.42279
11
2.15725
21
-3.42109
0
LINE
8
BLACK
6
CONTINUOUS
10
2.15725
20
-3.42109
11
2.15669
21
-3.41924
0
LINE
8
BLACK
6
CONTINUOUS
10
2.15669
20
-3.41924
11
2.1565
21
-3.41732
0
LINE
8
BLACK
6
CONTINUOUS
10
2.1565
20
-3.41732
11
2.1565
21
-3.39764
0
LINE
8
BLACK
6
CONTINUOUS
10
2.1565
20
-3.39764
11
2.15669
21
-3.39572
0
LINE
8
BLACK
6
CONTINUOUS
10
2.15669
20
-3.39572
11
2.15725
21
-3.39387
0
LINE
8
BLACK
6
CONTINUOUS
10
2.15725
20
-3.39387
11
2.15815
21
-3.39217
0
LINE
8
BLACK
6
CONTINUOUS
10
2.15815
20
-3.39217
11
2.15938
21
-3.39068
0
LINE
8
BLACK
6
CONTINUOUS
10
2.15938
20
-3.39068
11
2.16087
21
-3.38945
0
LINE
8
BLACK
6
CONTINUOUS
10
2.16087
20
-3.38945
11
2.16257
21
-3.38854
0
LINE
8
BLACK
6
CONTINUOUS
10
2.16257
20
-3.38854
11
2.16442
21
-3.38798
0
LINE
8
BLACK
6
CONTINUOUS
10
2.16442
20
-3.38798
11
2.16634
21
-3.3878
0
LINE
8
BLACK
6
CONTINUOUS
10
2.16634
20
-3.3878
11
2.20374
21
-3.3878
0
LINE
8
BLACK
6
CONTINUOUS
10
2.20374
20
-3.3878
11
2.20566
21
-3.38798
0
LINE
8
BLACK
6
CONTINUOUS
10
2.44488
20
-3.37795
11
2.40551
21
-3.37795
0
LINE
8
BLACK
6
CONTINUOUS
10
2.40551
20
-3.37795
11
2.40551
21
-3.3189
0
LINE
8
BLACK
6
CONTINUOUS
10
2.40551
20
-3.3189
11
2.44488
21
-3.3189
0
LINE
8
BLACK
6
CONTINUOUS
10
2.44488
20
-3.3189
11
2.44488
21
-3.37795
0
LINE
8
BLACK
6
CONTINUOUS
10
2.3189
20
-3.37795
11
2.27953
21
-3.37795
0
LINE
8
BLACK
6
CONTINUOUS
10
2.27953
20
-3.37795
11
2.27953
21
-3.3189
0
LINE
8
BLACK
6
CONTINUOUS
10
2.27953
20
-3.3189
11
2.3189
21
-3.3189
0
LINE
8
BLACK
6
CONTINUOUS
10
2.3189
20
-3.3189
11
2.3189
21
-3.37795
0
LINE
8
BLACK
6
CONTINUOUS
10
2.44488
20
-3.19685
11
2.40551
21
-3.19685
0
LINE
8
BLACK
6
CONTINUOUS
10
2.40551
20
-3.19685
11
2.40551
21
-3.1378
0
LINE
8
BLACK
6
CONTINUOUS
10
2.40551
20
-3.1378
11
2.44488
21
-3.1378
0
LINE
8
BLACK
6
CONTINUOUS
10
2.44488
20
-3.1378
11
2.44488
21
-3.19685
0
LINE
8
BLACK
6
CONTINUOUS
10
2.3189
20
-3.19685
11
2.27953
21
-3.19685
0
LINE
8
BLACK
6
CONTINUOUS
10
2.27953
20
-3.19685
11
2.27953
21
-3.1378
0
LINE
8
BLACK
6
CONTINUOUS
10
2.27953
20
-3.1378
11
2.3189
21
-3.1378
0
LINE
8
BLACK
6
CONTINUOUS
10
2.3189
20
-3.1378
11
2.3189
21
-3.19685
0
LINE
8
BLACK
6
CONTINUOUS
10
2.20566
20
-3.08877
11
2.20751
21
-3.08933
0
LINE
8
BLACK
6
CONTINUOUS
10
2.20751
20
-3.08933
11
2.20921
21
-3.09024
0
LINE
8
BLACK
6
CONTINUOUS
10
2.20921
20
-3.09024
11
2.2107
21
-3.09147
0
LINE
8
BLACK
6
CONTINUOUS
10
2.2107
20
-3.09147
11
2.21192
21
-3.09296
0
LINE
8
BLACK
6
CONTINUOUS
10
2.21192
20
-3.09296
11
2.21283
21
-3.09466
0
LINE
8
BLACK
6
CONTINUOUS
10
2.21283
20
-3.09466
11
2.21339
21
-3.09651
0
LINE
8
BLACK
6
CONTINUOUS
10
2.21339
20
-3.09651
11
2.21358
21
-3.09843
0
LINE
8
BLACK
6
CONTINUOUS
10
2.21358
20
-3.09843
11
2.21358
21
-3.11811
0
LINE
8
BLACK
6
CONTINUOUS
10
2.21358
20
-3.11811
11
2.21339
21
-3.12003
0
LINE
8
BLACK
6
CONTINUOUS
10
2.21339
20
-3.12003
11
2.21283
21
-3.12188
0
LINE
8
BLACK
6
CONTINUOUS
10
2.21283
20
-3.12188
11
2.21192
21
-3.12358
0
LINE
8
BLACK
6
CONTINUOUS
10
2.21192
20
-3.12358
11
2.2107
21
-3.12507
0
LINE
8
BLACK
6
CONTINUOUS
10
2.2107
20
-3.12507
11
2.20921
21
-3.12629
0
LINE
8
BLACK
6
CONTINUOUS
10
2.20921
20
-3.12629
11
2.20751
21
-3.1272
0
LINE
8
BLACK
6
CONTINUOUS
10
2.20751
20
-3.1272
11
2.20566
21
-3.12776
0
LINE
8
BLACK
6
CONTINUOUS
10
2.20566
20
-3.12776
11
2.20374
21
-3.12795
0
LINE
8
BLACK
6
CONTINUOUS
10
2.20374
20
-3.12795
11
2.16634
21
-3.12795
0
LINE
8
BLACK
6
CONTINUOUS
10
2.16634
20
-3.12795
11
2.16442
21
-3.12776
0
LINE
8
BLACK
6
CONTINUOUS
10
2.16442
20
-3.12776
11
2.16257
21
-3.1272
0
LINE
8
BLACK
6
CONTINUOUS
10
2.16257
20
-3.1272
11
2.16087
21
-3.12629
0
LINE
8
BLACK
6
CONTINUOUS
10
2.16087
20
-3.12629
11
2.15938
21
-3.12507
0
LINE
8
BLACK
6
CONTINUOUS
10
2.15938
20
-3.12507
11
2.15815
21
-3.12358
0
LINE
8
BLACK
6
CONTINUOUS
10
2.15815
20
-3.12358
11
2.15725
21
-3.12188
0
LINE
8
BLACK
6
CONTINUOUS
10
2.15725
20
-3.12188
11
2.15669
21
-3.12003
0
LINE
8
BLACK
6
CONTINUOUS
10
2.15669
20
-3.12003
11
2.1565
21
-3.11811
0
LINE
8
BLACK
6
CONTINUOUS
10
2.1565
20
-3.11811
11
2.1565
21
-3.09843
0
LINE
8
BLACK
6
CONTINUOUS
10
2.1565
20
-3.09843
11
2.15669
21
-3.09651
0
LINE
8
BLACK
6
CONTINUOUS
10
2.15669
20
-3.09651
11
2.15725
21
-3.09466
0
LINE
8
BLACK
6
CONTINUOUS
10
2.15725
20
-3.09466
11
2.15815
21
-3.09296
0
LINE
8
BLACK
6
CONTINUOUS
10
2.15815
20
-3.09296
11
2.15938
21
-3.09147
0
LINE
8
BLACK
6
CONTINUOUS
10
2.15938
20
-3.09147
11
2.16087
21
-3.09024
0
LINE
8
BLACK
6
CONTINUOUS
10
2.16087
20
-3.09024
11
2.16257
21
-3.08933
0
LINE
8
BLACK
6
CONTINUOUS
10
2.16257
20
-3.08933
11
2.16442
21
-3.08877
0
LINE
8
BLACK
6
CONTINUOUS
10
2.16442
20
-3.08877
11
2.16634
21
-3.08858
0
LINE
8
BLACK
6
CONTINUOUS
10
2.16634
20
-3.08858
11
2.20374
21
-3.08858
0
LINE
8
BLACK
6
CONTINUOUS
10
2.20374
20
-3.08858
11
2.20566
21
-3.08877
0
LINE
8
BLACK
6
CONTINUOUS
10
2.20566
20
-3.01397
11
2.20751
21
-3.01453
0
LINE
8
BLACK
6
CONTINUOUS
10
2.20751
20
-3.01453
11
2.20921
21
-3.01544
0
LINE
8
BLACK
6
CONTINUOUS
10
2.20921
20
-3.01544
11
2.2107
21
-3.01666
0
LINE
8
BLACK
6
CONTINUOUS
10
2.2107
20
-3.01666
11
2.21192
21
-3.01815
0
LINE
8
BLACK
6
CONTINUOUS
10
2.21192
20
-3.01815
11
2.21283
21
-3.01986
0
LINE
8
BLACK
6
CONTINUOUS
10
2.21283
20
-3.01986
11
2.21339
21
-3.0217
0
LINE
8
BLACK
6
CONTINUOUS
10
2.21339
20
-3.0217
11
2.21358
21
-3.02362
0
LINE
8
BLACK
6
CONTINUOUS
10
2.21358
20
-3.02362
11
2.21358
21
-3.04331
0
LINE
8
BLACK
6
CONTINUOUS
10
2.21358
20
-3.04331
11
2.21339
21
-3.04523
0
LINE
8
BLACK
6
CONTINUOUS
10
2.21339
20
-3.04523
11
2.21283
21
-3.04707
0
LINE
8
BLACK
6
CONTINUOUS
10
2.21283
20
-3.04707
11
2.21192
21
-3.04878
0
LINE
8
BLACK
6
CONTINUOUS
10
2.21192
20
-3.04878
11
2.2107
21
-3.05027
0
LINE
8
BLACK
6
CONTINUOUS
10
2.2107
20
-3.05027
11
2.20921
21
-3.05149
0
LINE
8
BLACK
6
CONTINUOUS
10
2.20921
20
-3.05149
11
2.20751
21
-3.0524
0
LINE
8
BLACK
6
CONTINUOUS
10
2.20751
20
-3.0524
11
2.20566
21
-3.05296
0
LINE
8
BLACK
6
CONTINUOUS
10
2.20566
20
-3.05296
11
2.20374
21
-3.05315
0
LINE
8
BLACK
6
CONTINUOUS
10
2.20374
20
-3.05315
11
2.16634
21
-3.05315
0
LINE
8
BLACK
6
CONTINUOUS
10
2.16634
20
-3.05315
11
2.16442
21
-3.05296
0
LINE
8
BLACK
6
CONTINUOUS
10
2.16442
20
-3.05296
11
2.16257
21
-3.0524
0
LINE
8
BLACK
6
CONTINUOUS
10
2.16257
20
-3.0524
11
2.16087
21
-3.05149
0
LINE
8
BLACK
6
CONTINUOUS
10
2.16087
20
-3.05149
11
2.15938
21
-3.05027
0
LINE
8
BLACK
6
CONTINUOUS
10
2.15938
20
-3.05027
11
2.15815
21
-3.04878
0
LINE
8
BLACK
6
CONTINUOUS
10
2.15815
20
-3.04878
11
2.15725
21
-3.04707
0
LINE
8
BLACK
6
CONTINUOUS
10
2.15725
20
-3.04707
11
2.15669
21
-3.04523
0
LINE
8
BLACK
6
CONTINUOUS
10
2.15669
20
-3.04523
11
2.1565
21
-3.04331
0
LINE
8
BLACK
6
CONTINUOUS
10
2.1565
20
-3.04331
11
2.1565
21
-3.02362
0
LINE
8
BLACK
6
CONTINUOUS
10
2.1565
20
-3.02362
11
2.15669
21
-3.0217
0
LINE
8
BLACK
6
CONTINUOUS
10
2.15669
20
-3.0217
11
2.15725
21
-3.01986
0
LINE
8
BLACK
6
CONTINUOUS
10
2.15725
20
-3.01986
11
2.15815
21
-3.01815
0
LINE
8
BLACK
6
CONTINUOUS
10
2.15815
20
-3.01815
11
2.15938
21
-3.01666
0
LINE
8
BLACK
6
CONTINUOUS
10
2.15938
20
-3.01666
11
2.16087
21
-3.01544
0
LINE
8
BLACK
6
CONTINUOUS
10
2.16087
20
-3.01544
11
2.16257
21
-3.01453
0
LINE
8
BLACK
6
CONTINUOUS
10
2.16257
20
-3.01453
11
2.16442
21
-3.01397
0
LINE
8
BLACK
6
CONTINUOUS
10
2.16442
20
-3.01397
11
2.16634
21
-3.01378
0
LINE
8
BLACK
6
CONTINUOUS
10
2.16634
20
-3.01378
11
2.20374
21
-3.01378
0
LINE
8
BLACK
6
CONTINUOUS
10
2.20374
20
-3.01378
11
2.20566
21
-3.01397
0
LINE
8
BLACK
6
CONTINUOUS
10
2.3189
20
-3.00394
11
2.27953
21
-3.00394
0
LINE
8
BLACK
6
CONTINUOUS
10
2.27953
20
-3.00394
11
2.27953
21
-2.94488
0
LINE
8
BLACK
6
CONTINUOUS
10
2.27953
20
-2.94488
11
2.3189
21
-2.94488
0
LINE
8
BLACK
6
CONTINUOUS
10
2.3189
20
-2.94488
11
2.3189
21
-3.00394
0
LINE
8
BLACK
6
CONTINUOUS
10
2.44488
20
-3.00394
11
2.40551
21
-3.00394
0
LINE
8
BLACK
6
CONTINUOUS
10
2.40551
20
-3.00394
11
2.40551
21
-2.94488
0
LINE
8
BLACK
6
CONTINUOUS
10
2.40551
20
-2.94488
11
2.44488
21
-2.94488
0
LINE
8
BLACK
6
CONTINUOUS
10
2.44488
20
-2.94488
11
2.44488
21
-3.00394
  0
ENDSEC
  0
EOF
