%TF.GenerationSoftware,KiCad,Pcbnew,5.1.10-88a1d61d58~90~ubuntu20.04.1*%
%TF.CreationDate,2021-11-26T16:05:31-05:00*%
%TF.ProjectId,vindick,76696e64-6963-46b2-9e6b-696361645f70,rev?*%
%TF.SameCoordinates,Original*%
%TF.FileFunction,Profile,NP*%
%FSLAX46Y46*%
G04 Gerber Fmt 4.6, Leading zero omitted, Abs format (unit mm)*
G04 Created by KiCad (PCBNEW 5.1.10-88a1d61d58~90~ubuntu20.04.1) date 2021-11-26 16:05:31*
%MOMM*%
%LPD*%
G01*
G04 APERTURE LIST*
%TA.AperFunction,Profile*%
%ADD10C,0.200000*%
%TD*%
G04 APERTURE END LIST*
D10*
X66400000Y-128500000D02*
X66400000Y-128500000D01*
X36900000Y-83500000D02*
X36900000Y-83500000D01*
X49900000Y-128500000D02*
X49900000Y-128500000D01*
X36900000Y-62500000D02*
X36900000Y-62500000D01*
X82900000Y-62500000D02*
X82900000Y-62500000D01*
X42900000Y-56500000D02*
X42900000Y-56500000D01*
X49900000Y-128500000D02*
X49900000Y-128500000D01*
X53400000Y-131500000D02*
X53400000Y-131500000D01*
X53400000Y-128500000D02*
X53400000Y-128500000D01*
X69900000Y-128500000D02*
X69900000Y-128500000D01*
X76900000Y-56500000D02*
X76900000Y-56500000D01*
X76900000Y-56500000D02*
X76900000Y-56500000D01*
X82900000Y-62500000D02*
X82900000Y-83500000D01*
X69900000Y-128500000D02*
X69900000Y-128500000D01*
X69900000Y-83500000D02*
X69900000Y-83500000D01*
X49900000Y-83500000D02*
X49900000Y-83500000D01*
X82900000Y-83500000D02*
X82900000Y-83500000D01*
X53400000Y-131500000D02*
X66400000Y-131500000D01*
X66400000Y-131500000D02*
X66400000Y-131500000D01*
X66400000Y-131500000D02*
X66400000Y-131500000D01*
X42900000Y-56500000D02*
X42900000Y-56500000D01*
X42900000Y-56500000D02*
X76900000Y-56500000D01*
X49900000Y-128500000D02*
X49900000Y-83500000D01*
X53400000Y-131500000D02*
X53400000Y-131500000D01*
X82900000Y-62500000D02*
X82900000Y-62500000D01*
X66400000Y-128500000D02*
X66400000Y-128500000D01*
X69900000Y-83500000D02*
X69900000Y-83500000D01*
X69900000Y-83500000D02*
X82900000Y-83500000D01*
X36900000Y-62500000D02*
X36900000Y-62500000D01*
X66400000Y-131500000D02*
X66400000Y-128500000D01*
X49900000Y-83500000D02*
X36900000Y-83500000D01*
X49900000Y-83500000D02*
X49900000Y-83500000D01*
X82900000Y-83500000D02*
X82900000Y-83500000D01*
X66400000Y-128500000D02*
X69900000Y-128500000D01*
X53400000Y-128500000D02*
X53400000Y-128500000D01*
X69900000Y-128500000D02*
X69900000Y-83500000D01*
X53400000Y-128500000D02*
X53400000Y-131500000D01*
X36900000Y-83500000D02*
X36900000Y-83500000D01*
X36900000Y-83500000D02*
X36900000Y-62500000D01*
X82900000Y-62500000D02*
G75*
G02*
X76900000Y-56500000I0J6000000D01*
G01*
X42900000Y-56500000D02*
G75*
G02*
X36900000Y-62500000I-6000000J0D01*
G01*
X53400000Y-128500000D02*
X49900000Y-128500000D01*
M02*
