%TF.GenerationSoftware,KiCad,Pcbnew,6.0.2+dfsg-1*%
%TF.CreationDate,2022-11-26T14:15:53-05:00*%
%TF.ProjectId,vindick,76696e64-6963-46b2-9e6b-696361645f70,rev?*%
%TF.SameCoordinates,Original*%
%TF.FileFunction,Soldermask,Top*%
%TF.FilePolarity,Negative*%
%FSLAX46Y46*%
G04 Gerber Fmt 4.6, Leading zero omitted, Abs format (unit mm)*
G04 Created by KiCad (PCBNEW 6.0.2+dfsg-1) date 2022-11-26 14:15:53*
%MOMM*%
%LPD*%
G01*
G04 APERTURE LIST*
G04 Aperture macros list*
%AMRoundRect*
0 Rectangle with rounded corners*
0 $1 Rounding radius*
0 $2 $3 $4 $5 $6 $7 $8 $9 X,Y pos of 4 corners*
0 Add a 4 corners polygon primitive as box body*
4,1,4,$2,$3,$4,$5,$6,$7,$8,$9,$2,$3,0*
0 Add four circle primitives for the rounded corners*
1,1,$1+$1,$2,$3*
1,1,$1+$1,$4,$5*
1,1,$1+$1,$6,$7*
1,1,$1+$1,$8,$9*
0 Add four rect primitives between the rounded corners*
20,1,$1+$1,$2,$3,$4,$5,0*
20,1,$1+$1,$4,$5,$6,$7,0*
20,1,$1+$1,$6,$7,$8,$9,0*
20,1,$1+$1,$8,$9,$2,$3,0*%
G04 Aperture macros list end*
%ADD10R,1.700000X1.700000*%
%ADD11O,1.700000X1.700000*%
%ADD12R,2.000000X2.000000*%
%ADD13C,2.000000*%
%ADD14RoundRect,0.250000X0.475000X-0.250000X0.475000X0.250000X-0.475000X0.250000X-0.475000X-0.250000X0*%
%ADD15RoundRect,0.250000X1.500000X0.550000X-1.500000X0.550000X-1.500000X-0.550000X1.500000X-0.550000X0*%
%ADD16RoundRect,0.243750X0.456250X-0.243750X0.456250X0.243750X-0.456250X0.243750X-0.456250X-0.243750X0*%
%ADD17RoundRect,0.249999X-0.262501X-0.450001X0.262501X-0.450001X0.262501X0.450001X-0.262501X0.450001X0*%
%ADD18C,1.500000*%
%ADD19R,1.500000X1.000000*%
%ADD20RoundRect,0.250000X-0.475000X0.250000X-0.475000X-0.250000X0.475000X-0.250000X0.475000X0.250000X0*%
%ADD21R,1.000000X2.000000*%
%ADD22C,0.520000*%
%ADD23R,0.300000X0.870000*%
%ADD24O,2.200000X1.100000*%
%ADD25C,2.200000*%
%ADD26RoundRect,0.200000X0.450000X-0.200000X0.450000X0.200000X-0.450000X0.200000X-0.450000X-0.200000X0*%
%ADD27RoundRect,0.250000X1.250000X-0.800000X1.250000X0.800000X-1.250000X0.800000X-1.250000X-0.800000X0*%
%ADD28RoundRect,0.200000X-0.200000X-0.450000X0.200000X-0.450000X0.200000X0.450000X-0.200000X0.450000X0*%
%ADD29RoundRect,0.250000X-0.800000X-1.250000X0.800000X-1.250000X0.800000X1.250000X-0.800000X1.250000X0*%
%ADD30R,0.700000X1.000000*%
G04 APERTURE END LIST*
D10*
%TO.C,I2C1*%
X38800000Y-70380000D03*
D11*
X38800000Y-67880000D03*
X38800000Y-72960000D03*
X38800000Y-75500000D03*
%TD*%
D12*
%TO.C,BZ1*%
X62600000Y-68000000D03*
D13*
X55000000Y-68000000D03*
%TD*%
D14*
%TO.C,C7*%
X72000000Y-71000000D03*
X72000000Y-69100000D03*
%TD*%
D15*
%TO.C,C8*%
X67100000Y-79400000D03*
X61700000Y-79400000D03*
%TD*%
D16*
%TO.C,D1*%
X74000000Y-71000000D03*
X74000000Y-69125000D03*
%TD*%
D17*
%TO.C,R1*%
X47675000Y-82000000D03*
X49500000Y-82000000D03*
%TD*%
D18*
%TO.C,D+1*%
X58500000Y-124100000D03*
%TD*%
%TO.C,D-1*%
X61500000Y-124100000D03*
%TD*%
D19*
%TO.C,JP1*%
X41800000Y-76800000D03*
X41800000Y-75500000D03*
X41800000Y-74200000D03*
%TD*%
%TO.C,JP2*%
X47800000Y-76800000D03*
X47800000Y-75500000D03*
X47800000Y-74200000D03*
%TD*%
%TO.C,JP3*%
X66700000Y-70800000D03*
X66700000Y-69500000D03*
X66700000Y-68200000D03*
%TD*%
%TO.C,JP4*%
X57900000Y-58400000D03*
X57900000Y-59700000D03*
X57900000Y-61000000D03*
%TD*%
D20*
%TO.C,C6*%
X70000000Y-69100000D03*
X70000000Y-71000000D03*
%TD*%
D14*
%TO.C,C9*%
X60400000Y-59700000D03*
X60400000Y-57800000D03*
%TD*%
D20*
%TO.C,C1*%
X38700000Y-77800000D03*
X38700000Y-79700000D03*
%TD*%
D14*
%TO.C,C4*%
X50400000Y-75500000D03*
X50400000Y-73600000D03*
%TD*%
D21*
%TO.C,J3*%
X64900000Y-120200000D03*
X62900000Y-120200000D03*
X60900000Y-120200000D03*
X58900000Y-120200000D03*
X56900000Y-120200000D03*
X54900000Y-120200000D03*
%TD*%
%TO.C,J2*%
X64900000Y-116000000D03*
X62900000Y-116000000D03*
X60900000Y-116000000D03*
X58900000Y-116000000D03*
X56900000Y-116000000D03*
X54900000Y-116000000D03*
%TD*%
D22*
%TO.C,J1*%
X63650000Y-129800000D03*
X56150000Y-129800000D03*
D23*
X57150000Y-128935000D03*
X58650000Y-128935000D03*
X59150000Y-128935000D03*
X59650000Y-128935000D03*
X60150000Y-128935000D03*
X60650000Y-128935000D03*
X61150000Y-128935000D03*
X62650000Y-128935000D03*
X62650000Y-130665000D03*
X61150000Y-130665000D03*
X60650000Y-130665000D03*
X60150000Y-130665000D03*
X59650000Y-130665000D03*
X59150000Y-130665000D03*
X58650000Y-130665000D03*
X57150000Y-130665000D03*
D24*
X57500000Y-127650000D03*
X62300000Y-127650000D03*
%TD*%
D25*
%TO.C,REF\u002A\u002A*%
X52400000Y-126000000D03*
%TD*%
%TO.C,REF\u002A\u002A*%
X67400000Y-126000000D03*
%TD*%
%TO.C,REF\u002A\u002A*%
X53400000Y-59250000D03*
%TD*%
D26*
%TO.C,FAN1*%
X76750000Y-70300000D03*
X76750000Y-69050000D03*
D27*
X79500000Y-66500000D03*
X79500000Y-72850000D03*
%TD*%
D28*
%TO.C,J5*%
X74200000Y-78250000D03*
X75450000Y-78250000D03*
X76700000Y-78250000D03*
X77950000Y-78250000D03*
D29*
X71650000Y-81000000D03*
X80500000Y-81000000D03*
%TD*%
D30*
%TO.C,Q1*%
X43950000Y-82000000D03*
X45850000Y-82000000D03*
X44900000Y-79600000D03*
%TD*%
D10*
%TO.C,I2C2*%
X44900000Y-67900000D03*
D11*
X44900000Y-70440000D03*
X44900000Y-72980000D03*
X44900000Y-75520000D03*
%TD*%
D10*
%TO.C,I2C3*%
X66920000Y-64700000D03*
D11*
X69460000Y-64700000D03*
X72000000Y-64700000D03*
X74540000Y-64700000D03*
%TD*%
D10*
%TO.C,I2C4*%
X63800000Y-60400000D03*
D11*
X66340000Y-60400000D03*
X71420000Y-60400000D03*
X68880000Y-60400000D03*
%TD*%
M02*
