%TF.GenerationSoftware,KiCad,Pcbnew,6.0.2+dfsg-1*%
%TF.CreationDate,2022-11-26T14:15:52-05:00*%
%TF.ProjectId,vindick,76696e64-6963-46b2-9e6b-696361645f70,rev?*%
%TF.SameCoordinates,Original*%
%TF.FileFunction,Copper,L1,Top*%
%TF.FilePolarity,Positive*%
%FSLAX46Y46*%
G04 Gerber Fmt 4.6, Leading zero omitted, Abs format (unit mm)*
G04 Created by KiCad (PCBNEW 6.0.2+dfsg-1) date 2022-11-26 14:15:52*
%MOMM*%
%LPD*%
G01*
G04 APERTURE LIST*
G04 Aperture macros list*
%AMRoundRect*
0 Rectangle with rounded corners*
0 $1 Rounding radius*
0 $2 $3 $4 $5 $6 $7 $8 $9 X,Y pos of 4 corners*
0 Add a 4 corners polygon primitive as box body*
4,1,4,$2,$3,$4,$5,$6,$7,$8,$9,$2,$3,0*
0 Add four circle primitives for the rounded corners*
1,1,$1+$1,$2,$3*
1,1,$1+$1,$4,$5*
1,1,$1+$1,$6,$7*
1,1,$1+$1,$8,$9*
0 Add four rect primitives between the rounded corners*
20,1,$1+$1,$2,$3,$4,$5,0*
20,1,$1+$1,$4,$5,$6,$7,0*
20,1,$1+$1,$6,$7,$8,$9,0*
20,1,$1+$1,$8,$9,$2,$3,0*%
G04 Aperture macros list end*
%TA.AperFunction,ComponentPad*%
%ADD10R,1.700000X1.700000*%
%TD*%
%TA.AperFunction,ComponentPad*%
%ADD11O,1.700000X1.700000*%
%TD*%
%TA.AperFunction,ComponentPad*%
%ADD12R,2.000000X2.000000*%
%TD*%
%TA.AperFunction,ComponentPad*%
%ADD13C,2.000000*%
%TD*%
%TA.AperFunction,SMDPad,CuDef*%
%ADD14RoundRect,0.250000X0.475000X-0.250000X0.475000X0.250000X-0.475000X0.250000X-0.475000X-0.250000X0*%
%TD*%
%TA.AperFunction,SMDPad,CuDef*%
%ADD15RoundRect,0.250000X1.500000X0.550000X-1.500000X0.550000X-1.500000X-0.550000X1.500000X-0.550000X0*%
%TD*%
%TA.AperFunction,SMDPad,CuDef*%
%ADD16RoundRect,0.243750X0.456250X-0.243750X0.456250X0.243750X-0.456250X0.243750X-0.456250X-0.243750X0*%
%TD*%
%TA.AperFunction,SMDPad,CuDef*%
%ADD17RoundRect,0.249999X-0.262501X-0.450001X0.262501X-0.450001X0.262501X0.450001X-0.262501X0.450001X0*%
%TD*%
%TA.AperFunction,SMDPad,CuDef*%
%ADD18C,1.500000*%
%TD*%
%TA.AperFunction,SMDPad,CuDef*%
%ADD19R,1.500000X1.000000*%
%TD*%
%TA.AperFunction,SMDPad,CuDef*%
%ADD20RoundRect,0.250000X-0.475000X0.250000X-0.475000X-0.250000X0.475000X-0.250000X0.475000X0.250000X0*%
%TD*%
%TA.AperFunction,ConnectorPad*%
%ADD21R,1.000000X2.000000*%
%TD*%
%TA.AperFunction,SMDPad,CuDef*%
%ADD22R,0.300000X0.870000*%
%TD*%
%TA.AperFunction,ComponentPad*%
%ADD23O,2.200000X1.100000*%
%TD*%
%TA.AperFunction,SMDPad,CuDef*%
%ADD24RoundRect,0.200000X0.450000X-0.200000X0.450000X0.200000X-0.450000X0.200000X-0.450000X-0.200000X0*%
%TD*%
%TA.AperFunction,SMDPad,CuDef*%
%ADD25RoundRect,0.250000X1.250000X-0.800000X1.250000X0.800000X-1.250000X0.800000X-1.250000X-0.800000X0*%
%TD*%
%TA.AperFunction,SMDPad,CuDef*%
%ADD26RoundRect,0.200000X-0.200000X-0.450000X0.200000X-0.450000X0.200000X0.450000X-0.200000X0.450000X0*%
%TD*%
%TA.AperFunction,SMDPad,CuDef*%
%ADD27RoundRect,0.250000X-0.800000X-1.250000X0.800000X-1.250000X0.800000X1.250000X-0.800000X1.250000X0*%
%TD*%
%TA.AperFunction,SMDPad,CuDef*%
%ADD28R,0.700000X1.000000*%
%TD*%
%TA.AperFunction,ViaPad*%
%ADD29C,0.800000*%
%TD*%
%TA.AperFunction,Conductor*%
%ADD30C,0.250000*%
%TD*%
%TA.AperFunction,Conductor*%
%ADD31C,0.500000*%
%TD*%
G04 APERTURE END LIST*
%TO.C,JP1*%
G36*
X42100000Y-76400000D02*
G01*
X41500000Y-76400000D01*
X41500000Y-75900000D01*
X42100000Y-75900000D01*
X42100000Y-76400000D01*
G37*
%TO.C,JP2*%
G36*
X48100000Y-76400000D02*
G01*
X47500000Y-76400000D01*
X47500000Y-75900000D01*
X48100000Y-75900000D01*
X48100000Y-76400000D01*
G37*
%TO.C,JP3*%
G36*
X67000000Y-70400000D02*
G01*
X66400000Y-70400000D01*
X66400000Y-69900000D01*
X67000000Y-69900000D01*
X67000000Y-70400000D01*
G37*
%TO.C,JP4*%
G36*
X58200000Y-59300000D02*
G01*
X57600000Y-59300000D01*
X57600000Y-58800000D01*
X58200000Y-58800000D01*
X58200000Y-59300000D01*
G37*
%TD*%
D10*
%TO.P,I2C1,1,Pin_1*%
%TO.N,/SDA*%
X38800000Y-70380000D03*
D11*
%TO.P,I2C1,2,Pin_2*%
%TO.N,/SCL*%
X38800000Y-67880000D03*
%TO.P,I2C1,3,Pin_3*%
%TO.N,GND*%
X38800000Y-72960000D03*
%TO.P,I2C1,4,Pin_4*%
%TO.N,Net-(C1-Pad1)*%
X38800000Y-75500000D03*
%TD*%
D12*
%TO.P,BZ1,1,-*%
%TO.N,VBUS*%
X62600000Y-68000000D03*
D13*
%TO.P,BZ1,2,+*%
%TO.N,Net-(BZ1-Pad2)*%
X55000000Y-68000000D03*
%TD*%
D14*
%TO.P,C7,1*%
%TO.N,VBUS*%
X72000000Y-71000000D03*
%TO.P,C7,2*%
%TO.N,GND*%
X72000000Y-69100000D03*
%TD*%
D15*
%TO.P,C8,1*%
%TO.N,VBUS*%
X67100000Y-79400000D03*
%TO.P,C8,2*%
%TO.N,GND*%
X61700000Y-79400000D03*
%TD*%
D16*
%TO.P,D1,1,K*%
%TO.N,VBUS*%
X74000000Y-71000000D03*
%TO.P,D1,2,A*%
%TO.N,GND*%
X74000000Y-69125000D03*
%TD*%
D17*
%TO.P,R1,1*%
%TO.N,Net-(Q1-Pad1)*%
X47675000Y-82000000D03*
%TO.P,R1,2*%
%TO.N,/BUZZ*%
X49500000Y-82000000D03*
%TD*%
D18*
%TO.P,D+1,1,1*%
%TO.N,/D+*%
X58500000Y-124100000D03*
%TD*%
%TO.P,D-1,1,1*%
%TO.N,/D-*%
X61500000Y-124100000D03*
%TD*%
D19*
%TO.P,JP1,1,A*%
%TO.N,+3V3*%
X41800000Y-76800000D03*
%TO.P,JP1,2,C*%
%TO.N,Net-(C1-Pad1)*%
X41800000Y-75500000D03*
%TO.P,JP1,3,B*%
%TO.N,VBUS*%
X41800000Y-74200000D03*
%TD*%
%TO.P,JP2,1,A*%
%TO.N,+3V3*%
X47800000Y-76800000D03*
%TO.P,JP2,2,C*%
%TO.N,Net-(C4-Pad1)*%
X47800000Y-75500000D03*
%TO.P,JP2,3,B*%
%TO.N,VBUS*%
X47800000Y-74200000D03*
%TD*%
%TO.P,JP3,1,A*%
%TO.N,+3V3*%
X66700000Y-70800000D03*
%TO.P,JP3,2,C*%
%TO.N,Net-(C6-Pad1)*%
X66700000Y-69500000D03*
%TO.P,JP3,3,B*%
%TO.N,VBUS*%
X66700000Y-68200000D03*
%TD*%
%TO.P,JP4,1,A*%
%TO.N,+3V3*%
X57900000Y-58400000D03*
%TO.P,JP4,2,C*%
%TO.N,Net-(C9-Pad1)*%
X57900000Y-59700000D03*
%TO.P,JP4,3,B*%
%TO.N,VBUS*%
X57900000Y-61000000D03*
%TD*%
D20*
%TO.P,C6,1*%
%TO.N,Net-(C6-Pad1)*%
X70000000Y-69100000D03*
%TO.P,C6,2*%
%TO.N,GND*%
X70000000Y-71000000D03*
%TD*%
D14*
%TO.P,C9,1*%
%TO.N,Net-(C9-Pad1)*%
X60400000Y-59700000D03*
%TO.P,C9,2*%
%TO.N,GND*%
X60400000Y-57800000D03*
%TD*%
D20*
%TO.P,C1,1*%
%TO.N,Net-(C1-Pad1)*%
X38700000Y-77800000D03*
%TO.P,C1,2*%
%TO.N,GND*%
X38700000Y-79700000D03*
%TD*%
D14*
%TO.P,C4,1*%
%TO.N,Net-(C4-Pad1)*%
X50400000Y-75500000D03*
%TO.P,C4,2*%
%TO.N,GND*%
X50400000Y-73600000D03*
%TD*%
D21*
%TO.P,J3,1,Pin_1*%
%TO.N,unconnected-(J3-Pad1)*%
X64900000Y-120200000D03*
%TO.P,J3,2,Pin_2*%
%TO.N,unconnected-(J3-Pad2)*%
X62900000Y-120200000D03*
%TO.P,J3,3,Pin_3*%
%TO.N,unconnected-(J3-Pad3)*%
X60900000Y-120200000D03*
%TO.P,J3,4,Pin_4*%
%TO.N,/BUZZ*%
X58900000Y-120200000D03*
%TO.P,J3,5,Pin_5*%
%TO.N,/LIGHT*%
X56900000Y-120200000D03*
%TO.P,J3,6,Pin_6*%
%TO.N,+3V3*%
X54900000Y-120200000D03*
%TD*%
%TO.P,J2,1,Pin_1*%
%TO.N,VBUS*%
X64900000Y-116000000D03*
%TO.P,J2,2,Pin_2*%
%TO.N,GND*%
X62900000Y-116000000D03*
%TO.P,J2,3,Pin_3*%
%TO.N,/TXD*%
X60900000Y-116000000D03*
%TO.P,J2,4,Pin_4*%
%TO.N,/RXD*%
X58900000Y-116000000D03*
%TO.P,J2,5,Pin_5*%
%TO.N,/SDA*%
X56900000Y-116000000D03*
%TO.P,J2,6,Pin_6*%
%TO.N,/SCL*%
X54900000Y-116000000D03*
%TD*%
D22*
%TO.P,J1,A1,GND_A*%
%TO.N,GND*%
X57150000Y-128935000D03*
%TO.P,J1,A4,VBUS_A*%
%TO.N,VBUS*%
X58650000Y-128935000D03*
%TO.P,J1,A5,CC1*%
%TO.N,unconnected-(J1-PadA5)*%
X59150000Y-128935000D03*
%TO.P,J1,A6,D1+*%
%TO.N,/D+*%
X59650000Y-128935000D03*
%TO.P,J1,A7,D1-*%
%TO.N,/D-*%
X60150000Y-128935000D03*
%TO.P,J1,A8,SBU1*%
%TO.N,unconnected-(J1-PadA8)*%
X60650000Y-128935000D03*
%TO.P,J1,A9,VBUS_A*%
%TO.N,VBUS*%
X61150000Y-128935000D03*
%TO.P,J1,A12,GND_A*%
%TO.N,GND*%
X62650000Y-128935000D03*
%TO.P,J1,B1,GND_B*%
X62650000Y-130665000D03*
%TO.P,J1,B4,VBUS_B*%
%TO.N,VBUS*%
X61150000Y-130665000D03*
%TO.P,J1,B5,CC2*%
%TO.N,unconnected-(J1-PadB5)*%
X60650000Y-130665000D03*
%TO.P,J1,B6,D2+*%
%TO.N,/D+*%
X60150000Y-130665000D03*
%TO.P,J1,B7,D2-*%
%TO.N,/D-*%
X59650000Y-130665000D03*
%TO.P,J1,B8,SBU2*%
%TO.N,unconnected-(J1-PadB8)*%
X59150000Y-130665000D03*
%TO.P,J1,B9,VBUS_B*%
%TO.N,VBUS*%
X58650000Y-130665000D03*
%TO.P,J1,B12,GND_B*%
%TO.N,GND*%
X57150000Y-130665000D03*
D23*
%TO.P,J1,S1,SHIELD*%
X57500000Y-127650000D03*
%TO.P,J1,S3,SHIELD*%
X62300000Y-127650000D03*
%TD*%
D24*
%TO.P,FAN1,1,Pin_1*%
%TO.N,GND*%
X76750000Y-70300000D03*
%TO.P,FAN1,2,Pin_2*%
%TO.N,VBUS*%
X76750000Y-69050000D03*
D25*
%TO.P,FAN1,MP*%
%TO.N,N/C*%
X79500000Y-66500000D03*
X79500000Y-72850000D03*
%TD*%
D26*
%TO.P,J5,1,Pin_1*%
%TO.N,GND*%
X74200000Y-78250000D03*
%TO.P,J5,2,Pin_2*%
%TO.N,VBUS*%
X75450000Y-78250000D03*
%TO.P,J5,3,Pin_3*%
%TO.N,/RXD*%
X76700000Y-78250000D03*
%TO.P,J5,4,Pin_4*%
%TO.N,/TXD*%
X77950000Y-78250000D03*
D27*
%TO.P,J5,MP*%
%TO.N,N/C*%
X71650000Y-81000000D03*
X80500000Y-81000000D03*
%TD*%
D28*
%TO.P,Q1,1,B*%
%TO.N,Net-(Q1-Pad1)*%
X43950000Y-82000000D03*
%TO.P,Q1,2,E*%
%TO.N,GND*%
X45850000Y-82000000D03*
%TO.P,Q1,3,C*%
%TO.N,Net-(BZ1-Pad2)*%
X44900000Y-79600000D03*
%TD*%
D10*
%TO.P,I2C2,1,Pin_1*%
%TO.N,/SDA*%
X44900000Y-67900000D03*
D11*
%TO.P,I2C2,2,Pin_2*%
%TO.N,/SCL*%
X44900000Y-70440000D03*
%TO.P,I2C2,3,Pin_3*%
%TO.N,GND*%
X44900000Y-72980000D03*
%TO.P,I2C2,4,Pin_4*%
%TO.N,Net-(C4-Pad1)*%
X44900000Y-75520000D03*
%TD*%
D10*
%TO.P,I2C3,1,Pin_1*%
%TO.N,/SDA*%
X66920000Y-64700000D03*
D11*
%TO.P,I2C3,2,Pin_2*%
%TO.N,/SCL*%
X69460000Y-64700000D03*
%TO.P,I2C3,3,Pin_3*%
%TO.N,GND*%
X72000000Y-64700000D03*
%TO.P,I2C3,4,Pin_4*%
%TO.N,Net-(C6-Pad1)*%
X74540000Y-64700000D03*
%TD*%
D10*
%TO.P,I2C4,1,Pin_1*%
%TO.N,/SDA*%
X63800000Y-60400000D03*
D11*
%TO.P,I2C4,2,Pin_2*%
%TO.N,/SCL*%
X66340000Y-60400000D03*
%TO.P,I2C4,3,Pin_3*%
%TO.N,GND*%
X71420000Y-60400000D03*
%TO.P,I2C4,4,Pin_4*%
%TO.N,Net-(C9-Pad1)*%
X68880000Y-60400000D03*
%TD*%
D29*
%TO.N,Net-(BZ1-Pad2)*%
X52400000Y-73600000D03*
X50200000Y-78400000D03*
%TO.N,VBUS*%
X58387347Y-126112653D03*
X53427227Y-75427227D03*
X61417654Y-126207652D03*
X64000000Y-76500000D03*
X68299998Y-72500000D03*
X53500000Y-109100000D03*
X67399998Y-116000000D03*
%TO.N,GND*%
X61500000Y-110500000D03*
X62000000Y-77500000D03*
X72100000Y-76900000D03*
X81500000Y-75500000D03*
X61500000Y-98500000D03*
X39500000Y-82000000D03*
X58000000Y-113000000D03*
X72000000Y-67500000D03*
X74000000Y-67500000D03*
X56500000Y-113000000D03*
X79500000Y-75500000D03*
X77000000Y-67500000D03*
X42000000Y-82000000D03*
X77000000Y-75500000D03*
X64000000Y-107800000D03*
X72200000Y-75300000D03*
X60000000Y-100500000D03*
X60000000Y-90000000D03*
X67800000Y-114100000D03*
X63000000Y-81500000D03*
X61500000Y-88000000D03*
%TO.N,+3V3*%
X51869933Y-78186604D03*
%TO.N,/TXD*%
X78000000Y-81000000D03*
%TO.N,/LIGHT*%
X55000000Y-101000000D03*
%TO.N,/SDA*%
X60500000Y-112300000D03*
%TO.N,/RXD*%
X76454000Y-80137000D03*
%TD*%
D30*
%TO.N,/SDA*%
X44900000Y-67900000D02*
X43352000Y-67900000D01*
X40872000Y-70380000D02*
X38800000Y-70380000D01*
X43352000Y-67900000D02*
X40872000Y-70380000D01*
%TO.N,/RXD*%
X76454000Y-80137000D02*
X76454000Y-77871000D01*
X76454000Y-77871000D02*
X76525000Y-77800000D01*
%TO.N,Net-(BZ1-Pad2)*%
X55000000Y-71000000D02*
X55000000Y-68000000D01*
X52400000Y-73600000D02*
X55000000Y-71000000D01*
X49000000Y-79600000D02*
X50200000Y-78400000D01*
X44900000Y-79600000D02*
X49000000Y-79600000D01*
D31*
%TO.N,VBUS*%
X66900000Y-79400000D02*
X64000000Y-76500000D01*
D30*
X61150000Y-128287451D02*
X60874990Y-128012441D01*
X71600000Y-72500000D02*
X72000000Y-72100000D01*
X58650000Y-128935000D02*
X58650000Y-128287451D01*
X72000000Y-72100000D02*
X72000000Y-71000000D01*
D31*
X64900000Y-116000000D02*
X67399998Y-116000000D01*
D30*
X58925010Y-126650316D02*
X58387347Y-126112653D01*
D31*
X64900000Y-116000000D02*
X64900000Y-112000000D01*
D30*
X74000000Y-71000000D02*
X74800000Y-71000000D01*
X58650000Y-128287451D02*
X58925010Y-128012441D01*
X58650000Y-130665000D02*
X58650000Y-128935000D01*
X75400000Y-70400000D02*
X75400000Y-69750000D01*
X75400000Y-69750000D02*
X76100000Y-69050000D01*
X57900000Y-61000000D02*
X57900000Y-63300000D01*
X74800000Y-71000000D02*
X75400000Y-70400000D01*
X73500000Y-72500000D02*
X75450000Y-74450000D01*
X48100000Y-74500000D02*
X47800000Y-74200000D01*
D31*
X72000000Y-71000000D02*
X74000000Y-71000000D01*
D30*
X41800000Y-74200000D02*
X47800000Y-74200000D01*
D31*
X62000000Y-109100000D02*
X53500000Y-109100000D01*
D30*
X53427227Y-75427227D02*
X52500000Y-74500000D01*
X66700000Y-68200000D02*
X62800000Y-68200000D01*
X62800000Y-68200000D02*
X62600000Y-68000000D01*
X60874990Y-128012441D02*
X60874990Y-126750316D01*
X61150000Y-128935000D02*
X61150000Y-128287451D01*
X58925010Y-128012441D02*
X58925010Y-126650316D01*
X75450000Y-77550000D02*
X75450000Y-76984311D01*
X76100000Y-69050000D02*
X76750000Y-69050000D01*
X75450000Y-78250000D02*
X75450000Y-77550000D01*
X60874990Y-126750316D02*
X61417654Y-126207652D01*
X52500000Y-74500000D02*
X48100000Y-74500000D01*
D31*
X67100000Y-79400000D02*
X66900000Y-79400000D01*
X64900000Y-112000000D02*
X62000000Y-109100000D01*
D30*
X70500000Y-72500000D02*
X68299998Y-72500000D01*
X57900000Y-63300000D02*
X62600000Y-68000000D01*
X61150000Y-130665000D02*
X61150000Y-128935000D01*
X75450000Y-74450000D02*
X75450000Y-77550000D01*
X71600000Y-72500000D02*
X73500000Y-72500000D01*
X68299998Y-72500000D02*
X71600000Y-72500000D01*
%TO.N,GND*%
X60800000Y-57400000D02*
X61300000Y-57400000D01*
X61300000Y-57400000D02*
X61400000Y-57300000D01*
X71900000Y-69100000D02*
X72000000Y-69100000D01*
X57150000Y-128935000D02*
X57150000Y-128000000D01*
X60400000Y-57800000D02*
X60800000Y-57400000D01*
X61400000Y-57300000D02*
X62700000Y-57300000D01*
X57150000Y-128000000D02*
X57500000Y-127650000D01*
D31*
X62900000Y-116000000D02*
X62900000Y-111900000D01*
X62900000Y-111900000D02*
X61500000Y-110500000D01*
D30*
X45850000Y-82000000D02*
X45024999Y-82825001D01*
X62700000Y-57300000D02*
X58700000Y-57300000D01*
X45024999Y-82825001D02*
X42825001Y-82825001D01*
X42825001Y-82825001D02*
X42000000Y-82000000D01*
X62650000Y-128000000D02*
X62300000Y-127650000D01*
X62650000Y-130665000D02*
X62650000Y-128935000D01*
X70000000Y-71000000D02*
X71900000Y-69100000D01*
X62650000Y-128935000D02*
X62650000Y-128000000D01*
%TO.N,+3V3*%
X51869933Y-78186604D02*
X51283329Y-77600000D01*
X56900000Y-58400000D02*
X56824999Y-58475001D01*
X42300000Y-77300000D02*
X41800000Y-76800000D01*
D31*
X57100000Y-75000000D02*
X58000000Y-75000000D01*
D30*
X47800000Y-77300000D02*
X42300000Y-77300000D01*
X51283329Y-77600000D02*
X51283329Y-77583329D01*
X47800000Y-77000000D02*
X47800000Y-77300000D01*
X56824999Y-74724999D02*
X57100000Y-75000000D01*
D31*
X55056537Y-75000000D02*
X57100000Y-75000000D01*
D30*
X51283329Y-77583329D02*
X51000000Y-77300000D01*
X67200000Y-73500000D02*
X67200000Y-71300000D01*
D31*
X51869933Y-78186604D02*
X55056537Y-75000000D01*
D30*
X67200000Y-71300000D02*
X66700000Y-70800000D01*
D31*
X58000000Y-75000000D02*
X66950000Y-75000000D01*
D30*
X51000000Y-77300000D02*
X47800000Y-77300000D01*
X56824999Y-58475001D02*
X56824999Y-74724999D01*
X47800000Y-76800000D02*
X47800000Y-77000000D01*
X57900000Y-58400000D02*
X56900000Y-58400000D01*
D31*
X67200000Y-74750000D02*
X67200000Y-73500000D01*
X66950000Y-75000000D02*
X67200000Y-74750000D01*
D30*
%TO.N,/TXD*%
X78000000Y-78025000D02*
X77775000Y-77800000D01*
X78000000Y-81000000D02*
X78000000Y-78025000D01*
%TO.N,Net-(Q1-Pad1)*%
X47675000Y-82000000D02*
X46375000Y-80700000D01*
X46375000Y-80700000D02*
X45250000Y-80700000D01*
X45250000Y-80700000D02*
X43950000Y-82000000D01*
%TO.N,/LIGHT*%
X56900000Y-121100000D02*
X56000000Y-122000000D01*
X54000000Y-122000000D02*
X51974990Y-119974990D01*
X52000000Y-104000000D02*
X55000000Y-101000000D01*
X51974990Y-119974990D02*
X51974990Y-116025010D01*
X56900000Y-120200000D02*
X56900000Y-121100000D01*
X51974990Y-116025010D02*
X52000000Y-116000000D01*
X52000000Y-116000000D02*
X52000000Y-104000000D01*
X56000000Y-122000000D02*
X54000000Y-122000000D01*
%TO.N,/SCL*%
X44880000Y-70420000D02*
X44900000Y-70440000D01*
X69460000Y-64700000D02*
X69460000Y-63460000D01*
X66400000Y-60400000D02*
X66340000Y-60400000D01*
X69460000Y-63460000D02*
X66400000Y-60400000D01*
%TO.N,/SDA*%
X56900000Y-116000000D02*
X60500000Y-112400000D01*
X60500000Y-112400000D02*
X60500000Y-112300000D01*
X66920000Y-64020000D02*
X63800000Y-60900000D01*
X66920000Y-64700000D02*
X66920000Y-64020000D01*
X63800000Y-60900000D02*
X63800000Y-60400000D01*
X44880000Y-67880000D02*
X44900000Y-67900000D01*
%TO.N,/BUZZ*%
X58900000Y-120200000D02*
X56649991Y-122450009D01*
X51400000Y-120036410D02*
X51400000Y-83900000D01*
X51400000Y-83900000D02*
X49500000Y-82000000D01*
X56649991Y-122450009D02*
X53813599Y-122450009D01*
X53813599Y-122450009D02*
X51400000Y-120036410D01*
%TO.N,Net-(C6-Pad1)*%
X71274999Y-67825001D02*
X71274999Y-67151999D01*
X74540000Y-66260000D02*
X74540000Y-64700000D01*
X71651999Y-66774999D02*
X74025001Y-66774999D01*
X71274999Y-67151999D02*
X71651999Y-66774999D01*
X70000000Y-69100000D02*
X71274999Y-67825001D01*
X69600000Y-69500000D02*
X70000000Y-69100000D01*
X66700000Y-69500000D02*
X69600000Y-69500000D01*
X74025001Y-66774999D02*
X74540000Y-66260000D01*
%TO.N,Net-(C1-Pad1)*%
X38700000Y-77800000D02*
X38700000Y-75600000D01*
X38700000Y-75600000D02*
X38800000Y-75500000D01*
X41800000Y-75500000D02*
X38800000Y-75500000D01*
%TO.N,Net-(C4-Pad1)*%
X44920000Y-75500000D02*
X44900000Y-75520000D01*
X47800000Y-75500000D02*
X44920000Y-75500000D01*
X50400000Y-75500000D02*
X47800000Y-75500000D01*
%TO.N,Net-(C9-Pad1)*%
X60400000Y-59700000D02*
X61900000Y-58200000D01*
X68880000Y-59482000D02*
X68880000Y-60400000D01*
X67598000Y-58200000D02*
X68880000Y-59482000D01*
X61900000Y-58200000D02*
X67598000Y-58200000D01*
X57900000Y-59700000D02*
X60400000Y-59700000D01*
%TO.N,/D+*%
X58500000Y-124100000D02*
X58600000Y-124100000D01*
X59650000Y-125150000D02*
X59650000Y-125466570D01*
X58600000Y-124100000D02*
X59650000Y-125150000D01*
X59650000Y-125466570D02*
X59650000Y-128935000D01*
%TO.N,/D-*%
X61200000Y-124100000D02*
X61500000Y-124100000D01*
X60150000Y-125150000D02*
X61200000Y-124100000D01*
X60150000Y-128935000D02*
X60150000Y-125150000D01*
%TD*%
%TA.AperFunction,Conductor*%
%TO.N,GND*%
G36*
X71532416Y-73134027D02*
G01*
X71539909Y-73135702D01*
X71547835Y-73135453D01*
X71547836Y-73135453D01*
X71607986Y-73133562D01*
X71611945Y-73133500D01*
X73185406Y-73133500D01*
X73253527Y-73153502D01*
X73274501Y-73170405D01*
X74779595Y-74675499D01*
X74813621Y-74737811D01*
X74816500Y-74764594D01*
X74816500Y-77017008D01*
X74796498Y-77085129D01*
X74742842Y-77131622D01*
X74672568Y-77141726D01*
X74652821Y-77137242D01*
X74536356Y-77100744D01*
X74523306Y-77098131D01*
X74468414Y-77093087D01*
X74456876Y-77096475D01*
X74455671Y-77097865D01*
X74454000Y-77105548D01*
X74454000Y-79389884D01*
X74458475Y-79405123D01*
X74459865Y-79406328D01*
X74464294Y-79407291D01*
X74523315Y-79401868D01*
X74536351Y-79399257D01*
X74686243Y-79352285D01*
X74699992Y-79346077D01*
X74759247Y-79310191D01*
X74827876Y-79292012D01*
X74889788Y-79310191D01*
X74956301Y-79350472D01*
X74963548Y-79352743D01*
X74963550Y-79352744D01*
X75029836Y-79373517D01*
X75119938Y-79401753D01*
X75193365Y-79408500D01*
X75207972Y-79408500D01*
X75607700Y-79408499D01*
X75675819Y-79428501D01*
X75722313Y-79482156D01*
X75732417Y-79552430D01*
X75713441Y-79599179D01*
X75714960Y-79600056D01*
X75659365Y-79696350D01*
X75619473Y-79765444D01*
X75560458Y-79947072D01*
X75559768Y-79953633D01*
X75559768Y-79953635D01*
X75543050Y-80112704D01*
X75540496Y-80137000D01*
X75541186Y-80143565D01*
X75559254Y-80315468D01*
X75560458Y-80326928D01*
X75619473Y-80508556D01*
X75714960Y-80673944D01*
X75719378Y-80678851D01*
X75719379Y-80678852D01*
X75830048Y-80801762D01*
X75842747Y-80815866D01*
X75897410Y-80855581D01*
X75980696Y-80916092D01*
X75997248Y-80928118D01*
X76003276Y-80930802D01*
X76003278Y-80930803D01*
X76165681Y-81003109D01*
X76171712Y-81005794D01*
X76265112Y-81025647D01*
X76352056Y-81044128D01*
X76352061Y-81044128D01*
X76358513Y-81045500D01*
X76549487Y-81045500D01*
X76555939Y-81044128D01*
X76555944Y-81044128D01*
X76642888Y-81025647D01*
X76736288Y-81005794D01*
X76746991Y-81001029D01*
X76910752Y-80928118D01*
X76911715Y-80930282D01*
X76970204Y-80916092D01*
X77037296Y-80939311D01*
X77081184Y-80995117D01*
X77089521Y-81028777D01*
X77106458Y-81189928D01*
X77165473Y-81371556D01*
X77168776Y-81377278D01*
X77168777Y-81377279D01*
X77202686Y-81436010D01*
X77260960Y-81536944D01*
X77388747Y-81678866D01*
X77543248Y-81791118D01*
X77549276Y-81793802D01*
X77549278Y-81793803D01*
X77711681Y-81866109D01*
X77717712Y-81868794D01*
X77811113Y-81888647D01*
X77898056Y-81907128D01*
X77898061Y-81907128D01*
X77904513Y-81908500D01*
X78095487Y-81908500D01*
X78101939Y-81907128D01*
X78101944Y-81907128D01*
X78188887Y-81888647D01*
X78282288Y-81868794D01*
X78288319Y-81866109D01*
X78450722Y-81793803D01*
X78450724Y-81793802D01*
X78456752Y-81791118D01*
X78611253Y-81678866D01*
X78721864Y-81556020D01*
X78782310Y-81518780D01*
X78853294Y-81520132D01*
X78912278Y-81559645D01*
X78940536Y-81624776D01*
X78941500Y-81640330D01*
X78941500Y-82300400D01*
X78952474Y-82406166D01*
X79008450Y-82573946D01*
X79101522Y-82724348D01*
X79106704Y-82729521D01*
X79106708Y-82729526D01*
X79154092Y-82776827D01*
X79188172Y-82839109D01*
X79183169Y-82909929D01*
X79140672Y-82966802D01*
X79074174Y-82991671D01*
X79065075Y-82992000D01*
X73084892Y-82992000D01*
X73016771Y-82971998D01*
X72970278Y-82918342D01*
X72960174Y-82848068D01*
X72989668Y-82783488D01*
X72995719Y-82776982D01*
X73044134Y-82728483D01*
X73049305Y-82723303D01*
X73114391Y-82617715D01*
X73138275Y-82578968D01*
X73138276Y-82578966D01*
X73142115Y-82572738D01*
X73197797Y-82404861D01*
X73208500Y-82300400D01*
X73208500Y-79699600D01*
X73205648Y-79672115D01*
X73198238Y-79600692D01*
X73198237Y-79600688D01*
X73197526Y-79593834D01*
X73183713Y-79552430D01*
X73143868Y-79433002D01*
X73141550Y-79426054D01*
X73048478Y-79275652D01*
X73028661Y-79255869D01*
X72928483Y-79155866D01*
X72923303Y-79150695D01*
X72917072Y-79146854D01*
X72778968Y-79061725D01*
X72778966Y-79061724D01*
X72772738Y-79057885D01*
X72692995Y-79031436D01*
X72611389Y-79004368D01*
X72611387Y-79004368D01*
X72604861Y-79002203D01*
X72598025Y-79001503D01*
X72598022Y-79001502D01*
X72554969Y-78997091D01*
X72500400Y-78991500D01*
X70799600Y-78991500D01*
X70796354Y-78991837D01*
X70796350Y-78991837D01*
X70700692Y-79001762D01*
X70700688Y-79001763D01*
X70693834Y-79002474D01*
X70687298Y-79004655D01*
X70687296Y-79004655D01*
X70555971Y-79048469D01*
X70526054Y-79058450D01*
X70375652Y-79151522D01*
X70250695Y-79276697D01*
X70246855Y-79282927D01*
X70246854Y-79282928D01*
X70169451Y-79408499D01*
X70157885Y-79427262D01*
X70102203Y-79595139D01*
X70091500Y-79699600D01*
X70091500Y-82300400D01*
X70102474Y-82406166D01*
X70158450Y-82573946D01*
X70251522Y-82724348D01*
X70256704Y-82729521D01*
X70256708Y-82729526D01*
X70304092Y-82776827D01*
X70338172Y-82839109D01*
X70333169Y-82909929D01*
X70290672Y-82966802D01*
X70224174Y-82991671D01*
X70215075Y-82992000D01*
X69908702Y-82992000D01*
X69907932Y-82991998D01*
X69907078Y-82991993D01*
X69830348Y-82991524D01*
X69821719Y-82993990D01*
X69821714Y-82993991D01*
X69801952Y-82999639D01*
X69785191Y-83003217D01*
X69764848Y-83006130D01*
X69764838Y-83006133D01*
X69755955Y-83007405D01*
X69732605Y-83018021D01*
X69715093Y-83024464D01*
X69702200Y-83028149D01*
X69690435Y-83031512D01*
X69665452Y-83047274D01*
X69650386Y-83055404D01*
X69623490Y-83067633D01*
X69604061Y-83084374D01*
X69589053Y-83095479D01*
X69567369Y-83109160D01*
X69561427Y-83115888D01*
X69547819Y-83131296D01*
X69535627Y-83143340D01*
X69513253Y-83162619D01*
X69508374Y-83170147D01*
X69508371Y-83170150D01*
X69499304Y-83184139D01*
X69488014Y-83199013D01*
X69471044Y-83218228D01*
X69458490Y-83244966D01*
X69450176Y-83259935D01*
X69434107Y-83284727D01*
X69431535Y-83293327D01*
X69426761Y-83309290D01*
X69420099Y-83326736D01*
X69409201Y-83349948D01*
X69407820Y-83358821D01*
X69404658Y-83379128D01*
X69400874Y-83395849D01*
X69394986Y-83415536D01*
X69394985Y-83415539D01*
X69392413Y-83424141D01*
X69392358Y-83433116D01*
X69392358Y-83433117D01*
X69392203Y-83458546D01*
X69392170Y-83459328D01*
X69392000Y-83460423D01*
X69392000Y-83491298D01*
X69391998Y-83492068D01*
X69391524Y-83569652D01*
X69391908Y-83570996D01*
X69392000Y-83572341D01*
X69392000Y-127866000D01*
X69371998Y-127934121D01*
X69318342Y-127980614D01*
X69266000Y-127992000D01*
X66408702Y-127992000D01*
X66407932Y-127991998D01*
X66407078Y-127991993D01*
X66330348Y-127991524D01*
X66321719Y-127993990D01*
X66321714Y-127993991D01*
X66301952Y-127999639D01*
X66285191Y-128003217D01*
X66264848Y-128006130D01*
X66264838Y-128006133D01*
X66255955Y-128007405D01*
X66232605Y-128018021D01*
X66215093Y-128024464D01*
X66207057Y-128026761D01*
X66190435Y-128031512D01*
X66165452Y-128047274D01*
X66150386Y-128055404D01*
X66123490Y-128067633D01*
X66104061Y-128084374D01*
X66089053Y-128095479D01*
X66067369Y-128109160D01*
X66061427Y-128115888D01*
X66047819Y-128131296D01*
X66035627Y-128143340D01*
X66013253Y-128162619D01*
X66008374Y-128170147D01*
X66008371Y-128170150D01*
X65999304Y-128184139D01*
X65988014Y-128199013D01*
X65971044Y-128218228D01*
X65958490Y-128244966D01*
X65950176Y-128259935D01*
X65934107Y-128284727D01*
X65931535Y-128293327D01*
X65926761Y-128309290D01*
X65920099Y-128326736D01*
X65909201Y-128349948D01*
X65904658Y-128379128D01*
X65900874Y-128395849D01*
X65894986Y-128415536D01*
X65894985Y-128415539D01*
X65892413Y-128424141D01*
X65892244Y-128451866D01*
X65892203Y-128458546D01*
X65892170Y-128459328D01*
X65892000Y-128460423D01*
X65892000Y-128491298D01*
X65891998Y-128492068D01*
X65891524Y-128569652D01*
X65891908Y-128570996D01*
X65892000Y-128572341D01*
X65892000Y-130866000D01*
X65871998Y-130934121D01*
X65818342Y-130980614D01*
X65766000Y-130992000D01*
X63434000Y-130992000D01*
X63365879Y-130971998D01*
X63319386Y-130918342D01*
X63308000Y-130866000D01*
X63308000Y-130833115D01*
X63303525Y-130817876D01*
X63302135Y-130816671D01*
X63294452Y-130815000D01*
X62626000Y-130815000D01*
X62557879Y-130794998D01*
X62511386Y-130741342D01*
X62500000Y-130689000D01*
X62500000Y-129800002D01*
X62776776Y-129800002D01*
X62777465Y-129804812D01*
X62777465Y-129804813D01*
X62777548Y-129805390D01*
X62777547Y-129805399D01*
X62777548Y-129805399D01*
X62781213Y-129830991D01*
X62781879Y-129836499D01*
X62793112Y-129950553D01*
X62794910Y-129956479D01*
X62796117Y-129962550D01*
X62795653Y-129962642D01*
X62800000Y-129991951D01*
X62800000Y-130496885D01*
X62804475Y-130512124D01*
X62805865Y-130513329D01*
X62813548Y-130515000D01*
X63242668Y-130515000D01*
X63279244Y-130520425D01*
X63393525Y-130555092D01*
X63393529Y-130555093D01*
X63399447Y-130556888D01*
X63405608Y-130557495D01*
X63405609Y-130557495D01*
X63496029Y-130566401D01*
X63504579Y-130567540D01*
X63532660Y-130572264D01*
X63532672Y-130572265D01*
X63537463Y-130573071D01*
X63543818Y-130573149D01*
X63545143Y-130573165D01*
X63545147Y-130573165D01*
X63550002Y-130573224D01*
X63576955Y-130569364D01*
X63600677Y-130568421D01*
X63601301Y-130568500D01*
X63693354Y-130568500D01*
X63693354Y-130568550D01*
X63719069Y-130569977D01*
X63737459Y-130573071D01*
X63743597Y-130573146D01*
X63745133Y-130573165D01*
X63745138Y-130573165D01*
X63749998Y-130573224D01*
X63754816Y-130572534D01*
X63754818Y-130572534D01*
X63780987Y-130568787D01*
X63786495Y-130568122D01*
X63894391Y-130557495D01*
X63894392Y-130557495D01*
X63900553Y-130556888D01*
X63906471Y-130555093D01*
X63906475Y-130555092D01*
X64039399Y-130514770D01*
X64039402Y-130514769D01*
X64045322Y-130512973D01*
X64050780Y-130510056D01*
X64050784Y-130510054D01*
X64128862Y-130468320D01*
X64178742Y-130441659D01*
X64295686Y-130345686D01*
X64391659Y-130228742D01*
X64444821Y-130129282D01*
X64460054Y-130100784D01*
X64460056Y-130100780D01*
X64462973Y-130095322D01*
X64478801Y-130043145D01*
X64505092Y-129956475D01*
X64505093Y-129956471D01*
X64506888Y-129950553D01*
X64516401Y-129853964D01*
X64517540Y-129845414D01*
X64519506Y-129833727D01*
X64519507Y-129833722D01*
X64523071Y-129812541D01*
X64523224Y-129800002D01*
X64523224Y-129799998D01*
X64518787Y-129769014D01*
X64518123Y-129763519D01*
X64507495Y-129655610D01*
X64506888Y-129649447D01*
X64499063Y-129623649D01*
X64464770Y-129510601D01*
X64464769Y-129510598D01*
X64462973Y-129504678D01*
X64449952Y-129480316D01*
X64394575Y-129376714D01*
X64391659Y-129371258D01*
X64295686Y-129254314D01*
X64178742Y-129158341D01*
X64083232Y-129107290D01*
X64050784Y-129089946D01*
X64050780Y-129089944D01*
X64045322Y-129087027D01*
X64039402Y-129085231D01*
X64039399Y-129085230D01*
X63906475Y-129044908D01*
X63906471Y-129044907D01*
X63900553Y-129043112D01*
X63894392Y-129042505D01*
X63894391Y-129042505D01*
X63803971Y-129033599D01*
X63795421Y-129032460D01*
X63767340Y-129027736D01*
X63767328Y-129027735D01*
X63762537Y-129026929D01*
X63756182Y-129026851D01*
X63754857Y-129026835D01*
X63754853Y-129026835D01*
X63749998Y-129026776D01*
X63723045Y-129030636D01*
X63699323Y-129031579D01*
X63698699Y-129031500D01*
X63606646Y-129031500D01*
X63606646Y-129031450D01*
X63580931Y-129030023D01*
X63562541Y-129026929D01*
X63556403Y-129026854D01*
X63554867Y-129026835D01*
X63554862Y-129026835D01*
X63550002Y-129026776D01*
X63545184Y-129027466D01*
X63545182Y-129027466D01*
X63519013Y-129031213D01*
X63513505Y-129031878D01*
X63405609Y-129042505D01*
X63405608Y-129042505D01*
X63399447Y-129043112D01*
X63393529Y-129044907D01*
X63393525Y-129044908D01*
X63279244Y-129079575D01*
X63242668Y-129085000D01*
X62818115Y-129085000D01*
X62802876Y-129089475D01*
X62801671Y-129090865D01*
X62800000Y-129098548D01*
X62800000Y-129608049D01*
X62795653Y-129637358D01*
X62796117Y-129637450D01*
X62794910Y-129643520D01*
X62793112Y-129649447D01*
X62792505Y-129655613D01*
X62783600Y-129746022D01*
X62782461Y-129754576D01*
X62780029Y-129769032D01*
X62776929Y-129787459D01*
X62776929Y-129787463D01*
X62776776Y-129800002D01*
X62500000Y-129800002D01*
X62500000Y-128911000D01*
X62520002Y-128842879D01*
X62573658Y-128796386D01*
X62626000Y-128785000D01*
X63289884Y-128785000D01*
X63305123Y-128780525D01*
X63306328Y-128779135D01*
X63307999Y-128771452D01*
X63307999Y-128680496D01*
X63328001Y-128612375D01*
X63374846Y-128569244D01*
X63432880Y-128538387D01*
X63443097Y-128531598D01*
X63594335Y-128408253D01*
X63603039Y-128399609D01*
X63727438Y-128249237D01*
X63734297Y-128239069D01*
X63827121Y-128067393D01*
X63831871Y-128056093D01*
X63873595Y-127921307D01*
X63873801Y-127907205D01*
X63867045Y-127904000D01*
X62172000Y-127904000D01*
X62103879Y-127883998D01*
X62057386Y-127830342D01*
X62046000Y-127778000D01*
X62046000Y-127522000D01*
X62066002Y-127453879D01*
X62119658Y-127407386D01*
X62172000Y-127396000D01*
X63860047Y-127396000D01*
X63873578Y-127392027D01*
X63874698Y-127384232D01*
X63837446Y-127257658D01*
X63832853Y-127246290D01*
X63742434Y-127073334D01*
X63735718Y-127063072D01*
X63613432Y-126910980D01*
X63604848Y-126902214D01*
X63455344Y-126776764D01*
X63445233Y-126769840D01*
X63274202Y-126675816D01*
X63262938Y-126670988D01*
X63076905Y-126611975D01*
X63064916Y-126609427D01*
X62913053Y-126592393D01*
X62906029Y-126592000D01*
X62421449Y-126592000D01*
X62353328Y-126571998D01*
X62306835Y-126518342D01*
X62296731Y-126448068D01*
X62301616Y-126427064D01*
X62309156Y-126403858D01*
X62311196Y-126397580D01*
X62321871Y-126296018D01*
X62330468Y-126214217D01*
X62331158Y-126207652D01*
X62311196Y-126017724D01*
X62305437Y-126000000D01*
X65786526Y-126000000D01*
X65806391Y-126252403D01*
X65807545Y-126257210D01*
X65807546Y-126257216D01*
X65839669Y-126391017D01*
X65865495Y-126498591D01*
X65867388Y-126503162D01*
X65867389Y-126503164D01*
X65936492Y-126669992D01*
X65962384Y-126732502D01*
X66094672Y-126948376D01*
X66259102Y-127140898D01*
X66451624Y-127305328D01*
X66667498Y-127437616D01*
X66672068Y-127439509D01*
X66672072Y-127439511D01*
X66706760Y-127453879D01*
X66901409Y-127534505D01*
X66986032Y-127554821D01*
X67142784Y-127592454D01*
X67142790Y-127592455D01*
X67147597Y-127593609D01*
X67247416Y-127601465D01*
X67334345Y-127608307D01*
X67334352Y-127608307D01*
X67336801Y-127608500D01*
X67463199Y-127608500D01*
X67465648Y-127608307D01*
X67465655Y-127608307D01*
X67552584Y-127601465D01*
X67652403Y-127593609D01*
X67657210Y-127592455D01*
X67657216Y-127592454D01*
X67813968Y-127554821D01*
X67898591Y-127534505D01*
X68093240Y-127453879D01*
X68127928Y-127439511D01*
X68127932Y-127439509D01*
X68132502Y-127437616D01*
X68348376Y-127305328D01*
X68540898Y-127140898D01*
X68705328Y-126948376D01*
X68837616Y-126732502D01*
X68863509Y-126669992D01*
X68932611Y-126503164D01*
X68932612Y-126503162D01*
X68934505Y-126498591D01*
X68960331Y-126391017D01*
X68992454Y-126257216D01*
X68992455Y-126257210D01*
X68993609Y-126252403D01*
X69013474Y-126000000D01*
X68993609Y-125747597D01*
X68973972Y-125665800D01*
X68947184Y-125554220D01*
X68934505Y-125501409D01*
X68914730Y-125453667D01*
X68839511Y-125272072D01*
X68839509Y-125272068D01*
X68837616Y-125267498D01*
X68705328Y-125051624D01*
X68540898Y-124859102D01*
X68348376Y-124694672D01*
X68132502Y-124562384D01*
X68127932Y-124560491D01*
X68127928Y-124560489D01*
X67903164Y-124467389D01*
X67903162Y-124467388D01*
X67898591Y-124465495D01*
X67808895Y-124443961D01*
X67657216Y-124407546D01*
X67657210Y-124407545D01*
X67652403Y-124406391D01*
X67552584Y-124398535D01*
X67465655Y-124391693D01*
X67465648Y-124391693D01*
X67463199Y-124391500D01*
X67336801Y-124391500D01*
X67334352Y-124391693D01*
X67334345Y-124391693D01*
X67247416Y-124398535D01*
X67147597Y-124406391D01*
X67142790Y-124407545D01*
X67142784Y-124407546D01*
X66991105Y-124443961D01*
X66901409Y-124465495D01*
X66896838Y-124467388D01*
X66896836Y-124467389D01*
X66672072Y-124560489D01*
X66672068Y-124560491D01*
X66667498Y-124562384D01*
X66451624Y-124694672D01*
X66259102Y-124859102D01*
X66094672Y-125051624D01*
X65962384Y-125267498D01*
X65960491Y-125272068D01*
X65960489Y-125272072D01*
X65885270Y-125453667D01*
X65865495Y-125501409D01*
X65852816Y-125554220D01*
X65826029Y-125665800D01*
X65806391Y-125747597D01*
X65786526Y-126000000D01*
X62305437Y-126000000D01*
X62252181Y-125836096D01*
X62156694Y-125670708D01*
X62066738Y-125570801D01*
X62033329Y-125533697D01*
X62033328Y-125533696D01*
X62028907Y-125528786D01*
X61961511Y-125479820D01*
X61918158Y-125423599D01*
X61912083Y-125352863D01*
X61945214Y-125290071D01*
X61982323Y-125263690D01*
X62126667Y-125196382D01*
X62126672Y-125196379D01*
X62131654Y-125194056D01*
X62312038Y-125067749D01*
X62467749Y-124912038D01*
X62502186Y-124862858D01*
X62590899Y-124736162D01*
X62590900Y-124736160D01*
X62594056Y-124731653D01*
X62596379Y-124726671D01*
X62596382Y-124726666D01*
X62684795Y-124537061D01*
X62687120Y-124532076D01*
X62744115Y-124319371D01*
X62763307Y-124100000D01*
X62744115Y-123880629D01*
X62687120Y-123667924D01*
X62643585Y-123574562D01*
X62596382Y-123473334D01*
X62596379Y-123473329D01*
X62594056Y-123468347D01*
X62467749Y-123287962D01*
X62312038Y-123132251D01*
X62131654Y-123005944D01*
X61932076Y-122912880D01*
X61719371Y-122855885D01*
X61500000Y-122836693D01*
X61280629Y-122855885D01*
X61067924Y-122912880D01*
X61017642Y-122936327D01*
X60873334Y-123003618D01*
X60873329Y-123003621D01*
X60868347Y-123005944D01*
X60863840Y-123009100D01*
X60863838Y-123009101D01*
X60692473Y-123129092D01*
X60692470Y-123129094D01*
X60687962Y-123132251D01*
X60532251Y-123287962D01*
X60405944Y-123468347D01*
X60403621Y-123473329D01*
X60403618Y-123473334D01*
X60356415Y-123574562D01*
X60312880Y-123667924D01*
X60255885Y-123880629D01*
X60236693Y-124100000D01*
X60237172Y-124105474D01*
X60237172Y-124110981D01*
X60235479Y-124110981D01*
X60223008Y-124173049D01*
X60200569Y-124203526D01*
X59989095Y-124415000D01*
X59926783Y-124449026D01*
X59855968Y-124443961D01*
X59810905Y-124415000D01*
X59783341Y-124387436D01*
X59749315Y-124325124D01*
X59746915Y-124287363D01*
X59763307Y-124100000D01*
X59744115Y-123880629D01*
X59687120Y-123667924D01*
X59643585Y-123574562D01*
X59596382Y-123473334D01*
X59596379Y-123473329D01*
X59594056Y-123468347D01*
X59467749Y-123287962D01*
X59312038Y-123132251D01*
X59131654Y-123005944D01*
X58932076Y-122912880D01*
X58719371Y-122855885D01*
X58500000Y-122836693D01*
X58280629Y-122855885D01*
X58067924Y-122912880D01*
X58017642Y-122936327D01*
X57873334Y-123003618D01*
X57873329Y-123003621D01*
X57868347Y-123005944D01*
X57863840Y-123009100D01*
X57863838Y-123009101D01*
X57692473Y-123129092D01*
X57692470Y-123129094D01*
X57687962Y-123132251D01*
X57532251Y-123287962D01*
X57405944Y-123468347D01*
X57403621Y-123473329D01*
X57403618Y-123473334D01*
X57356415Y-123574562D01*
X57312880Y-123667924D01*
X57255885Y-123880629D01*
X57236693Y-124100000D01*
X57255885Y-124319371D01*
X57312880Y-124532076D01*
X57315205Y-124537061D01*
X57403618Y-124726666D01*
X57403621Y-124726671D01*
X57405944Y-124731653D01*
X57409100Y-124736160D01*
X57409101Y-124736162D01*
X57497815Y-124862858D01*
X57532251Y-124912038D01*
X57687962Y-125067749D01*
X57692471Y-125070906D01*
X57692473Y-125070908D01*
X57844695Y-125177496D01*
X57889023Y-125232954D01*
X57896332Y-125303573D01*
X57864301Y-125366933D01*
X57846485Y-125382645D01*
X57790117Y-125423599D01*
X57776094Y-125433787D01*
X57771673Y-125438697D01*
X57771672Y-125438698D01*
X57690557Y-125528786D01*
X57648307Y-125575709D01*
X57552820Y-125741097D01*
X57493805Y-125922725D01*
X57493115Y-125929286D01*
X57493115Y-125929288D01*
X57474533Y-126106088D01*
X57473843Y-126112653D01*
X57474533Y-126119218D01*
X57488013Y-126247469D01*
X57493805Y-126302581D01*
X57552820Y-126484209D01*
X57648307Y-126649597D01*
X57721637Y-126731039D01*
X57752353Y-126795044D01*
X57754000Y-126815347D01*
X57754000Y-127778000D01*
X57733998Y-127846121D01*
X57680342Y-127892614D01*
X57628000Y-127904000D01*
X55939953Y-127904000D01*
X55926422Y-127907973D01*
X55925302Y-127915768D01*
X55962554Y-128042342D01*
X55967147Y-128053710D01*
X56057566Y-128226666D01*
X56064282Y-128236928D01*
X56186568Y-128389020D01*
X56195152Y-128397786D01*
X56344656Y-128523236D01*
X56354771Y-128530162D01*
X56426702Y-128569707D01*
X56476760Y-128620052D01*
X56492000Y-128680121D01*
X56492000Y-128766885D01*
X56496475Y-128782124D01*
X56497865Y-128783329D01*
X56505548Y-128785000D01*
X57174000Y-128785000D01*
X57242121Y-128805002D01*
X57288614Y-128858658D01*
X57300000Y-128911000D01*
X57300000Y-130689000D01*
X57279998Y-130757121D01*
X57226342Y-130803614D01*
X57174000Y-130815000D01*
X56510116Y-130815000D01*
X56494877Y-130819475D01*
X56493672Y-130820865D01*
X56492001Y-130828548D01*
X56492001Y-130866000D01*
X56471999Y-130934121D01*
X56418343Y-130980614D01*
X56366001Y-130992000D01*
X54034000Y-130992000D01*
X53965879Y-130971998D01*
X53919386Y-130918342D01*
X53908000Y-130866000D01*
X53908000Y-129794601D01*
X55376656Y-129794601D01*
X55377392Y-129801604D01*
X55377392Y-129801605D01*
X55393670Y-129956475D01*
X55394678Y-129966068D01*
X55450240Y-130129282D01*
X55540582Y-130276130D01*
X55545513Y-130281165D01*
X55545515Y-130281168D01*
X55604016Y-130340907D01*
X55661212Y-130399313D01*
X55806136Y-130492710D01*
X55812756Y-130495120D01*
X55812759Y-130495121D01*
X55882281Y-130520425D01*
X55968150Y-130551679D01*
X56101301Y-130568500D01*
X56193354Y-130568500D01*
X56321337Y-130554144D01*
X56327983Y-130551830D01*
X56327986Y-130551829D01*
X56427824Y-130517062D01*
X56496041Y-130512933D01*
X56505544Y-130515000D01*
X56981885Y-130515000D01*
X56997124Y-130510525D01*
X56998329Y-130509135D01*
X57000000Y-130501452D01*
X57000000Y-129103115D01*
X56995525Y-129087876D01*
X56994135Y-129086671D01*
X56986452Y-129085000D01*
X56510118Y-129085000D01*
X56506930Y-129085936D01*
X56435933Y-129085935D01*
X56428338Y-129083440D01*
X56338469Y-129050730D01*
X56338468Y-129050730D01*
X56331850Y-129048321D01*
X56198699Y-129031500D01*
X56106646Y-129031500D01*
X55978663Y-129045856D01*
X55972017Y-129048170D01*
X55972014Y-129048171D01*
X55861457Y-129086671D01*
X55815841Y-129102556D01*
X55809870Y-129106287D01*
X55809868Y-129106288D01*
X55720286Y-129162265D01*
X55669627Y-129193920D01*
X55662813Y-129200687D01*
X55552286Y-129310445D01*
X55552283Y-129310449D01*
X55547289Y-129315408D01*
X55454906Y-129460980D01*
X55397070Y-129623402D01*
X55396237Y-129630388D01*
X55396236Y-129630392D01*
X55393964Y-129649447D01*
X55376656Y-129794601D01*
X53908000Y-129794601D01*
X53908000Y-128508702D01*
X53908002Y-128507932D01*
X53908304Y-128458546D01*
X53908476Y-128430348D01*
X53906010Y-128421719D01*
X53906009Y-128421714D01*
X53900361Y-128401952D01*
X53896783Y-128385191D01*
X53893870Y-128364848D01*
X53893867Y-128364838D01*
X53892595Y-128355955D01*
X53881979Y-128332605D01*
X53875536Y-128315093D01*
X53870954Y-128299063D01*
X53868488Y-128290435D01*
X53852726Y-128265452D01*
X53844596Y-128250386D01*
X53832367Y-128223490D01*
X53815626Y-128204061D01*
X53804521Y-128189053D01*
X53795630Y-128174961D01*
X53790840Y-128167369D01*
X53768703Y-128147818D01*
X53756659Y-128135626D01*
X53743239Y-128120051D01*
X53743237Y-128120050D01*
X53737381Y-128113253D01*
X53729853Y-128108374D01*
X53729850Y-128108371D01*
X53715861Y-128099304D01*
X53700987Y-128088014D01*
X53688502Y-128076988D01*
X53681772Y-128071044D01*
X53673646Y-128067229D01*
X53673645Y-128067228D01*
X53667979Y-128064568D01*
X53655034Y-128058490D01*
X53640065Y-128050176D01*
X53615273Y-128034107D01*
X53590709Y-128026761D01*
X53573264Y-128020099D01*
X53568827Y-128018016D01*
X53550052Y-128009201D01*
X53520870Y-128004657D01*
X53504151Y-128000874D01*
X53484464Y-127994986D01*
X53484461Y-127994985D01*
X53475859Y-127992413D01*
X53466884Y-127992358D01*
X53466883Y-127992358D01*
X53460190Y-127992317D01*
X53441444Y-127992203D01*
X53440672Y-127992170D01*
X53439577Y-127992000D01*
X53408702Y-127992000D01*
X53407932Y-127991998D01*
X53334284Y-127991548D01*
X53334283Y-127991548D01*
X53330348Y-127991524D01*
X53329004Y-127991908D01*
X53327659Y-127992000D01*
X50534000Y-127992000D01*
X50465879Y-127971998D01*
X50419386Y-127918342D01*
X50408000Y-127866000D01*
X50408000Y-126000000D01*
X50786526Y-126000000D01*
X50806391Y-126252403D01*
X50807545Y-126257210D01*
X50807546Y-126257216D01*
X50839669Y-126391017D01*
X50865495Y-126498591D01*
X50867388Y-126503162D01*
X50867389Y-126503164D01*
X50936492Y-126669992D01*
X50962384Y-126732502D01*
X51094672Y-126948376D01*
X51259102Y-127140898D01*
X51451624Y-127305328D01*
X51667498Y-127437616D01*
X51672068Y-127439509D01*
X51672072Y-127439511D01*
X51706760Y-127453879D01*
X51901409Y-127534505D01*
X51986032Y-127554821D01*
X52142784Y-127592454D01*
X52142790Y-127592455D01*
X52147597Y-127593609D01*
X52247416Y-127601465D01*
X52334345Y-127608307D01*
X52334352Y-127608307D01*
X52336801Y-127608500D01*
X52463199Y-127608500D01*
X52465648Y-127608307D01*
X52465655Y-127608307D01*
X52552584Y-127601465D01*
X52652403Y-127593609D01*
X52657210Y-127592455D01*
X52657216Y-127592454D01*
X52813968Y-127554821D01*
X52898591Y-127534505D01*
X53093240Y-127453879D01*
X53127928Y-127439511D01*
X53127932Y-127439509D01*
X53132502Y-127437616D01*
X53205643Y-127392795D01*
X55926199Y-127392795D01*
X55932955Y-127396000D01*
X57227885Y-127396000D01*
X57243124Y-127391525D01*
X57244329Y-127390135D01*
X57246000Y-127382452D01*
X57246000Y-126610115D01*
X57241525Y-126594876D01*
X57240135Y-126593671D01*
X57232452Y-126592000D01*
X56900876Y-126592000D01*
X56894728Y-126592301D01*
X56749639Y-126606527D01*
X56737604Y-126608910D01*
X56550777Y-126665317D01*
X56539435Y-126669992D01*
X56367121Y-126761612D01*
X56356905Y-126768399D01*
X56205665Y-126891747D01*
X56196961Y-126900391D01*
X56072562Y-127050763D01*
X56065703Y-127060931D01*
X55972879Y-127232607D01*
X55968129Y-127243907D01*
X55926405Y-127378693D01*
X55926199Y-127392795D01*
X53205643Y-127392795D01*
X53348376Y-127305328D01*
X53540898Y-127140898D01*
X53705328Y-126948376D01*
X53837616Y-126732502D01*
X53863509Y-126669992D01*
X53932611Y-126503164D01*
X53932612Y-126503162D01*
X53934505Y-126498591D01*
X53960331Y-126391017D01*
X53992454Y-126257216D01*
X53992455Y-126257210D01*
X53993609Y-126252403D01*
X54013474Y-126000000D01*
X53993609Y-125747597D01*
X53973972Y-125665800D01*
X53947184Y-125554220D01*
X53934505Y-125501409D01*
X53914730Y-125453667D01*
X53839511Y-125272072D01*
X53839509Y-125272068D01*
X53837616Y-125267498D01*
X53705328Y-125051624D01*
X53540898Y-124859102D01*
X53348376Y-124694672D01*
X53132502Y-124562384D01*
X53127932Y-124560491D01*
X53127928Y-124560489D01*
X52903164Y-124467389D01*
X52903162Y-124467388D01*
X52898591Y-124465495D01*
X52808895Y-124443961D01*
X52657216Y-124407546D01*
X52657210Y-124407545D01*
X52652403Y-124406391D01*
X52552584Y-124398535D01*
X52465655Y-124391693D01*
X52465648Y-124391693D01*
X52463199Y-124391500D01*
X52336801Y-124391500D01*
X52334352Y-124391693D01*
X52334345Y-124391693D01*
X52247416Y-124398535D01*
X52147597Y-124406391D01*
X52142790Y-124407545D01*
X52142784Y-124407546D01*
X51991105Y-124443961D01*
X51901409Y-124465495D01*
X51896838Y-124467388D01*
X51896836Y-124467389D01*
X51672072Y-124560489D01*
X51672068Y-124560491D01*
X51667498Y-124562384D01*
X51451624Y-124694672D01*
X51259102Y-124859102D01*
X51094672Y-125051624D01*
X50962384Y-125267498D01*
X50960491Y-125272068D01*
X50960489Y-125272072D01*
X50885270Y-125453667D01*
X50865495Y-125501409D01*
X50852816Y-125554220D01*
X50826029Y-125665800D01*
X50806391Y-125747597D01*
X50786526Y-126000000D01*
X50408000Y-126000000D01*
X50408000Y-84108095D01*
X50428002Y-84039974D01*
X50481658Y-83993481D01*
X50551932Y-83983377D01*
X50616512Y-84012871D01*
X50623095Y-84019000D01*
X50729595Y-84125500D01*
X50763621Y-84187812D01*
X50766500Y-84214595D01*
X50766500Y-119957643D01*
X50765973Y-119968826D01*
X50764298Y-119976319D01*
X50764547Y-119984245D01*
X50764547Y-119984246D01*
X50766438Y-120044396D01*
X50766500Y-120048355D01*
X50766500Y-120076266D01*
X50766997Y-120080200D01*
X50766997Y-120080201D01*
X50767005Y-120080266D01*
X50767938Y-120092103D01*
X50769327Y-120136299D01*
X50774978Y-120155749D01*
X50778987Y-120175110D01*
X50781526Y-120195207D01*
X50784445Y-120202578D01*
X50784445Y-120202580D01*
X50797804Y-120236322D01*
X50801649Y-120247552D01*
X50813982Y-120290003D01*
X50818015Y-120296822D01*
X50818017Y-120296827D01*
X50824293Y-120307438D01*
X50832988Y-120325186D01*
X50840448Y-120344027D01*
X50845110Y-120350443D01*
X50845110Y-120350444D01*
X50866436Y-120379797D01*
X50872952Y-120389717D01*
X50895458Y-120427772D01*
X50909779Y-120442093D01*
X50922619Y-120457126D01*
X50934528Y-120473517D01*
X50940634Y-120478568D01*
X50968605Y-120501708D01*
X50977384Y-120509698D01*
X53309942Y-122842256D01*
X53317486Y-122850546D01*
X53321599Y-122857027D01*
X53327376Y-122862452D01*
X53371266Y-122903667D01*
X53374108Y-122906422D01*
X53393829Y-122926143D01*
X53397024Y-122928621D01*
X53406046Y-122936327D01*
X53438278Y-122966595D01*
X53445227Y-122970415D01*
X53456031Y-122976355D01*
X53472555Y-122987208D01*
X53488558Y-122999622D01*
X53529142Y-123017185D01*
X53539772Y-123022392D01*
X53578539Y-123043704D01*
X53586216Y-123045675D01*
X53586221Y-123045677D01*
X53598157Y-123048741D01*
X53616865Y-123055146D01*
X53635454Y-123063190D01*
X53643279Y-123064429D01*
X53643281Y-123064430D01*
X53679118Y-123070106D01*
X53690739Y-123072513D01*
X53722558Y-123080682D01*
X53733569Y-123083509D01*
X53753830Y-123083509D01*
X53773539Y-123085060D01*
X53793542Y-123088228D01*
X53801434Y-123087482D01*
X53806661Y-123086988D01*
X53837553Y-123084068D01*
X53849410Y-123083509D01*
X56571224Y-123083509D01*
X56582407Y-123084036D01*
X56589900Y-123085711D01*
X56597826Y-123085462D01*
X56597827Y-123085462D01*
X56657977Y-123083571D01*
X56661936Y-123083509D01*
X56689847Y-123083509D01*
X56693782Y-123083012D01*
X56693847Y-123083004D01*
X56705684Y-123082071D01*
X56737942Y-123081057D01*
X56741961Y-123080931D01*
X56749880Y-123080682D01*
X56769334Y-123075030D01*
X56788691Y-123071022D01*
X56800921Y-123069477D01*
X56800922Y-123069477D01*
X56808788Y-123068483D01*
X56816159Y-123065564D01*
X56816161Y-123065564D01*
X56849903Y-123052205D01*
X56861133Y-123048360D01*
X56895974Y-123038238D01*
X56895975Y-123038238D01*
X56903584Y-123036027D01*
X56910403Y-123031994D01*
X56910408Y-123031992D01*
X56921019Y-123025716D01*
X56938767Y-123017021D01*
X56957608Y-123009561D01*
X56977978Y-122994762D01*
X56993378Y-122983573D01*
X57003298Y-122977057D01*
X57034526Y-122958589D01*
X57034529Y-122958587D01*
X57041353Y-122954551D01*
X57055674Y-122940230D01*
X57070708Y-122927389D01*
X57072423Y-122926143D01*
X57087098Y-122915481D01*
X57115289Y-122881404D01*
X57123279Y-122872625D01*
X58251129Y-121744775D01*
X58313441Y-121710749D01*
X58347032Y-121708054D01*
X58348484Y-121708133D01*
X58351866Y-121708500D01*
X59448134Y-121708500D01*
X59510316Y-121701745D01*
X59646705Y-121650615D01*
X59763261Y-121563261D01*
X59799176Y-121515340D01*
X59856033Y-121472827D01*
X59926851Y-121467801D01*
X59989145Y-121501861D01*
X60000817Y-121515330D01*
X60036739Y-121563261D01*
X60153295Y-121650615D01*
X60289684Y-121701745D01*
X60351866Y-121708500D01*
X61448134Y-121708500D01*
X61510316Y-121701745D01*
X61646705Y-121650615D01*
X61763261Y-121563261D01*
X61799176Y-121515340D01*
X61856033Y-121472827D01*
X61926851Y-121467801D01*
X61989145Y-121501861D01*
X62000817Y-121515330D01*
X62036739Y-121563261D01*
X62153295Y-121650615D01*
X62289684Y-121701745D01*
X62351866Y-121708500D01*
X63448134Y-121708500D01*
X63510316Y-121701745D01*
X63646705Y-121650615D01*
X63763261Y-121563261D01*
X63799176Y-121515340D01*
X63856033Y-121472827D01*
X63926851Y-121467801D01*
X63989145Y-121501861D01*
X64000817Y-121515330D01*
X64036739Y-121563261D01*
X64153295Y-121650615D01*
X64289684Y-121701745D01*
X64351866Y-121708500D01*
X65448134Y-121708500D01*
X65510316Y-121701745D01*
X65646705Y-121650615D01*
X65763261Y-121563261D01*
X65850615Y-121446705D01*
X65901745Y-121310316D01*
X65908500Y-121248134D01*
X65908500Y-119684000D01*
X65928502Y-119615879D01*
X65982158Y-119569386D01*
X66034500Y-119558000D01*
X66891298Y-119558000D01*
X66892069Y-119558002D01*
X66969652Y-119558476D01*
X66978281Y-119556010D01*
X66978286Y-119556009D01*
X66998048Y-119550361D01*
X67014809Y-119546783D01*
X67035152Y-119543870D01*
X67035162Y-119543867D01*
X67044045Y-119542595D01*
X67067395Y-119531979D01*
X67084907Y-119525536D01*
X67100937Y-119520954D01*
X67109565Y-119518488D01*
X67134548Y-119502726D01*
X67149614Y-119494596D01*
X67176510Y-119482367D01*
X67195939Y-119465626D01*
X67210947Y-119454521D01*
X67225039Y-119445630D01*
X67232631Y-119440840D01*
X67252182Y-119418703D01*
X67264374Y-119406659D01*
X67279949Y-119393239D01*
X67279950Y-119393237D01*
X67286747Y-119387381D01*
X67291626Y-119379853D01*
X67291629Y-119379850D01*
X67300696Y-119365861D01*
X67311986Y-119350987D01*
X67323012Y-119338502D01*
X67328956Y-119331772D01*
X67341510Y-119305034D01*
X67349824Y-119290065D01*
X67365893Y-119265273D01*
X67373239Y-119240709D01*
X67379901Y-119223264D01*
X67386983Y-119208179D01*
X67390799Y-119200052D01*
X67395343Y-119170870D01*
X67399126Y-119154151D01*
X67405014Y-119134464D01*
X67405015Y-119134461D01*
X67407587Y-119125859D01*
X67407797Y-119091444D01*
X67407830Y-119090672D01*
X67408000Y-119089577D01*
X67408000Y-119058702D01*
X67408002Y-119057932D01*
X67408452Y-118984284D01*
X67408452Y-118984283D01*
X67408476Y-118980348D01*
X67408092Y-118979004D01*
X67408000Y-118977659D01*
X67408000Y-117058702D01*
X67408002Y-117057932D01*
X67408183Y-117028320D01*
X67428601Y-116960323D01*
X67482540Y-116914159D01*
X67507982Y-116905844D01*
X67682286Y-116868794D01*
X67688317Y-116866109D01*
X67850720Y-116793803D01*
X67850722Y-116793802D01*
X67856750Y-116791118D01*
X68011251Y-116678866D01*
X68139038Y-116536944D01*
X68234525Y-116371556D01*
X68293540Y-116189928D01*
X68294779Y-116178145D01*
X68312812Y-116006565D01*
X68313502Y-116000000D01*
X68293540Y-115810072D01*
X68234525Y-115628444D01*
X68139038Y-115463056D01*
X68011251Y-115321134D01*
X67901645Y-115241500D01*
X67862092Y-115212763D01*
X67862091Y-115212762D01*
X67856750Y-115208882D01*
X67850722Y-115206198D01*
X67850720Y-115206197D01*
X67688317Y-115133891D01*
X67688316Y-115133891D01*
X67682286Y-115131206D01*
X67588886Y-115111353D01*
X67501942Y-115092872D01*
X67501937Y-115092872D01*
X67495485Y-115091500D01*
X67304511Y-115091500D01*
X67298059Y-115092872D01*
X67298054Y-115092872D01*
X67211110Y-115111353D01*
X67117710Y-115131206D01*
X67111680Y-115133891D01*
X67111679Y-115133891D01*
X66949276Y-115206197D01*
X66949274Y-115206198D01*
X66943246Y-115208882D01*
X66937907Y-115212761D01*
X66937900Y-115212765D01*
X66931470Y-115217437D01*
X66857411Y-115241500D01*
X66034500Y-115241500D01*
X65966379Y-115221498D01*
X65919886Y-115167842D01*
X65908500Y-115115500D01*
X65908500Y-114951866D01*
X65901745Y-114889684D01*
X65850615Y-114753295D01*
X65763261Y-114636739D01*
X65708935Y-114596024D01*
X65666420Y-114539165D01*
X65658500Y-114495198D01*
X65658500Y-112067063D01*
X65659933Y-112048114D01*
X65662097Y-112033886D01*
X65663198Y-112026651D01*
X65658915Y-111973990D01*
X65658500Y-111963777D01*
X65658500Y-111955707D01*
X65658078Y-111952087D01*
X65658077Y-111952069D01*
X65655208Y-111927461D01*
X65654775Y-111923086D01*
X65654746Y-111922721D01*
X65648860Y-111850363D01*
X65646604Y-111843399D01*
X65645413Y-111837440D01*
X65644029Y-111831585D01*
X65643182Y-111824319D01*
X65618265Y-111755673D01*
X65616848Y-111751545D01*
X65596607Y-111689064D01*
X65596606Y-111689062D01*
X65594351Y-111682101D01*
X65590555Y-111675846D01*
X65588049Y-111670372D01*
X65585330Y-111664942D01*
X65582833Y-111658063D01*
X65542809Y-111597016D01*
X65540472Y-111593312D01*
X65505509Y-111535693D01*
X65505505Y-111535688D01*
X65502595Y-111530892D01*
X65495197Y-111522516D01*
X65495223Y-111522493D01*
X65492574Y-111519503D01*
X65489866Y-111516264D01*
X65485856Y-111510148D01*
X65480549Y-111505121D01*
X65480546Y-111505117D01*
X65429617Y-111456872D01*
X65427175Y-111454494D01*
X62583770Y-108611089D01*
X62571384Y-108596677D01*
X62562851Y-108585082D01*
X62562846Y-108585077D01*
X62558508Y-108579182D01*
X62552930Y-108574443D01*
X62552927Y-108574440D01*
X62518232Y-108544965D01*
X62510716Y-108538035D01*
X62505021Y-108532340D01*
X62498880Y-108527482D01*
X62482749Y-108514719D01*
X62479345Y-108511928D01*
X62429297Y-108469409D01*
X62429295Y-108469408D01*
X62423715Y-108464667D01*
X62417199Y-108461339D01*
X62412150Y-108457972D01*
X62407021Y-108454805D01*
X62401284Y-108450266D01*
X62335125Y-108419345D01*
X62331225Y-108417439D01*
X62330857Y-108417251D01*
X62266192Y-108384231D01*
X62259084Y-108382492D01*
X62253441Y-108380393D01*
X62247678Y-108378476D01*
X62241050Y-108375378D01*
X62169583Y-108360513D01*
X62165299Y-108359543D01*
X62094390Y-108342192D01*
X62088788Y-108341844D01*
X62088785Y-108341844D01*
X62083236Y-108341500D01*
X62083238Y-108341464D01*
X62079245Y-108341225D01*
X62075053Y-108340851D01*
X62067885Y-108339360D01*
X62001675Y-108341151D01*
X61990479Y-108341454D01*
X61987072Y-108341500D01*
X54042587Y-108341500D01*
X53968528Y-108317437D01*
X53962098Y-108312765D01*
X53962091Y-108312761D01*
X53956752Y-108308882D01*
X53950724Y-108306198D01*
X53950722Y-108306197D01*
X53788319Y-108233891D01*
X53788318Y-108233891D01*
X53782288Y-108231206D01*
X53688887Y-108211353D01*
X53601944Y-108192872D01*
X53601939Y-108192872D01*
X53595487Y-108191500D01*
X53404513Y-108191500D01*
X53398061Y-108192872D01*
X53398056Y-108192872D01*
X53311112Y-108211353D01*
X53217712Y-108231206D01*
X53211682Y-108233891D01*
X53211681Y-108233891D01*
X53049278Y-108306197D01*
X53049276Y-108306198D01*
X53043248Y-108308882D01*
X53037907Y-108312762D01*
X53037906Y-108312763D01*
X53031473Y-108317437D01*
X52888747Y-108421134D01*
X52884326Y-108426044D01*
X52884325Y-108426045D01*
X52853136Y-108460684D01*
X52792690Y-108497924D01*
X52721706Y-108496572D01*
X52662722Y-108457059D01*
X52634464Y-108391928D01*
X52633500Y-108376374D01*
X52633500Y-104314594D01*
X52653502Y-104246473D01*
X52670405Y-104225499D01*
X54950499Y-101945405D01*
X55012811Y-101911379D01*
X55039594Y-101908500D01*
X55095487Y-101908500D01*
X55101939Y-101907128D01*
X55101944Y-101907128D01*
X55188888Y-101888647D01*
X55282288Y-101868794D01*
X55288319Y-101866109D01*
X55450722Y-101793803D01*
X55450724Y-101793802D01*
X55456752Y-101791118D01*
X55611253Y-101678866D01*
X55739040Y-101536944D01*
X55834527Y-101371556D01*
X55893542Y-101189928D01*
X55913504Y-101000000D01*
X55893542Y-100810072D01*
X55834527Y-100628444D01*
X55739040Y-100463056D01*
X55611253Y-100321134D01*
X55456752Y-100208882D01*
X55450724Y-100206198D01*
X55450722Y-100206197D01*
X55288319Y-100133891D01*
X55288318Y-100133891D01*
X55282288Y-100131206D01*
X55188887Y-100111353D01*
X55101944Y-100092872D01*
X55101939Y-100092872D01*
X55095487Y-100091500D01*
X54904513Y-100091500D01*
X54898061Y-100092872D01*
X54898056Y-100092872D01*
X54811113Y-100111353D01*
X54717712Y-100131206D01*
X54711682Y-100133891D01*
X54711681Y-100133891D01*
X54549278Y-100206197D01*
X54549276Y-100206198D01*
X54543248Y-100208882D01*
X54388747Y-100321134D01*
X54260960Y-100463056D01*
X54165473Y-100628444D01*
X54106458Y-100810072D01*
X54105768Y-100816633D01*
X54105768Y-100816635D01*
X54089093Y-100975293D01*
X54062080Y-101040950D01*
X54052878Y-101051218D01*
X52248595Y-102855500D01*
X52186283Y-102889526D01*
X52115467Y-102884461D01*
X52058632Y-102841914D01*
X52033821Y-102775394D01*
X52033500Y-102766405D01*
X52033500Y-83978768D01*
X52034027Y-83967585D01*
X52035702Y-83960092D01*
X52034724Y-83928956D01*
X52033562Y-83892002D01*
X52033500Y-83888044D01*
X52033500Y-83860144D01*
X52032996Y-83856153D01*
X52032063Y-83844311D01*
X52031846Y-83837381D01*
X52030674Y-83800111D01*
X52028462Y-83792497D01*
X52028461Y-83792492D01*
X52025023Y-83780659D01*
X52021012Y-83761295D01*
X52019467Y-83749064D01*
X52018474Y-83741203D01*
X52015557Y-83733836D01*
X52015556Y-83733831D01*
X52002198Y-83700092D01*
X51998354Y-83688865D01*
X51988230Y-83654022D01*
X51986018Y-83646407D01*
X51975707Y-83628972D01*
X51967012Y-83611224D01*
X51959552Y-83592383D01*
X51933564Y-83556613D01*
X51927048Y-83546693D01*
X51908580Y-83515465D01*
X51908578Y-83515462D01*
X51904542Y-83508638D01*
X51890221Y-83494317D01*
X51877380Y-83479283D01*
X51870131Y-83469306D01*
X51865472Y-83462893D01*
X51831395Y-83434702D01*
X51822616Y-83426712D01*
X50557905Y-82162000D01*
X50523879Y-82099688D01*
X50521000Y-82072905D01*
X50520999Y-81502867D01*
X50520999Y-81499600D01*
X50510026Y-81393833D01*
X50465944Y-81261703D01*
X50456367Y-81232998D01*
X50456366Y-81232996D01*
X50454050Y-81226054D01*
X50360979Y-81075651D01*
X50323527Y-81038264D01*
X50277050Y-80991869D01*
X50235803Y-80950694D01*
X50085239Y-80857885D01*
X49943749Y-80810955D01*
X49923890Y-80804368D01*
X49923888Y-80804368D01*
X49917362Y-80802203D01*
X49910526Y-80801503D01*
X49910523Y-80801502D01*
X49867470Y-80797091D01*
X49812901Y-80791500D01*
X49502413Y-80791500D01*
X49187100Y-80791501D01*
X49081333Y-80802474D01*
X49074786Y-80804658D01*
X49074787Y-80804658D01*
X48920498Y-80856133D01*
X48920496Y-80856134D01*
X48913554Y-80858450D01*
X48763151Y-80951521D01*
X48676714Y-81038110D01*
X48614434Y-81072188D01*
X48543614Y-81067185D01*
X48498529Y-81038267D01*
X48410803Y-80950694D01*
X48260239Y-80857885D01*
X48118749Y-80810955D01*
X48098890Y-80804368D01*
X48098888Y-80804368D01*
X48092362Y-80802203D01*
X48085526Y-80801503D01*
X48085523Y-80801502D01*
X48042470Y-80797091D01*
X47987901Y-80791500D01*
X47951584Y-80791500D01*
X47414596Y-80791501D01*
X47346475Y-80771499D01*
X47325501Y-80754596D01*
X47019500Y-80448595D01*
X46985474Y-80386283D01*
X46990539Y-80315468D01*
X47033086Y-80258632D01*
X47099606Y-80233821D01*
X47108595Y-80233500D01*
X48921233Y-80233500D01*
X48932416Y-80234027D01*
X48939909Y-80235702D01*
X48947835Y-80235453D01*
X48947836Y-80235453D01*
X49007986Y-80233562D01*
X49011945Y-80233500D01*
X49039856Y-80233500D01*
X49043791Y-80233003D01*
X49043856Y-80232995D01*
X49055693Y-80232062D01*
X49087951Y-80231048D01*
X49091970Y-80230922D01*
X49099889Y-80230673D01*
X49119343Y-80225021D01*
X49138700Y-80221013D01*
X49150930Y-80219468D01*
X49150931Y-80219468D01*
X49158797Y-80218474D01*
X49166168Y-80215555D01*
X49166170Y-80215555D01*
X49199912Y-80202196D01*
X49211142Y-80198351D01*
X49245983Y-80188229D01*
X49245984Y-80188229D01*
X49253593Y-80186018D01*
X49260412Y-80181985D01*
X49260417Y-80181983D01*
X49271028Y-80175707D01*
X49288776Y-80167012D01*
X49307617Y-80159552D01*
X49343387Y-80133564D01*
X49353307Y-80127048D01*
X49384535Y-80108580D01*
X49384538Y-80108578D01*
X49391362Y-80104542D01*
X49405683Y-80090221D01*
X49420717Y-80077380D01*
X49430694Y-80070131D01*
X49437107Y-80065472D01*
X49465298Y-80031395D01*
X49473288Y-80022616D01*
X49498809Y-79997095D01*
X59442001Y-79997095D01*
X59442338Y-80003614D01*
X59452257Y-80099206D01*
X59455149Y-80112600D01*
X59506588Y-80266784D01*
X59512761Y-80279962D01*
X59598063Y-80417807D01*
X59607099Y-80429208D01*
X59721829Y-80543739D01*
X59733240Y-80552751D01*
X59871243Y-80637816D01*
X59884424Y-80643963D01*
X60038710Y-80695138D01*
X60052086Y-80698005D01*
X60146438Y-80707672D01*
X60152854Y-80708000D01*
X61427885Y-80708000D01*
X61443124Y-80703525D01*
X61444329Y-80702135D01*
X61446000Y-80694452D01*
X61446000Y-80689884D01*
X61954000Y-80689884D01*
X61958475Y-80705123D01*
X61959865Y-80706328D01*
X61967548Y-80707999D01*
X63247095Y-80707999D01*
X63253614Y-80707662D01*
X63349206Y-80697743D01*
X63362600Y-80694851D01*
X63516784Y-80643412D01*
X63529962Y-80637239D01*
X63667807Y-80551937D01*
X63679208Y-80542901D01*
X63793739Y-80428171D01*
X63802751Y-80416760D01*
X63887816Y-80278757D01*
X63893963Y-80265576D01*
X63945138Y-80111290D01*
X63948005Y-80097914D01*
X63957672Y-80003562D01*
X63958000Y-79997146D01*
X63958000Y-79672115D01*
X63953525Y-79656876D01*
X63952135Y-79655671D01*
X63944452Y-79654000D01*
X61972115Y-79654000D01*
X61956876Y-79658475D01*
X61955671Y-79659865D01*
X61954000Y-79667548D01*
X61954000Y-80689884D01*
X61446000Y-80689884D01*
X61446000Y-79672115D01*
X61441525Y-79656876D01*
X61440135Y-79655671D01*
X61432452Y-79654000D01*
X59460116Y-79654000D01*
X59444877Y-79658475D01*
X59443672Y-79659865D01*
X59442001Y-79667548D01*
X59442001Y-79997095D01*
X49498809Y-79997095D01*
X50150499Y-79345405D01*
X50212811Y-79311379D01*
X50239594Y-79308500D01*
X50295487Y-79308500D01*
X50301939Y-79307128D01*
X50301944Y-79307128D01*
X50394754Y-79287400D01*
X50482288Y-79268794D01*
X50488319Y-79266109D01*
X50650722Y-79193803D01*
X50650724Y-79193802D01*
X50656752Y-79191118D01*
X50743784Y-79127885D01*
X59442000Y-79127885D01*
X59446475Y-79143124D01*
X59447865Y-79144329D01*
X59455548Y-79146000D01*
X61427885Y-79146000D01*
X61443124Y-79141525D01*
X61444329Y-79140135D01*
X61446000Y-79132452D01*
X61446000Y-79127885D01*
X61954000Y-79127885D01*
X61958475Y-79143124D01*
X61959865Y-79144329D01*
X61967548Y-79146000D01*
X63939884Y-79146000D01*
X63955123Y-79141525D01*
X63956328Y-79140135D01*
X63957999Y-79132452D01*
X63957999Y-78802905D01*
X63957662Y-78796386D01*
X63947743Y-78700794D01*
X63944851Y-78687400D01*
X63893412Y-78533216D01*
X63887239Y-78520038D01*
X63801937Y-78382193D01*
X63792901Y-78370792D01*
X63678171Y-78256261D01*
X63666760Y-78247249D01*
X63528757Y-78162184D01*
X63515576Y-78156037D01*
X63361290Y-78104862D01*
X63347914Y-78101995D01*
X63253562Y-78092328D01*
X63247145Y-78092000D01*
X61972115Y-78092000D01*
X61956876Y-78096475D01*
X61955671Y-78097865D01*
X61954000Y-78105548D01*
X61954000Y-79127885D01*
X61446000Y-79127885D01*
X61446000Y-78110116D01*
X61441525Y-78094877D01*
X61440135Y-78093672D01*
X61432452Y-78092001D01*
X60152905Y-78092001D01*
X60146386Y-78092338D01*
X60050794Y-78102257D01*
X60037400Y-78105149D01*
X59883216Y-78156588D01*
X59870038Y-78162761D01*
X59732193Y-78248063D01*
X59720792Y-78257099D01*
X59606261Y-78371829D01*
X59597249Y-78383240D01*
X59512184Y-78521243D01*
X59506037Y-78534424D01*
X59454862Y-78688710D01*
X59451995Y-78702086D01*
X59442328Y-78796438D01*
X59442000Y-78802855D01*
X59442000Y-79127885D01*
X50743784Y-79127885D01*
X50811253Y-79078866D01*
X50901666Y-78978452D01*
X50934621Y-78941852D01*
X50934622Y-78941851D01*
X50939040Y-78936944D01*
X51002354Y-78827281D01*
X51053735Y-78778289D01*
X51123449Y-78764853D01*
X51189360Y-78791239D01*
X51205107Y-78805971D01*
X51258680Y-78865470D01*
X51346940Y-78929595D01*
X51403643Y-78970792D01*
X51413181Y-78977722D01*
X51419209Y-78980406D01*
X51419211Y-78980407D01*
X51494827Y-79014073D01*
X51587645Y-79055398D01*
X51674948Y-79073955D01*
X51767989Y-79093732D01*
X51767994Y-79093732D01*
X51774446Y-79095104D01*
X51965420Y-79095104D01*
X51971872Y-79093732D01*
X51971877Y-79093732D01*
X52064918Y-79073955D01*
X52152221Y-79055398D01*
X52245039Y-79014073D01*
X52320655Y-78980407D01*
X52320657Y-78980406D01*
X52326685Y-78977722D01*
X52336224Y-78970792D01*
X52392926Y-78929595D01*
X52481186Y-78865470D01*
X52489477Y-78856262D01*
X52604554Y-78728456D01*
X52604555Y-78728455D01*
X52608973Y-78723548D01*
X52704460Y-78558160D01*
X52759320Y-78389318D01*
X52790058Y-78339160D01*
X55333813Y-75795405D01*
X55396125Y-75761379D01*
X55422908Y-75758500D01*
X63163143Y-75758500D01*
X63231264Y-75778502D01*
X63277757Y-75832158D01*
X63287861Y-75902432D01*
X63265138Y-75958416D01*
X63260960Y-75963056D01*
X63257659Y-75968774D01*
X63257658Y-75968775D01*
X63173457Y-76114616D01*
X63165473Y-76128444D01*
X63106458Y-76310072D01*
X63105768Y-76316633D01*
X63105768Y-76316635D01*
X63091898Y-76448606D01*
X63086496Y-76500000D01*
X63087186Y-76506565D01*
X63105307Y-76678973D01*
X63106458Y-76689928D01*
X63165473Y-76871556D01*
X63260960Y-77036944D01*
X63265378Y-77041851D01*
X63265379Y-77041852D01*
X63362331Y-77149528D01*
X63388747Y-77178866D01*
X63543248Y-77291118D01*
X63549276Y-77293802D01*
X63549278Y-77293803D01*
X63711681Y-77366109D01*
X63717712Y-77368794D01*
X63724167Y-77370166D01*
X63724176Y-77370169D01*
X63780772Y-77382199D01*
X63843669Y-77416350D01*
X64864543Y-78437224D01*
X64898569Y-78499536D01*
X64895041Y-78565986D01*
X64869122Y-78644131D01*
X64852203Y-78695139D01*
X64851503Y-78701975D01*
X64851502Y-78701978D01*
X64849878Y-78717830D01*
X64841500Y-78799600D01*
X64841500Y-80000400D01*
X64841837Y-80003646D01*
X64841837Y-80003650D01*
X64851752Y-80099206D01*
X64852474Y-80106166D01*
X64854655Y-80112702D01*
X64854655Y-80112704D01*
X64875675Y-80175707D01*
X64908450Y-80273946D01*
X65001522Y-80424348D01*
X65126697Y-80549305D01*
X65132927Y-80553145D01*
X65132928Y-80553146D01*
X65270288Y-80637816D01*
X65277262Y-80642115D01*
X65355985Y-80668226D01*
X65438611Y-80695632D01*
X65438613Y-80695632D01*
X65445139Y-80697797D01*
X65451975Y-80698497D01*
X65451978Y-80698498D01*
X65495031Y-80702909D01*
X65549600Y-80708500D01*
X68650400Y-80708500D01*
X68653646Y-80708163D01*
X68653650Y-80708163D01*
X68749308Y-80698238D01*
X68749312Y-80698237D01*
X68756166Y-80697526D01*
X68762702Y-80695345D01*
X68762704Y-80695345D01*
X68894806Y-80651272D01*
X68923946Y-80641550D01*
X69074348Y-80548478D01*
X69199305Y-80423303D01*
X69238529Y-80359670D01*
X69288275Y-80278968D01*
X69288276Y-80278966D01*
X69292115Y-80272738D01*
X69333444Y-80148134D01*
X69345632Y-80111389D01*
X69345632Y-80111387D01*
X69347797Y-80104861D01*
X69351356Y-80070131D01*
X69358167Y-80003650D01*
X69358500Y-80000400D01*
X69358500Y-78799600D01*
X69357638Y-78791288D01*
X69353738Y-78753705D01*
X73292001Y-78753705D01*
X73292264Y-78759454D01*
X73298132Y-78823315D01*
X73300743Y-78836351D01*
X73347715Y-78986243D01*
X73353921Y-78999988D01*
X73434824Y-79133574D01*
X73444131Y-79145443D01*
X73554557Y-79255869D01*
X73566426Y-79265176D01*
X73700012Y-79346079D01*
X73713757Y-79352285D01*
X73863644Y-79399256D01*
X73876694Y-79401869D01*
X73931586Y-79406913D01*
X73943124Y-79403525D01*
X73944329Y-79402135D01*
X73946000Y-79394452D01*
X73946000Y-78522115D01*
X73941525Y-78506876D01*
X73940135Y-78505671D01*
X73932452Y-78504000D01*
X73310116Y-78504000D01*
X73294877Y-78508475D01*
X73293672Y-78509865D01*
X73292001Y-78517548D01*
X73292001Y-78753705D01*
X69353738Y-78753705D01*
X69348238Y-78700692D01*
X69348237Y-78700688D01*
X69347526Y-78693834D01*
X69319257Y-78609100D01*
X69293868Y-78533002D01*
X69291550Y-78526054D01*
X69198478Y-78375652D01*
X69073303Y-78250695D01*
X68987852Y-78198022D01*
X68928968Y-78161725D01*
X68928966Y-78161724D01*
X68922738Y-78157885D01*
X68842995Y-78131436D01*
X68761389Y-78104368D01*
X68761387Y-78104368D01*
X68754861Y-78102203D01*
X68748025Y-78101503D01*
X68748022Y-78101502D01*
X68704969Y-78097091D01*
X68650400Y-78091500D01*
X66716371Y-78091500D01*
X66648250Y-78071498D01*
X66627276Y-78054595D01*
X66550566Y-77977885D01*
X73292000Y-77977885D01*
X73296475Y-77993124D01*
X73297865Y-77994329D01*
X73305548Y-77996000D01*
X73927885Y-77996000D01*
X73943124Y-77991525D01*
X73944329Y-77990135D01*
X73946000Y-77982452D01*
X73946000Y-77110116D01*
X73941525Y-77094877D01*
X73940135Y-77093672D01*
X73935706Y-77092709D01*
X73876685Y-77098132D01*
X73863649Y-77100743D01*
X73713757Y-77147715D01*
X73700012Y-77153921D01*
X73566426Y-77234824D01*
X73554557Y-77244131D01*
X73444131Y-77354557D01*
X73434824Y-77366426D01*
X73353921Y-77500012D01*
X73347715Y-77513757D01*
X73300744Y-77663644D01*
X73298131Y-77676694D01*
X73292266Y-77740521D01*
X73292000Y-77746309D01*
X73292000Y-77977885D01*
X66550566Y-77977885D01*
X64920125Y-76347444D01*
X64889387Y-76297285D01*
X64874630Y-76251866D01*
X64834527Y-76128444D01*
X64826544Y-76114616D01*
X64742342Y-75968775D01*
X64742341Y-75968774D01*
X64739040Y-75963056D01*
X64734874Y-75958429D01*
X64711062Y-75891693D01*
X64727143Y-75822541D01*
X64778057Y-75773061D01*
X64836857Y-75758500D01*
X66882930Y-75758500D01*
X66901880Y-75759933D01*
X66916115Y-75762099D01*
X66916119Y-75762099D01*
X66923349Y-75763199D01*
X66930641Y-75762606D01*
X66930644Y-75762606D01*
X66976018Y-75758915D01*
X66986233Y-75758500D01*
X66994293Y-75758500D01*
X67007583Y-75756951D01*
X67022507Y-75755211D01*
X67026882Y-75754778D01*
X67092339Y-75749454D01*
X67092342Y-75749453D01*
X67099637Y-75748860D01*
X67106601Y-75746604D01*
X67112560Y-75745413D01*
X67118415Y-75744029D01*
X67125681Y-75743182D01*
X67194327Y-75718265D01*
X67198455Y-75716848D01*
X67260936Y-75696607D01*
X67260938Y-75696606D01*
X67267899Y-75694351D01*
X67274154Y-75690555D01*
X67279628Y-75688049D01*
X67285058Y-75685330D01*
X67291937Y-75682833D01*
X67352976Y-75642814D01*
X67356680Y-75640477D01*
X67419107Y-75602595D01*
X67427484Y-75595197D01*
X67427508Y-75595224D01*
X67430500Y-75592571D01*
X67433733Y-75589868D01*
X67439852Y-75585856D01*
X67493128Y-75529617D01*
X67495506Y-75527175D01*
X67688911Y-75333770D01*
X67703323Y-75321384D01*
X67714918Y-75312851D01*
X67714923Y-75312846D01*
X67720818Y-75308508D01*
X67725557Y-75302930D01*
X67725560Y-75302927D01*
X67755035Y-75268232D01*
X67761965Y-75260716D01*
X67767660Y-75255021D01*
X67785281Y-75232749D01*
X67788072Y-75229345D01*
X67830591Y-75179297D01*
X67830592Y-75179295D01*
X67835333Y-75173715D01*
X67838661Y-75167199D01*
X67842028Y-75162150D01*
X67845195Y-75157021D01*
X67849734Y-75151284D01*
X67880655Y-75085125D01*
X67882561Y-75081225D01*
X67898860Y-75049305D01*
X67915769Y-75016192D01*
X67917508Y-75009084D01*
X67919607Y-75003441D01*
X67921524Y-74997678D01*
X67924622Y-74991050D01*
X67939487Y-74919583D01*
X67940457Y-74915299D01*
X67956473Y-74849845D01*
X67957808Y-74844390D01*
X67958500Y-74833236D01*
X67958536Y-74833238D01*
X67958775Y-74829245D01*
X67959149Y-74825053D01*
X67960640Y-74817885D01*
X67958546Y-74740479D01*
X67958500Y-74737072D01*
X67958500Y-73511806D01*
X67978502Y-73443685D01*
X68032158Y-73397192D01*
X68102432Y-73387088D01*
X68110694Y-73388558D01*
X68126521Y-73391923D01*
X68198054Y-73407128D01*
X68198059Y-73407128D01*
X68204511Y-73408500D01*
X68395485Y-73408500D01*
X68401937Y-73407128D01*
X68401942Y-73407128D01*
X68488885Y-73388647D01*
X68582286Y-73368794D01*
X68588317Y-73366109D01*
X68750720Y-73293803D01*
X68750722Y-73293802D01*
X68756750Y-73291118D01*
X68795676Y-73262837D01*
X68905912Y-73182745D01*
X68911251Y-73178866D01*
X68915666Y-73173963D01*
X68920578Y-73169540D01*
X68921703Y-73170789D01*
X68975012Y-73137949D01*
X69008198Y-73133500D01*
X71521233Y-73133500D01*
X71532416Y-73134027D01*
G37*
%TD.AperFunction*%
%TA.AperFunction,Conductor*%
G36*
X52842012Y-109728402D02*
G01*
X52853136Y-109739316D01*
X52888747Y-109778866D01*
X52950354Y-109823626D01*
X53037904Y-109887235D01*
X53043248Y-109891118D01*
X53049276Y-109893802D01*
X53049278Y-109893803D01*
X53211681Y-109966109D01*
X53217712Y-109968794D01*
X53311112Y-109988647D01*
X53398056Y-110007128D01*
X53398061Y-110007128D01*
X53404513Y-110008500D01*
X53595487Y-110008500D01*
X53601939Y-110007128D01*
X53601944Y-110007128D01*
X53688887Y-109988647D01*
X53782288Y-109968794D01*
X53788319Y-109966109D01*
X53950722Y-109893803D01*
X53950724Y-109893802D01*
X53956752Y-109891118D01*
X53962091Y-109887239D01*
X53962098Y-109887235D01*
X53968528Y-109882563D01*
X54042587Y-109858500D01*
X61633629Y-109858500D01*
X61701750Y-109878502D01*
X61722724Y-109895405D01*
X64104595Y-112277276D01*
X64138621Y-112339588D01*
X64141500Y-112366371D01*
X64141500Y-114495198D01*
X64121498Y-114563319D01*
X64091065Y-114596024D01*
X64036739Y-114636739D01*
X64031358Y-114643919D01*
X64000514Y-114685074D01*
X63943655Y-114727589D01*
X63872836Y-114732615D01*
X63810543Y-114698555D01*
X63798862Y-114685075D01*
X63768283Y-114644274D01*
X63755724Y-114631715D01*
X63653649Y-114555214D01*
X63638054Y-114546676D01*
X63517606Y-114501522D01*
X63502351Y-114497895D01*
X63451486Y-114492369D01*
X63444672Y-114492000D01*
X63172115Y-114492000D01*
X63156876Y-114496475D01*
X63155671Y-114497865D01*
X63154000Y-114505548D01*
X63154000Y-116128000D01*
X63133998Y-116196121D01*
X63080342Y-116242614D01*
X63028000Y-116254000D01*
X62772000Y-116254000D01*
X62703879Y-116233998D01*
X62657386Y-116180342D01*
X62646000Y-116128000D01*
X62646000Y-114510116D01*
X62641525Y-114494877D01*
X62640135Y-114493672D01*
X62632452Y-114492001D01*
X62355331Y-114492001D01*
X62348510Y-114492371D01*
X62297648Y-114497895D01*
X62282396Y-114501521D01*
X62161946Y-114546676D01*
X62146351Y-114555214D01*
X62044276Y-114631715D01*
X62031717Y-114644274D01*
X62001138Y-114685075D01*
X61944278Y-114727589D01*
X61873460Y-114732614D01*
X61811166Y-114698554D01*
X61799486Y-114685074D01*
X61768642Y-114643919D01*
X61763261Y-114636739D01*
X61646705Y-114549385D01*
X61510316Y-114498255D01*
X61448134Y-114491500D01*
X60351866Y-114491500D01*
X60289684Y-114498255D01*
X60153295Y-114549385D01*
X60036739Y-114636739D01*
X60000824Y-114684660D01*
X59943967Y-114727173D01*
X59873149Y-114732199D01*
X59810855Y-114698139D01*
X59799183Y-114684670D01*
X59763261Y-114636739D01*
X59646705Y-114549385D01*
X59619443Y-114539165D01*
X59538883Y-114508964D01*
X59482119Y-114466322D01*
X59457419Y-114399761D01*
X59472627Y-114330412D01*
X59494018Y-114301887D01*
X60558831Y-113237074D01*
X60621729Y-113202922D01*
X60782288Y-113168794D01*
X60788319Y-113166109D01*
X60950722Y-113093803D01*
X60950724Y-113093802D01*
X60956752Y-113091118D01*
X61111253Y-112978866D01*
X61239040Y-112836944D01*
X61334527Y-112671556D01*
X61393542Y-112489928D01*
X61402320Y-112406415D01*
X61412814Y-112306565D01*
X61412814Y-112306564D01*
X61413504Y-112300000D01*
X61393542Y-112110072D01*
X61334527Y-111928444D01*
X61239040Y-111763056D01*
X61228676Y-111751545D01*
X61115675Y-111626045D01*
X61115674Y-111626044D01*
X61111253Y-111621134D01*
X60987046Y-111530892D01*
X60962094Y-111512763D01*
X60962093Y-111512762D01*
X60956752Y-111508882D01*
X60950724Y-111506198D01*
X60950722Y-111506197D01*
X60788319Y-111433891D01*
X60788318Y-111433891D01*
X60782288Y-111431206D01*
X60688887Y-111411353D01*
X60601944Y-111392872D01*
X60601939Y-111392872D01*
X60595487Y-111391500D01*
X60404513Y-111391500D01*
X60398061Y-111392872D01*
X60398056Y-111392872D01*
X60311112Y-111411353D01*
X60217712Y-111431206D01*
X60211682Y-111433891D01*
X60211681Y-111433891D01*
X60049278Y-111506197D01*
X60049276Y-111506198D01*
X60043248Y-111508882D01*
X60037907Y-111512762D01*
X60037906Y-111512763D01*
X60012954Y-111530892D01*
X59888747Y-111621134D01*
X59884326Y-111626044D01*
X59884325Y-111626045D01*
X59771325Y-111751545D01*
X59760960Y-111763056D01*
X59665473Y-111928444D01*
X59606458Y-112110072D01*
X59586496Y-112300000D01*
X59587186Y-112306564D01*
X59591399Y-112346646D01*
X59578627Y-112416484D01*
X59555184Y-112448912D01*
X57548870Y-114455225D01*
X57486558Y-114489251D01*
X57452966Y-114491946D01*
X57451519Y-114491868D01*
X57448134Y-114491500D01*
X56351866Y-114491500D01*
X56289684Y-114498255D01*
X56153295Y-114549385D01*
X56036739Y-114636739D01*
X56000824Y-114684660D01*
X55943967Y-114727173D01*
X55873149Y-114732199D01*
X55810855Y-114698139D01*
X55799183Y-114684670D01*
X55763261Y-114636739D01*
X55646705Y-114549385D01*
X55510316Y-114498255D01*
X55448134Y-114491500D01*
X54351866Y-114491500D01*
X54289684Y-114498255D01*
X54153295Y-114549385D01*
X54036739Y-114636739D01*
X53949385Y-114753295D01*
X53898255Y-114889684D01*
X53891500Y-114951866D01*
X53891500Y-116416000D01*
X53871498Y-116484121D01*
X53817842Y-116530614D01*
X53765500Y-116542000D01*
X52734490Y-116542000D01*
X52666369Y-116521998D01*
X52619876Y-116468342D01*
X52608490Y-116416000D01*
X52608490Y-116208664D01*
X52612663Y-116179342D01*
X52613181Y-116178145D01*
X52620097Y-116134481D01*
X52622504Y-116122860D01*
X52631528Y-116087711D01*
X52631528Y-116087710D01*
X52633500Y-116080030D01*
X52633500Y-116059769D01*
X52635051Y-116040058D01*
X52636979Y-116027885D01*
X52638219Y-116020057D01*
X52634059Y-115976046D01*
X52633500Y-115964189D01*
X52633500Y-109823626D01*
X52653502Y-109755505D01*
X52707158Y-109709012D01*
X52777432Y-109698908D01*
X52842012Y-109728402D01*
G37*
%TD.AperFunction*%
%TA.AperFunction,Conductor*%
G36*
X76363578Y-57028002D02*
G01*
X76410071Y-57081658D01*
X76420665Y-57119892D01*
X76432084Y-57221238D01*
X76460186Y-57470646D01*
X76460623Y-57472954D01*
X76460623Y-57472956D01*
X76549388Y-57942090D01*
X76550729Y-57949180D01*
X76551339Y-57951456D01*
X76655590Y-58340525D01*
X76676780Y-58419609D01*
X76837634Y-58879303D01*
X76933655Y-59099385D01*
X77019485Y-59296109D01*
X77032391Y-59325691D01*
X77033485Y-59327761D01*
X77033486Y-59327763D01*
X77258361Y-59753247D01*
X77259962Y-59756277D01*
X77261206Y-59758257D01*
X77261209Y-59758262D01*
X77493459Y-60127885D01*
X77519075Y-60168653D01*
X77520474Y-60170548D01*
X77520477Y-60170553D01*
X77590766Y-60265791D01*
X77808280Y-60560511D01*
X78125960Y-60929662D01*
X78470338Y-61274040D01*
X78839489Y-61591720D01*
X79068986Y-61761097D01*
X79197685Y-61856081D01*
X79231347Y-61880925D01*
X79233340Y-61882177D01*
X79233344Y-61882180D01*
X79570795Y-62094214D01*
X79643723Y-62140038D01*
X79645784Y-62141127D01*
X79645787Y-62141129D01*
X80072237Y-62366514D01*
X80074309Y-62367609D01*
X80076458Y-62368547D01*
X80076463Y-62368549D01*
X80189680Y-62417945D01*
X80520697Y-62562366D01*
X80980391Y-62723220D01*
X80982662Y-62723828D01*
X80982670Y-62723831D01*
X81308454Y-62811124D01*
X81450820Y-62849271D01*
X81453131Y-62849708D01*
X81453143Y-62849711D01*
X81927044Y-62939377D01*
X81929354Y-62939814D01*
X82114112Y-62960631D01*
X82280108Y-62979335D01*
X82345561Y-63006839D01*
X82385753Y-63065363D01*
X82392000Y-63104543D01*
X82392000Y-82866000D01*
X82371998Y-82934121D01*
X82318342Y-82980614D01*
X82266000Y-82992000D01*
X81934892Y-82992000D01*
X81866771Y-82971998D01*
X81820278Y-82918342D01*
X81810174Y-82848068D01*
X81839668Y-82783488D01*
X81845719Y-82776982D01*
X81894134Y-82728483D01*
X81899305Y-82723303D01*
X81964391Y-82617715D01*
X81988275Y-82578968D01*
X81988276Y-82578966D01*
X81992115Y-82572738D01*
X82047797Y-82404861D01*
X82058500Y-82300400D01*
X82058500Y-79699600D01*
X82055648Y-79672115D01*
X82048238Y-79600692D01*
X82048237Y-79600688D01*
X82047526Y-79593834D01*
X82033713Y-79552430D01*
X81993868Y-79433002D01*
X81991550Y-79426054D01*
X81898478Y-79275652D01*
X81878661Y-79255869D01*
X81778483Y-79155866D01*
X81773303Y-79150695D01*
X81767072Y-79146854D01*
X81628968Y-79061725D01*
X81628966Y-79061724D01*
X81622738Y-79057885D01*
X81542995Y-79031436D01*
X81461389Y-79004368D01*
X81461387Y-79004368D01*
X81454861Y-79002203D01*
X81448025Y-79001503D01*
X81448022Y-79001502D01*
X81404969Y-78997091D01*
X81350400Y-78991500D01*
X79649600Y-78991500D01*
X79646354Y-78991837D01*
X79646350Y-78991837D01*
X79550692Y-79001762D01*
X79550688Y-79001763D01*
X79543834Y-79002474D01*
X79537298Y-79004655D01*
X79537296Y-79004655D01*
X79405971Y-79048469D01*
X79376054Y-79058450D01*
X79225652Y-79151522D01*
X79100695Y-79276697D01*
X79096855Y-79282927D01*
X79096854Y-79282928D01*
X79019451Y-79408499D01*
X79007885Y-79427262D01*
X78952203Y-79595139D01*
X78941500Y-79699600D01*
X78941500Y-80359670D01*
X78921498Y-80427791D01*
X78867842Y-80474284D01*
X78797568Y-80484388D01*
X78732988Y-80454894D01*
X78721871Y-80443988D01*
X78665863Y-80381785D01*
X78635147Y-80317779D01*
X78633500Y-80297476D01*
X78633500Y-79270710D01*
X78653502Y-79202589D01*
X78670405Y-79181615D01*
X78711639Y-79140381D01*
X78800472Y-78993699D01*
X78804638Y-78980407D01*
X78844472Y-78853295D01*
X78851753Y-78830062D01*
X78858500Y-78756635D01*
X78858499Y-77743366D01*
X78851753Y-77669938D01*
X78849661Y-77663261D01*
X78802744Y-77513550D01*
X78802743Y-77513548D01*
X78800472Y-77506301D01*
X78711639Y-77359619D01*
X78590381Y-77238361D01*
X78443699Y-77149528D01*
X78436452Y-77147257D01*
X78436450Y-77147256D01*
X78370164Y-77126483D01*
X78280062Y-77098247D01*
X78206635Y-77091500D01*
X78203737Y-77091500D01*
X77949335Y-77091501D01*
X77693366Y-77091501D01*
X77690508Y-77091764D01*
X77690499Y-77091764D01*
X77656619Y-77094877D01*
X77619938Y-77098247D01*
X77613560Y-77100246D01*
X77613559Y-77100246D01*
X77463550Y-77147256D01*
X77463548Y-77147257D01*
X77456301Y-77149528D01*
X77415967Y-77173955D01*
X77390271Y-77189517D01*
X77321641Y-77207696D01*
X77259729Y-77189517D01*
X77234033Y-77173955D01*
X77193699Y-77149528D01*
X77186452Y-77147257D01*
X77186450Y-77147256D01*
X77120164Y-77126483D01*
X77030062Y-77098247D01*
X76956635Y-77091500D01*
X76953737Y-77091500D01*
X76699335Y-77091501D01*
X76443366Y-77091501D01*
X76440508Y-77091764D01*
X76440499Y-77091764D01*
X76406619Y-77094877D01*
X76369938Y-77098247D01*
X76247177Y-77136718D01*
X76176195Y-77138003D01*
X76115784Y-77100706D01*
X76085127Y-77036669D01*
X76083500Y-77016484D01*
X76083500Y-74528763D01*
X76084027Y-74517579D01*
X76085701Y-74510091D01*
X76083562Y-74442032D01*
X76083500Y-74438075D01*
X76083500Y-74410144D01*
X76082994Y-74406138D01*
X76082061Y-74394292D01*
X76080922Y-74358037D01*
X76080673Y-74350110D01*
X76075022Y-74330658D01*
X76071014Y-74311306D01*
X76069468Y-74299068D01*
X76069467Y-74299066D01*
X76068474Y-74291203D01*
X76065288Y-74283155D01*
X76061121Y-74272632D01*
X76052194Y-74250086D01*
X76048359Y-74238885D01*
X76036018Y-74196406D01*
X76031985Y-74189587D01*
X76031983Y-74189582D01*
X76025707Y-74178971D01*
X76017010Y-74161221D01*
X76009552Y-74142383D01*
X75995690Y-74123303D01*
X75983572Y-74106625D01*
X75977053Y-74096701D01*
X75958578Y-74065460D01*
X75958574Y-74065455D01*
X75954542Y-74058637D01*
X75940218Y-74044313D01*
X75927376Y-74029278D01*
X75915472Y-74012893D01*
X75881406Y-73984711D01*
X75872627Y-73976722D01*
X75596305Y-73700400D01*
X77491500Y-73700400D01*
X77491837Y-73703646D01*
X77491837Y-73703650D01*
X77501441Y-73796206D01*
X77502474Y-73806166D01*
X77504655Y-73812702D01*
X77504655Y-73812704D01*
X77518433Y-73854000D01*
X77558450Y-73973946D01*
X77651522Y-74124348D01*
X77776697Y-74249305D01*
X77782927Y-74253145D01*
X77782928Y-74253146D01*
X77920090Y-74337694D01*
X77927262Y-74342115D01*
X77972658Y-74357172D01*
X78088611Y-74395632D01*
X78088613Y-74395632D01*
X78095139Y-74397797D01*
X78101975Y-74398497D01*
X78101978Y-74398498D01*
X78145031Y-74402909D01*
X78199600Y-74408500D01*
X80800400Y-74408500D01*
X80803646Y-74408163D01*
X80803650Y-74408163D01*
X80899308Y-74398238D01*
X80899312Y-74398237D01*
X80906166Y-74397526D01*
X80912702Y-74395345D01*
X80912704Y-74395345D01*
X81059088Y-74346507D01*
X81073946Y-74341550D01*
X81224348Y-74248478D01*
X81349305Y-74123303D01*
X81389166Y-74058637D01*
X81438275Y-73978968D01*
X81438276Y-73978966D01*
X81442115Y-73972738D01*
X81477352Y-73866500D01*
X81495632Y-73811389D01*
X81495632Y-73811387D01*
X81497797Y-73804861D01*
X81498693Y-73796121D01*
X81508172Y-73703598D01*
X81508500Y-73700400D01*
X81508500Y-71999600D01*
X81508160Y-71996321D01*
X81498238Y-71900692D01*
X81498237Y-71900688D01*
X81497526Y-71893834D01*
X81475730Y-71828502D01*
X81443868Y-71733002D01*
X81441550Y-71726054D01*
X81348478Y-71575652D01*
X81319481Y-71546705D01*
X81228483Y-71455866D01*
X81223303Y-71450695D01*
X81217072Y-71446854D01*
X81078968Y-71361725D01*
X81078966Y-71361724D01*
X81072738Y-71357885D01*
X80956383Y-71319292D01*
X80911389Y-71304368D01*
X80911387Y-71304368D01*
X80904861Y-71302203D01*
X80898025Y-71301503D01*
X80898022Y-71301502D01*
X80854969Y-71297091D01*
X80800400Y-71291500D01*
X78199600Y-71291500D01*
X78196354Y-71291837D01*
X78196350Y-71291837D01*
X78100692Y-71301762D01*
X78100688Y-71301763D01*
X78093834Y-71302474D01*
X78087298Y-71304655D01*
X78087296Y-71304655D01*
X78019910Y-71327137D01*
X77926054Y-71358450D01*
X77775652Y-71451522D01*
X77650695Y-71576697D01*
X77646855Y-71582927D01*
X77646854Y-71582928D01*
X77567790Y-71711194D01*
X77557885Y-71727262D01*
X77540131Y-71780789D01*
X77506509Y-71882158D01*
X77502203Y-71895139D01*
X77491500Y-71999600D01*
X77491500Y-73700400D01*
X75596305Y-73700400D01*
X74107000Y-72211095D01*
X74072974Y-72148783D01*
X74078039Y-72077968D01*
X74120586Y-72021132D01*
X74187106Y-71996321D01*
X74196095Y-71996000D01*
X74499734Y-71995999D01*
X74506230Y-71995999D01*
X74611129Y-71985116D01*
X74617660Y-71982937D01*
X74617665Y-71982936D01*
X74770578Y-71931920D01*
X74777526Y-71929602D01*
X74926689Y-71837297D01*
X75050617Y-71713153D01*
X75085797Y-71656081D01*
X75138822Y-71570057D01*
X75142661Y-71563829D01*
X75144955Y-71556912D01*
X75181916Y-71510611D01*
X75184536Y-71508579D01*
X75191362Y-71504542D01*
X75205683Y-71490221D01*
X75220717Y-71477380D01*
X75230694Y-71470131D01*
X75237107Y-71465472D01*
X75265298Y-71431395D01*
X75273288Y-71422616D01*
X75658201Y-71037703D01*
X75720513Y-71003677D01*
X75791328Y-71008742D01*
X75836391Y-71037703D01*
X75854557Y-71055869D01*
X75866426Y-71065176D01*
X76000012Y-71146079D01*
X76013757Y-71152285D01*
X76163644Y-71199256D01*
X76176694Y-71201869D01*
X76240521Y-71207734D01*
X76246309Y-71208000D01*
X76477885Y-71208000D01*
X76493124Y-71203525D01*
X76494329Y-71202135D01*
X76496000Y-71194452D01*
X76496000Y-71189884D01*
X77004000Y-71189884D01*
X77008475Y-71205123D01*
X77009865Y-71206328D01*
X77017548Y-71207999D01*
X77253705Y-71207999D01*
X77259454Y-71207736D01*
X77323315Y-71201868D01*
X77336351Y-71199257D01*
X77486243Y-71152285D01*
X77499988Y-71146079D01*
X77633574Y-71065176D01*
X77645443Y-71055869D01*
X77755869Y-70945443D01*
X77765176Y-70933574D01*
X77846079Y-70799988D01*
X77852285Y-70786243D01*
X77899256Y-70636356D01*
X77901869Y-70623306D01*
X77906913Y-70568414D01*
X77903525Y-70556876D01*
X77902135Y-70555671D01*
X77894452Y-70554000D01*
X77022115Y-70554000D01*
X77006876Y-70558475D01*
X77005671Y-70559865D01*
X77004000Y-70567548D01*
X77004000Y-71189884D01*
X76496000Y-71189884D01*
X76496000Y-70172000D01*
X76516002Y-70103879D01*
X76569658Y-70057386D01*
X76622000Y-70046000D01*
X77889884Y-70046000D01*
X77905123Y-70041525D01*
X77906328Y-70040135D01*
X77907291Y-70035706D01*
X77901868Y-69976685D01*
X77899257Y-69963649D01*
X77852285Y-69813757D01*
X77846077Y-69800008D01*
X77810191Y-69740753D01*
X77792012Y-69672124D01*
X77810191Y-69610211D01*
X77850472Y-69543699D01*
X77861619Y-69508131D01*
X77891655Y-69412285D01*
X77901753Y-69380062D01*
X77908500Y-69306635D01*
X77908499Y-68793366D01*
X77906755Y-68774376D01*
X77902364Y-68726592D01*
X77901753Y-68719938D01*
X77896125Y-68701978D01*
X77852744Y-68563550D01*
X77852742Y-68563545D01*
X77850472Y-68556301D01*
X77761639Y-68409619D01*
X77640381Y-68288361D01*
X77493699Y-68199528D01*
X77486452Y-68197257D01*
X77486450Y-68197256D01*
X77409122Y-68173023D01*
X77330062Y-68148247D01*
X77256635Y-68141500D01*
X77253737Y-68141500D01*
X76748686Y-68141501D01*
X76243366Y-68141501D01*
X76240508Y-68141764D01*
X76240499Y-68141764D01*
X76204996Y-68145026D01*
X76169938Y-68148247D01*
X76163560Y-68150246D01*
X76163559Y-68150246D01*
X76013550Y-68197256D01*
X76013548Y-68197257D01*
X76006301Y-68199528D01*
X75859619Y-68288361D01*
X75738361Y-68409619D01*
X75649528Y-68556301D01*
X75636753Y-68597066D01*
X75605615Y-68648480D01*
X75415304Y-68838791D01*
X75352992Y-68872817D01*
X75282177Y-68867752D01*
X75225341Y-68825205D01*
X75200882Y-68762701D01*
X75197834Y-68733329D01*
X75194942Y-68719936D01*
X75143964Y-68567135D01*
X75137790Y-68553957D01*
X75053256Y-68417351D01*
X75044220Y-68405950D01*
X74930521Y-68292449D01*
X74919110Y-68283437D01*
X74782346Y-68199135D01*
X74769168Y-68192991D01*
X74616260Y-68142273D01*
X74602894Y-68139407D01*
X74509399Y-68129828D01*
X74502984Y-68129500D01*
X74272115Y-68129500D01*
X74256876Y-68133975D01*
X74255671Y-68135365D01*
X74254000Y-68143048D01*
X74254000Y-69253000D01*
X74233998Y-69321121D01*
X74180342Y-69367614D01*
X74128000Y-69379000D01*
X72820053Y-69379000D01*
X72751932Y-69358998D01*
X72748043Y-69356086D01*
X72738452Y-69354000D01*
X71872000Y-69354000D01*
X71803879Y-69333998D01*
X71757386Y-69280342D01*
X71746000Y-69228000D01*
X71746000Y-68827885D01*
X72254000Y-68827885D01*
X72258475Y-68843124D01*
X72259865Y-68844329D01*
X72267548Y-68846000D01*
X73204947Y-68846000D01*
X73273068Y-68866002D01*
X73276957Y-68868914D01*
X73286548Y-68871000D01*
X73727885Y-68871000D01*
X73743124Y-68866525D01*
X73744329Y-68865135D01*
X73746000Y-68857452D01*
X73746000Y-68147616D01*
X73741525Y-68132377D01*
X73740135Y-68131172D01*
X73732452Y-68129501D01*
X73497067Y-68129501D01*
X73490548Y-68129838D01*
X73395830Y-68139666D01*
X73382436Y-68142558D01*
X73229635Y-68193536D01*
X73216456Y-68199710D01*
X73103723Y-68269471D01*
X73035271Y-68288309D01*
X72967501Y-68267148D01*
X72959244Y-68260385D01*
X72958917Y-68260799D01*
X72941760Y-68247249D01*
X72803757Y-68162184D01*
X72790576Y-68156037D01*
X72636290Y-68104862D01*
X72622914Y-68101995D01*
X72528562Y-68092328D01*
X72522145Y-68092000D01*
X72272115Y-68092000D01*
X72256876Y-68096475D01*
X72255671Y-68097865D01*
X72254000Y-68105548D01*
X72254000Y-68827885D01*
X71746000Y-68827885D01*
X71746000Y-68298752D01*
X71766002Y-68230631D01*
X71780150Y-68212499D01*
X71786158Y-68206101D01*
X71791585Y-68200322D01*
X71795404Y-68193376D01*
X71795406Y-68193373D01*
X71801347Y-68182567D01*
X71812198Y-68166048D01*
X71819757Y-68156302D01*
X71824613Y-68150042D01*
X71827758Y-68142773D01*
X71827761Y-68142769D01*
X71842173Y-68109464D01*
X71847390Y-68098814D01*
X71868694Y-68060061D01*
X71873732Y-68040438D01*
X71880136Y-68021735D01*
X71885032Y-68010421D01*
X71885032Y-68010420D01*
X71888180Y-68003146D01*
X71889419Y-67995323D01*
X71889422Y-67995313D01*
X71895098Y-67959477D01*
X71897504Y-67947857D01*
X71906527Y-67912712D01*
X71906527Y-67912711D01*
X71908499Y-67905031D01*
X71908499Y-67884777D01*
X71910050Y-67865066D01*
X71911979Y-67852887D01*
X71913219Y-67845058D01*
X71909058Y-67801039D01*
X71908499Y-67789182D01*
X71908499Y-67534499D01*
X71928501Y-67466378D01*
X71982157Y-67419885D01*
X72034499Y-67408499D01*
X73946234Y-67408499D01*
X73957417Y-67409026D01*
X73964910Y-67410701D01*
X73972836Y-67410452D01*
X73972837Y-67410452D01*
X74032987Y-67408561D01*
X74036946Y-67408499D01*
X74064857Y-67408499D01*
X74068792Y-67408002D01*
X74068857Y-67407994D01*
X74080694Y-67407061D01*
X74112952Y-67406047D01*
X74116971Y-67405921D01*
X74124890Y-67405672D01*
X74144344Y-67400020D01*
X74163701Y-67396012D01*
X74175931Y-67394467D01*
X74175932Y-67394467D01*
X74183798Y-67393473D01*
X74191169Y-67390554D01*
X74191171Y-67390554D01*
X74224913Y-67377195D01*
X74236143Y-67373350D01*
X74270984Y-67363228D01*
X74270985Y-67363228D01*
X74278594Y-67361017D01*
X74285413Y-67356984D01*
X74285418Y-67356982D01*
X74296029Y-67350706D01*
X74296654Y-67350400D01*
X77491500Y-67350400D01*
X77491837Y-67353646D01*
X77491837Y-67353650D01*
X77501431Y-67446109D01*
X77502474Y-67456166D01*
X77558450Y-67623946D01*
X77651522Y-67774348D01*
X77776697Y-67899305D01*
X77782927Y-67903145D01*
X77782928Y-67903146D01*
X77920090Y-67987694D01*
X77927262Y-67992115D01*
X77982453Y-68010421D01*
X78088611Y-68045632D01*
X78088613Y-68045632D01*
X78095139Y-68047797D01*
X78101975Y-68048497D01*
X78101978Y-68048498D01*
X78145031Y-68052909D01*
X78199600Y-68058500D01*
X80800400Y-68058500D01*
X80803646Y-68058163D01*
X80803650Y-68058163D01*
X80899308Y-68048238D01*
X80899312Y-68048237D01*
X80906166Y-68047526D01*
X80912702Y-68045345D01*
X80912704Y-68045345D01*
X81063395Y-67995070D01*
X81073946Y-67991550D01*
X81224348Y-67898478D01*
X81349305Y-67773303D01*
X81442115Y-67622738D01*
X81487890Y-67484731D01*
X81495632Y-67461389D01*
X81495632Y-67461387D01*
X81497797Y-67454861D01*
X81499269Y-67440500D01*
X81504708Y-67387405D01*
X81508500Y-67350400D01*
X81508500Y-65649600D01*
X81507620Y-65641115D01*
X81498238Y-65550692D01*
X81498237Y-65550688D01*
X81497526Y-65543834D01*
X81441550Y-65376054D01*
X81348478Y-65225652D01*
X81223303Y-65100695D01*
X81217072Y-65096854D01*
X81078968Y-65011725D01*
X81078966Y-65011724D01*
X81072738Y-65007885D01*
X80912254Y-64954655D01*
X80911389Y-64954368D01*
X80911387Y-64954368D01*
X80904861Y-64952203D01*
X80898025Y-64951503D01*
X80898022Y-64951502D01*
X80854969Y-64947091D01*
X80800400Y-64941500D01*
X78199600Y-64941500D01*
X78196354Y-64941837D01*
X78196350Y-64941837D01*
X78100692Y-64951762D01*
X78100688Y-64951763D01*
X78093834Y-64952474D01*
X78087298Y-64954655D01*
X78087296Y-64954655D01*
X77987143Y-64988069D01*
X77926054Y-65008450D01*
X77775652Y-65101522D01*
X77650695Y-65226697D01*
X77557885Y-65377262D01*
X77548261Y-65406277D01*
X77514290Y-65508699D01*
X77502203Y-65545139D01*
X77491500Y-65649600D01*
X77491500Y-67350400D01*
X74296654Y-67350400D01*
X74313777Y-67342011D01*
X74332618Y-67334551D01*
X74346735Y-67324295D01*
X74368388Y-67308563D01*
X74378308Y-67302047D01*
X74409536Y-67283579D01*
X74409539Y-67283577D01*
X74416363Y-67279541D01*
X74430684Y-67265220D01*
X74445718Y-67252379D01*
X74455695Y-67245130D01*
X74462108Y-67240471D01*
X74490299Y-67206394D01*
X74498289Y-67197615D01*
X74932247Y-66763657D01*
X74940537Y-66756113D01*
X74947018Y-66752000D01*
X74993659Y-66702332D01*
X74996413Y-66699491D01*
X75016135Y-66679769D01*
X75018612Y-66676576D01*
X75026317Y-66667555D01*
X75041149Y-66651760D01*
X75056586Y-66635321D01*
X75060407Y-66628371D01*
X75066346Y-66617568D01*
X75077202Y-66601041D01*
X75084757Y-66591302D01*
X75084758Y-66591300D01*
X75089614Y-66585040D01*
X75107174Y-66544460D01*
X75112391Y-66533812D01*
X75129875Y-66502009D01*
X75129876Y-66502007D01*
X75133695Y-66495060D01*
X75135708Y-66487223D01*
X75138733Y-66475438D01*
X75145137Y-66456734D01*
X75150033Y-66445420D01*
X75150033Y-66445419D01*
X75153181Y-66438145D01*
X75154420Y-66430322D01*
X75154423Y-66430312D01*
X75160099Y-66394476D01*
X75162505Y-66382856D01*
X75171528Y-66347711D01*
X75171528Y-66347710D01*
X75173500Y-66340030D01*
X75173500Y-66319776D01*
X75175051Y-66300065D01*
X75176980Y-66287886D01*
X75178220Y-66280057D01*
X75174059Y-66236038D01*
X75173500Y-66224181D01*
X75173500Y-65980427D01*
X75193502Y-65912306D01*
X75234618Y-65872550D01*
X75237994Y-65870896D01*
X75419860Y-65741173D01*
X75578096Y-65583489D01*
X75708453Y-65402077D01*
X75717881Y-65383002D01*
X75805136Y-65206453D01*
X75805137Y-65206451D01*
X75807430Y-65201811D01*
X75866178Y-65008450D01*
X75870865Y-64993023D01*
X75870865Y-64993021D01*
X75872370Y-64988069D01*
X75901529Y-64766590D01*
X75903156Y-64700000D01*
X75884852Y-64477361D01*
X75830431Y-64260702D01*
X75741354Y-64055840D01*
X75620014Y-63868277D01*
X75469670Y-63703051D01*
X75465619Y-63699852D01*
X75465615Y-63699848D01*
X75298414Y-63567800D01*
X75298410Y-63567798D01*
X75294359Y-63564598D01*
X75289831Y-63562098D01*
X75242136Y-63535769D01*
X75098789Y-63456638D01*
X75093920Y-63454914D01*
X75093916Y-63454912D01*
X74893087Y-63383795D01*
X74893083Y-63383794D01*
X74888212Y-63382069D01*
X74883119Y-63381162D01*
X74883116Y-63381161D01*
X74673373Y-63343800D01*
X74673367Y-63343799D01*
X74668284Y-63342894D01*
X74594452Y-63341992D01*
X74450081Y-63340228D01*
X74450079Y-63340228D01*
X74444911Y-63340165D01*
X74224091Y-63373955D01*
X74011756Y-63443357D01*
X73813607Y-63546507D01*
X73809474Y-63549610D01*
X73809471Y-63549612D01*
X73650083Y-63669284D01*
X73634965Y-63680635D01*
X73631393Y-63684373D01*
X73523729Y-63797037D01*
X73480629Y-63842138D01*
X73379443Y-63990472D01*
X73372898Y-64000066D01*
X73317987Y-64045069D01*
X73247462Y-64053240D01*
X73183715Y-64021986D01*
X73163018Y-63997502D01*
X73082426Y-63872926D01*
X73076136Y-63864757D01*
X72932806Y-63707240D01*
X72925273Y-63700215D01*
X72758139Y-63568222D01*
X72749552Y-63562517D01*
X72563117Y-63459599D01*
X72553705Y-63455369D01*
X72352959Y-63384280D01*
X72342988Y-63381646D01*
X72271837Y-63368972D01*
X72258540Y-63370432D01*
X72254000Y-63384989D01*
X72254000Y-64828000D01*
X72233998Y-64896121D01*
X72180342Y-64942614D01*
X72128000Y-64954000D01*
X71872000Y-64954000D01*
X71803879Y-64933998D01*
X71757386Y-64880342D01*
X71746000Y-64828000D01*
X71746000Y-63383102D01*
X71742082Y-63369758D01*
X71727806Y-63367771D01*
X71689324Y-63373660D01*
X71679288Y-63376051D01*
X71476868Y-63442212D01*
X71467359Y-63446209D01*
X71278463Y-63544542D01*
X71269738Y-63550036D01*
X71099433Y-63677905D01*
X71091726Y-63684748D01*
X70944590Y-63838717D01*
X70938109Y-63846722D01*
X70833498Y-64000074D01*
X70778587Y-64045076D01*
X70708062Y-64053247D01*
X70644315Y-64021993D01*
X70623618Y-63997509D01*
X70542822Y-63872617D01*
X70542820Y-63872614D01*
X70540014Y-63868277D01*
X70389670Y-63703051D01*
X70385619Y-63699852D01*
X70385615Y-63699848D01*
X70218414Y-63567800D01*
X70218410Y-63567798D01*
X70214359Y-63564598D01*
X70209835Y-63562100D01*
X70209831Y-63562098D01*
X70158606Y-63533820D01*
X70108636Y-63483388D01*
X70094634Y-63427997D01*
X70093748Y-63428053D01*
X70093500Y-63424111D01*
X70093500Y-63420144D01*
X70092996Y-63416153D01*
X70092063Y-63404311D01*
X70091909Y-63399385D01*
X70090674Y-63360111D01*
X70088461Y-63352493D01*
X70085021Y-63340652D01*
X70081012Y-63321293D01*
X70080846Y-63319983D01*
X70078474Y-63301203D01*
X70075558Y-63293837D01*
X70075556Y-63293831D01*
X70062200Y-63260098D01*
X70058355Y-63248868D01*
X70048230Y-63214017D01*
X70048230Y-63214016D01*
X70046019Y-63206407D01*
X70035705Y-63188966D01*
X70027008Y-63171213D01*
X70022472Y-63159758D01*
X70019552Y-63152383D01*
X69993563Y-63116612D01*
X69987047Y-63106692D01*
X69968578Y-63075463D01*
X69964542Y-63068638D01*
X69950221Y-63054317D01*
X69937380Y-63039283D01*
X69930131Y-63029306D01*
X69925472Y-63022893D01*
X69891395Y-62994702D01*
X69882616Y-62986712D01*
X68871393Y-61975489D01*
X68837367Y-61913177D01*
X68842432Y-61842362D01*
X68884979Y-61785526D01*
X68944478Y-61761415D01*
X69158288Y-61734025D01*
X69158289Y-61734025D01*
X69163416Y-61733368D01*
X69168366Y-61731883D01*
X69372429Y-61670661D01*
X69372434Y-61670659D01*
X69377384Y-61669174D01*
X69577994Y-61570896D01*
X69759860Y-61441173D01*
X69918096Y-61283489D01*
X69923779Y-61275581D01*
X70048453Y-61102077D01*
X70049640Y-61102930D01*
X70096960Y-61059362D01*
X70166897Y-61047145D01*
X70232338Y-61074678D01*
X70260166Y-61106511D01*
X70317694Y-61200388D01*
X70323777Y-61208699D01*
X70463213Y-61369667D01*
X70470580Y-61376883D01*
X70634434Y-61512916D01*
X70642881Y-61518831D01*
X70826756Y-61626279D01*
X70836042Y-61630729D01*
X71035001Y-61706703D01*
X71044899Y-61709579D01*
X71148250Y-61730606D01*
X71162299Y-61729410D01*
X71166000Y-61719065D01*
X71166000Y-61718517D01*
X71674000Y-61718517D01*
X71678064Y-61732359D01*
X71691478Y-61734393D01*
X71698184Y-61733534D01*
X71708262Y-61731392D01*
X71912255Y-61670191D01*
X71921842Y-61666433D01*
X72113095Y-61572739D01*
X72121945Y-61567464D01*
X72295328Y-61443792D01*
X72303200Y-61437139D01*
X72454052Y-61286812D01*
X72460730Y-61278965D01*
X72585003Y-61106020D01*
X72590313Y-61097183D01*
X72684670Y-60906267D01*
X72688469Y-60896672D01*
X72750377Y-60692910D01*
X72752555Y-60682837D01*
X72753986Y-60671962D01*
X72751775Y-60657778D01*
X72738617Y-60654000D01*
X71692115Y-60654000D01*
X71676876Y-60658475D01*
X71675671Y-60659865D01*
X71674000Y-60667548D01*
X71674000Y-61718517D01*
X71166000Y-61718517D01*
X71166000Y-60127885D01*
X71674000Y-60127885D01*
X71678475Y-60143124D01*
X71679865Y-60144329D01*
X71687548Y-60146000D01*
X72738344Y-60146000D01*
X72751875Y-60142027D01*
X72753180Y-60132947D01*
X72711214Y-59965875D01*
X72707894Y-59956124D01*
X72622972Y-59760814D01*
X72618105Y-59751739D01*
X72502426Y-59572926D01*
X72496136Y-59564757D01*
X72352806Y-59407240D01*
X72345273Y-59400215D01*
X72178139Y-59268222D01*
X72169552Y-59262517D01*
X71983117Y-59159599D01*
X71973705Y-59155369D01*
X71772959Y-59084280D01*
X71762988Y-59081646D01*
X71691837Y-59068972D01*
X71678540Y-59070432D01*
X71674000Y-59084989D01*
X71674000Y-60127885D01*
X71166000Y-60127885D01*
X71166000Y-59083102D01*
X71162082Y-59069758D01*
X71147806Y-59067771D01*
X71109324Y-59073660D01*
X71099288Y-59076051D01*
X70896868Y-59142212D01*
X70887359Y-59146209D01*
X70698463Y-59244542D01*
X70689738Y-59250036D01*
X70519433Y-59377905D01*
X70511726Y-59384748D01*
X70364590Y-59538717D01*
X70358109Y-59546722D01*
X70253498Y-59700074D01*
X70198587Y-59745076D01*
X70128062Y-59753247D01*
X70064315Y-59721993D01*
X70043618Y-59697509D01*
X69962822Y-59572617D01*
X69962820Y-59572614D01*
X69960014Y-59568277D01*
X69809670Y-59403051D01*
X69805619Y-59399852D01*
X69805615Y-59399848D01*
X69638414Y-59267800D01*
X69638410Y-59267798D01*
X69634359Y-59264598D01*
X69616846Y-59254930D01*
X69446274Y-59160770D01*
X69398714Y-59114601D01*
X69388580Y-59097466D01*
X69384542Y-59090638D01*
X69370221Y-59076317D01*
X69357380Y-59061283D01*
X69350131Y-59051306D01*
X69345472Y-59044893D01*
X69311395Y-59016702D01*
X69302616Y-59008712D01*
X68101652Y-57807747D01*
X68094112Y-57799461D01*
X68090000Y-57792982D01*
X68040348Y-57746356D01*
X68037507Y-57743602D01*
X68017770Y-57723865D01*
X68014573Y-57721385D01*
X68005551Y-57713680D01*
X67973321Y-57683414D01*
X67966375Y-57679595D01*
X67966372Y-57679593D01*
X67955566Y-57673652D01*
X67939047Y-57662801D01*
X67932272Y-57657546D01*
X67923041Y-57650386D01*
X67915772Y-57647241D01*
X67915768Y-57647238D01*
X67882463Y-57632826D01*
X67871813Y-57627609D01*
X67833060Y-57606305D01*
X67813437Y-57601267D01*
X67794734Y-57594863D01*
X67783420Y-57589967D01*
X67783419Y-57589967D01*
X67776145Y-57586819D01*
X67768322Y-57585580D01*
X67768312Y-57585577D01*
X67732476Y-57579901D01*
X67720856Y-57577495D01*
X67685711Y-57568472D01*
X67685710Y-57568472D01*
X67678030Y-57566500D01*
X67657776Y-57566500D01*
X67638065Y-57564949D01*
X67635534Y-57564548D01*
X67618057Y-57561780D01*
X67610165Y-57562526D01*
X67574039Y-57565941D01*
X67562181Y-57566500D01*
X61978763Y-57566500D01*
X61967579Y-57565973D01*
X61960091Y-57564299D01*
X61952168Y-57564548D01*
X61892033Y-57566438D01*
X61888075Y-57566500D01*
X61860144Y-57566500D01*
X61856229Y-57566995D01*
X61856225Y-57566995D01*
X61856167Y-57567003D01*
X61856138Y-57567006D01*
X61844296Y-57567939D01*
X61800110Y-57569327D01*
X61789808Y-57572320D01*
X61787609Y-57572314D01*
X61784671Y-57572779D01*
X61784596Y-57572305D01*
X61718813Y-57572113D01*
X61659198Y-57533556D01*
X61629335Y-57464324D01*
X61622743Y-57400794D01*
X61619851Y-57387400D01*
X61568412Y-57233216D01*
X61562241Y-57220042D01*
X61550026Y-57200304D01*
X61531188Y-57131852D01*
X61552349Y-57064082D01*
X61606789Y-57018511D01*
X61657170Y-57008000D01*
X76295457Y-57008000D01*
X76363578Y-57028002D01*
G37*
%TD.AperFunction*%
%TA.AperFunction,Conductor*%
G36*
X44960837Y-82595970D02*
G01*
X45010955Y-82646256D01*
X45018249Y-82662226D01*
X45046676Y-82738054D01*
X45055214Y-82753648D01*
X45082784Y-82790435D01*
X45107632Y-82856941D01*
X45092579Y-82926324D01*
X45042405Y-82976554D01*
X44981958Y-82992000D01*
X44818667Y-82992000D01*
X44750546Y-82971998D01*
X44704053Y-82918342D01*
X44693949Y-82848068D01*
X44717841Y-82790435D01*
X44750615Y-82746705D01*
X44782285Y-82662226D01*
X44824927Y-82605462D01*
X44891488Y-82580762D01*
X44960837Y-82595970D01*
G37*
%TD.AperFunction*%
%TA.AperFunction,Conductor*%
G36*
X40483621Y-76153502D02*
G01*
X40530114Y-76207158D01*
X40541500Y-76259500D01*
X40541500Y-77348134D01*
X40548255Y-77410316D01*
X40599385Y-77546705D01*
X40686739Y-77663261D01*
X40803295Y-77750615D01*
X40939684Y-77801745D01*
X41001866Y-77808500D01*
X41877618Y-77808500D01*
X41938327Y-77824090D01*
X41942439Y-77826351D01*
X41958953Y-77837199D01*
X41974959Y-77849614D01*
X41982228Y-77852759D01*
X41982232Y-77852762D01*
X42015537Y-77867174D01*
X42026187Y-77872391D01*
X42064940Y-77893695D01*
X42072615Y-77895666D01*
X42072616Y-77895666D01*
X42084562Y-77898733D01*
X42103267Y-77905137D01*
X42121855Y-77913181D01*
X42129678Y-77914420D01*
X42129688Y-77914423D01*
X42165524Y-77920099D01*
X42177144Y-77922505D01*
X42212289Y-77931528D01*
X42219970Y-77933500D01*
X42240224Y-77933500D01*
X42259934Y-77935051D01*
X42279943Y-77938220D01*
X42287835Y-77937474D01*
X42299263Y-77936394D01*
X42323962Y-77934059D01*
X42335819Y-77933500D01*
X47728207Y-77933500D01*
X47751816Y-77935732D01*
X47752119Y-77935790D01*
X47752123Y-77935790D01*
X47759906Y-77937275D01*
X47815951Y-77933749D01*
X47823862Y-77933500D01*
X49222898Y-77933500D01*
X49291019Y-77953502D01*
X49337512Y-78007158D01*
X49347616Y-78077432D01*
X49342731Y-78098436D01*
X49341054Y-78103598D01*
X49306458Y-78210072D01*
X49305768Y-78216633D01*
X49305768Y-78216635D01*
X49302465Y-78248063D01*
X49290092Y-78365791D01*
X49289093Y-78375292D01*
X49262080Y-78440949D01*
X49252878Y-78451217D01*
X48774500Y-78929595D01*
X48712188Y-78963621D01*
X48685405Y-78966500D01*
X45830382Y-78966500D01*
X45762261Y-78946498D01*
X45715768Y-78892842D01*
X45712401Y-78884731D01*
X45703769Y-78861707D01*
X45703767Y-78861703D01*
X45700615Y-78853295D01*
X45613261Y-78736739D01*
X45496705Y-78649385D01*
X45360316Y-78598255D01*
X45298134Y-78591500D01*
X44501866Y-78591500D01*
X44439684Y-78598255D01*
X44303295Y-78649385D01*
X44186739Y-78736739D01*
X44099385Y-78853295D01*
X44048255Y-78989684D01*
X44041500Y-79051866D01*
X44041500Y-80148134D01*
X44048255Y-80210316D01*
X44099385Y-80346705D01*
X44186739Y-80463261D01*
X44193919Y-80468642D01*
X44193920Y-80468643D01*
X44301428Y-80549216D01*
X44343943Y-80606075D01*
X44348969Y-80676894D01*
X44314958Y-80739137D01*
X44099499Y-80954596D01*
X44037187Y-80988621D01*
X44010404Y-80991500D01*
X43551866Y-80991500D01*
X43489684Y-80998255D01*
X43353295Y-81049385D01*
X43236739Y-81136739D01*
X43149385Y-81253295D01*
X43098255Y-81389684D01*
X43091500Y-81451866D01*
X43091500Y-82548134D01*
X43098255Y-82610316D01*
X43149385Y-82746705D01*
X43182159Y-82790435D01*
X43207007Y-82856941D01*
X43191954Y-82926324D01*
X43141780Y-82976554D01*
X43081333Y-82992000D01*
X37534000Y-82992000D01*
X37465879Y-82971998D01*
X37419386Y-82918342D01*
X37408000Y-82866000D01*
X37408000Y-80508289D01*
X37428002Y-80440168D01*
X37481658Y-80393675D01*
X37551932Y-80383571D01*
X37616512Y-80413065D01*
X37629077Y-80426191D01*
X37746829Y-80543739D01*
X37758240Y-80552751D01*
X37896243Y-80637816D01*
X37909424Y-80643963D01*
X38063710Y-80695138D01*
X38077086Y-80698005D01*
X38171438Y-80707672D01*
X38177854Y-80708000D01*
X38427885Y-80708000D01*
X38443124Y-80703525D01*
X38444329Y-80702135D01*
X38446000Y-80694452D01*
X38446000Y-80689884D01*
X38954000Y-80689884D01*
X38958475Y-80705123D01*
X38959865Y-80706328D01*
X38967548Y-80707999D01*
X39222095Y-80707999D01*
X39228614Y-80707662D01*
X39324206Y-80697743D01*
X39337600Y-80694851D01*
X39491784Y-80643412D01*
X39504962Y-80637239D01*
X39642807Y-80551937D01*
X39654208Y-80542901D01*
X39768739Y-80428171D01*
X39777751Y-80416760D01*
X39862816Y-80278757D01*
X39868963Y-80265576D01*
X39920138Y-80111290D01*
X39923005Y-80097914D01*
X39932672Y-80003562D01*
X39933000Y-79997146D01*
X39933000Y-79972115D01*
X39928525Y-79956876D01*
X39927135Y-79955671D01*
X39919452Y-79954000D01*
X38972115Y-79954000D01*
X38956876Y-79958475D01*
X38955671Y-79959865D01*
X38954000Y-79967548D01*
X38954000Y-80689884D01*
X38446000Y-80689884D01*
X38446000Y-79572000D01*
X38466002Y-79503879D01*
X38519658Y-79457386D01*
X38572000Y-79446000D01*
X39914884Y-79446000D01*
X39930123Y-79441525D01*
X39931328Y-79440135D01*
X39932999Y-79432452D01*
X39932999Y-79402905D01*
X39932662Y-79396386D01*
X39922743Y-79300794D01*
X39919851Y-79287400D01*
X39868412Y-79133216D01*
X39862239Y-79120038D01*
X39776937Y-78982193D01*
X39767901Y-78970792D01*
X39653172Y-78856262D01*
X39644238Y-78849206D01*
X39603177Y-78791288D01*
X39599947Y-78720365D01*
X39635574Y-78658954D01*
X39643407Y-78652154D01*
X39649348Y-78648478D01*
X39774305Y-78523303D01*
X39792068Y-78494486D01*
X39863275Y-78378968D01*
X39863276Y-78378966D01*
X39867115Y-78372738D01*
X39905471Y-78257099D01*
X39920632Y-78211389D01*
X39920632Y-78211387D01*
X39922797Y-78204861D01*
X39933500Y-78100400D01*
X39933500Y-77499600D01*
X39925004Y-77417715D01*
X39923238Y-77400692D01*
X39923237Y-77400688D01*
X39922526Y-77393834D01*
X39909318Y-77354243D01*
X39868868Y-77233002D01*
X39866550Y-77226054D01*
X39773478Y-77075652D01*
X39728975Y-77031226D01*
X39653483Y-76955866D01*
X39648303Y-76950695D01*
X39568498Y-76901502D01*
X39518843Y-76870894D01*
X39471349Y-76818121D01*
X39459926Y-76748050D01*
X39488200Y-76682926D01*
X39511791Y-76661055D01*
X39675656Y-76544172D01*
X39675659Y-76544170D01*
X39679860Y-76541173D01*
X39712648Y-76508500D01*
X39818026Y-76403489D01*
X39838096Y-76383489D01*
X39860485Y-76352332D01*
X39965435Y-76206277D01*
X39968453Y-76202077D01*
X39970746Y-76197437D01*
X39972446Y-76194608D01*
X40024674Y-76146518D01*
X40080451Y-76133500D01*
X40415500Y-76133500D01*
X40483621Y-76153502D01*
G37*
%TD.AperFunction*%
%TA.AperFunction,Conductor*%
G36*
X59211067Y-57028002D02*
G01*
X59257560Y-57081658D01*
X59267664Y-57151932D01*
X59250206Y-57200115D01*
X59237186Y-57221238D01*
X59231037Y-57234424D01*
X59179862Y-57388710D01*
X59176995Y-57402086D01*
X59175205Y-57419553D01*
X59148363Y-57485280D01*
X59090248Y-57526062D01*
X59019310Y-57528950D01*
X58974296Y-57507536D01*
X58903892Y-57454771D01*
X58903890Y-57454770D01*
X58896705Y-57449385D01*
X58760316Y-57398255D01*
X58698134Y-57391500D01*
X57101866Y-57391500D01*
X57039684Y-57398255D01*
X56903295Y-57449385D01*
X56786739Y-57536739D01*
X56699385Y-57653295D01*
X56696233Y-57661703D01*
X56654635Y-57772664D01*
X56611993Y-57829428D01*
X56598846Y-57837889D01*
X56592383Y-57840448D01*
X56585967Y-57845109D01*
X56585966Y-57845110D01*
X56556625Y-57866428D01*
X56546701Y-57872947D01*
X56515460Y-57891422D01*
X56515455Y-57891426D01*
X56508637Y-57895458D01*
X56494313Y-57909782D01*
X56479281Y-57922621D01*
X56462893Y-57934528D01*
X56457840Y-57940636D01*
X56457838Y-57940638D01*
X56437438Y-57965297D01*
X56422779Y-57979956D01*
X56417981Y-57983001D01*
X56412558Y-57988776D01*
X56371356Y-58032652D01*
X56368601Y-58035494D01*
X56348864Y-58055231D01*
X56346384Y-58058428D01*
X56338681Y-58067448D01*
X56308413Y-58099680D01*
X56304594Y-58106626D01*
X56304592Y-58106629D01*
X56298651Y-58117435D01*
X56287800Y-58133954D01*
X56275385Y-58149960D01*
X56272240Y-58157229D01*
X56272237Y-58157233D01*
X56257825Y-58190538D01*
X56252608Y-58201188D01*
X56231304Y-58239941D01*
X56229333Y-58247616D01*
X56229333Y-58247617D01*
X56226266Y-58259563D01*
X56219862Y-58278267D01*
X56211818Y-58296856D01*
X56210579Y-58304679D01*
X56210576Y-58304689D01*
X56204900Y-58340525D01*
X56202494Y-58352145D01*
X56191499Y-58394971D01*
X56191499Y-58415225D01*
X56189948Y-58434935D01*
X56186779Y-58454944D01*
X56187525Y-58462836D01*
X56190940Y-58498962D01*
X56191499Y-58510820D01*
X56191499Y-66760512D01*
X56171497Y-66828633D01*
X56117841Y-66875126D01*
X56047567Y-66885230D01*
X55983668Y-66856323D01*
X55889416Y-66775824D01*
X55885208Y-66773245D01*
X55885202Y-66773241D01*
X55691183Y-66654346D01*
X55686963Y-66651760D01*
X55682393Y-66649867D01*
X55682389Y-66649865D01*
X55472167Y-66562789D01*
X55472165Y-66562788D01*
X55467594Y-66560895D01*
X55354785Y-66533812D01*
X55241524Y-66506620D01*
X55241518Y-66506619D01*
X55236711Y-66505465D01*
X55000000Y-66486835D01*
X54763289Y-66505465D01*
X54758482Y-66506619D01*
X54758476Y-66506620D01*
X54645215Y-66533812D01*
X54532406Y-66560895D01*
X54527835Y-66562788D01*
X54527833Y-66562789D01*
X54317611Y-66649865D01*
X54317607Y-66649867D01*
X54313037Y-66651760D01*
X54308817Y-66654346D01*
X54114798Y-66773241D01*
X54114792Y-66773245D01*
X54110584Y-66775824D01*
X53930031Y-66930031D01*
X53775824Y-67110584D01*
X53773245Y-67114792D01*
X53773241Y-67114798D01*
X53671070Y-67281526D01*
X53651760Y-67313037D01*
X53649867Y-67317607D01*
X53649865Y-67317611D01*
X53562789Y-67527833D01*
X53560895Y-67532406D01*
X53559740Y-67537218D01*
X53537423Y-67630176D01*
X53505465Y-67763289D01*
X53486835Y-68000000D01*
X53505465Y-68236711D01*
X53506619Y-68241518D01*
X53506620Y-68241524D01*
X53524741Y-68317001D01*
X53560895Y-68467594D01*
X53562788Y-68472165D01*
X53562789Y-68472167D01*
X53618392Y-68606404D01*
X53651760Y-68686963D01*
X53654346Y-68691183D01*
X53773241Y-68885202D01*
X53773245Y-68885208D01*
X53775824Y-68889416D01*
X53930031Y-69069969D01*
X54110584Y-69224176D01*
X54114792Y-69226755D01*
X54114798Y-69226759D01*
X54306335Y-69344133D01*
X54353966Y-69396781D01*
X54366500Y-69451566D01*
X54366500Y-70685405D01*
X54346498Y-70753526D01*
X54329595Y-70774500D01*
X52449500Y-72654595D01*
X52387188Y-72688621D01*
X52360405Y-72691500D01*
X52304513Y-72691500D01*
X52298061Y-72692872D01*
X52298056Y-72692872D01*
X52236296Y-72706000D01*
X52117712Y-72731206D01*
X52111682Y-72733891D01*
X52111681Y-72733891D01*
X51949278Y-72806197D01*
X51949276Y-72806198D01*
X51943248Y-72808882D01*
X51788747Y-72921134D01*
X51730620Y-72985691D01*
X51670174Y-73022930D01*
X51599190Y-73021578D01*
X51540206Y-72982064D01*
X51529840Y-72967683D01*
X51476937Y-72882193D01*
X51467901Y-72870792D01*
X51353171Y-72756261D01*
X51341760Y-72747249D01*
X51203757Y-72662184D01*
X51190576Y-72656037D01*
X51036290Y-72604862D01*
X51022914Y-72601995D01*
X50928562Y-72592328D01*
X50922145Y-72592000D01*
X50672115Y-72592000D01*
X50656876Y-72596475D01*
X50655671Y-72597865D01*
X50654000Y-72605548D01*
X50654000Y-73728000D01*
X50633998Y-73796121D01*
X50580342Y-73842614D01*
X50528000Y-73854000D01*
X50272000Y-73854000D01*
X50203879Y-73833998D01*
X50157386Y-73780342D01*
X50146000Y-73728000D01*
X50146000Y-72610116D01*
X50141525Y-72594877D01*
X50140135Y-72593672D01*
X50132452Y-72592001D01*
X49877905Y-72592001D01*
X49871386Y-72592338D01*
X49775794Y-72602257D01*
X49762400Y-72605149D01*
X49608216Y-72656588D01*
X49595038Y-72662761D01*
X49457193Y-72748063D01*
X49445792Y-72757099D01*
X49331261Y-72871829D01*
X49322249Y-72883240D01*
X49237184Y-73021243D01*
X49231037Y-73034424D01*
X49179862Y-73188710D01*
X49176995Y-73202086D01*
X49167328Y-73296437D01*
X49166958Y-73303676D01*
X49143506Y-73370687D01*
X49087548Y-73414382D01*
X49016850Y-73420887D01*
X48953858Y-73388137D01*
X48940296Y-73372812D01*
X48938704Y-73370687D01*
X48913261Y-73336739D01*
X48796705Y-73249385D01*
X48660316Y-73198255D01*
X48598134Y-73191500D01*
X47001866Y-73191500D01*
X46939684Y-73198255D01*
X46803295Y-73249385D01*
X46686739Y-73336739D01*
X46599385Y-73453295D01*
X46596233Y-73461703D01*
X46596231Y-73461707D01*
X46587599Y-73484731D01*
X46544957Y-73541495D01*
X46478395Y-73566194D01*
X46469618Y-73566500D01*
X46311146Y-73566500D01*
X46243025Y-73546498D01*
X46196532Y-73492842D01*
X46186428Y-73422568D01*
X46190587Y-73403872D01*
X46230379Y-73272903D01*
X46232555Y-73262837D01*
X46233986Y-73251962D01*
X46231775Y-73237778D01*
X46218617Y-73234000D01*
X43583225Y-73234000D01*
X43569694Y-73237973D01*
X43568257Y-73247966D01*
X43598565Y-73382446D01*
X43601645Y-73392277D01*
X43601976Y-73393092D01*
X43602012Y-73393447D01*
X43603193Y-73397217D01*
X43602415Y-73397461D01*
X43609075Y-73463732D01*
X43576855Y-73526997D01*
X43515547Y-73562800D01*
X43485235Y-73566500D01*
X43130382Y-73566500D01*
X43062261Y-73546498D01*
X43015768Y-73492842D01*
X43012401Y-73484731D01*
X43003769Y-73461707D01*
X43003767Y-73461703D01*
X43000615Y-73453295D01*
X42913261Y-73336739D01*
X42796705Y-73249385D01*
X42660316Y-73198255D01*
X42598134Y-73191500D01*
X41001866Y-73191500D01*
X40939684Y-73198255D01*
X40803295Y-73249385D01*
X40686739Y-73336739D01*
X40599385Y-73453295D01*
X40548255Y-73589684D01*
X40541500Y-73651866D01*
X40541500Y-74740500D01*
X40521498Y-74808621D01*
X40467842Y-74855114D01*
X40415500Y-74866500D01*
X40076805Y-74866500D01*
X40008684Y-74846498D01*
X39971013Y-74808940D01*
X39882822Y-74672617D01*
X39882820Y-74672614D01*
X39880014Y-74668277D01*
X39729670Y-74503051D01*
X39725619Y-74499852D01*
X39725615Y-74499848D01*
X39558414Y-74367800D01*
X39558410Y-74367798D01*
X39554359Y-74364598D01*
X39545159Y-74359519D01*
X39521587Y-74346507D01*
X39512569Y-74341529D01*
X39462598Y-74291097D01*
X39447826Y-74221654D01*
X39472942Y-74155248D01*
X39500294Y-74128641D01*
X39675328Y-74003792D01*
X39683200Y-73997139D01*
X39834052Y-73846812D01*
X39840730Y-73838965D01*
X39965003Y-73666020D01*
X39970313Y-73657183D01*
X40064670Y-73466267D01*
X40068469Y-73456672D01*
X40130377Y-73252910D01*
X40132555Y-73242837D01*
X40133986Y-73231962D01*
X40131775Y-73217778D01*
X40118617Y-73214000D01*
X38672000Y-73214000D01*
X38603879Y-73193998D01*
X38557386Y-73140342D01*
X38546000Y-73088000D01*
X38546000Y-72832000D01*
X38566002Y-72763879D01*
X38619658Y-72717386D01*
X38672000Y-72706000D01*
X40118344Y-72706000D01*
X40131875Y-72702027D01*
X40133180Y-72692947D01*
X40091214Y-72525875D01*
X40087894Y-72516124D01*
X40002972Y-72320814D01*
X39998105Y-72311739D01*
X39882426Y-72132926D01*
X39876136Y-72124757D01*
X39732806Y-71967240D01*
X39725273Y-71960216D01*
X39714251Y-71951511D01*
X39673188Y-71893594D01*
X39669956Y-71822671D01*
X39705581Y-71761260D01*
X39759995Y-71731780D01*
X39760316Y-71731745D01*
X39896705Y-71680615D01*
X40013261Y-71593261D01*
X40100615Y-71476705D01*
X40151745Y-71340316D01*
X40158500Y-71278134D01*
X40158500Y-71139500D01*
X40178502Y-71071379D01*
X40232158Y-71024886D01*
X40284500Y-71013500D01*
X40793233Y-71013500D01*
X40804416Y-71014027D01*
X40811909Y-71015702D01*
X40819835Y-71015453D01*
X40819836Y-71015453D01*
X40879986Y-71013562D01*
X40883945Y-71013500D01*
X40911856Y-71013500D01*
X40915791Y-71013003D01*
X40915856Y-71012995D01*
X40927693Y-71012062D01*
X40959951Y-71011048D01*
X40963970Y-71010922D01*
X40971889Y-71010673D01*
X40991343Y-71005021D01*
X41010700Y-71001013D01*
X41022930Y-70999468D01*
X41022931Y-70999468D01*
X41030797Y-70998474D01*
X41038168Y-70995555D01*
X41038170Y-70995555D01*
X41071912Y-70982196D01*
X41083142Y-70978351D01*
X41117983Y-70968229D01*
X41117984Y-70968229D01*
X41125593Y-70966018D01*
X41132412Y-70961985D01*
X41132417Y-70961983D01*
X41143028Y-70955707D01*
X41160776Y-70947012D01*
X41179617Y-70939552D01*
X41215387Y-70913564D01*
X41225307Y-70907048D01*
X41256535Y-70888580D01*
X41256538Y-70888578D01*
X41263362Y-70884542D01*
X41277683Y-70870221D01*
X41292717Y-70857380D01*
X41302694Y-70850131D01*
X41309107Y-70845472D01*
X41337298Y-70811395D01*
X41345288Y-70802616D01*
X43339502Y-68808402D01*
X43401814Y-68774376D01*
X43472629Y-68779441D01*
X43529465Y-68821988D01*
X43547542Y-68860583D01*
X43548255Y-68860316D01*
X43599385Y-68996705D01*
X43686739Y-69113261D01*
X43803295Y-69200615D01*
X43811704Y-69203767D01*
X43811705Y-69203768D01*
X43920451Y-69244535D01*
X43977216Y-69287176D01*
X44001916Y-69353738D01*
X43986709Y-69423087D01*
X43967316Y-69449568D01*
X43871154Y-69550196D01*
X43840629Y-69582138D01*
X43714743Y-69766680D01*
X43699273Y-69800008D01*
X43630356Y-69948478D01*
X43620688Y-69969305D01*
X43560989Y-70184570D01*
X43537251Y-70406695D01*
X43537548Y-70411848D01*
X43537548Y-70411851D01*
X43547746Y-70588710D01*
X43550110Y-70629715D01*
X43551247Y-70634761D01*
X43551248Y-70634767D01*
X43561221Y-70679017D01*
X43599222Y-70847639D01*
X43683266Y-71054616D01*
X43693981Y-71072101D01*
X43777260Y-71208000D01*
X43799987Y-71245088D01*
X43946250Y-71413938D01*
X44118126Y-71556632D01*
X44168522Y-71586081D01*
X44191955Y-71599774D01*
X44240679Y-71651412D01*
X44253750Y-71721195D01*
X44227019Y-71786967D01*
X44186562Y-71820327D01*
X44178457Y-71824546D01*
X44169738Y-71830036D01*
X43999433Y-71957905D01*
X43991726Y-71964748D01*
X43844590Y-72118717D01*
X43838104Y-72126727D01*
X43718098Y-72302649D01*
X43713000Y-72311623D01*
X43623338Y-72504783D01*
X43619775Y-72514470D01*
X43564389Y-72714183D01*
X43565912Y-72722607D01*
X43578292Y-72726000D01*
X46218344Y-72726000D01*
X46231875Y-72722027D01*
X46233180Y-72712947D01*
X46191214Y-72545875D01*
X46187894Y-72536124D01*
X46102972Y-72340814D01*
X46098105Y-72331739D01*
X45982426Y-72152926D01*
X45976136Y-72144757D01*
X45832806Y-71987240D01*
X45825273Y-71980215D01*
X45658139Y-71848222D01*
X45649556Y-71842520D01*
X45612602Y-71822120D01*
X45562631Y-71771687D01*
X45547859Y-71702245D01*
X45572975Y-71635839D01*
X45600327Y-71609232D01*
X45632230Y-71586476D01*
X45779860Y-71481173D01*
X45783667Y-71477380D01*
X45880282Y-71381101D01*
X45938096Y-71323489D01*
X45953392Y-71302203D01*
X46065435Y-71146277D01*
X46068453Y-71142077D01*
X46075109Y-71128611D01*
X46165136Y-70946453D01*
X46165137Y-70946451D01*
X46167430Y-70941811D01*
X46232370Y-70728069D01*
X46261529Y-70506590D01*
X46263156Y-70440000D01*
X46244852Y-70217361D01*
X46190431Y-70000702D01*
X46101354Y-69795840D01*
X46039444Y-69700142D01*
X45982822Y-69612617D01*
X45982820Y-69612614D01*
X45980014Y-69608277D01*
X45976532Y-69604450D01*
X45832798Y-69446488D01*
X45801746Y-69382642D01*
X45810141Y-69312143D01*
X45855317Y-69257375D01*
X45881761Y-69243706D01*
X45988297Y-69203767D01*
X45996705Y-69200615D01*
X46113261Y-69113261D01*
X46200615Y-68996705D01*
X46251745Y-68860316D01*
X46258500Y-68798134D01*
X46258500Y-67001866D01*
X46251745Y-66939684D01*
X46200615Y-66803295D01*
X46113261Y-66686739D01*
X45996705Y-66599385D01*
X45860316Y-66548255D01*
X45798134Y-66541500D01*
X44001866Y-66541500D01*
X43939684Y-66548255D01*
X43803295Y-66599385D01*
X43686739Y-66686739D01*
X43599385Y-66803295D01*
X43548255Y-66939684D01*
X43541500Y-67001866D01*
X43541500Y-67139056D01*
X43521498Y-67207177D01*
X43467842Y-67253670D01*
X43412054Y-67263079D01*
X43412092Y-67264298D01*
X43344002Y-67266438D01*
X43340044Y-67266500D01*
X43312144Y-67266500D01*
X43308154Y-67267004D01*
X43296320Y-67267936D01*
X43252111Y-67269326D01*
X43244495Y-67271539D01*
X43244493Y-67271539D01*
X43232652Y-67274979D01*
X43213293Y-67278988D01*
X43211983Y-67279154D01*
X43193203Y-67281526D01*
X43185837Y-67284442D01*
X43185831Y-67284444D01*
X43152098Y-67297800D01*
X43140868Y-67301645D01*
X43106017Y-67311770D01*
X43098407Y-67313981D01*
X43091584Y-67318016D01*
X43080966Y-67324295D01*
X43063213Y-67332992D01*
X43059276Y-67334551D01*
X43044383Y-67340448D01*
X43037968Y-67345109D01*
X43008612Y-67366437D01*
X42998695Y-67372951D01*
X42960638Y-67395458D01*
X42946317Y-67409779D01*
X42931284Y-67422619D01*
X42914893Y-67434528D01*
X42892672Y-67461389D01*
X42886702Y-67468605D01*
X42878712Y-67477384D01*
X40646500Y-69709595D01*
X40584188Y-69743621D01*
X40557405Y-69746500D01*
X40284500Y-69746500D01*
X40216379Y-69726498D01*
X40169886Y-69672842D01*
X40158500Y-69620500D01*
X40158500Y-69481866D01*
X40151745Y-69419684D01*
X40100615Y-69283295D01*
X40013261Y-69166739D01*
X39896705Y-69079385D01*
X39888296Y-69076233D01*
X39888295Y-69076232D01*
X39807371Y-69045895D01*
X39750606Y-69003254D01*
X39725906Y-68936692D01*
X39741113Y-68867343D01*
X39762660Y-68838662D01*
X39834435Y-68767137D01*
X39838096Y-68763489D01*
X39869391Y-68719938D01*
X39965435Y-68586277D01*
X39968453Y-68582077D01*
X39979292Y-68560147D01*
X40065136Y-68386453D01*
X40065137Y-68386451D01*
X40067430Y-68381811D01*
X40120815Y-68206101D01*
X40130865Y-68173023D01*
X40130865Y-68173021D01*
X40132370Y-68168069D01*
X40161529Y-67946590D01*
X40162357Y-67912712D01*
X40163074Y-67883365D01*
X40163074Y-67883361D01*
X40163156Y-67880000D01*
X40144852Y-67657361D01*
X40090431Y-67440702D01*
X40001354Y-67235840D01*
X39929075Y-67124113D01*
X39882822Y-67052617D01*
X39882820Y-67052614D01*
X39880014Y-67048277D01*
X39729670Y-66883051D01*
X39725619Y-66879852D01*
X39725615Y-66879848D01*
X39558414Y-66747800D01*
X39558410Y-66747798D01*
X39554359Y-66744598D01*
X39546246Y-66740119D01*
X39449547Y-66686739D01*
X39358789Y-66636638D01*
X39353920Y-66634914D01*
X39353916Y-66634912D01*
X39153087Y-66563795D01*
X39153083Y-66563794D01*
X39148212Y-66562069D01*
X39143119Y-66561162D01*
X39143116Y-66561161D01*
X38933373Y-66523800D01*
X38933367Y-66523799D01*
X38928284Y-66522894D01*
X38854452Y-66521992D01*
X38710081Y-66520228D01*
X38710079Y-66520228D01*
X38704911Y-66520165D01*
X38484091Y-66553955D01*
X38271756Y-66623357D01*
X38241443Y-66639137D01*
X38100528Y-66712493D01*
X38073607Y-66726507D01*
X38069474Y-66729610D01*
X38069471Y-66729612D01*
X37900708Y-66856323D01*
X37894965Y-66860635D01*
X37740629Y-67022138D01*
X37737715Y-67026410D01*
X37737714Y-67026411D01*
X37725404Y-67044457D01*
X37664581Y-67133621D01*
X37638088Y-67172458D01*
X37583177Y-67217461D01*
X37512652Y-67225632D01*
X37448905Y-67194378D01*
X37412175Y-67133621D01*
X37408000Y-67101454D01*
X37408000Y-63104543D01*
X37428002Y-63036422D01*
X37481658Y-62989929D01*
X37519892Y-62979335D01*
X37685888Y-62960631D01*
X37870646Y-62939814D01*
X37872956Y-62939377D01*
X38346857Y-62849711D01*
X38346869Y-62849708D01*
X38349180Y-62849271D01*
X38491546Y-62811124D01*
X38817330Y-62723831D01*
X38817338Y-62723828D01*
X38819609Y-62723220D01*
X39279303Y-62562366D01*
X39610320Y-62417945D01*
X39723537Y-62368549D01*
X39723542Y-62368547D01*
X39725691Y-62367609D01*
X39727763Y-62366514D01*
X40154213Y-62141129D01*
X40154216Y-62141127D01*
X40156277Y-62140038D01*
X40229206Y-62094214D01*
X40566656Y-61882180D01*
X40566660Y-61882177D01*
X40568653Y-61880925D01*
X40602316Y-61856081D01*
X40731014Y-61761097D01*
X40960511Y-61591720D01*
X41329662Y-61274040D01*
X41674040Y-60929662D01*
X41991720Y-60560511D01*
X42209234Y-60265791D01*
X42279523Y-60170553D01*
X42279526Y-60170548D01*
X42280925Y-60168653D01*
X42306541Y-60127885D01*
X42538791Y-59758262D01*
X42538794Y-59758257D01*
X42540038Y-59756277D01*
X42541640Y-59753247D01*
X42766514Y-59327763D01*
X42766515Y-59327761D01*
X42767609Y-59325691D01*
X42780516Y-59296109D01*
X42800633Y-59250000D01*
X51786526Y-59250000D01*
X51806391Y-59502403D01*
X51807545Y-59507210D01*
X51807546Y-59507216D01*
X51823322Y-59572926D01*
X51865495Y-59748591D01*
X51867388Y-59753162D01*
X51867389Y-59753164D01*
X51955497Y-59965875D01*
X51962384Y-59982502D01*
X52094672Y-60198376D01*
X52259102Y-60390898D01*
X52451624Y-60555328D01*
X52667498Y-60687616D01*
X52672068Y-60689509D01*
X52672072Y-60689511D01*
X52717916Y-60708500D01*
X52901409Y-60784505D01*
X52986032Y-60804821D01*
X53142784Y-60842454D01*
X53142790Y-60842455D01*
X53147597Y-60843609D01*
X53247416Y-60851465D01*
X53334345Y-60858307D01*
X53334352Y-60858307D01*
X53336801Y-60858500D01*
X53463199Y-60858500D01*
X53465648Y-60858307D01*
X53465655Y-60858307D01*
X53552584Y-60851465D01*
X53652403Y-60843609D01*
X53657210Y-60842455D01*
X53657216Y-60842454D01*
X53813968Y-60804821D01*
X53898591Y-60784505D01*
X54082084Y-60708500D01*
X54127928Y-60689511D01*
X54127932Y-60689509D01*
X54132502Y-60687616D01*
X54348376Y-60555328D01*
X54540898Y-60390898D01*
X54705328Y-60198376D01*
X54837616Y-59982502D01*
X54844504Y-59965875D01*
X54932611Y-59753164D01*
X54932612Y-59753162D01*
X54934505Y-59748591D01*
X54976678Y-59572926D01*
X54992454Y-59507216D01*
X54992455Y-59507210D01*
X54993609Y-59502403D01*
X55013474Y-59250000D01*
X54993609Y-58997597D01*
X54989585Y-58980832D01*
X54935660Y-58756221D01*
X54934505Y-58751409D01*
X54932611Y-58746836D01*
X54839511Y-58522072D01*
X54839509Y-58522068D01*
X54837616Y-58517498D01*
X54705328Y-58301624D01*
X54540898Y-58109102D01*
X54348376Y-57944672D01*
X54132502Y-57812384D01*
X54127932Y-57810491D01*
X54127928Y-57810489D01*
X53903164Y-57717389D01*
X53903162Y-57717388D01*
X53898591Y-57715495D01*
X53787568Y-57688841D01*
X53657216Y-57657546D01*
X53657210Y-57657545D01*
X53652403Y-57656391D01*
X53536106Y-57647238D01*
X53465655Y-57641693D01*
X53465648Y-57641693D01*
X53463199Y-57641500D01*
X53336801Y-57641500D01*
X53334352Y-57641693D01*
X53334345Y-57641693D01*
X53263894Y-57647238D01*
X53147597Y-57656391D01*
X53142790Y-57657545D01*
X53142784Y-57657546D01*
X53012432Y-57688841D01*
X52901409Y-57715495D01*
X52896838Y-57717388D01*
X52896836Y-57717389D01*
X52672072Y-57810489D01*
X52672068Y-57810491D01*
X52667498Y-57812384D01*
X52451624Y-57944672D01*
X52259102Y-58109102D01*
X52094672Y-58301624D01*
X51962384Y-58517498D01*
X51960491Y-58522068D01*
X51960489Y-58522072D01*
X51867389Y-58746836D01*
X51865495Y-58751409D01*
X51864340Y-58756221D01*
X51810416Y-58980832D01*
X51806391Y-58997597D01*
X51786526Y-59250000D01*
X42800633Y-59250000D01*
X42866345Y-59099385D01*
X42962366Y-58879303D01*
X43123220Y-58419609D01*
X43144411Y-58340525D01*
X43248661Y-57951456D01*
X43249271Y-57949180D01*
X43250613Y-57942090D01*
X43339377Y-57472956D01*
X43339377Y-57472954D01*
X43339814Y-57470646D01*
X43367916Y-57221238D01*
X43379335Y-57119892D01*
X43406839Y-57054439D01*
X43465363Y-57014247D01*
X43504543Y-57008000D01*
X59142946Y-57008000D01*
X59211067Y-57028002D01*
G37*
%TD.AperFunction*%
%TA.AperFunction,Conductor*%
G36*
X68856989Y-70153502D02*
G01*
X68903482Y-70207158D01*
X68913586Y-70277432D01*
X68896128Y-70325615D01*
X68837186Y-70421238D01*
X68831037Y-70434424D01*
X68779862Y-70588710D01*
X68776995Y-70602086D01*
X68767328Y-70696438D01*
X68767000Y-70702855D01*
X68767000Y-70727885D01*
X68771475Y-70743124D01*
X68772865Y-70744329D01*
X68780548Y-70746000D01*
X70128000Y-70746000D01*
X70196121Y-70766002D01*
X70242614Y-70819658D01*
X70254000Y-70872000D01*
X70254000Y-71128000D01*
X70233998Y-71196121D01*
X70180342Y-71242614D01*
X70128000Y-71254000D01*
X68785116Y-71254000D01*
X68769877Y-71258475D01*
X68768672Y-71259865D01*
X68767001Y-71267548D01*
X68767001Y-71297095D01*
X68767338Y-71303614D01*
X68777257Y-71399206D01*
X68780149Y-71412600D01*
X68809804Y-71501487D01*
X68812388Y-71572436D01*
X68776205Y-71633520D01*
X68712740Y-71665345D01*
X68639032Y-71656470D01*
X68588321Y-71633892D01*
X68588313Y-71633889D01*
X68582286Y-71631206D01*
X68488886Y-71611353D01*
X68401942Y-71592872D01*
X68401937Y-71592872D01*
X68395485Y-71591500D01*
X68204511Y-71591500D01*
X68198059Y-71592872D01*
X68198054Y-71592872D01*
X68080939Y-71617766D01*
X68010148Y-71612364D01*
X67953516Y-71569547D01*
X67929022Y-71502909D01*
X67936760Y-71450290D01*
X67948971Y-71417718D01*
X67948973Y-71417712D01*
X67951745Y-71410316D01*
X67958500Y-71348134D01*
X67958500Y-70259500D01*
X67978502Y-70191379D01*
X68032158Y-70144886D01*
X68084500Y-70133500D01*
X68788868Y-70133500D01*
X68856989Y-70153502D01*
G37*
%TD.AperFunction*%
%TD*%
M02*
