%TF.GenerationSoftware,KiCad,Pcbnew,6.0.2+dfsg-1*%
%TF.CreationDate,2022-11-26T14:15:53-05:00*%
%TF.ProjectId,vindick,76696e64-6963-46b2-9e6b-696361645f70,rev?*%
%TF.SameCoordinates,Original*%
%TF.FileFunction,Soldermask,Bot*%
%TF.FilePolarity,Negative*%
%FSLAX46Y46*%
G04 Gerber Fmt 4.6, Leading zero omitted, Abs format (unit mm)*
G04 Created by KiCad (PCBNEW 6.0.2+dfsg-1) date 2022-11-26 14:15:53*
%MOMM*%
%LPD*%
G01*
G04 APERTURE LIST*
G04 Aperture macros list*
%AMRoundRect*
0 Rectangle with rounded corners*
0 $1 Rounding radius*
0 $2 $3 $4 $5 $6 $7 $8 $9 X,Y pos of 4 corners*
0 Add a 4 corners polygon primitive as box body*
4,1,4,$2,$3,$4,$5,$6,$7,$8,$9,$2,$3,0*
0 Add four circle primitives for the rounded corners*
1,1,$1+$1,$2,$3*
1,1,$1+$1,$4,$5*
1,1,$1+$1,$6,$7*
1,1,$1+$1,$8,$9*
0 Add four rect primitives between the rounded corners*
20,1,$1+$1,$2,$3,$4,$5,0*
20,1,$1+$1,$4,$5,$6,$7,0*
20,1,$1+$1,$6,$7,$8,$9,0*
20,1,$1+$1,$8,$9,$2,$3,0*%
G04 Aperture macros list end*
%ADD10R,1.700000X1.700000*%
%ADD11O,1.700000X1.700000*%
%ADD12R,2.000000X2.000000*%
%ADD13C,2.000000*%
%ADD14R,1.000000X2.000000*%
%ADD15C,0.520000*%
%ADD16O,2.200000X1.100000*%
%ADD17C,2.200000*%
%ADD18RoundRect,0.250000X-0.475000X0.250000X-0.475000X-0.250000X0.475000X-0.250000X0.475000X0.250000X0*%
%ADD19R,1.000000X1.500000*%
G04 APERTURE END LIST*
D10*
%TO.C,I2C1*%
X38800000Y-70380000D03*
D11*
X38800000Y-67880000D03*
X38800000Y-72960000D03*
X38800000Y-75500000D03*
%TD*%
D12*
%TO.C,BZ1*%
X62600000Y-68000000D03*
D13*
X55000000Y-68000000D03*
%TD*%
D14*
%TO.C,J3*%
X64900000Y-120200000D03*
X62900000Y-120200000D03*
X60900000Y-120200000D03*
X58900000Y-120200000D03*
X56900000Y-120200000D03*
X54900000Y-120200000D03*
%TD*%
%TO.C,J2*%
X64900000Y-116000000D03*
X62900000Y-116000000D03*
X60900000Y-116000000D03*
X58900000Y-116000000D03*
X56900000Y-116000000D03*
X54900000Y-116000000D03*
%TD*%
D15*
%TO.C,J1*%
X63650000Y-129800000D03*
X56150000Y-129800000D03*
D16*
X57500000Y-127650000D03*
X62300000Y-127650000D03*
%TD*%
D17*
%TO.C,REF\u002A\u002A*%
X52400000Y-126000000D03*
%TD*%
%TO.C,REF\u002A\u002A*%
X67400000Y-126000000D03*
%TD*%
%TO.C,REF\u002A\u002A*%
X53400000Y-59250000D03*
%TD*%
D10*
%TO.C,I2C2*%
X44900000Y-67900000D03*
D11*
X44900000Y-70440000D03*
X44900000Y-72980000D03*
X44900000Y-75520000D03*
%TD*%
D10*
%TO.C,I2C3*%
X66920000Y-64700000D03*
D11*
X69460000Y-64700000D03*
X72000000Y-64700000D03*
X74540000Y-64700000D03*
%TD*%
D10*
%TO.C,I2C4*%
X63800000Y-60400000D03*
D11*
X66340000Y-60400000D03*
X71420000Y-60400000D03*
X68880000Y-60400000D03*
%TD*%
D18*
%TO.C,C2*%
X53400000Y-97300000D03*
X53400000Y-99200000D03*
%TD*%
%TO.C,C3*%
X53400000Y-86500000D03*
X53400000Y-88400000D03*
%TD*%
%TO.C,C5*%
X53500000Y-80300000D03*
X53500000Y-82200000D03*
%TD*%
D19*
%TO.C,D3*%
X58400000Y-85050000D03*
X61600000Y-85050000D03*
X61600000Y-89950000D03*
X58400000Y-89950000D03*
%TD*%
%TO.C,D4*%
X58400000Y-75550000D03*
X61600000Y-75550000D03*
X61600000Y-80450000D03*
X58400000Y-80450000D03*
%TD*%
%TO.C,D2*%
X58400000Y-95550000D03*
X61600000Y-95550000D03*
X61600000Y-100450000D03*
X58400000Y-100450000D03*
%TD*%
M02*
