%TF.GenerationSoftware,KiCad,Pcbnew,6.0.2+dfsg-1*%
%TF.CreationDate,2022-11-26T14:15:53-05:00*%
%TF.ProjectId,vindick,76696e64-6963-46b2-9e6b-696361645f70,rev?*%
%TF.SameCoordinates,Original*%
%TF.FileFunction,Legend,Top*%
%TF.FilePolarity,Positive*%
%FSLAX46Y46*%
G04 Gerber Fmt 4.6, Leading zero omitted, Abs format (unit mm)*
G04 Created by KiCad (PCBNEW 6.0.2+dfsg-1) date 2022-11-26 14:15:53*
%MOMM*%
%LPD*%
G01*
G04 APERTURE LIST*
%ADD10C,0.250000*%
%ADD11C,0.316249*%
%ADD12C,0.187500*%
%ADD13C,0.066145*%
%ADD14C,0.150000*%
%ADD15C,0.120000*%
%ADD16C,0.200000*%
G04 APERTURE END LIST*
D10*
X65207651Y-97385191D02*
X65462849Y-97178409D01*
X54465333Y-88843526D02*
X54336909Y-88876657D01*
X53285331Y-89705366D02*
X53227033Y-89814634D01*
X65549178Y-94027087D02*
X65629384Y-93877615D01*
X53260246Y-95260863D02*
X53428350Y-95398107D01*
D11*
X61023036Y-103190784D02*
X61023036Y-103190784D01*
D10*
X55034431Y-104200573D02*
X54885760Y-104430062D01*
X54331319Y-95963234D02*
X54475758Y-96036132D01*
X66556626Y-94218024D02*
X66588205Y-94146495D01*
X55878093Y-93610839D02*
X55853036Y-92758918D01*
X66110373Y-94933576D02*
X66144973Y-94880173D01*
X55167887Y-103975678D02*
X55034431Y-104200573D01*
X53109738Y-95124806D02*
X53260246Y-95260863D01*
X56145364Y-91339046D02*
X56145364Y-91339046D01*
X53873907Y-89086951D02*
X53771691Y-89157375D01*
X53350419Y-89600692D02*
X53285331Y-89705366D01*
X65722629Y-96951025D02*
X65983145Y-96703434D01*
X54984410Y-93652599D02*
X54984410Y-93652599D01*
D11*
X60154408Y-106222624D02*
X58450564Y-103566634D01*
X55435431Y-97444492D02*
X54383058Y-94437702D01*
X55435431Y-97444492D02*
X55435431Y-97444492D01*
D10*
X53413981Y-106557912D02*
X53612490Y-106654594D01*
X55486982Y-88865014D02*
X55329093Y-88832566D01*
X53253671Y-97593199D02*
X53531136Y-97745166D01*
X56057980Y-106757605D02*
X56192614Y-106588182D01*
X54594994Y-107015716D02*
X54902213Y-107097857D01*
X54078070Y-92792695D02*
X54285402Y-93015015D01*
X54720952Y-104662948D02*
X54539087Y-104898037D01*
X65467205Y-94170757D02*
X65549178Y-94027087D01*
D11*
X63144488Y-91773359D02*
X63144488Y-91773359D01*
X58200000Y-92500000D02*
X59937253Y-95272918D01*
D10*
X64948350Y-94918442D02*
X65037141Y-94806766D01*
X52395810Y-105950838D02*
X52721571Y-106156018D01*
X65629384Y-93877615D02*
X65707642Y-93722205D01*
X63186248Y-96383758D02*
X63438315Y-96227748D01*
X52736484Y-94721630D02*
X52850587Y-94855404D01*
X52120228Y-95515864D02*
X52186437Y-95573600D01*
X55486176Y-103340505D02*
X55392838Y-103544448D01*
X53675233Y-89234304D02*
X53584704Y-89317418D01*
X54475758Y-96036132D02*
X54628350Y-96109620D01*
X64769432Y-95127346D02*
X64948350Y-94918442D01*
X53943505Y-95747817D02*
X54065533Y-95819103D01*
D11*
X51109006Y-98296413D02*
X55435431Y-97444492D01*
D10*
X61441543Y-107203678D02*
X61624391Y-107458738D01*
X52052800Y-105746546D02*
X52227909Y-105848407D01*
X52997741Y-97441668D02*
X53253671Y-97593199D01*
X60680915Y-105950322D02*
X60818813Y-106198960D01*
X53175697Y-89928177D02*
X53131495Y-90045679D01*
X67428839Y-94628845D02*
X67504318Y-94437702D01*
X53719469Y-95606668D02*
X53828263Y-95677014D01*
X55853036Y-92758918D02*
X56404279Y-93009483D01*
X51645248Y-96364166D02*
X51805087Y-96522310D01*
X56404279Y-93009483D02*
X56512856Y-92349659D01*
X53044027Y-90486983D02*
X53040057Y-90599783D01*
X54739870Y-93445695D02*
X54984410Y-93652599D01*
X53981709Y-89023348D02*
X53873907Y-89086951D01*
X62672940Y-104828692D02*
X62590887Y-104657335D01*
D11*
X64029819Y-104418554D02*
X64029819Y-104418554D01*
D10*
X55460486Y-91731600D02*
X55460486Y-91731600D01*
X61271438Y-106950438D02*
X61441543Y-107203678D01*
X56862403Y-89534436D02*
X56681163Y-89407943D01*
D11*
X62234101Y-96458930D02*
X62234101Y-96458930D01*
D10*
X53709706Y-92337732D02*
X53885739Y-92566691D01*
X51998356Y-95401709D02*
X52057608Y-95458576D01*
X66240551Y-96436032D02*
X66491002Y-96149214D01*
X56145364Y-91339046D02*
X57097510Y-91222116D01*
X52052800Y-105746546D02*
X52052800Y-105746546D01*
X56974904Y-105343221D02*
X57068655Y-105158736D01*
X66457931Y-94408869D02*
X66491409Y-94348730D01*
X51659477Y-95013125D02*
X51701295Y-95067813D01*
X53054994Y-90375082D02*
X53044027Y-90486983D01*
X67061461Y-95349813D02*
X67162163Y-95176210D01*
X63943816Y-107011883D02*
X64169360Y-106919692D01*
X53073119Y-90264170D02*
X53054994Y-90375082D01*
X57197734Y-92458240D02*
X57197734Y-92458240D01*
X56502239Y-89294319D02*
X56325804Y-89193246D01*
X64062374Y-95790043D02*
X64234962Y-95648154D01*
X66491409Y-94348730D02*
X66524334Y-94285275D01*
X54339241Y-105134132D02*
X54120495Y-105370038D01*
X55174896Y-88810441D02*
X55024565Y-88798321D01*
X63595502Y-105972052D02*
X63530508Y-105938304D01*
D11*
X63353291Y-98839301D02*
X63353291Y-98839301D01*
D10*
X53411731Y-91873858D02*
X53551271Y-92106545D01*
X53068503Y-90942662D02*
X53090896Y-91058146D01*
X62430053Y-104307532D02*
X62268579Y-103959117D01*
X55916408Y-106924471D02*
X56057980Y-106757605D01*
X54336909Y-88876657D02*
X54213382Y-88917883D01*
X62592444Y-107376785D02*
X62890531Y-107322181D01*
X63181710Y-105646619D02*
X63129563Y-105585035D01*
D11*
X54383058Y-94437702D02*
X57289613Y-95640419D01*
D10*
X62590887Y-104657335D02*
X62430053Y-104307532D01*
X66389638Y-94521121D02*
X66423981Y-94466173D01*
X57097510Y-91222116D02*
X57097510Y-91222116D01*
X61112199Y-106698750D02*
X61271438Y-106950438D01*
X54598483Y-88818808D02*
X54465333Y-88843526D01*
X54736187Y-88802823D02*
X54598483Y-88818808D01*
X54902213Y-107097857D02*
X55239858Y-107176047D01*
X55239858Y-107176047D02*
X55610826Y-107249937D01*
X53229415Y-105641102D02*
X52997587Y-105660443D01*
X52629056Y-94588191D02*
X52736484Y-94721630D01*
X65257585Y-106297785D02*
X65257585Y-106297785D01*
X52423305Y-94321460D02*
X52629056Y-94588191D01*
X56325804Y-89193246D02*
X56152030Y-89104407D01*
X65462849Y-97178409D02*
X65722629Y-96951025D01*
X56669893Y-105887923D02*
X56775929Y-105707964D01*
X64745687Y-106634775D02*
X65040293Y-106454582D01*
X55639185Y-102961939D02*
X55567985Y-103145936D01*
D11*
X56145366Y-102322162D02*
X52963189Y-102405681D01*
X62910626Y-101370013D02*
X64029819Y-104418554D01*
D10*
X50582819Y-95172695D02*
X51193442Y-95874396D01*
X65383646Y-94308757D02*
X65467205Y-94170757D01*
X66588205Y-94146495D02*
X66618992Y-94070209D01*
X56512856Y-92349659D02*
X57197734Y-92458240D01*
X63029557Y-105452577D02*
X62934641Y-105309088D01*
X54194691Y-95890900D02*
X54331319Y-95963234D01*
X53551271Y-92106545D02*
X53709706Y-92337732D01*
X53519853Y-95467242D02*
X53616779Y-95536753D01*
D11*
X65366166Y-96367057D02*
X65366166Y-96367057D01*
D10*
X55567985Y-103145936D02*
X55486176Y-103340505D01*
D11*
X55953265Y-105495985D02*
X56145366Y-102322162D01*
D10*
X56681163Y-89407943D02*
X56502239Y-89294319D01*
X57045788Y-89674117D02*
X56862403Y-89534436D01*
X57097510Y-91222116D02*
X56187123Y-90203152D01*
D11*
X60154408Y-106222624D02*
X60154408Y-106222624D01*
D10*
X64134999Y-98096248D02*
X64309598Y-97998400D01*
X63702558Y-107099898D02*
X63943816Y-107011883D01*
X57197734Y-92458240D02*
X56613082Y-91288935D01*
X64508008Y-97877976D02*
X64726385Y-97735370D01*
X66423981Y-94466173D02*
X66457931Y-94408869D01*
X54065533Y-95819103D02*
X54194691Y-95890900D01*
X55287048Y-103756571D02*
X55167887Y-103975678D01*
X51506131Y-94796115D02*
X51580458Y-94904327D01*
X64960881Y-97570976D02*
X65207651Y-97385191D01*
X63129563Y-105585035D02*
X63029557Y-105452577D01*
X57068655Y-105158736D02*
X57246716Y-104786288D01*
X54285402Y-93015015D02*
X54506435Y-93232924D01*
D11*
X52963189Y-102405681D02*
X52963189Y-102405681D01*
D10*
X53673616Y-105612145D02*
X53455435Y-105624664D01*
X66524334Y-94285275D02*
X66556626Y-94218024D01*
X54213382Y-88917883D02*
X54094925Y-88966886D01*
X55329093Y-88832566D02*
X55174896Y-88810441D01*
X53227033Y-89814634D02*
X53175697Y-89928177D01*
X51701295Y-95067813D02*
X51744945Y-95122730D01*
X56320716Y-106416353D02*
X56442692Y-106242267D01*
X63467630Y-105899970D02*
X63406775Y-105857253D01*
X63446190Y-107182066D02*
X63702558Y-107099898D01*
X53616779Y-95536753D02*
X53719469Y-95606668D01*
X62844067Y-105156195D02*
X62757083Y-104995521D01*
X55610826Y-107249937D02*
X55767492Y-107088632D01*
X52339641Y-96986241D02*
X52542678Y-97138535D01*
X55853036Y-92758918D02*
X55853036Y-92758918D01*
X66076100Y-94988948D02*
X66110373Y-94933576D01*
X52885220Y-106258072D02*
X53053241Y-106359304D01*
D12*
X54399762Y-89985994D02*
X55201571Y-90111277D01*
D13*
X64572707Y-91673136D02*
X64637525Y-91569167D01*
X64637525Y-91569167D02*
X64694748Y-91472793D01*
X64694748Y-91472793D02*
X64794460Y-91294779D01*
X64794460Y-91294779D02*
X64887945Y-91122992D01*
X64887945Y-91122992D02*
X64937384Y-91034402D01*
X64937384Y-91034402D02*
X64991305Y-90941330D01*
X64991305Y-90941330D02*
X65051720Y-90841765D01*
X65051720Y-90841765D02*
X65120642Y-90733692D01*
X65120642Y-90733692D02*
X65200084Y-90615099D01*
X65200084Y-90615099D02*
X65292058Y-90483975D01*
X65292058Y-90483975D02*
X65398577Y-90338305D01*
X65398577Y-90338305D02*
X65521654Y-90176077D01*
X65521654Y-90176077D02*
X65663302Y-89995278D01*
X65663302Y-89995278D02*
X65825534Y-89793896D01*
X65825534Y-89793896D02*
X65670230Y-89676247D01*
X65670230Y-89676247D02*
X65508995Y-89557424D01*
X65508995Y-89557424D02*
X65339686Y-89437819D01*
X65339686Y-89437819D02*
X65160162Y-89317822D01*
X65160162Y-89317822D02*
X65065900Y-89257798D01*
X65065900Y-89257798D02*
X64968282Y-89197824D01*
X64968282Y-89197824D02*
X64867039Y-89137948D01*
X64867039Y-89137948D02*
X64761903Y-89078219D01*
X64761903Y-89078219D02*
X64652608Y-89018685D01*
X64652608Y-89018685D02*
X64538884Y-88959396D01*
X64538884Y-88959396D02*
X64420466Y-88900400D01*
X64420466Y-88900400D02*
X64297084Y-88841747D01*
X64297084Y-88841747D02*
X64494993Y-88663077D01*
X64494993Y-88663077D02*
X64680176Y-88491879D01*
X64680176Y-88491879D02*
X64965259Y-88223684D01*
X64965259Y-88223684D02*
X65068238Y-88240628D01*
X65068238Y-88240628D02*
X65167423Y-88261718D01*
X65167423Y-88261718D02*
X65263547Y-88287058D01*
X65263547Y-88287058D02*
X65357345Y-88316753D01*
X65357345Y-88316753D02*
X65449551Y-88350905D01*
X65449551Y-88350905D02*
X65540900Y-88389620D01*
X65540900Y-88389620D02*
X65632128Y-88433002D01*
X65632128Y-88433002D02*
X65723967Y-88481153D01*
X65723967Y-88481153D02*
X65817153Y-88534178D01*
X65817153Y-88534178D02*
X65912421Y-88592180D01*
X65912421Y-88592180D02*
X66010505Y-88655265D01*
X66010505Y-88655265D02*
X66112139Y-88723535D01*
X66112139Y-88723535D02*
X66328998Y-88876049D01*
X66328998Y-88876049D02*
X66568874Y-89050552D01*
X66568874Y-89050552D02*
X66752356Y-88895967D01*
X66752356Y-88895967D02*
X66935078Y-88745179D01*
X66935078Y-88745179D02*
X67122082Y-88596597D01*
X67122082Y-88596597D02*
X67318409Y-88448631D01*
X67318409Y-88448631D02*
X67421644Y-88374383D01*
X67421644Y-88374383D02*
X67529101Y-88299693D01*
X67529101Y-88299693D02*
X67641408Y-88224361D01*
X67641408Y-88224361D02*
X67759198Y-88148190D01*
X67759198Y-88148190D02*
X67883099Y-88070981D01*
X67883099Y-88070981D02*
X68013742Y-87992534D01*
X68013742Y-87992534D02*
X68151758Y-87912652D01*
X68151758Y-87912652D02*
X68297775Y-87831135D01*
X68297775Y-87831135D02*
X69024414Y-88374027D01*
X69024414Y-88374027D02*
X68788449Y-88540353D01*
X68788449Y-88540353D02*
X68544711Y-88705505D01*
X68544711Y-88705505D02*
X68056632Y-89033850D01*
X68056632Y-89033850D02*
X67823648Y-89197827D01*
X67823648Y-89197827D02*
X67712403Y-89279937D01*
X67712403Y-89279937D02*
X67605603Y-89362195D01*
X67605603Y-89362195D02*
X67503958Y-89444648D01*
X67503958Y-89444648D02*
X67408178Y-89527346D01*
X67408178Y-89527346D02*
X67318971Y-89610338D01*
X67318971Y-89610338D02*
X67237049Y-89693672D01*
X67237049Y-89693672D02*
X67375851Y-89848452D01*
X67375851Y-89848452D02*
X67514777Y-90007714D01*
X67514777Y-90007714D02*
X67585202Y-90091343D01*
X67585202Y-90091343D02*
X67656756Y-90178874D01*
X67656756Y-90178874D02*
X67729804Y-90271233D01*
X67729804Y-90271233D02*
X67804715Y-90369347D01*
X67804715Y-90369347D02*
X67881852Y-90474143D01*
X67881852Y-90474143D02*
X67961583Y-90586549D01*
X67961583Y-90586549D02*
X68044274Y-90707490D01*
X68044274Y-90707490D02*
X68130290Y-90837895D01*
X68130290Y-90837895D02*
X68219997Y-90978690D01*
X68219997Y-90978690D02*
X68313763Y-91130801D01*
X68313763Y-91130801D02*
X68411952Y-91295157D01*
X68411952Y-91295157D02*
X68514931Y-91472683D01*
X68514931Y-91472683D02*
X68063915Y-91940403D01*
X68063915Y-91940403D02*
X67992644Y-91856268D01*
X67992644Y-91856268D02*
X67929816Y-91778802D01*
X67929816Y-91778802D02*
X67819661Y-91636142D01*
X67819661Y-91636142D02*
X67713789Y-91496957D01*
X67713789Y-91496957D02*
X67656315Y-91423832D01*
X67656315Y-91423832D02*
X67592539Y-91345776D01*
X67592539Y-91345776D02*
X67520003Y-91260854D01*
X67520003Y-91260854D02*
X67436249Y-91167132D01*
X67436249Y-91167132D02*
X67338820Y-91062677D01*
X67338820Y-91062677D02*
X67225258Y-90945555D01*
X67225258Y-90945555D02*
X67093106Y-90813834D01*
X67093106Y-90813834D02*
X66939905Y-90665579D01*
X66939905Y-90665579D02*
X66763198Y-90498856D01*
X66763198Y-90498856D02*
X66560528Y-90311733D01*
X66560528Y-90311733D02*
X66333148Y-90546921D01*
X66333148Y-90546921D02*
X66118127Y-90778583D01*
X66118127Y-90778583D02*
X65915518Y-91007547D01*
X65915518Y-91007547D02*
X65725376Y-91234640D01*
X65725376Y-91234640D02*
X65547753Y-91460690D01*
X65547753Y-91460690D02*
X65463653Y-91573582D01*
X65463653Y-91573582D02*
X65382704Y-91686524D01*
X65382704Y-91686524D02*
X65304911Y-91799618D01*
X65304911Y-91799618D02*
X65230282Y-91912969D01*
X65230282Y-91912969D02*
X65158824Y-92026680D01*
X65158824Y-92026680D02*
X65090543Y-92140854D01*
X65090543Y-92140854D02*
X64572707Y-91673136D01*
X64572707Y-91673136D02*
X64572707Y-91673136D01*
G36*
X69024414Y-88374027D02*
G01*
X68788449Y-88540353D01*
X68544711Y-88705505D01*
X68056632Y-89033850D01*
X67823648Y-89197827D01*
X67712403Y-89279937D01*
X67605603Y-89362195D01*
X67503958Y-89444648D01*
X67408178Y-89527346D01*
X67318971Y-89610338D01*
X67237049Y-89693672D01*
X67375851Y-89848452D01*
X67514777Y-90007714D01*
X67585202Y-90091343D01*
X67656756Y-90178874D01*
X67729804Y-90271233D01*
X67804715Y-90369347D01*
X67881852Y-90474143D01*
X67961583Y-90586549D01*
X68044274Y-90707490D01*
X68130290Y-90837895D01*
X68219997Y-90978690D01*
X68313763Y-91130801D01*
X68411952Y-91295157D01*
X68514931Y-91472683D01*
X68063915Y-91940403D01*
X67992644Y-91856268D01*
X67929816Y-91778802D01*
X67819661Y-91636142D01*
X67713789Y-91496957D01*
X67656315Y-91423832D01*
X67592539Y-91345776D01*
X67520003Y-91260854D01*
X67436249Y-91167132D01*
X67338820Y-91062677D01*
X67225258Y-90945555D01*
X67093106Y-90813834D01*
X66939905Y-90665579D01*
X66763198Y-90498856D01*
X66560528Y-90311733D01*
X66333148Y-90546921D01*
X66118127Y-90778583D01*
X65915518Y-91007547D01*
X65725376Y-91234640D01*
X65547753Y-91460690D01*
X65463653Y-91573582D01*
X65382704Y-91686524D01*
X65304911Y-91799618D01*
X65230282Y-91912969D01*
X65158824Y-92026680D01*
X65090543Y-92140854D01*
X64572707Y-91673136D01*
X64637525Y-91569167D01*
X64694748Y-91472793D01*
X64794460Y-91294779D01*
X64887945Y-91122992D01*
X64937384Y-91034402D01*
X64991305Y-90941330D01*
X65051720Y-90841765D01*
X65120642Y-90733692D01*
X65200084Y-90615099D01*
X65292058Y-90483975D01*
X65398577Y-90338305D01*
X65521654Y-90176077D01*
X65663302Y-89995278D01*
X65825534Y-89793896D01*
X65670230Y-89676247D01*
X65508995Y-89557424D01*
X65339686Y-89437819D01*
X65160162Y-89317822D01*
X65065900Y-89257798D01*
X64968282Y-89197824D01*
X64867039Y-89137948D01*
X64761903Y-89078219D01*
X64652608Y-89018685D01*
X64538884Y-88959396D01*
X64420466Y-88900400D01*
X64297084Y-88841747D01*
X64494993Y-88663077D01*
X64680176Y-88491879D01*
X64965259Y-88223684D01*
X65068238Y-88240628D01*
X65167423Y-88261718D01*
X65263547Y-88287058D01*
X65357345Y-88316753D01*
X65449551Y-88350905D01*
X65540900Y-88389620D01*
X65632128Y-88433002D01*
X65723967Y-88481153D01*
X65817153Y-88534178D01*
X65912421Y-88592180D01*
X66010505Y-88655265D01*
X66112139Y-88723535D01*
X66328998Y-88876049D01*
X66568874Y-89050552D01*
X66752356Y-88895967D01*
X66935078Y-88745179D01*
X67122082Y-88596597D01*
X67318409Y-88448631D01*
X67421644Y-88374383D01*
X67529101Y-88299693D01*
X67641408Y-88224361D01*
X67759198Y-88148190D01*
X67883099Y-88070981D01*
X68013742Y-87992534D01*
X68151758Y-87912652D01*
X68297775Y-87831135D01*
X69024414Y-88374027D01*
G37*
X69024414Y-88374027D02*
X68788449Y-88540353D01*
X68544711Y-88705505D01*
X68056632Y-89033850D01*
X67823648Y-89197827D01*
X67712403Y-89279937D01*
X67605603Y-89362195D01*
X67503958Y-89444648D01*
X67408178Y-89527346D01*
X67318971Y-89610338D01*
X67237049Y-89693672D01*
X67375851Y-89848452D01*
X67514777Y-90007714D01*
X67585202Y-90091343D01*
X67656756Y-90178874D01*
X67729804Y-90271233D01*
X67804715Y-90369347D01*
X67881852Y-90474143D01*
X67961583Y-90586549D01*
X68044274Y-90707490D01*
X68130290Y-90837895D01*
X68219997Y-90978690D01*
X68313763Y-91130801D01*
X68411952Y-91295157D01*
X68514931Y-91472683D01*
X68063915Y-91940403D01*
X67992644Y-91856268D01*
X67929816Y-91778802D01*
X67819661Y-91636142D01*
X67713789Y-91496957D01*
X67656315Y-91423832D01*
X67592539Y-91345776D01*
X67520003Y-91260854D01*
X67436249Y-91167132D01*
X67338820Y-91062677D01*
X67225258Y-90945555D01*
X67093106Y-90813834D01*
X66939905Y-90665579D01*
X66763198Y-90498856D01*
X66560528Y-90311733D01*
X66333148Y-90546921D01*
X66118127Y-90778583D01*
X65915518Y-91007547D01*
X65725376Y-91234640D01*
X65547753Y-91460690D01*
X65463653Y-91573582D01*
X65382704Y-91686524D01*
X65304911Y-91799618D01*
X65230282Y-91912969D01*
X65158824Y-92026680D01*
X65090543Y-92140854D01*
X64572707Y-91673136D01*
X64637525Y-91569167D01*
X64694748Y-91472793D01*
X64794460Y-91294779D01*
X64887945Y-91122992D01*
X64937384Y-91034402D01*
X64991305Y-90941330D01*
X65051720Y-90841765D01*
X65120642Y-90733692D01*
X65200084Y-90615099D01*
X65292058Y-90483975D01*
X65398577Y-90338305D01*
X65521654Y-90176077D01*
X65663302Y-89995278D01*
X65825534Y-89793896D01*
X65670230Y-89676247D01*
X65508995Y-89557424D01*
X65339686Y-89437819D01*
X65160162Y-89317822D01*
X65065900Y-89257798D01*
X64968282Y-89197824D01*
X64867039Y-89137948D01*
X64761903Y-89078219D01*
X64652608Y-89018685D01*
X64538884Y-88959396D01*
X64420466Y-88900400D01*
X64297084Y-88841747D01*
X64494993Y-88663077D01*
X64680176Y-88491879D01*
X64965259Y-88223684D01*
X65068238Y-88240628D01*
X65167423Y-88261718D01*
X65263547Y-88287058D01*
X65357345Y-88316753D01*
X65449551Y-88350905D01*
X65540900Y-88389620D01*
X65632128Y-88433002D01*
X65723967Y-88481153D01*
X65817153Y-88534178D01*
X65912421Y-88592180D01*
X66010505Y-88655265D01*
X66112139Y-88723535D01*
X66328998Y-88876049D01*
X66568874Y-89050552D01*
X66752356Y-88895967D01*
X66935078Y-88745179D01*
X67122082Y-88596597D01*
X67318409Y-88448631D01*
X67421644Y-88374383D01*
X67529101Y-88299693D01*
X67641408Y-88224361D01*
X67759198Y-88148190D01*
X67883099Y-88070981D01*
X68013742Y-87992534D01*
X68151758Y-87912652D01*
X68297775Y-87831135D01*
X69024414Y-88374027D01*
D10*
X53428350Y-95398107D02*
X53519853Y-95467242D01*
X52997587Y-105660443D02*
X52052800Y-105746546D01*
X54885760Y-104430062D02*
X54720952Y-104662948D01*
X63235411Y-105704836D02*
X63181710Y-105646619D01*
X53131495Y-90045679D02*
X53098566Y-90154339D01*
X55143102Y-92984424D02*
X55143102Y-92984424D01*
X64726385Y-97735370D02*
X64960881Y-97570976D01*
X57231145Y-89827305D02*
X57045788Y-89674117D01*
X51942254Y-95345235D02*
X51998356Y-95401709D01*
X65125247Y-94690094D02*
X65212486Y-94568291D01*
X54506435Y-93232924D02*
X54739870Y-93445695D01*
X56187123Y-90203152D02*
X56187123Y-90203152D01*
X55836335Y-102355563D02*
X55753448Y-102630437D01*
D11*
X66719215Y-100985812D02*
X62910626Y-101370013D01*
X63144488Y-91773359D02*
X62234101Y-96458930D01*
X52963189Y-102405681D02*
X54992766Y-99983550D01*
D10*
X66845224Y-95683444D02*
X66955654Y-95518907D01*
X63175313Y-107256717D02*
X63446190Y-107182066D01*
X52761394Y-97290229D02*
X52997741Y-97441668D01*
X65707642Y-93722205D02*
X65783772Y-93560722D01*
D11*
X58200000Y-92500000D02*
X58200000Y-92500000D01*
D12*
X54884189Y-89610147D02*
X54742202Y-90495478D01*
D10*
X61958772Y-107446735D02*
X62281657Y-107418860D01*
X64234962Y-95648154D02*
X64411296Y-95491125D01*
X51972798Y-96678474D02*
X52150332Y-96833003D01*
X53826950Y-106749062D02*
X54060258Y-106840971D01*
D11*
X59937253Y-95272918D02*
X63144488Y-91773359D01*
D10*
X64589933Y-95317881D02*
X64769432Y-95127346D01*
X53881927Y-105604559D02*
X53881927Y-105604559D01*
X56192614Y-106588182D02*
X56320716Y-106416353D01*
X57231145Y-89827305D02*
X57231145Y-89827305D01*
D11*
X54992766Y-99983550D02*
X54992766Y-99983550D01*
D10*
X53828263Y-95677014D02*
X53943505Y-95747817D01*
X53042922Y-90713390D02*
X53052458Y-90827713D01*
D11*
X58450564Y-103566634D02*
X58450564Y-103566634D01*
D10*
X65037141Y-94806766D02*
X65125247Y-94690094D01*
X65257585Y-106297785D02*
X63595502Y-105972052D01*
X55360261Y-92115799D02*
X55460486Y-91731600D01*
X62185727Y-103789492D02*
X62100465Y-103625091D01*
X51491329Y-96203696D02*
X51645248Y-96364166D01*
X61624391Y-107458738D02*
X61958772Y-107446735D01*
D11*
X66719215Y-100985812D02*
X66719215Y-100985812D01*
D10*
X63530508Y-105938304D02*
X63467630Y-105899970D01*
X52150332Y-96833003D02*
X52339641Y-96986241D01*
X55392838Y-103544448D02*
X55287048Y-103756571D01*
X64570898Y-106729467D02*
X64745687Y-106634775D01*
X54060258Y-106840971D02*
X54315308Y-106929971D01*
X51434741Y-94688270D02*
X51506131Y-94796115D01*
X62757083Y-104995521D02*
X62672940Y-104828692D01*
X65298679Y-94441224D02*
X65383646Y-94308757D01*
X53053241Y-106359304D02*
X53228530Y-106459367D01*
X56877464Y-105526347D02*
X56974904Y-105343221D01*
X63734202Y-96032714D02*
X63894974Y-95917871D01*
X56775929Y-105707964D02*
X56877464Y-105526347D01*
X62281657Y-107418860D02*
X62592444Y-107376785D01*
D13*
X51434741Y-94688270D02*
X52186437Y-95573600D01*
D10*
X54094925Y-88966886D02*
X53981709Y-89023348D01*
D11*
X65366166Y-96367057D02*
X63353291Y-98839301D01*
D10*
X55024565Y-88798321D02*
X54878271Y-88795888D01*
X64169360Y-106919692D02*
X64378588Y-106824997D01*
X53154074Y-91290353D02*
X53194534Y-91406894D01*
X60413325Y-105454218D02*
X60680915Y-105950322D01*
X51838618Y-95233360D02*
X51889081Y-95289128D01*
X53131495Y-90045679D02*
X53131495Y-90045679D01*
X53119474Y-91174073D02*
X53154074Y-91290353D01*
X53500278Y-89406400D02*
X53422125Y-89500930D01*
X61624391Y-107458738D02*
X61624391Y-107458738D01*
X55878093Y-93610839D02*
X55878093Y-93610839D01*
X53098566Y-90154339D02*
X53073119Y-90264170D01*
X63894974Y-95917871D02*
X64062374Y-95790043D01*
X56053491Y-91881939D02*
X56053491Y-91881939D01*
X51580458Y-94904327D02*
X51659477Y-95013125D01*
X54628350Y-96109620D02*
X54789436Y-96183726D01*
D11*
X54992766Y-99983550D02*
X51109006Y-98296413D01*
D10*
X57246716Y-104786288D02*
X57414895Y-104410200D01*
X53422125Y-89500930D02*
X53350419Y-89600692D01*
X63438315Y-96227748D02*
X63581502Y-96135647D01*
X67162163Y-95176210D02*
X67257281Y-94998148D01*
X51805087Y-96522310D02*
X51972798Y-96678474D01*
X55813152Y-88962154D02*
X55648393Y-88908104D01*
D11*
X57289613Y-95640419D02*
X58200000Y-92500000D01*
D10*
X52057608Y-95458576D02*
X52120228Y-95515864D01*
X66955654Y-95518907D02*
X67061461Y-95349813D01*
X53040057Y-90599783D02*
X53042922Y-90713390D01*
X53240692Y-91523607D02*
X53292386Y-91640399D01*
X64378588Y-106824997D02*
X64570898Y-106729467D01*
D11*
X64029819Y-104418554D02*
X61023036Y-103190784D01*
D10*
X52319522Y-94187742D02*
X52423305Y-94321460D01*
D11*
X61023036Y-103190784D02*
X60154408Y-106222624D01*
D10*
X67257281Y-94998148D02*
X67346333Y-94815676D01*
X54315308Y-106929971D02*
X54594994Y-107015716D01*
X53052458Y-90827713D02*
X53068503Y-90942662D01*
D11*
X51109006Y-98296413D02*
X51109006Y-98296413D01*
D10*
X55753448Y-102630437D02*
X55700699Y-102789707D01*
X53292386Y-91640399D02*
X53411731Y-91873858D01*
X53771691Y-89157375D02*
X53675233Y-89234304D01*
X55460486Y-91731600D02*
X56053491Y-91881939D01*
D11*
X58450564Y-103566634D02*
X55953265Y-105495985D01*
D10*
X51744945Y-95122730D02*
X51790646Y-95177903D01*
X53228530Y-106459367D02*
X53413981Y-106557912D01*
X52211493Y-94053505D02*
X52319522Y-94187742D01*
X56512856Y-92349659D02*
X56512856Y-92349659D01*
X55767492Y-107088632D02*
X55916408Y-106924471D01*
D11*
X57289613Y-95640419D02*
X57289613Y-95640419D01*
D10*
X56404279Y-93009483D02*
X56404279Y-93009483D01*
X55981089Y-89027482D02*
X55813152Y-88962154D01*
X53612490Y-106654594D02*
X53826950Y-106749062D01*
X63347850Y-105810357D02*
X63290759Y-105759483D01*
X64411296Y-95491125D02*
X64589933Y-95317881D01*
X52542678Y-97138535D02*
X52761394Y-97290229D01*
X60818813Y-106198960D02*
X60961949Y-106448347D01*
X52227909Y-105848407D02*
X52395810Y-105950838D01*
X62934641Y-105309088D02*
X62844067Y-105156195D01*
X53584704Y-89317418D02*
X53500278Y-89406400D01*
D11*
X59937253Y-95272918D02*
X59937253Y-95272918D01*
X56145366Y-102322162D02*
X56145366Y-102322162D01*
D10*
X63595502Y-105972052D02*
X63595502Y-105972052D01*
X62890531Y-107322181D02*
X63175313Y-107256717D01*
X63581502Y-96135647D02*
X63734202Y-96032714D01*
X63988057Y-98171123D02*
X64134999Y-98096248D01*
X53885739Y-92566691D02*
X54078070Y-92792695D01*
D11*
X62234101Y-96458930D02*
X65366166Y-96367057D01*
D10*
X65983145Y-96703434D02*
X66240551Y-96436032D01*
X63290759Y-105759483D02*
X63235411Y-105704836D01*
D11*
X62910626Y-101370013D02*
X62910626Y-101370013D01*
D10*
X60961949Y-106448347D02*
X61112199Y-106698750D01*
X64309598Y-97998400D02*
X64508008Y-97877976D01*
X62268579Y-103959117D02*
X62185727Y-103789492D01*
X56053491Y-91881939D02*
X56145364Y-91339046D01*
X53455435Y-105624664D02*
X53229415Y-105641102D01*
X55700699Y-102789707D02*
X55639185Y-102961939D01*
X56187123Y-90203152D02*
X57231145Y-89827305D01*
X66285055Y-94676640D02*
X66354983Y-94574195D01*
X54789436Y-96183726D02*
X54959357Y-96258475D01*
X52721571Y-106156018D02*
X52885220Y-106258072D01*
X53194534Y-91406894D02*
X53240692Y-91523607D01*
X66730652Y-95843374D02*
X66845224Y-95683444D01*
X56152030Y-89104407D02*
X55981089Y-89027482D01*
X53090896Y-91058146D02*
X53119474Y-91174073D01*
X51889081Y-95289128D02*
X51942254Y-95345235D01*
X65040293Y-106454582D02*
X65257585Y-106297785D01*
X55648393Y-88908104D02*
X55486982Y-88865014D01*
D11*
X55953265Y-105495985D02*
X55953265Y-105495985D01*
D10*
X55610826Y-107249937D02*
X55610826Y-107249937D01*
X53881927Y-105604559D02*
X53673616Y-105612145D01*
D11*
X63353291Y-98839301D02*
X66719215Y-100985812D01*
D10*
X52974095Y-94989725D02*
X53109738Y-95124806D01*
X66354983Y-94574195D02*
X66389638Y-94521121D01*
X56442692Y-106242267D02*
X56558949Y-106066074D01*
X67346333Y-94815676D02*
X67428839Y-94628845D01*
X52850587Y-94855404D02*
X52974095Y-94989725D01*
X55143102Y-92984424D02*
X55878093Y-93610839D01*
X63406775Y-105857253D02*
X63347850Y-105810357D01*
X65212486Y-94568291D02*
X65298679Y-94441224D01*
X66491002Y-96149214D02*
X66730652Y-95843374D01*
X51193442Y-95874396D02*
X51491329Y-96203696D01*
X56558949Y-106066074D02*
X56669893Y-105887923D01*
X66144973Y-94880173D02*
X66214838Y-94777352D01*
X54120495Y-105370038D02*
X53881927Y-105604559D01*
X66214838Y-94777352D02*
X66285055Y-94676640D01*
X51790646Y-95177903D02*
X51838618Y-95233360D01*
X54984410Y-93652599D02*
X55143102Y-92984424D01*
X54539087Y-104898037D02*
X54339241Y-105134132D01*
X54878271Y-88795888D02*
X54736187Y-88802823D01*
D14*
X63246666Y-58110428D02*
X64008571Y-58110428D01*
X63627619Y-58491380D02*
X63627619Y-57729476D01*
X65199047Y-57443761D02*
X64341904Y-58729476D01*
X65532380Y-58110428D02*
X66294285Y-58110428D01*
X67484761Y-58443761D02*
X67627619Y-58491380D01*
X67865714Y-58491380D01*
X67960952Y-58443761D01*
X68008571Y-58396142D01*
X68056190Y-58300904D01*
X68056190Y-58205666D01*
X68008571Y-58110428D01*
X67960952Y-58062809D01*
X67865714Y-58015190D01*
X67675238Y-57967571D01*
X67580000Y-57919952D01*
X67532380Y-57872333D01*
X67484761Y-57777095D01*
X67484761Y-57681857D01*
X67532380Y-57586619D01*
X67580000Y-57539000D01*
X67675238Y-57491380D01*
X67913333Y-57491380D01*
X68056190Y-57539000D01*
X68389523Y-57491380D02*
X68627619Y-58491380D01*
X68818095Y-57777095D01*
X69008571Y-58491380D01*
X69246666Y-57491380D01*
X69580000Y-58205666D02*
X70056190Y-58205666D01*
X69484761Y-58491380D02*
X69818095Y-57491380D01*
X70151428Y-58491380D01*
X70484761Y-58491380D02*
X70484761Y-57491380D01*
X70865714Y-57491380D01*
X70960952Y-57539000D01*
X71008571Y-57586619D01*
X71056190Y-57681857D01*
X71056190Y-57824714D01*
X71008571Y-57919952D01*
X70960952Y-57967571D01*
X70865714Y-58015190D01*
X70484761Y-58015190D01*
X71484761Y-58491380D02*
X71484761Y-57491380D01*
X71865714Y-57491380D01*
X71960952Y-57539000D01*
X72008571Y-57586619D01*
X72056190Y-57681857D01*
X72056190Y-57824714D01*
X72008571Y-57919952D01*
X71960952Y-57967571D01*
X71865714Y-58015190D01*
X71484761Y-58015190D01*
X72484761Y-57967571D02*
X72818095Y-57967571D01*
X72960952Y-58491380D02*
X72484761Y-58491380D01*
X72484761Y-57491380D01*
X72960952Y-57491380D01*
X73389523Y-58491380D02*
X73389523Y-57491380D01*
X73627619Y-57491380D01*
X73770476Y-57539000D01*
X73865714Y-57634238D01*
X73913333Y-57729476D01*
X73960952Y-57919952D01*
X73960952Y-58062809D01*
X73913333Y-58253285D01*
X73865714Y-58348523D01*
X73770476Y-58443761D01*
X73627619Y-58491380D01*
X73389523Y-58491380D01*
%TO.C,I2C1*%
X37347619Y-66002380D02*
X37347619Y-65002380D01*
X37776190Y-65097619D02*
X37823809Y-65050000D01*
X37919047Y-65002380D01*
X38157142Y-65002380D01*
X38252380Y-65050000D01*
X38300000Y-65097619D01*
X38347619Y-65192857D01*
X38347619Y-65288095D01*
X38300000Y-65430952D01*
X37728571Y-66002380D01*
X38347619Y-66002380D01*
X39347619Y-65907142D02*
X39300000Y-65954761D01*
X39157142Y-66002380D01*
X39061904Y-66002380D01*
X38919047Y-65954761D01*
X38823809Y-65859523D01*
X38776190Y-65764285D01*
X38728571Y-65573809D01*
X38728571Y-65430952D01*
X38776190Y-65240476D01*
X38823809Y-65145238D01*
X38919047Y-65050000D01*
X39061904Y-65002380D01*
X39157142Y-65002380D01*
X39300000Y-65050000D01*
X39347619Y-65097619D01*
X40300000Y-66002380D02*
X39728571Y-66002380D01*
X40014285Y-66002380D02*
X40014285Y-65002380D01*
X39919047Y-65145238D01*
X39823809Y-65240476D01*
X39728571Y-65288095D01*
%TO.C,BZ1*%
X57919047Y-68028571D02*
X58061904Y-68076190D01*
X58109523Y-68123809D01*
X58157142Y-68219047D01*
X58157142Y-68361904D01*
X58109523Y-68457142D01*
X58061904Y-68504761D01*
X57966666Y-68552380D01*
X57585714Y-68552380D01*
X57585714Y-67552380D01*
X57919047Y-67552380D01*
X58014285Y-67600000D01*
X58061904Y-67647619D01*
X58109523Y-67742857D01*
X58109523Y-67838095D01*
X58061904Y-67933333D01*
X58014285Y-67980952D01*
X57919047Y-68028571D01*
X57585714Y-68028571D01*
X58490476Y-67552380D02*
X59157142Y-67552380D01*
X58490476Y-68552380D01*
X59157142Y-68552380D01*
X60061904Y-68552380D02*
X59490476Y-68552380D01*
X59776190Y-68552380D02*
X59776190Y-67552380D01*
X59680952Y-67695238D01*
X59585714Y-67790476D01*
X59490476Y-67838095D01*
X62229047Y-70611428D02*
X62990952Y-70611428D01*
X62610000Y-70992380D02*
X62610000Y-70230476D01*
%TO.C,C7*%
X70357142Y-67466666D02*
X70404761Y-67514285D01*
X70452380Y-67657142D01*
X70452380Y-67752380D01*
X70404761Y-67895238D01*
X70309523Y-67990476D01*
X70214285Y-68038095D01*
X70023809Y-68085714D01*
X69880952Y-68085714D01*
X69690476Y-68038095D01*
X69595238Y-67990476D01*
X69500000Y-67895238D01*
X69452380Y-67752380D01*
X69452380Y-67657142D01*
X69500000Y-67514285D01*
X69547619Y-67466666D01*
X69452380Y-67133333D02*
X69452380Y-66466666D01*
X70452380Y-66895238D01*
%TO.C,C8*%
X59833333Y-77457142D02*
X59785714Y-77504761D01*
X59642857Y-77552380D01*
X59547619Y-77552380D01*
X59404761Y-77504761D01*
X59309523Y-77409523D01*
X59261904Y-77314285D01*
X59214285Y-77123809D01*
X59214285Y-76980952D01*
X59261904Y-76790476D01*
X59309523Y-76695238D01*
X59404761Y-76600000D01*
X59547619Y-76552380D01*
X59642857Y-76552380D01*
X59785714Y-76600000D01*
X59833333Y-76647619D01*
X60404761Y-76980952D02*
X60309523Y-76933333D01*
X60261904Y-76885714D01*
X60214285Y-76790476D01*
X60214285Y-76742857D01*
X60261904Y-76647619D01*
X60309523Y-76600000D01*
X60404761Y-76552380D01*
X60595238Y-76552380D01*
X60690476Y-76600000D01*
X60738095Y-76647619D01*
X60785714Y-76742857D01*
X60785714Y-76790476D01*
X60738095Y-76885714D01*
X60690476Y-76933333D01*
X60595238Y-76980952D01*
X60404761Y-76980952D01*
X60309523Y-77028571D01*
X60261904Y-77076190D01*
X60214285Y-77171428D01*
X60214285Y-77361904D01*
X60261904Y-77457142D01*
X60309523Y-77504761D01*
X60404761Y-77552380D01*
X60595238Y-77552380D01*
X60690476Y-77504761D01*
X60738095Y-77457142D01*
X60785714Y-77361904D01*
X60785714Y-77171428D01*
X60738095Y-77076190D01*
X60690476Y-77028571D01*
X60595238Y-76980952D01*
%TO.C,D1*%
X74452380Y-68038095D02*
X73452380Y-68038095D01*
X73452380Y-67800000D01*
X73500000Y-67657142D01*
X73595238Y-67561904D01*
X73690476Y-67514285D01*
X73880952Y-67466666D01*
X74023809Y-67466666D01*
X74214285Y-67514285D01*
X74309523Y-67561904D01*
X74404761Y-67657142D01*
X74452380Y-67800000D01*
X74452380Y-68038095D01*
X74452380Y-66514285D02*
X74452380Y-67085714D01*
X74452380Y-66800000D02*
X73452380Y-66800000D01*
X73595238Y-66895238D01*
X73690476Y-66990476D01*
X73738095Y-67085714D01*
%TO.C,R1*%
X51333333Y-82452380D02*
X51000000Y-81976190D01*
X50761904Y-82452380D02*
X50761904Y-81452380D01*
X51142857Y-81452380D01*
X51238095Y-81500000D01*
X51285714Y-81547619D01*
X51333333Y-81642857D01*
X51333333Y-81785714D01*
X51285714Y-81880952D01*
X51238095Y-81928571D01*
X51142857Y-81976190D01*
X50761904Y-81976190D01*
X52285714Y-82452380D02*
X51714285Y-82452380D01*
X52000000Y-82452380D02*
X52000000Y-81452380D01*
X51904761Y-81595238D01*
X51809523Y-81690476D01*
X51714285Y-81738095D01*
%TO.C,D+1*%
X54942857Y-124552380D02*
X54942857Y-123552380D01*
X55180952Y-123552380D01*
X55323809Y-123600000D01*
X55419047Y-123695238D01*
X55466666Y-123790476D01*
X55514285Y-123980952D01*
X55514285Y-124123809D01*
X55466666Y-124314285D01*
X55419047Y-124409523D01*
X55323809Y-124504761D01*
X55180952Y-124552380D01*
X54942857Y-124552380D01*
X55942857Y-124171428D02*
X56704761Y-124171428D01*
X56323809Y-124552380D02*
X56323809Y-123790476D01*
X57704761Y-124552380D02*
X57133333Y-124552380D01*
X57419047Y-124552380D02*
X57419047Y-123552380D01*
X57323809Y-123695238D01*
X57228571Y-123790476D01*
X57133333Y-123838095D01*
%TO.C,D-1*%
X62342857Y-124552380D02*
X62342857Y-123552380D01*
X62580952Y-123552380D01*
X62723809Y-123600000D01*
X62819047Y-123695238D01*
X62866666Y-123790476D01*
X62914285Y-123980952D01*
X62914285Y-124123809D01*
X62866666Y-124314285D01*
X62819047Y-124409523D01*
X62723809Y-124504761D01*
X62580952Y-124552380D01*
X62342857Y-124552380D01*
X63342857Y-124171428D02*
X64104761Y-124171428D01*
X65104761Y-124552380D02*
X64533333Y-124552380D01*
X64819047Y-124552380D02*
X64819047Y-123552380D01*
X64723809Y-123695238D01*
X64628571Y-123790476D01*
X64533333Y-123838095D01*
%TO.C,JP1*%
X41252380Y-72661904D02*
X41252380Y-73138095D01*
X41728571Y-73185714D01*
X41680952Y-73138095D01*
X41633333Y-73042857D01*
X41633333Y-72804761D01*
X41680952Y-72709523D01*
X41728571Y-72661904D01*
X41823809Y-72614285D01*
X42061904Y-72614285D01*
X42157142Y-72661904D01*
X42204761Y-72709523D01*
X42252380Y-72804761D01*
X42252380Y-73042857D01*
X42204761Y-73138095D01*
X42157142Y-73185714D01*
X41252380Y-78433333D02*
X41252380Y-77814285D01*
X41633333Y-78147619D01*
X41633333Y-78004761D01*
X41680952Y-77909523D01*
X41728571Y-77861904D01*
X41823809Y-77814285D01*
X42061904Y-77814285D01*
X42157142Y-77861904D01*
X42204761Y-77909523D01*
X42252380Y-78004761D01*
X42252380Y-78290476D01*
X42204761Y-78385714D01*
X42157142Y-78433333D01*
%TO.C,JP2*%
X47252380Y-78433333D02*
X47252380Y-77814285D01*
X47633333Y-78147619D01*
X47633333Y-78004761D01*
X47680952Y-77909523D01*
X47728571Y-77861904D01*
X47823809Y-77814285D01*
X48061904Y-77814285D01*
X48157142Y-77861904D01*
X48204761Y-77909523D01*
X48252380Y-78004761D01*
X48252380Y-78290476D01*
X48204761Y-78385714D01*
X48157142Y-78433333D01*
X47252380Y-72661904D02*
X47252380Y-73138095D01*
X47728571Y-73185714D01*
X47680952Y-73138095D01*
X47633333Y-73042857D01*
X47633333Y-72804761D01*
X47680952Y-72709523D01*
X47728571Y-72661904D01*
X47823809Y-72614285D01*
X48061904Y-72614285D01*
X48157142Y-72661904D01*
X48204761Y-72709523D01*
X48252380Y-72804761D01*
X48252380Y-73042857D01*
X48204761Y-73138095D01*
X48157142Y-73185714D01*
%TO.C,JP3*%
X66152380Y-66661904D02*
X66152380Y-67138095D01*
X66628571Y-67185714D01*
X66580952Y-67138095D01*
X66533333Y-67042857D01*
X66533333Y-66804761D01*
X66580952Y-66709523D01*
X66628571Y-66661904D01*
X66723809Y-66614285D01*
X66961904Y-66614285D01*
X67057142Y-66661904D01*
X67104761Y-66709523D01*
X67152380Y-66804761D01*
X67152380Y-67042857D01*
X67104761Y-67138095D01*
X67057142Y-67185714D01*
X66152380Y-72433333D02*
X66152380Y-71814285D01*
X66533333Y-72147619D01*
X66533333Y-72004761D01*
X66580952Y-71909523D01*
X66628571Y-71861904D01*
X66723809Y-71814285D01*
X66961904Y-71814285D01*
X67057142Y-71861904D01*
X67104761Y-71909523D01*
X67152380Y-72004761D01*
X67152380Y-72290476D01*
X67104761Y-72385714D01*
X67057142Y-72433333D01*
%TO.C,JP4*%
X57352380Y-57433333D02*
X57352380Y-56814285D01*
X57733333Y-57147619D01*
X57733333Y-57004761D01*
X57780952Y-56909523D01*
X57828571Y-56861904D01*
X57923809Y-56814285D01*
X58161904Y-56814285D01*
X58257142Y-56861904D01*
X58304761Y-56909523D01*
X58352380Y-57004761D01*
X58352380Y-57290476D01*
X58304761Y-57385714D01*
X58257142Y-57433333D01*
X57352380Y-62061904D02*
X57352380Y-62538095D01*
X57828571Y-62585714D01*
X57780952Y-62538095D01*
X57733333Y-62442857D01*
X57733333Y-62204761D01*
X57780952Y-62109523D01*
X57828571Y-62061904D01*
X57923809Y-62014285D01*
X58161904Y-62014285D01*
X58257142Y-62061904D01*
X58304761Y-62109523D01*
X58352380Y-62204761D01*
X58352380Y-62442857D01*
X58304761Y-62538095D01*
X58257142Y-62585714D01*
%TO.C,C6*%
X68357142Y-72966666D02*
X68404761Y-73014285D01*
X68452380Y-73157142D01*
X68452380Y-73252380D01*
X68404761Y-73395238D01*
X68309523Y-73490476D01*
X68214285Y-73538095D01*
X68023809Y-73585714D01*
X67880952Y-73585714D01*
X67690476Y-73538095D01*
X67595238Y-73490476D01*
X67500000Y-73395238D01*
X67452380Y-73252380D01*
X67452380Y-73157142D01*
X67500000Y-73014285D01*
X67547619Y-72966666D01*
X67452380Y-72109523D02*
X67452380Y-72300000D01*
X67500000Y-72395238D01*
X67547619Y-72442857D01*
X67690476Y-72538095D01*
X67880952Y-72585714D01*
X68261904Y-72585714D01*
X68357142Y-72538095D01*
X68404761Y-72490476D01*
X68452380Y-72395238D01*
X68452380Y-72204761D01*
X68404761Y-72109523D01*
X68357142Y-72061904D01*
X68261904Y-72014285D01*
X68023809Y-72014285D01*
X67928571Y-72061904D01*
X67880952Y-72109523D01*
X67833333Y-72204761D01*
X67833333Y-72395238D01*
X67880952Y-72490476D01*
X67928571Y-72538095D01*
X68023809Y-72585714D01*
%TO.C,C9*%
X59077142Y-58916666D02*
X59124761Y-58964285D01*
X59172380Y-59107142D01*
X59172380Y-59202380D01*
X59124761Y-59345238D01*
X59029523Y-59440476D01*
X58934285Y-59488095D01*
X58743809Y-59535714D01*
X58600952Y-59535714D01*
X58410476Y-59488095D01*
X58315238Y-59440476D01*
X58220000Y-59345238D01*
X58172380Y-59202380D01*
X58172380Y-59107142D01*
X58220000Y-58964285D01*
X58267619Y-58916666D01*
X59172380Y-58440476D02*
X59172380Y-58250000D01*
X59124761Y-58154761D01*
X59077142Y-58107142D01*
X58934285Y-58011904D01*
X58743809Y-57964285D01*
X58362857Y-57964285D01*
X58267619Y-58011904D01*
X58220000Y-58059523D01*
X58172380Y-58154761D01*
X58172380Y-58345238D01*
X58220000Y-58440476D01*
X58267619Y-58488095D01*
X58362857Y-58535714D01*
X58600952Y-58535714D01*
X58696190Y-58488095D01*
X58743809Y-58440476D01*
X58791428Y-58345238D01*
X58791428Y-58154761D01*
X58743809Y-58059523D01*
X58696190Y-58011904D01*
X58600952Y-57964285D01*
%TO.C,C1*%
X38957142Y-81716666D02*
X39004761Y-81764285D01*
X39052380Y-81907142D01*
X39052380Y-82002380D01*
X39004761Y-82145238D01*
X38909523Y-82240476D01*
X38814285Y-82288095D01*
X38623809Y-82335714D01*
X38480952Y-82335714D01*
X38290476Y-82288095D01*
X38195238Y-82240476D01*
X38100000Y-82145238D01*
X38052380Y-82002380D01*
X38052380Y-81907142D01*
X38100000Y-81764285D01*
X38147619Y-81716666D01*
X39052380Y-80764285D02*
X39052380Y-81335714D01*
X39052380Y-81050000D02*
X38052380Y-81050000D01*
X38195238Y-81145238D01*
X38290476Y-81240476D01*
X38338095Y-81335714D01*
%TO.C,C4*%
X50857142Y-71766666D02*
X50904761Y-71814285D01*
X50952380Y-71957142D01*
X50952380Y-72052380D01*
X50904761Y-72195238D01*
X50809523Y-72290476D01*
X50714285Y-72338095D01*
X50523809Y-72385714D01*
X50380952Y-72385714D01*
X50190476Y-72338095D01*
X50095238Y-72290476D01*
X50000000Y-72195238D01*
X49952380Y-72052380D01*
X49952380Y-71957142D01*
X50000000Y-71814285D01*
X50047619Y-71766666D01*
X50285714Y-70909523D02*
X50952380Y-70909523D01*
X49904761Y-71147619D02*
X50619047Y-71385714D01*
X50619047Y-70766666D01*
%TO.C,J3*%
X59566666Y-120152380D02*
X59566666Y-120866666D01*
X59519047Y-121009523D01*
X59423809Y-121104761D01*
X59280952Y-121152380D01*
X59185714Y-121152380D01*
X59947619Y-120152380D02*
X60566666Y-120152380D01*
X60233333Y-120533333D01*
X60376190Y-120533333D01*
X60471428Y-120580952D01*
X60519047Y-120628571D01*
X60566666Y-120723809D01*
X60566666Y-120961904D01*
X60519047Y-121057142D01*
X60471428Y-121104761D01*
X60376190Y-121152380D01*
X60090476Y-121152380D01*
X59995238Y-121104761D01*
X59947619Y-121057142D01*
%TO.C,J2*%
X59566666Y-115952380D02*
X59566666Y-116666666D01*
X59519047Y-116809523D01*
X59423809Y-116904761D01*
X59280952Y-116952380D01*
X59185714Y-116952380D01*
X59995238Y-116047619D02*
X60042857Y-116000000D01*
X60138095Y-115952380D01*
X60376190Y-115952380D01*
X60471428Y-116000000D01*
X60519047Y-116047619D01*
X60566666Y-116142857D01*
X60566666Y-116238095D01*
X60519047Y-116380952D01*
X59947619Y-116952380D01*
X60566666Y-116952380D01*
%TO.C,FAN1*%
X78214285Y-64428571D02*
X77880952Y-64428571D01*
X77880952Y-64952380D02*
X77880952Y-63952380D01*
X78357142Y-63952380D01*
X78690476Y-64666666D02*
X79166666Y-64666666D01*
X78595238Y-64952380D02*
X78928571Y-63952380D01*
X79261904Y-64952380D01*
X79595238Y-64952380D02*
X79595238Y-63952380D01*
X80166666Y-64952380D01*
X80166666Y-63952380D01*
X81166666Y-64952380D02*
X80595238Y-64952380D01*
X80880952Y-64952380D02*
X80880952Y-63952380D01*
X80785714Y-64095238D01*
X80690476Y-64190476D01*
X80595238Y-64238095D01*
%TO.C,J5*%
X75741666Y-75852380D02*
X75741666Y-76566666D01*
X75694047Y-76709523D01*
X75598809Y-76804761D01*
X75455952Y-76852380D01*
X75360714Y-76852380D01*
X76694047Y-75852380D02*
X76217857Y-75852380D01*
X76170238Y-76328571D01*
X76217857Y-76280952D01*
X76313095Y-76233333D01*
X76551190Y-76233333D01*
X76646428Y-76280952D01*
X76694047Y-76328571D01*
X76741666Y-76423809D01*
X76741666Y-76661904D01*
X76694047Y-76757142D01*
X76646428Y-76804761D01*
X76551190Y-76852380D01*
X76313095Y-76852380D01*
X76217857Y-76804761D01*
X76170238Y-76757142D01*
%TO.C,Q1*%
X47704761Y-81747619D02*
X47609523Y-81700000D01*
X47514285Y-81604761D01*
X47371428Y-81461904D01*
X47276190Y-81414285D01*
X47180952Y-81414285D01*
X47228571Y-81652380D02*
X47133333Y-81604761D01*
X47038095Y-81509523D01*
X46990476Y-81319047D01*
X46990476Y-80985714D01*
X47038095Y-80795238D01*
X47133333Y-80700000D01*
X47228571Y-80652380D01*
X47419047Y-80652380D01*
X47514285Y-80700000D01*
X47609523Y-80795238D01*
X47657142Y-80985714D01*
X47657142Y-81319047D01*
X47609523Y-81509523D01*
X47514285Y-81604761D01*
X47419047Y-81652380D01*
X47228571Y-81652380D01*
X48609523Y-81652380D02*
X48038095Y-81652380D01*
X48323809Y-81652380D02*
X48323809Y-80652380D01*
X48228571Y-80795238D01*
X48133333Y-80890476D01*
X48038095Y-80938095D01*
%TO.C,I2C2*%
X43447619Y-66022380D02*
X43447619Y-65022380D01*
X43876190Y-65117619D02*
X43923809Y-65070000D01*
X44019047Y-65022380D01*
X44257142Y-65022380D01*
X44352380Y-65070000D01*
X44400000Y-65117619D01*
X44447619Y-65212857D01*
X44447619Y-65308095D01*
X44400000Y-65450952D01*
X43828571Y-66022380D01*
X44447619Y-66022380D01*
X45447619Y-65927142D02*
X45400000Y-65974761D01*
X45257142Y-66022380D01*
X45161904Y-66022380D01*
X45019047Y-65974761D01*
X44923809Y-65879523D01*
X44876190Y-65784285D01*
X44828571Y-65593809D01*
X44828571Y-65450952D01*
X44876190Y-65260476D01*
X44923809Y-65165238D01*
X45019047Y-65070000D01*
X45161904Y-65022380D01*
X45257142Y-65022380D01*
X45400000Y-65070000D01*
X45447619Y-65117619D01*
X45828571Y-65117619D02*
X45876190Y-65070000D01*
X45971428Y-65022380D01*
X46209523Y-65022380D01*
X46304761Y-65070000D01*
X46352380Y-65117619D01*
X46400000Y-65212857D01*
X46400000Y-65308095D01*
X46352380Y-65450952D01*
X45780952Y-66022380D01*
X46400000Y-66022380D01*
%TO.C,I2C3*%
X65042380Y-66152380D02*
X64042380Y-66152380D01*
X64137619Y-65723809D02*
X64090000Y-65676190D01*
X64042380Y-65580952D01*
X64042380Y-65342857D01*
X64090000Y-65247619D01*
X64137619Y-65200000D01*
X64232857Y-65152380D01*
X64328095Y-65152380D01*
X64470952Y-65200000D01*
X65042380Y-65771428D01*
X65042380Y-65152380D01*
X64947142Y-64152380D02*
X64994761Y-64200000D01*
X65042380Y-64342857D01*
X65042380Y-64438095D01*
X64994761Y-64580952D01*
X64899523Y-64676190D01*
X64804285Y-64723809D01*
X64613809Y-64771428D01*
X64470952Y-64771428D01*
X64280476Y-64723809D01*
X64185238Y-64676190D01*
X64090000Y-64580952D01*
X64042380Y-64438095D01*
X64042380Y-64342857D01*
X64090000Y-64200000D01*
X64137619Y-64152380D01*
X64042380Y-63819047D02*
X64042380Y-63200000D01*
X64423333Y-63533333D01*
X64423333Y-63390476D01*
X64470952Y-63295238D01*
X64518571Y-63247619D01*
X64613809Y-63200000D01*
X64851904Y-63200000D01*
X64947142Y-63247619D01*
X64994761Y-63295238D01*
X65042380Y-63390476D01*
X65042380Y-63676190D01*
X64994761Y-63771428D01*
X64947142Y-63819047D01*
%TO.C,I2C4*%
X61922380Y-61852380D02*
X60922380Y-61852380D01*
X61017619Y-61423809D02*
X60970000Y-61376190D01*
X60922380Y-61280952D01*
X60922380Y-61042857D01*
X60970000Y-60947619D01*
X61017619Y-60900000D01*
X61112857Y-60852380D01*
X61208095Y-60852380D01*
X61350952Y-60900000D01*
X61922380Y-61471428D01*
X61922380Y-60852380D01*
X61827142Y-59852380D02*
X61874761Y-59900000D01*
X61922380Y-60042857D01*
X61922380Y-60138095D01*
X61874761Y-60280952D01*
X61779523Y-60376190D01*
X61684285Y-60423809D01*
X61493809Y-60471428D01*
X61350952Y-60471428D01*
X61160476Y-60423809D01*
X61065238Y-60376190D01*
X60970000Y-60280952D01*
X60922380Y-60138095D01*
X60922380Y-60042857D01*
X60970000Y-59900000D01*
X61017619Y-59852380D01*
X61255714Y-58995238D02*
X61922380Y-58995238D01*
X60874761Y-59233333D02*
X61589047Y-59471428D01*
X61589047Y-58852380D01*
D15*
%TO.C,I2C1*%
X37470000Y-66550000D02*
X38800000Y-66550000D01*
X37470000Y-67880000D02*
X37470000Y-66550000D01*
X37470000Y-76830000D02*
X40130000Y-76830000D01*
X37470000Y-69150000D02*
X37470000Y-76830000D01*
X40130000Y-69150000D02*
X40130000Y-76830000D01*
X37470000Y-69150000D02*
X40130000Y-69150000D01*
%TO.C,BZ1*%
X64900000Y-68000000D02*
G75*
G03*
X64900000Y-68000000I-6100000J0D01*
G01*
%TO.C,C7*%
X72735000Y-70311252D02*
X72735000Y-69788748D01*
X71265000Y-70311252D02*
X71265000Y-69788748D01*
%TO.C,C8*%
X67810000Y-77054437D02*
X67810000Y-78340000D01*
X60990000Y-75990000D02*
X60990000Y-78340000D01*
X66745563Y-75990000D02*
X60990000Y-75990000D01*
X67810000Y-77054437D02*
X66745563Y-75990000D01*
X67810000Y-81745563D02*
X66745563Y-82810000D01*
X60990000Y-82810000D02*
X60990000Y-80460000D01*
X66745563Y-82810000D02*
X60990000Y-82810000D01*
X67810000Y-81745563D02*
X67810000Y-80460000D01*
X68443750Y-81641250D02*
X68443750Y-80853750D01*
X68837500Y-81247500D02*
X68050000Y-81247500D01*
%TO.C,D1*%
X73040000Y-71747500D02*
X74960000Y-71747500D01*
X74960000Y-71747500D02*
X74960000Y-69062500D01*
X73040000Y-69062500D02*
X73040000Y-71747500D01*
%TO.C,R1*%
X48360436Y-81265000D02*
X48814564Y-81265000D01*
X48360436Y-82735000D02*
X48814564Y-82735000D01*
%TO.C,D+1*%
X59450000Y-124100000D02*
G75*
G03*
X59450000Y-124100000I-950000J0D01*
G01*
%TO.C,D-1*%
X62450000Y-124100000D02*
G75*
G03*
X62450000Y-124100000I-950000J0D01*
G01*
%TO.C,JP1*%
X40800000Y-73450000D02*
X42800000Y-73450000D01*
X42800000Y-73450000D02*
X42800000Y-77550000D01*
X40800000Y-77550000D02*
X40800000Y-73450000D01*
X42800000Y-77550000D02*
X40800000Y-77550000D01*
%TO.C,JP2*%
X48800000Y-73450000D02*
X48800000Y-77550000D01*
X48800000Y-77550000D02*
X46800000Y-77550000D01*
X46800000Y-73450000D02*
X48800000Y-73450000D01*
X46800000Y-77550000D02*
X46800000Y-73450000D01*
%TO.C,JP3*%
X65700000Y-67450000D02*
X67700000Y-67450000D01*
X67700000Y-67450000D02*
X67700000Y-71550000D01*
X67700000Y-71550000D02*
X65700000Y-71550000D01*
X65700000Y-71550000D02*
X65700000Y-67450000D01*
%TO.C,JP4*%
X58900000Y-57650000D02*
X58900000Y-61750000D01*
X56900000Y-61750000D02*
X56900000Y-57650000D01*
X58900000Y-61750000D02*
X56900000Y-61750000D01*
X56900000Y-57650000D02*
X58900000Y-57650000D01*
%TO.C,C6*%
X70735000Y-69788748D02*
X70735000Y-70311252D01*
X69265000Y-69788748D02*
X69265000Y-70311252D01*
%TO.C,C9*%
X61135000Y-59011252D02*
X61135000Y-58488748D01*
X59665000Y-59011252D02*
X59665000Y-58488748D01*
%TO.C,C1*%
X37965000Y-78488748D02*
X37965000Y-79011252D01*
X39435000Y-78488748D02*
X39435000Y-79011252D01*
%TO.C,C4*%
X49665000Y-74811252D02*
X49665000Y-74288748D01*
X51135000Y-74811252D02*
X51135000Y-74288748D01*
D16*
%TO.C,J1*%
X63650000Y-128220000D02*
X64370000Y-128220000D01*
X55430000Y-131380000D02*
X56150000Y-131380000D01*
X64370000Y-128220000D02*
X64370000Y-131380000D01*
X56150000Y-128220000D02*
X55430000Y-128220000D01*
X55430000Y-128220000D02*
X55430000Y-131380000D01*
X64370000Y-131380000D02*
X63650000Y-131380000D01*
X55000000Y-128900000D02*
G75*
G03*
X55000000Y-128900000I-100000J0D01*
G01*
D15*
%TO.C,FAN1*%
X77740000Y-67440000D02*
X76790000Y-67440000D01*
X80710000Y-71540000D02*
X80710000Y-67810000D01*
X77740000Y-71910000D02*
X76790000Y-71910000D01*
X76790000Y-71910000D02*
X76790000Y-70960000D01*
X76790000Y-67440000D02*
X76790000Y-68390000D01*
X76790000Y-70960000D02*
X76100000Y-70960000D01*
%TO.C,J5*%
X72590000Y-79240000D02*
X72590000Y-78290000D01*
X73540000Y-78290000D02*
X73540000Y-77600000D01*
X72590000Y-78290000D02*
X73540000Y-78290000D01*
X79560000Y-78290000D02*
X78610000Y-78290000D01*
X79560000Y-79240000D02*
X79560000Y-78290000D01*
X72960000Y-82210000D02*
X79190000Y-82210000D01*
%TO.C,Q1*%
X45600000Y-79725000D02*
X46510000Y-79725000D01*
X43290000Y-79725000D02*
X44200000Y-79725000D01*
X43290000Y-82300000D02*
X43290000Y-79725000D01*
X46510000Y-81875000D02*
X46510000Y-79725000D01*
%TO.C,I2C2*%
X43570000Y-69170000D02*
X43570000Y-76850000D01*
X43570000Y-69170000D02*
X46230000Y-69170000D01*
X43570000Y-66570000D02*
X44900000Y-66570000D01*
X43570000Y-67900000D02*
X43570000Y-66570000D01*
X46230000Y-69170000D02*
X46230000Y-76850000D01*
X43570000Y-76850000D02*
X46230000Y-76850000D01*
%TO.C,I2C3*%
X75870000Y-66030000D02*
X75870000Y-63370000D01*
X68190000Y-66030000D02*
X75870000Y-66030000D01*
X68190000Y-66030000D02*
X68190000Y-63370000D01*
X66920000Y-66030000D02*
X65590000Y-66030000D01*
X68190000Y-63370000D02*
X75870000Y-63370000D01*
X65590000Y-66030000D02*
X65590000Y-64700000D01*
%TO.C,I2C4*%
X63800000Y-61730000D02*
X62470000Y-61730000D01*
X65070000Y-61730000D02*
X65070000Y-59070000D01*
X72750000Y-61730000D02*
X72750000Y-59070000D01*
X65070000Y-61730000D02*
X72750000Y-61730000D01*
X65070000Y-59070000D02*
X72750000Y-59070000D01*
X62470000Y-61730000D02*
X62470000Y-60400000D01*
%TD*%
M02*
