M48
; DRILL file {KiCad 6.0.2+dfsg-1} date Sat 26 Nov 2022 02:15:55 PM EST
; FORMAT={-:-/ absolute / inch / decimal}
; #@! TF.CreationDate,2022-11-26T14:15:55-05:00
; #@! TF.GenerationSoftware,Kicad,Pcbnew,6.0.2+dfsg-1
; #@! TF.FileFunction,Plated,1,2,PTH
FMAT,2
INCH
; #@! TA.AperFunction,Plated,PTH,ViaDrill
T1C0.0157
; #@! TA.AperFunction,Plated,PTH,ComponentDrill
T2C0.0236
; #@! TA.AperFunction,Plated,PTH,ComponentDrill
T3C0.0394
%
G90
G05
T1
X1.5551Y-3.2283
X1.6535Y-3.2283
X1.9764Y-3.0866
X2.0421Y-3.0782
X2.063Y-2.8976
X2.1034Y-2.9696
X2.1063Y-4.2953
X2.1654Y-3.9764
X2.2244Y-4.4488
X2.2835Y-4.4488
X2.2987Y-4.9651
X2.3622Y-3.5433
X2.3622Y-3.9567
X2.3819Y-4.4213
X2.418Y-4.9688
X2.4213Y-3.4646
X2.4213Y-3.878
X2.4213Y-4.3504
X2.4409Y-3.0512
X2.4803Y-3.2087
X2.5197Y-3.0118
X2.5197Y-4.2441
X2.6535Y-4.5669
X2.6693Y-4.4921
X2.689Y-2.8543
X2.8346Y-2.6575
X2.8386Y-3.0276
X2.8425Y-2.9646
X2.9134Y-2.6575
X3.01Y-3.155
X3.0315Y-2.6575
X3.0315Y-2.9724
X3.0709Y-3.189
X3.1299Y-2.9724
X3.2087Y-2.9724
T3
X1.5276Y-2.6724
X1.5276Y-2.7709
X1.5276Y-2.8724
X1.5276Y-2.9724
X1.7677Y-2.6732
X1.7677Y-2.7732
X1.7677Y-2.8732
X1.7677Y-2.9732
X2.1654Y-2.6772
X2.4646Y-2.6772
X2.5118Y-2.378
X2.6118Y-2.378
X2.6346Y-2.5472
X2.7118Y-2.378
X2.7346Y-2.5472
X2.8118Y-2.378
X2.8346Y-2.5472
X2.9346Y-2.5472
T2
G00X2.2589Y-5.0256
M15
G01X2.2687Y-5.0256
M16
G05
G00X2.4478Y-5.0256
M15
G01X2.4577Y-5.0256
M16
G05
T0
M30
