%TF.GenerationSoftware,KiCad,Pcbnew,6.0.2+dfsg-1*%
%TF.CreationDate,2022-11-26T14:15:53-05:00*%
%TF.ProjectId,vindick,76696e64-6963-46b2-9e6b-696361645f70,rev?*%
%TF.SameCoordinates,Original*%
%TF.FileFunction,Legend,Bot*%
%TF.FilePolarity,Positive*%
%FSLAX46Y46*%
G04 Gerber Fmt 4.6, Leading zero omitted, Abs format (unit mm)*
G04 Created by KiCad (PCBNEW 6.0.2+dfsg-1) date 2022-11-26 14:15:53*
%MOMM*%
%LPD*%
G01*
G04 APERTURE LIST*
%ADD10C,0.150000*%
%ADD11C,0.120000*%
G04 APERTURE END LIST*
D10*
X51377619Y-59032380D02*
X51044285Y-60032380D01*
X50710952Y-59032380D01*
X50377619Y-60032380D02*
X50377619Y-59365714D01*
X50377619Y-59032380D02*
X50425238Y-59080000D01*
X50377619Y-59127619D01*
X50330000Y-59080000D01*
X50377619Y-59032380D01*
X50377619Y-59127619D01*
X49901428Y-59365714D02*
X49901428Y-60032380D01*
X49901428Y-59460952D02*
X49853809Y-59413333D01*
X49758571Y-59365714D01*
X49615714Y-59365714D01*
X49520476Y-59413333D01*
X49472857Y-59508571D01*
X49472857Y-60032380D01*
X48568095Y-60032380D02*
X48568095Y-59032380D01*
X48568095Y-59984761D02*
X48663333Y-60032380D01*
X48853809Y-60032380D01*
X48949047Y-59984761D01*
X48996666Y-59937142D01*
X49044285Y-59841904D01*
X49044285Y-59556190D01*
X48996666Y-59460952D01*
X48949047Y-59413333D01*
X48853809Y-59365714D01*
X48663333Y-59365714D01*
X48568095Y-59413333D01*
X48234761Y-59032380D02*
X48187142Y-59080000D01*
X48234761Y-59127619D01*
X48282380Y-59080000D01*
X48234761Y-59032380D01*
X48234761Y-59127619D01*
X47853809Y-59032380D02*
X47806190Y-59080000D01*
X47853809Y-59127619D01*
X47901428Y-59080000D01*
X47853809Y-59032380D01*
X47853809Y-59127619D01*
X48044285Y-60032380D02*
X48044285Y-59365714D01*
X47520476Y-60032380D02*
X47520476Y-59032380D01*
X47425238Y-59651428D02*
X47139523Y-60032380D01*
X47139523Y-59365714D02*
X47520476Y-59746666D01*
X46853809Y-59365714D02*
X46472857Y-59365714D01*
X46710952Y-59032380D02*
X46710952Y-59889523D01*
X46663333Y-59984761D01*
X46568095Y-60032380D01*
X46472857Y-60032380D01*
X46139523Y-59365714D02*
X46139523Y-60032380D01*
X46139523Y-59460952D02*
X46091904Y-59413333D01*
X45996666Y-59365714D01*
X45853809Y-59365714D01*
X45758571Y-59413333D01*
X45710952Y-59508571D01*
X45710952Y-60032380D01*
X45234761Y-60032380D02*
X45234761Y-59365714D01*
X45234761Y-59032380D02*
X45282380Y-59080000D01*
X45234761Y-59127619D01*
X45187142Y-59080000D01*
X45234761Y-59032380D01*
X45234761Y-59127619D01*
X44758571Y-59365714D02*
X44758571Y-60032380D01*
X44758571Y-59460952D02*
X44710952Y-59413333D01*
X44615714Y-59365714D01*
X44472857Y-59365714D01*
X44377619Y-59413333D01*
X44330000Y-59508571D01*
X44330000Y-60032380D01*
X43425238Y-59365714D02*
X43425238Y-60175238D01*
X43472857Y-60270476D01*
X43520476Y-60318095D01*
X43615714Y-60365714D01*
X43758571Y-60365714D01*
X43853809Y-60318095D01*
X43425238Y-59984761D02*
X43520476Y-60032380D01*
X43710952Y-60032380D01*
X43806190Y-59984761D01*
X43853809Y-59937142D01*
X43901428Y-59841904D01*
X43901428Y-59556190D01*
X43853809Y-59460952D01*
X43806190Y-59413333D01*
X43710952Y-59365714D01*
X43520476Y-59365714D01*
X43425238Y-59413333D01*
X51734761Y-61166190D02*
X51782380Y-61118571D01*
X51877619Y-61070952D01*
X51972857Y-61070952D01*
X52068095Y-61118571D01*
X52115714Y-61166190D01*
X52163333Y-61261428D01*
X52163333Y-61356666D01*
X52115714Y-61451904D01*
X52068095Y-61499523D01*
X51972857Y-61547142D01*
X51877619Y-61547142D01*
X51782380Y-61499523D01*
X51734761Y-61451904D01*
X51734761Y-61070952D02*
X51734761Y-61451904D01*
X51687142Y-61499523D01*
X51639523Y-61499523D01*
X51544285Y-61451904D01*
X51496666Y-61356666D01*
X51496666Y-61118571D01*
X51591904Y-60975714D01*
X51734761Y-60880476D01*
X51925238Y-60832857D01*
X52115714Y-60880476D01*
X52258571Y-60975714D01*
X52353809Y-61118571D01*
X52401428Y-61309047D01*
X52353809Y-61499523D01*
X52258571Y-61642380D01*
X52115714Y-61737619D01*
X51925238Y-61785238D01*
X51734761Y-61737619D01*
X51591904Y-61642380D01*
X51068095Y-61642380D02*
X51068095Y-60975714D01*
X51068095Y-61166190D02*
X51020476Y-61070952D01*
X50972857Y-61023333D01*
X50877619Y-60975714D01*
X50782380Y-60975714D01*
X50068095Y-61594761D02*
X50163333Y-61642380D01*
X50353809Y-61642380D01*
X50449047Y-61594761D01*
X50496666Y-61499523D01*
X50496666Y-61118571D01*
X50449047Y-61023333D01*
X50353809Y-60975714D01*
X50163333Y-60975714D01*
X50068095Y-61023333D01*
X50020476Y-61118571D01*
X50020476Y-61213809D01*
X50496666Y-61309047D01*
X49163333Y-61642380D02*
X49163333Y-61118571D01*
X49210952Y-61023333D01*
X49306190Y-60975714D01*
X49496666Y-60975714D01*
X49591904Y-61023333D01*
X49163333Y-61594761D02*
X49258571Y-61642380D01*
X49496666Y-61642380D01*
X49591904Y-61594761D01*
X49639523Y-61499523D01*
X49639523Y-61404285D01*
X49591904Y-61309047D01*
X49496666Y-61261428D01*
X49258571Y-61261428D01*
X49163333Y-61213809D01*
X48544285Y-61642380D02*
X48639523Y-61594761D01*
X48687142Y-61499523D01*
X48687142Y-60642380D01*
X48306190Y-60975714D02*
X47925238Y-60975714D01*
X48163333Y-60642380D02*
X48163333Y-61499523D01*
X48115714Y-61594761D01*
X48020476Y-61642380D01*
X47925238Y-61642380D01*
X47591904Y-61642380D02*
X47591904Y-60975714D01*
X47591904Y-60642380D02*
X47639523Y-60690000D01*
X47591904Y-60737619D01*
X47544285Y-60690000D01*
X47591904Y-60642380D01*
X47591904Y-60737619D01*
X47115714Y-61642380D02*
X47115714Y-60975714D01*
X47115714Y-61070952D02*
X47068095Y-61023333D01*
X46972857Y-60975714D01*
X46830000Y-60975714D01*
X46734761Y-61023333D01*
X46687142Y-61118571D01*
X46687142Y-61642380D01*
X46687142Y-61118571D02*
X46639523Y-61023333D01*
X46544285Y-60975714D01*
X46401428Y-60975714D01*
X46306190Y-61023333D01*
X46258571Y-61118571D01*
X46258571Y-61642380D01*
X45401428Y-61594761D02*
X45496666Y-61642380D01*
X45687142Y-61642380D01*
X45782380Y-61594761D01*
X45830000Y-61499523D01*
X45830000Y-61118571D01*
X45782380Y-61023333D01*
X45687142Y-60975714D01*
X45496666Y-60975714D01*
X45401428Y-61023333D01*
X45353809Y-61118571D01*
X45353809Y-61213809D01*
X45830000Y-61309047D01*
X44925238Y-61642380D02*
X44925238Y-60642380D01*
X44830000Y-61261428D02*
X44544285Y-61642380D01*
X44544285Y-60975714D02*
X44925238Y-61356666D01*
X43972857Y-61642380D02*
X44068095Y-61594761D01*
X44115714Y-61547142D01*
X44163333Y-61451904D01*
X44163333Y-61166190D01*
X44115714Y-61070952D01*
X44068095Y-61023333D01*
X43972857Y-60975714D01*
X43830000Y-60975714D01*
X43734761Y-61023333D01*
X43687142Y-61070952D01*
X43639523Y-61166190D01*
X43639523Y-61451904D01*
X43687142Y-61547142D01*
X43734761Y-61594761D01*
X43830000Y-61642380D01*
X43972857Y-61642380D01*
X42782380Y-61642380D02*
X42782380Y-60642380D01*
X42782380Y-61594761D02*
X42877619Y-61642380D01*
X43068095Y-61642380D01*
X43163333Y-61594761D01*
X43210952Y-61547142D01*
X43258571Y-61451904D01*
X43258571Y-61166190D01*
X43210952Y-61070952D01*
X43163333Y-61023333D01*
X43068095Y-60975714D01*
X42877619Y-60975714D01*
X42782380Y-61023333D01*
X42306190Y-61642380D02*
X42306190Y-60975714D01*
X42306190Y-60642380D02*
X42353809Y-60690000D01*
X42306190Y-60737619D01*
X42258571Y-60690000D01*
X42306190Y-60642380D01*
X42306190Y-60737619D01*
X50282380Y-63157142D02*
X50330000Y-63204761D01*
X50472857Y-63252380D01*
X50568095Y-63252380D01*
X50710952Y-63204761D01*
X50806190Y-63109523D01*
X50853809Y-63014285D01*
X50901428Y-62823809D01*
X50901428Y-62680952D01*
X50853809Y-62490476D01*
X50806190Y-62395238D01*
X50710952Y-62300000D01*
X50568095Y-62252380D01*
X50472857Y-62252380D01*
X50330000Y-62300000D01*
X50282380Y-62347619D01*
X49282380Y-63252380D02*
X49615714Y-62776190D01*
X49853809Y-63252380D02*
X49853809Y-62252380D01*
X49472857Y-62252380D01*
X49377619Y-62300000D01*
X49330000Y-62347619D01*
X49282380Y-62442857D01*
X49282380Y-62585714D01*
X49330000Y-62680952D01*
X49377619Y-62728571D01*
X49472857Y-62776190D01*
X49853809Y-62776190D01*
X48996666Y-62252380D02*
X48425238Y-62252380D01*
X48710952Y-63252380D02*
X48710952Y-62252380D01*
X48091904Y-63157142D02*
X48044285Y-63204761D01*
X48091904Y-63252380D01*
X48139523Y-63204761D01*
X48091904Y-63157142D01*
X48091904Y-63252380D01*
X47758571Y-62252380D02*
X47425238Y-63252380D01*
X47091904Y-62252380D01*
X46758571Y-63252380D02*
X46758571Y-62252380D01*
X46282380Y-63252380D02*
X46282380Y-62252380D01*
X46044285Y-62252380D01*
X45901428Y-62300000D01*
X45806190Y-62395238D01*
X45758571Y-62490476D01*
X45710952Y-62680952D01*
X45710952Y-62823809D01*
X45758571Y-63014285D01*
X45806190Y-63109523D01*
X45901428Y-63204761D01*
X46044285Y-63252380D01*
X46282380Y-63252380D01*
X45282380Y-62728571D02*
X44949047Y-62728571D01*
X44806190Y-63252380D02*
X45282380Y-63252380D01*
X45282380Y-62252380D01*
X44806190Y-62252380D01*
X44187142Y-62252380D02*
X43996666Y-62252380D01*
X43901428Y-62300000D01*
X43806190Y-62395238D01*
X43758571Y-62585714D01*
X43758571Y-62919047D01*
X43806190Y-63109523D01*
X43901428Y-63204761D01*
X43996666Y-63252380D01*
X44187142Y-63252380D01*
X44282380Y-63204761D01*
X44377619Y-63109523D01*
X44425238Y-62919047D01*
X44425238Y-62585714D01*
X44377619Y-62395238D01*
X44282380Y-62300000D01*
X44187142Y-62252380D01*
X51972857Y-64195714D02*
X51734761Y-64862380D01*
X51496666Y-64195714D01*
X51210952Y-63862380D02*
X50591904Y-63862380D01*
X50925238Y-64243333D01*
X50782380Y-64243333D01*
X50687142Y-64290952D01*
X50639523Y-64338571D01*
X50591904Y-64433809D01*
X50591904Y-64671904D01*
X50639523Y-64767142D01*
X50687142Y-64814761D01*
X50782380Y-64862380D01*
X51068095Y-64862380D01*
X51163333Y-64814761D01*
X51210952Y-64767142D01*
X49401428Y-64862380D02*
X49401428Y-63862380D01*
X49020476Y-63862380D01*
X48925238Y-63910000D01*
X48877619Y-63957619D01*
X48830000Y-64052857D01*
X48830000Y-64195714D01*
X48877619Y-64290952D01*
X48925238Y-64338571D01*
X49020476Y-64386190D01*
X49401428Y-64386190D01*
X48401428Y-64862380D02*
X48401428Y-64195714D01*
X48401428Y-64386190D02*
X48353809Y-64290952D01*
X48306190Y-64243333D01*
X48210952Y-64195714D01*
X48115714Y-64195714D01*
X47639523Y-64862380D02*
X47734761Y-64814761D01*
X47782380Y-64767142D01*
X47830000Y-64671904D01*
X47830000Y-64386190D01*
X47782380Y-64290952D01*
X47734761Y-64243333D01*
X47639523Y-64195714D01*
X47496666Y-64195714D01*
X47401428Y-64243333D01*
X47353809Y-64290952D01*
X47306190Y-64386190D01*
X47306190Y-64671904D01*
X47353809Y-64767142D01*
X47401428Y-64814761D01*
X47496666Y-64862380D01*
X47639523Y-64862380D01*
X47020476Y-64195714D02*
X46639523Y-64195714D01*
X46877619Y-63862380D02*
X46877619Y-64719523D01*
X46830000Y-64814761D01*
X46734761Y-64862380D01*
X46639523Y-64862380D01*
X46163333Y-64862380D02*
X46258571Y-64814761D01*
X46306190Y-64767142D01*
X46353809Y-64671904D01*
X46353809Y-64386190D01*
X46306190Y-64290952D01*
X46258571Y-64243333D01*
X46163333Y-64195714D01*
X46020476Y-64195714D01*
X45925238Y-64243333D01*
X45877619Y-64290952D01*
X45830000Y-64386190D01*
X45830000Y-64671904D01*
X45877619Y-64767142D01*
X45925238Y-64814761D01*
X46020476Y-64862380D01*
X46163333Y-64862380D01*
X45544285Y-64195714D02*
X45163333Y-64195714D01*
X45401428Y-63862380D02*
X45401428Y-64719523D01*
X45353809Y-64814761D01*
X45258571Y-64862380D01*
X45163333Y-64862380D01*
X44925238Y-64195714D02*
X44687142Y-64862380D01*
X44449047Y-64195714D02*
X44687142Y-64862380D01*
X44782380Y-65100476D01*
X44830000Y-65148095D01*
X44925238Y-65195714D01*
X44068095Y-64195714D02*
X44068095Y-65195714D01*
X44068095Y-64243333D02*
X43972857Y-64195714D01*
X43782380Y-64195714D01*
X43687142Y-64243333D01*
X43639523Y-64290952D01*
X43591904Y-64386190D01*
X43591904Y-64671904D01*
X43639523Y-64767142D01*
X43687142Y-64814761D01*
X43782380Y-64862380D01*
X43972857Y-64862380D01*
X44068095Y-64814761D01*
X42782380Y-64814761D02*
X42877619Y-64862380D01*
X43068095Y-64862380D01*
X43163333Y-64814761D01*
X43210952Y-64719523D01*
X43210952Y-64338571D01*
X43163333Y-64243333D01*
X43068095Y-64195714D01*
X42877619Y-64195714D01*
X42782380Y-64243333D01*
X42734761Y-64338571D01*
X42734761Y-64433809D01*
X43210952Y-64529047D01*
X52187142Y-65567619D02*
X52139523Y-65520000D01*
X52044285Y-65472380D01*
X51806190Y-65472380D01*
X51710952Y-65520000D01*
X51663333Y-65567619D01*
X51615714Y-65662857D01*
X51615714Y-65758095D01*
X51663333Y-65900952D01*
X52234761Y-66472380D01*
X51615714Y-66472380D01*
X50996666Y-65472380D02*
X50901428Y-65472380D01*
X50806190Y-65520000D01*
X50758571Y-65567619D01*
X50710952Y-65662857D01*
X50663333Y-65853333D01*
X50663333Y-66091428D01*
X50710952Y-66281904D01*
X50758571Y-66377142D01*
X50806190Y-66424761D01*
X50901428Y-66472380D01*
X50996666Y-66472380D01*
X51091904Y-66424761D01*
X51139523Y-66377142D01*
X51187142Y-66281904D01*
X51234761Y-66091428D01*
X51234761Y-65853333D01*
X51187142Y-65662857D01*
X51139523Y-65567619D01*
X51091904Y-65520000D01*
X50996666Y-65472380D01*
X50282380Y-65567619D02*
X50234761Y-65520000D01*
X50139523Y-65472380D01*
X49901428Y-65472380D01*
X49806190Y-65520000D01*
X49758571Y-65567619D01*
X49710952Y-65662857D01*
X49710952Y-65758095D01*
X49758571Y-65900952D01*
X50330000Y-66472380D01*
X49710952Y-66472380D01*
X49330000Y-65567619D02*
X49282380Y-65520000D01*
X49187142Y-65472380D01*
X48949047Y-65472380D01*
X48853809Y-65520000D01*
X48806190Y-65567619D01*
X48758571Y-65662857D01*
X48758571Y-65758095D01*
X48806190Y-65900952D01*
X49377619Y-66472380D01*
X48758571Y-66472380D01*
X48330000Y-66091428D02*
X47568095Y-66091428D01*
X46568095Y-66472380D02*
X47139523Y-66472380D01*
X46853809Y-66472380D02*
X46853809Y-65472380D01*
X46949047Y-65615238D01*
X47044285Y-65710476D01*
X47139523Y-65758095D01*
X45615714Y-66472380D02*
X46187142Y-66472380D01*
X45901428Y-66472380D02*
X45901428Y-65472380D01*
X45996666Y-65615238D01*
X46091904Y-65710476D01*
X46187142Y-65758095D01*
X45187142Y-66091428D02*
X44425238Y-66091428D01*
X43996666Y-65567619D02*
X43949047Y-65520000D01*
X43853809Y-65472380D01*
X43615714Y-65472380D01*
X43520476Y-65520000D01*
X43472857Y-65567619D01*
X43425238Y-65662857D01*
X43425238Y-65758095D01*
X43472857Y-65900952D01*
X44044285Y-66472380D01*
X43425238Y-66472380D01*
X42568095Y-65472380D02*
X42758571Y-65472380D01*
X42853809Y-65520000D01*
X42901428Y-65567619D01*
X42996666Y-65710476D01*
X43044285Y-65900952D01*
X43044285Y-66281904D01*
X42996666Y-66377142D01*
X42949047Y-66424761D01*
X42853809Y-66472380D01*
X42663333Y-66472380D01*
X42568095Y-66424761D01*
X42520476Y-66377142D01*
X42472857Y-66281904D01*
X42472857Y-66043809D01*
X42520476Y-65948571D01*
X42568095Y-65900952D01*
X42663333Y-65853333D01*
X42853809Y-65853333D01*
X42949047Y-65900952D01*
X42996666Y-65948571D01*
X43044285Y-66043809D01*
%TO.C,C2*%
X52077142Y-98083333D02*
X52124761Y-98035714D01*
X52172380Y-97892857D01*
X52172380Y-97797619D01*
X52124761Y-97654761D01*
X52029523Y-97559523D01*
X51934285Y-97511904D01*
X51743809Y-97464285D01*
X51600952Y-97464285D01*
X51410476Y-97511904D01*
X51315238Y-97559523D01*
X51220000Y-97654761D01*
X51172380Y-97797619D01*
X51172380Y-97892857D01*
X51220000Y-98035714D01*
X51267619Y-98083333D01*
X51267619Y-98464285D02*
X51220000Y-98511904D01*
X51172380Y-98607142D01*
X51172380Y-98845238D01*
X51220000Y-98940476D01*
X51267619Y-98988095D01*
X51362857Y-99035714D01*
X51458095Y-99035714D01*
X51600952Y-98988095D01*
X52172380Y-98416666D01*
X52172380Y-99035714D01*
%TO.C,C3*%
X52077142Y-87283333D02*
X52124761Y-87235714D01*
X52172380Y-87092857D01*
X52172380Y-86997619D01*
X52124761Y-86854761D01*
X52029523Y-86759523D01*
X51934285Y-86711904D01*
X51743809Y-86664285D01*
X51600952Y-86664285D01*
X51410476Y-86711904D01*
X51315238Y-86759523D01*
X51220000Y-86854761D01*
X51172380Y-86997619D01*
X51172380Y-87092857D01*
X51220000Y-87235714D01*
X51267619Y-87283333D01*
X51172380Y-87616666D02*
X51172380Y-88235714D01*
X51553333Y-87902380D01*
X51553333Y-88045238D01*
X51600952Y-88140476D01*
X51648571Y-88188095D01*
X51743809Y-88235714D01*
X51981904Y-88235714D01*
X52077142Y-88188095D01*
X52124761Y-88140476D01*
X52172380Y-88045238D01*
X52172380Y-87759523D01*
X52124761Y-87664285D01*
X52077142Y-87616666D01*
%TO.C,C5*%
X52177142Y-81083333D02*
X52224761Y-81035714D01*
X52272380Y-80892857D01*
X52272380Y-80797619D01*
X52224761Y-80654761D01*
X52129523Y-80559523D01*
X52034285Y-80511904D01*
X51843809Y-80464285D01*
X51700952Y-80464285D01*
X51510476Y-80511904D01*
X51415238Y-80559523D01*
X51320000Y-80654761D01*
X51272380Y-80797619D01*
X51272380Y-80892857D01*
X51320000Y-81035714D01*
X51367619Y-81083333D01*
X51272380Y-81988095D02*
X51272380Y-81511904D01*
X51748571Y-81464285D01*
X51700952Y-81511904D01*
X51653333Y-81607142D01*
X51653333Y-81845238D01*
X51700952Y-81940476D01*
X51748571Y-81988095D01*
X51843809Y-82035714D01*
X52081904Y-82035714D01*
X52177142Y-81988095D01*
X52224761Y-81940476D01*
X52272380Y-81845238D01*
X52272380Y-81607142D01*
X52224761Y-81511904D01*
X52177142Y-81464285D01*
%TO.C,D3*%
X56952380Y-86761904D02*
X55952380Y-86761904D01*
X55952380Y-87000000D01*
X56000000Y-87142857D01*
X56095238Y-87238095D01*
X56190476Y-87285714D01*
X56380952Y-87333333D01*
X56523809Y-87333333D01*
X56714285Y-87285714D01*
X56809523Y-87238095D01*
X56904761Y-87142857D01*
X56952380Y-87000000D01*
X56952380Y-86761904D01*
X55952380Y-87666666D02*
X55952380Y-88285714D01*
X56333333Y-87952380D01*
X56333333Y-88095238D01*
X56380952Y-88190476D01*
X56428571Y-88238095D01*
X56523809Y-88285714D01*
X56761904Y-88285714D01*
X56857142Y-88238095D01*
X56904761Y-88190476D01*
X56952380Y-88095238D01*
X56952380Y-87809523D01*
X56904761Y-87714285D01*
X56857142Y-87666666D01*
X58852380Y-83635714D02*
X58852380Y-83064285D01*
X58852380Y-83350000D02*
X57852380Y-83350000D01*
X57995238Y-83254761D01*
X58090476Y-83159523D01*
X58138095Y-83064285D01*
%TO.C,D4*%
X56952380Y-77261904D02*
X55952380Y-77261904D01*
X55952380Y-77500000D01*
X56000000Y-77642857D01*
X56095238Y-77738095D01*
X56190476Y-77785714D01*
X56380952Y-77833333D01*
X56523809Y-77833333D01*
X56714285Y-77785714D01*
X56809523Y-77738095D01*
X56904761Y-77642857D01*
X56952380Y-77500000D01*
X56952380Y-77261904D01*
X56285714Y-78690476D02*
X56952380Y-78690476D01*
X55904761Y-78452380D02*
X56619047Y-78214285D01*
X56619047Y-78833333D01*
X58852380Y-74135714D02*
X58852380Y-73564285D01*
X58852380Y-73850000D02*
X57852380Y-73850000D01*
X57995238Y-73754761D01*
X58090476Y-73659523D01*
X58138095Y-73564285D01*
%TO.C,D2*%
X56952380Y-97261904D02*
X55952380Y-97261904D01*
X55952380Y-97500000D01*
X56000000Y-97642857D01*
X56095238Y-97738095D01*
X56190476Y-97785714D01*
X56380952Y-97833333D01*
X56523809Y-97833333D01*
X56714285Y-97785714D01*
X56809523Y-97738095D01*
X56904761Y-97642857D01*
X56952380Y-97500000D01*
X56952380Y-97261904D01*
X56047619Y-98214285D02*
X56000000Y-98261904D01*
X55952380Y-98357142D01*
X55952380Y-98595238D01*
X56000000Y-98690476D01*
X56047619Y-98738095D01*
X56142857Y-98785714D01*
X56238095Y-98785714D01*
X56380952Y-98738095D01*
X56952380Y-98166666D01*
X56952380Y-98785714D01*
X58852380Y-94135714D02*
X58852380Y-93564285D01*
X58852380Y-93850000D02*
X57852380Y-93850000D01*
X57995238Y-93754761D01*
X58090476Y-93659523D01*
X58138095Y-93564285D01*
D11*
%TO.C,C2*%
X54135000Y-97988748D02*
X54135000Y-98511252D01*
X52665000Y-97988748D02*
X52665000Y-98511252D01*
%TO.C,C3*%
X52665000Y-87188748D02*
X52665000Y-87711252D01*
X54135000Y-87188748D02*
X54135000Y-87711252D01*
%TO.C,C5*%
X54235000Y-80988748D02*
X54235000Y-81511252D01*
X52765000Y-80988748D02*
X52765000Y-81511252D01*
%TO.C,D3*%
X57250000Y-83850000D02*
X57250000Y-91150000D01*
X62750000Y-83850000D02*
X62750000Y-91150000D01*
X62750000Y-91150000D02*
X61600000Y-91150000D01*
%TO.C,D4*%
X62750000Y-74350000D02*
X62750000Y-81650000D01*
X62750000Y-81650000D02*
X61600000Y-81650000D01*
X57250000Y-74350000D02*
X57250000Y-81650000D01*
%TO.C,D2*%
X57250000Y-94350000D02*
X57250000Y-101650000D01*
X62750000Y-101650000D02*
X61600000Y-101650000D01*
X62750000Y-94350000D02*
X62750000Y-101650000D01*
%TD*%
M02*
