%TF.GenerationSoftware,KiCad,Pcbnew,6.0.2+dfsg-1*%
%TF.CreationDate,2022-11-26T14:15:52-05:00*%
%TF.ProjectId,vindick,76696e64-6963-46b2-9e6b-696361645f70,rev?*%
%TF.SameCoordinates,Original*%
%TF.FileFunction,Copper,L2,Bot*%
%TF.FilePolarity,Positive*%
%FSLAX46Y46*%
G04 Gerber Fmt 4.6, Leading zero omitted, Abs format (unit mm)*
G04 Created by KiCad (PCBNEW 6.0.2+dfsg-1) date 2022-11-26 14:15:52*
%MOMM*%
%LPD*%
G01*
G04 APERTURE LIST*
G04 Aperture macros list*
%AMRoundRect*
0 Rectangle with rounded corners*
0 $1 Rounding radius*
0 $2 $3 $4 $5 $6 $7 $8 $9 X,Y pos of 4 corners*
0 Add a 4 corners polygon primitive as box body*
4,1,4,$2,$3,$4,$5,$6,$7,$8,$9,$2,$3,0*
0 Add four circle primitives for the rounded corners*
1,1,$1+$1,$2,$3*
1,1,$1+$1,$4,$5*
1,1,$1+$1,$6,$7*
1,1,$1+$1,$8,$9*
0 Add four rect primitives between the rounded corners*
20,1,$1+$1,$2,$3,$4,$5,0*
20,1,$1+$1,$4,$5,$6,$7,0*
20,1,$1+$1,$6,$7,$8,$9,0*
20,1,$1+$1,$8,$9,$2,$3,0*%
G04 Aperture macros list end*
%TA.AperFunction,ComponentPad*%
%ADD10R,1.700000X1.700000*%
%TD*%
%TA.AperFunction,ComponentPad*%
%ADD11O,1.700000X1.700000*%
%TD*%
%TA.AperFunction,ComponentPad*%
%ADD12R,2.000000X2.000000*%
%TD*%
%TA.AperFunction,ComponentPad*%
%ADD13C,2.000000*%
%TD*%
%TA.AperFunction,ConnectorPad*%
%ADD14R,1.000000X2.000000*%
%TD*%
%TA.AperFunction,ComponentPad*%
%ADD15O,2.200000X1.100000*%
%TD*%
%TA.AperFunction,SMDPad,CuDef*%
%ADD16RoundRect,0.250000X-0.475000X0.250000X-0.475000X-0.250000X0.475000X-0.250000X0.475000X0.250000X0*%
%TD*%
%TA.AperFunction,SMDPad,CuDef*%
%ADD17R,1.000000X1.500000*%
%TD*%
%TA.AperFunction,ViaPad*%
%ADD18C,0.800000*%
%TD*%
%TA.AperFunction,Conductor*%
%ADD19C,0.250000*%
%TD*%
%TA.AperFunction,Conductor*%
%ADD20C,0.500000*%
%TD*%
G04 APERTURE END LIST*
D10*
%TO.P,I2C1,1,Pin_1*%
%TO.N,/SDA*%
X38800000Y-70380000D03*
D11*
%TO.P,I2C1,2,Pin_2*%
%TO.N,/SCL*%
X38800000Y-67880000D03*
%TO.P,I2C1,3,Pin_3*%
%TO.N,GND*%
X38800000Y-72960000D03*
%TO.P,I2C1,4,Pin_4*%
%TO.N,Net-(C1-Pad1)*%
X38800000Y-75500000D03*
%TD*%
D12*
%TO.P,BZ1,1,-*%
%TO.N,VBUS*%
X62600000Y-68000000D03*
D13*
%TO.P,BZ1,2,+*%
%TO.N,Net-(BZ1-Pad2)*%
X55000000Y-68000000D03*
%TD*%
D14*
%TO.P,J3,1,Pin_1*%
%TO.N,unconnected-(J3-Pad1)*%
X64900000Y-120200000D03*
%TO.P,J3,2,Pin_2*%
%TO.N,unconnected-(J3-Pad2)*%
X62900000Y-120200000D03*
%TO.P,J3,3,Pin_3*%
%TO.N,unconnected-(J3-Pad3)*%
X60900000Y-120200000D03*
%TO.P,J3,4,Pin_4*%
%TO.N,/BUZZ*%
X58900000Y-120200000D03*
%TO.P,J3,5,Pin_5*%
%TO.N,/LIGHT*%
X56900000Y-120200000D03*
%TO.P,J3,6,Pin_6*%
%TO.N,+3V3*%
X54900000Y-120200000D03*
%TD*%
%TO.P,J2,1,Pin_1*%
%TO.N,VBUS*%
X64900000Y-116000000D03*
%TO.P,J2,2,Pin_2*%
%TO.N,GND*%
X62900000Y-116000000D03*
%TO.P,J2,3,Pin_3*%
%TO.N,/TXD*%
X60900000Y-116000000D03*
%TO.P,J2,4,Pin_4*%
%TO.N,/RXD*%
X58900000Y-116000000D03*
%TO.P,J2,5,Pin_5*%
%TO.N,/SDA*%
X56900000Y-116000000D03*
%TO.P,J2,6,Pin_6*%
%TO.N,/SCL*%
X54900000Y-116000000D03*
%TD*%
D15*
%TO.P,J1,S1,SHIELD*%
%TO.N,GND*%
X57500000Y-127650000D03*
%TO.P,J1,S3,SHIELD*%
X62300000Y-127650000D03*
%TD*%
D10*
%TO.P,I2C2,1,Pin_1*%
%TO.N,/SDA*%
X44900000Y-67900000D03*
D11*
%TO.P,I2C2,2,Pin_2*%
%TO.N,/SCL*%
X44900000Y-70440000D03*
%TO.P,I2C2,3,Pin_3*%
%TO.N,GND*%
X44900000Y-72980000D03*
%TO.P,I2C2,4,Pin_4*%
%TO.N,Net-(C4-Pad1)*%
X44900000Y-75520000D03*
%TD*%
D10*
%TO.P,I2C3,1,Pin_1*%
%TO.N,/SDA*%
X66920000Y-64700000D03*
D11*
%TO.P,I2C3,2,Pin_2*%
%TO.N,/SCL*%
X69460000Y-64700000D03*
%TO.P,I2C3,3,Pin_3*%
%TO.N,GND*%
X72000000Y-64700000D03*
%TO.P,I2C3,4,Pin_4*%
%TO.N,Net-(C6-Pad1)*%
X74540000Y-64700000D03*
%TD*%
D10*
%TO.P,I2C4,1,Pin_1*%
%TO.N,/SDA*%
X63800000Y-60400000D03*
D11*
%TO.P,I2C4,2,Pin_2*%
%TO.N,/SCL*%
X66340000Y-60400000D03*
%TO.P,I2C4,3,Pin_3*%
%TO.N,GND*%
X71420000Y-60400000D03*
%TO.P,I2C4,4,Pin_4*%
%TO.N,Net-(C9-Pad1)*%
X68880000Y-60400000D03*
%TD*%
D16*
%TO.P,C2,1*%
%TO.N,VBUS*%
X53400000Y-97300000D03*
%TO.P,C2,2*%
%TO.N,GND*%
X53400000Y-99200000D03*
%TD*%
%TO.P,C3,1*%
%TO.N,VBUS*%
X53400000Y-86500000D03*
%TO.P,C3,2*%
%TO.N,GND*%
X53400000Y-88400000D03*
%TD*%
%TO.P,C5,1*%
%TO.N,VBUS*%
X53500000Y-80300000D03*
%TO.P,C5,2*%
%TO.N,GND*%
X53500000Y-82200000D03*
%TD*%
D17*
%TO.P,D3,1,VDD*%
%TO.N,VBUS*%
X58400000Y-85050000D03*
%TO.P,D3,2,DOUT*%
%TO.N,Net-(D3-Pad2)*%
X61600000Y-85050000D03*
%TO.P,D3,3,VSS*%
%TO.N,GND*%
X61600000Y-89950000D03*
%TO.P,D3,4,DIN*%
%TO.N,Net-(D2-Pad2)*%
X58400000Y-89950000D03*
%TD*%
%TO.P,D4,1,VDD*%
%TO.N,VBUS*%
X58400000Y-75550000D03*
%TO.P,D4,2,DOUT*%
%TO.N,unconnected-(D4-Pad2)*%
X61600000Y-75550000D03*
%TO.P,D4,3,VSS*%
%TO.N,GND*%
X61600000Y-80450000D03*
%TO.P,D4,4,DIN*%
%TO.N,Net-(D3-Pad2)*%
X58400000Y-80450000D03*
%TD*%
%TO.P,D2,1,VDD*%
%TO.N,VBUS*%
X58400000Y-95550000D03*
%TO.P,D2,2,DOUT*%
%TO.N,Net-(D2-Pad2)*%
X61600000Y-95550000D03*
%TO.P,D2,3,VSS*%
%TO.N,GND*%
X61600000Y-100450000D03*
%TO.P,D2,4,DIN*%
%TO.N,/LIGHT*%
X58400000Y-100450000D03*
%TD*%
D18*
%TO.N,Net-(BZ1-Pad2)*%
X52400000Y-73600000D03*
X50200000Y-78400000D03*
%TO.N,VBUS*%
X58387347Y-126112653D03*
X53427227Y-75427227D03*
X61417654Y-126207652D03*
X64000000Y-76500000D03*
X68299998Y-72500000D03*
X53500000Y-109100000D03*
X67399998Y-116000000D03*
%TO.N,GND*%
X61500000Y-110500000D03*
X62000000Y-77500000D03*
X72100000Y-76900000D03*
X81500000Y-75500000D03*
X61500000Y-98500000D03*
X39500000Y-82000000D03*
X58000000Y-113000000D03*
X72000000Y-67500000D03*
X74000000Y-67500000D03*
X56500000Y-113000000D03*
X79500000Y-75500000D03*
X77000000Y-67500000D03*
X42000000Y-82000000D03*
X77000000Y-75500000D03*
X64000000Y-107800000D03*
X72200000Y-75300000D03*
X60000000Y-100500000D03*
X60000000Y-90000000D03*
X67800000Y-114100000D03*
X63000000Y-81500000D03*
X61500000Y-88000000D03*
%TO.N,+3V3*%
X51869933Y-78186604D03*
%TO.N,/TXD*%
X78000000Y-81000000D03*
%TO.N,/LIGHT*%
X55000000Y-101000000D03*
%TO.N,/SDA*%
X60500000Y-112300000D03*
%TO.N,/RXD*%
X76454000Y-80137000D03*
%TD*%
D19*
%TO.N,/SCL*%
X44900000Y-70440000D02*
X43262000Y-70440000D01*
X43262000Y-70440000D02*
X40702000Y-67880000D01*
X40702000Y-67880000D02*
X38800000Y-67880000D01*
%TO.N,/TXD*%
X78000000Y-81000000D02*
X70257718Y-81000000D01*
X70257718Y-81000000D02*
X68521520Y-82736198D01*
X60900000Y-114373530D02*
X60900000Y-116000000D01*
X68521520Y-82736198D02*
X68521520Y-106752009D01*
X68521520Y-106752009D02*
X60900000Y-114373530D01*
%TO.N,/RXD*%
X76454000Y-80137000D02*
X70485000Y-80137000D01*
X59309000Y-114499510D02*
X58900000Y-114908510D01*
X70485000Y-80137000D02*
X68072000Y-82550000D01*
X68072000Y-82550000D02*
X68072000Y-106565812D01*
X68072000Y-106565812D02*
X60138302Y-114499510D01*
X60138302Y-114499510D02*
X59309000Y-114499510D01*
X58900000Y-114908510D02*
X58900000Y-116000000D01*
%TO.N,Net-(BZ1-Pad2)*%
X52000000Y-76600000D02*
X52000000Y-74000000D01*
X52000000Y-74000000D02*
X52400000Y-73600000D01*
X50200000Y-78400000D02*
X52000000Y-76600000D01*
%TO.N,VBUS*%
X64000000Y-73500000D02*
X64000000Y-71900000D01*
D20*
X56500000Y-72500000D02*
X64000000Y-72500000D01*
X67799997Y-119610005D02*
X67799997Y-116399999D01*
X52100000Y-80400000D02*
X52100000Y-79600000D01*
X64000000Y-73500000D02*
X64000000Y-72500000D01*
X53500000Y-109100000D02*
X52100000Y-107700000D01*
X52100000Y-95600000D02*
X52100000Y-86600000D01*
D19*
X52100000Y-97200000D02*
X53300000Y-97200000D01*
X52200000Y-80300000D02*
X52100000Y-80400000D01*
X53500000Y-75500000D02*
X53427227Y-75427227D01*
D20*
X58400000Y-126100000D02*
X58387347Y-126112653D01*
X64900000Y-116000000D02*
X67399998Y-116000000D01*
D19*
X56900000Y-86550000D02*
X58400000Y-85050000D01*
D20*
X67799997Y-116399999D02*
X67399998Y-116000000D01*
X52100000Y-97200000D02*
X52100000Y-95600000D01*
D19*
X56650000Y-97300000D02*
X58400000Y-95550000D01*
D20*
X52100000Y-86600000D02*
X52100000Y-80400000D01*
X61310002Y-126100000D02*
X67799997Y-119610005D01*
D19*
X53400000Y-86500000D02*
X52200000Y-86500000D01*
X58250000Y-75550000D02*
X58400000Y-75550000D01*
D20*
X61310002Y-126100000D02*
X58400000Y-126100000D01*
D19*
X53450000Y-86550000D02*
X53400000Y-86500000D01*
D20*
X52800000Y-77700000D02*
X53500000Y-77000000D01*
X64000000Y-76500000D02*
X64000000Y-73500000D01*
D19*
X52200000Y-86500000D02*
X52100000Y-86600000D01*
D20*
X61310002Y-126100000D02*
X61417654Y-126207652D01*
D19*
X62600000Y-70500000D02*
X62600000Y-68000000D01*
X55650000Y-86550000D02*
X53450000Y-86550000D01*
X53400000Y-97300000D02*
X56650000Y-97300000D01*
X55650000Y-86550000D02*
X56900000Y-86550000D01*
D20*
X52100000Y-79600000D02*
X52800000Y-78900000D01*
D19*
X55450000Y-86500000D02*
X55500000Y-86550000D01*
X53500000Y-80300000D02*
X52200000Y-80300000D01*
D20*
X53500000Y-76500000D02*
X53500000Y-75500000D01*
X52800000Y-78900000D02*
X52800000Y-77700000D01*
X52100000Y-107700000D02*
X52100000Y-97200000D01*
D19*
X53500000Y-80300000D02*
X58250000Y-75550000D01*
X64000000Y-71900000D02*
X62600000Y-70500000D01*
D20*
X53500000Y-75500000D02*
X56500000Y-72500000D01*
X64000000Y-72500000D02*
X68299998Y-72500000D01*
D19*
X53300000Y-97200000D02*
X53400000Y-97300000D01*
X55500000Y-86550000D02*
X55650000Y-86550000D01*
D20*
X53500000Y-77000000D02*
X53500000Y-76500000D01*
%TO.N,+3V3*%
X54900000Y-120200000D02*
X52200000Y-120200000D01*
D19*
X51849990Y-78166661D02*
X51869933Y-78186604D01*
D20*
X51400000Y-78600000D02*
X51849990Y-78150010D01*
X52200000Y-120200000D02*
X51400000Y-119400000D01*
D19*
X51849990Y-78150010D02*
X51849990Y-78166661D01*
D20*
X51400000Y-119400000D02*
X51400000Y-78600000D01*
D19*
%TO.N,Net-(D2-Pad2)*%
X60774999Y-94724999D02*
X60774999Y-93574999D01*
X58400000Y-91200000D02*
X58400000Y-89950000D01*
X61600000Y-95550000D02*
X60774999Y-94724999D01*
X60774999Y-93574999D02*
X58400000Y-91200000D01*
%TO.N,Net-(D3-Pad2)*%
X58400000Y-81700000D02*
X58400000Y-80450000D01*
X61600000Y-85050000D02*
X61600000Y-84900000D01*
X61600000Y-84900000D02*
X58400000Y-81700000D01*
%TO.N,/LIGHT*%
X55000000Y-101000000D02*
X55550000Y-100450000D01*
X55550000Y-100450000D02*
X58400000Y-100450000D01*
%TO.N,/SCL*%
X67350010Y-106652085D02*
X67350010Y-75486400D01*
X69500000Y-64740000D02*
X69460000Y-64700000D01*
X47060000Y-70440000D02*
X55500000Y-62000000D01*
X55500000Y-62000000D02*
X64740000Y-62000000D01*
X67350010Y-75486400D02*
X69500000Y-73336410D01*
X44900000Y-70440000D02*
X47060000Y-70440000D01*
X54900000Y-116000000D02*
X56850010Y-114049990D01*
X59952105Y-114049990D02*
X67350010Y-106652085D01*
X69500000Y-73336410D02*
X69500000Y-64740000D01*
X56850010Y-114049990D02*
X59952105Y-114049990D01*
X64740000Y-62000000D02*
X66340000Y-60400000D01*
%TO.N,/SDA*%
X66900000Y-75300000D02*
X66900000Y-106465685D01*
X69024999Y-73175001D02*
X66900000Y-75300000D01*
X69024999Y-66804999D02*
X69024999Y-73175001D01*
X44900000Y-67900000D02*
X48900000Y-67900000D01*
X66920000Y-64700000D02*
X69024999Y-66804999D01*
X48900000Y-67900000D02*
X56400000Y-60400000D01*
X66900000Y-106465685D02*
X61065685Y-112300000D01*
X56400000Y-60400000D02*
X63800000Y-60400000D01*
X61065685Y-112300000D02*
X60500000Y-112300000D01*
%TD*%
%TA.AperFunction,Conductor*%
%TO.N,GND*%
G36*
X69303222Y-106786244D02*
G01*
X69362394Y-106825477D01*
X69390961Y-106890472D01*
X69392000Y-106906620D01*
X69392000Y-127866000D01*
X69371998Y-127934121D01*
X69318342Y-127980614D01*
X69266000Y-127992000D01*
X66408702Y-127992000D01*
X66407932Y-127991998D01*
X66407078Y-127991993D01*
X66330348Y-127991524D01*
X66321719Y-127993990D01*
X66321714Y-127993991D01*
X66301952Y-127999639D01*
X66285191Y-128003217D01*
X66264848Y-128006130D01*
X66264838Y-128006133D01*
X66255955Y-128007405D01*
X66232605Y-128018021D01*
X66215093Y-128024464D01*
X66207057Y-128026761D01*
X66190435Y-128031512D01*
X66165452Y-128047274D01*
X66150386Y-128055404D01*
X66123490Y-128067633D01*
X66104061Y-128084374D01*
X66089053Y-128095479D01*
X66067369Y-128109160D01*
X66061427Y-128115888D01*
X66047819Y-128131296D01*
X66035627Y-128143340D01*
X66013253Y-128162619D01*
X66008374Y-128170147D01*
X66008371Y-128170150D01*
X65999304Y-128184139D01*
X65988014Y-128199013D01*
X65971044Y-128218228D01*
X65958490Y-128244966D01*
X65950176Y-128259935D01*
X65934107Y-128284727D01*
X65931535Y-128293327D01*
X65926761Y-128309290D01*
X65920099Y-128326736D01*
X65909201Y-128349948D01*
X65904658Y-128379128D01*
X65900874Y-128395849D01*
X65894986Y-128415536D01*
X65894985Y-128415539D01*
X65892413Y-128424141D01*
X65892358Y-128433116D01*
X65892358Y-128433117D01*
X65892203Y-128458546D01*
X65892170Y-128459328D01*
X65892000Y-128460423D01*
X65892000Y-128491298D01*
X65891998Y-128492068D01*
X65891524Y-128569652D01*
X65891908Y-128570996D01*
X65892000Y-128572341D01*
X65892000Y-130866000D01*
X65871998Y-130934121D01*
X65818342Y-130980614D01*
X65766000Y-130992000D01*
X54034000Y-130992000D01*
X53965879Y-130971998D01*
X53919386Y-130918342D01*
X53908000Y-130866000D01*
X53908000Y-129794601D01*
X55376656Y-129794601D01*
X55377392Y-129801604D01*
X55377392Y-129801605D01*
X55393670Y-129956475D01*
X55394678Y-129966068D01*
X55450240Y-130129282D01*
X55540582Y-130276130D01*
X55545513Y-130281165D01*
X55545515Y-130281168D01*
X55604016Y-130340907D01*
X55661212Y-130399313D01*
X55806136Y-130492710D01*
X55812756Y-130495120D01*
X55812759Y-130495121D01*
X55961531Y-130549270D01*
X55968150Y-130551679D01*
X56101301Y-130568500D01*
X56193354Y-130568500D01*
X56321337Y-130554144D01*
X56327983Y-130551830D01*
X56327986Y-130551829D01*
X56477511Y-130499759D01*
X56484159Y-130497444D01*
X56490130Y-130493713D01*
X56490132Y-130493712D01*
X56624399Y-130409813D01*
X56630373Y-130406080D01*
X56696002Y-130340907D01*
X56747714Y-130289555D01*
X56747717Y-130289551D01*
X56752711Y-130284592D01*
X56845094Y-130139020D01*
X56902930Y-129976598D01*
X56903763Y-129969612D01*
X56903764Y-129969608D01*
X56922510Y-129812392D01*
X56923344Y-129805399D01*
X56922777Y-129800002D01*
X62776776Y-129800002D01*
X62777465Y-129804812D01*
X62777465Y-129804813D01*
X62777548Y-129805390D01*
X62777547Y-129805399D01*
X62777548Y-129805399D01*
X62781213Y-129830991D01*
X62781879Y-129836499D01*
X62793112Y-129950553D01*
X62794907Y-129956471D01*
X62794908Y-129956475D01*
X62803025Y-129983232D01*
X62837027Y-130095322D01*
X62839944Y-130100780D01*
X62839946Y-130100784D01*
X62858388Y-130135286D01*
X62908341Y-130228742D01*
X63004314Y-130345686D01*
X63121258Y-130441659D01*
X63171138Y-130468320D01*
X63249216Y-130510054D01*
X63249220Y-130510056D01*
X63254678Y-130512973D01*
X63260598Y-130514769D01*
X63260601Y-130514770D01*
X63393525Y-130555092D01*
X63393529Y-130555093D01*
X63399447Y-130556888D01*
X63405608Y-130557495D01*
X63405609Y-130557495D01*
X63496029Y-130566401D01*
X63504579Y-130567540D01*
X63532660Y-130572264D01*
X63532672Y-130572265D01*
X63537463Y-130573071D01*
X63543818Y-130573149D01*
X63545143Y-130573165D01*
X63545147Y-130573165D01*
X63550002Y-130573224D01*
X63576955Y-130569364D01*
X63600677Y-130568421D01*
X63601301Y-130568500D01*
X63693354Y-130568500D01*
X63693354Y-130568550D01*
X63719069Y-130569977D01*
X63737459Y-130573071D01*
X63743597Y-130573146D01*
X63745133Y-130573165D01*
X63745138Y-130573165D01*
X63749998Y-130573224D01*
X63754816Y-130572534D01*
X63754818Y-130572534D01*
X63780987Y-130568787D01*
X63786495Y-130568122D01*
X63894391Y-130557495D01*
X63894392Y-130557495D01*
X63900553Y-130556888D01*
X63906471Y-130555093D01*
X63906475Y-130555092D01*
X64039399Y-130514770D01*
X64039402Y-130514769D01*
X64045322Y-130512973D01*
X64050780Y-130510056D01*
X64050784Y-130510054D01*
X64128862Y-130468320D01*
X64178742Y-130441659D01*
X64295686Y-130345686D01*
X64391659Y-130228742D01*
X64441612Y-130135286D01*
X64460054Y-130100784D01*
X64460056Y-130100780D01*
X64462973Y-130095322D01*
X64496975Y-129983232D01*
X64505092Y-129956475D01*
X64505093Y-129956471D01*
X64506888Y-129950553D01*
X64516401Y-129853964D01*
X64517540Y-129845414D01*
X64519506Y-129833727D01*
X64519507Y-129833722D01*
X64523071Y-129812541D01*
X64523224Y-129800002D01*
X64523224Y-129799998D01*
X64518787Y-129769014D01*
X64518123Y-129763519D01*
X64507495Y-129655610D01*
X64506888Y-129649447D01*
X64498988Y-129623402D01*
X64464770Y-129510601D01*
X64464769Y-129510598D01*
X64462973Y-129504678D01*
X64443167Y-129467622D01*
X64394575Y-129376714D01*
X64391659Y-129371258D01*
X64295686Y-129254314D01*
X64178742Y-129158341D01*
X64083232Y-129107290D01*
X64050784Y-129089946D01*
X64050780Y-129089944D01*
X64045322Y-129087027D01*
X64039402Y-129085231D01*
X64039399Y-129085230D01*
X63906475Y-129044908D01*
X63906471Y-129044907D01*
X63900553Y-129043112D01*
X63894392Y-129042505D01*
X63894391Y-129042505D01*
X63803971Y-129033599D01*
X63795421Y-129032460D01*
X63767340Y-129027736D01*
X63767328Y-129027735D01*
X63762537Y-129026929D01*
X63756182Y-129026851D01*
X63754857Y-129026835D01*
X63754853Y-129026835D01*
X63749998Y-129026776D01*
X63723045Y-129030636D01*
X63699323Y-129031579D01*
X63698699Y-129031500D01*
X63606646Y-129031500D01*
X63606646Y-129031450D01*
X63580931Y-129030023D01*
X63562541Y-129026929D01*
X63556403Y-129026854D01*
X63554867Y-129026835D01*
X63554862Y-129026835D01*
X63550002Y-129026776D01*
X63545184Y-129027466D01*
X63545182Y-129027466D01*
X63519013Y-129031213D01*
X63513505Y-129031878D01*
X63405609Y-129042505D01*
X63405608Y-129042505D01*
X63399447Y-129043112D01*
X63393529Y-129044907D01*
X63393525Y-129044908D01*
X63260601Y-129085230D01*
X63260598Y-129085231D01*
X63254678Y-129087027D01*
X63249220Y-129089944D01*
X63249216Y-129089946D01*
X63216768Y-129107290D01*
X63121258Y-129158341D01*
X63004314Y-129254314D01*
X62908341Y-129371258D01*
X62905425Y-129376714D01*
X62856834Y-129467622D01*
X62837027Y-129504678D01*
X62835231Y-129510598D01*
X62835230Y-129510601D01*
X62801013Y-129623402D01*
X62793112Y-129649447D01*
X62792505Y-129655610D01*
X62783600Y-129746022D01*
X62782461Y-129754576D01*
X62780029Y-129769032D01*
X62776929Y-129787459D01*
X62776929Y-129787463D01*
X62776776Y-129800002D01*
X56922777Y-129800002D01*
X56921459Y-129787463D01*
X56906058Y-129640932D01*
X56906057Y-129640930D01*
X56905322Y-129633932D01*
X56849760Y-129470718D01*
X56759418Y-129323870D01*
X56754487Y-129318835D01*
X56754485Y-129318832D01*
X56643716Y-129205719D01*
X56643715Y-129205718D01*
X56638788Y-129200687D01*
X56493864Y-129107290D01*
X56487244Y-129104880D01*
X56487241Y-129104879D01*
X56338469Y-129050730D01*
X56338468Y-129050730D01*
X56331850Y-129048321D01*
X56198699Y-129031500D01*
X56106646Y-129031500D01*
X55978663Y-129045856D01*
X55972017Y-129048170D01*
X55972014Y-129048171D01*
X55865595Y-129085230D01*
X55815841Y-129102556D01*
X55809870Y-129106287D01*
X55809868Y-129106288D01*
X55720286Y-129162265D01*
X55669627Y-129193920D01*
X55612760Y-129250392D01*
X55552286Y-129310445D01*
X55552283Y-129310449D01*
X55547289Y-129315408D01*
X55454906Y-129460980D01*
X55397070Y-129623402D01*
X55396237Y-129630388D01*
X55396236Y-129630392D01*
X55393964Y-129649447D01*
X55376656Y-129794601D01*
X53908000Y-129794601D01*
X53908000Y-128508702D01*
X53908002Y-128507932D01*
X53908421Y-128439322D01*
X53908476Y-128430348D01*
X53906010Y-128421719D01*
X53906009Y-128421714D01*
X53900361Y-128401952D01*
X53896783Y-128385191D01*
X53893870Y-128364848D01*
X53893867Y-128364838D01*
X53892595Y-128355955D01*
X53881979Y-128332605D01*
X53875536Y-128315093D01*
X53870954Y-128299063D01*
X53868488Y-128290435D01*
X53852726Y-128265452D01*
X53844596Y-128250386D01*
X53832367Y-128223490D01*
X53815626Y-128204061D01*
X53804521Y-128189053D01*
X53795630Y-128174961D01*
X53790840Y-128167369D01*
X53768703Y-128147818D01*
X53756659Y-128135626D01*
X53743239Y-128120051D01*
X53743237Y-128120050D01*
X53737381Y-128113253D01*
X53729853Y-128108374D01*
X53729850Y-128108371D01*
X53715861Y-128099304D01*
X53700987Y-128088014D01*
X53688502Y-128076988D01*
X53681772Y-128071044D01*
X53673646Y-128067229D01*
X53673645Y-128067228D01*
X53667979Y-128064568D01*
X53655034Y-128058490D01*
X53640065Y-128050176D01*
X53615273Y-128034107D01*
X53590709Y-128026761D01*
X53573264Y-128020099D01*
X53568827Y-128018016D01*
X53550052Y-128009201D01*
X53520870Y-128004657D01*
X53504151Y-128000874D01*
X53484464Y-127994986D01*
X53484461Y-127994985D01*
X53475859Y-127992413D01*
X53466884Y-127992358D01*
X53466883Y-127992358D01*
X53460190Y-127992317D01*
X53441444Y-127992203D01*
X53440672Y-127992170D01*
X53439577Y-127992000D01*
X53408702Y-127992000D01*
X53407932Y-127991998D01*
X53334284Y-127991548D01*
X53334283Y-127991548D01*
X53330348Y-127991524D01*
X53329004Y-127991908D01*
X53327659Y-127992000D01*
X50534000Y-127992000D01*
X50465879Y-127971998D01*
X50419386Y-127918342D01*
X50418826Y-127915768D01*
X55925302Y-127915768D01*
X55962554Y-128042342D01*
X55967147Y-128053710D01*
X56057566Y-128226666D01*
X56064282Y-128236928D01*
X56186568Y-128389020D01*
X56195152Y-128397786D01*
X56344656Y-128523236D01*
X56354767Y-128530160D01*
X56525798Y-128624184D01*
X56537062Y-128629012D01*
X56723095Y-128688025D01*
X56735084Y-128690573D01*
X56886947Y-128707607D01*
X56893971Y-128708000D01*
X57227885Y-128708000D01*
X57243124Y-128703525D01*
X57244329Y-128702135D01*
X57246000Y-128694452D01*
X57246000Y-128689885D01*
X57754000Y-128689885D01*
X57758475Y-128705124D01*
X57759865Y-128706329D01*
X57767548Y-128708000D01*
X58099124Y-128708000D01*
X58105272Y-128707699D01*
X58250361Y-128693473D01*
X58262396Y-128691090D01*
X58449223Y-128634683D01*
X58460565Y-128630008D01*
X58632879Y-128538388D01*
X58643095Y-128531601D01*
X58794335Y-128408253D01*
X58803039Y-128399609D01*
X58927438Y-128249237D01*
X58934297Y-128239069D01*
X59027121Y-128067393D01*
X59031871Y-128056093D01*
X59073595Y-127921307D01*
X59073676Y-127915768D01*
X60725302Y-127915768D01*
X60762554Y-128042342D01*
X60767147Y-128053710D01*
X60857566Y-128226666D01*
X60864282Y-128236928D01*
X60986568Y-128389020D01*
X60995152Y-128397786D01*
X61144656Y-128523236D01*
X61154767Y-128530160D01*
X61325798Y-128624184D01*
X61337062Y-128629012D01*
X61523095Y-128688025D01*
X61535084Y-128690573D01*
X61686947Y-128707607D01*
X61693971Y-128708000D01*
X62027885Y-128708000D01*
X62043124Y-128703525D01*
X62044329Y-128702135D01*
X62046000Y-128694452D01*
X62046000Y-128689885D01*
X62554000Y-128689885D01*
X62558475Y-128705124D01*
X62559865Y-128706329D01*
X62567548Y-128708000D01*
X62899124Y-128708000D01*
X62905272Y-128707699D01*
X63050361Y-128693473D01*
X63062396Y-128691090D01*
X63249223Y-128634683D01*
X63260565Y-128630008D01*
X63432879Y-128538388D01*
X63443095Y-128531601D01*
X63594335Y-128408253D01*
X63603039Y-128399609D01*
X63727438Y-128249237D01*
X63734297Y-128239069D01*
X63827121Y-128067393D01*
X63831871Y-128056093D01*
X63873595Y-127921307D01*
X63873801Y-127907205D01*
X63867045Y-127904000D01*
X62572115Y-127904000D01*
X62556876Y-127908475D01*
X62555671Y-127909865D01*
X62554000Y-127917548D01*
X62554000Y-128689885D01*
X62046000Y-128689885D01*
X62046000Y-127922115D01*
X62041525Y-127906876D01*
X62040135Y-127905671D01*
X62032452Y-127904000D01*
X60739953Y-127904000D01*
X60726422Y-127907973D01*
X60725302Y-127915768D01*
X59073676Y-127915768D01*
X59073801Y-127907205D01*
X59067045Y-127904000D01*
X57772115Y-127904000D01*
X57756876Y-127908475D01*
X57755671Y-127909865D01*
X57754000Y-127917548D01*
X57754000Y-128689885D01*
X57246000Y-128689885D01*
X57246000Y-127922115D01*
X57241525Y-127906876D01*
X57240135Y-127905671D01*
X57232452Y-127904000D01*
X55939953Y-127904000D01*
X55926422Y-127907973D01*
X55925302Y-127915768D01*
X50418826Y-127915768D01*
X50408000Y-127866000D01*
X50408000Y-126000000D01*
X50786526Y-126000000D01*
X50806391Y-126252403D01*
X50807545Y-126257210D01*
X50807546Y-126257216D01*
X50839669Y-126391017D01*
X50865495Y-126498591D01*
X50867388Y-126503162D01*
X50867389Y-126503164D01*
X50936492Y-126669992D01*
X50962384Y-126732502D01*
X51094672Y-126948376D01*
X51259102Y-127140898D01*
X51451624Y-127305328D01*
X51667498Y-127437616D01*
X51672068Y-127439509D01*
X51672072Y-127439511D01*
X51896836Y-127532611D01*
X51901409Y-127534505D01*
X51986032Y-127554821D01*
X52142784Y-127592454D01*
X52142790Y-127592455D01*
X52147597Y-127593609D01*
X52247416Y-127601465D01*
X52334345Y-127608307D01*
X52334352Y-127608307D01*
X52336801Y-127608500D01*
X52463199Y-127608500D01*
X52465648Y-127608307D01*
X52465655Y-127608307D01*
X52552584Y-127601465D01*
X52652403Y-127593609D01*
X52657210Y-127592455D01*
X52657216Y-127592454D01*
X52813968Y-127554821D01*
X52898591Y-127534505D01*
X52903164Y-127532611D01*
X53127928Y-127439511D01*
X53127932Y-127439509D01*
X53132502Y-127437616D01*
X53205643Y-127392795D01*
X55926199Y-127392795D01*
X55932955Y-127396000D01*
X57227885Y-127396000D01*
X57243124Y-127391525D01*
X57244329Y-127390135D01*
X57246000Y-127382452D01*
X57246000Y-126610115D01*
X57241525Y-126594876D01*
X57240135Y-126593671D01*
X57232452Y-126592000D01*
X56900876Y-126592000D01*
X56894728Y-126592301D01*
X56749639Y-126606527D01*
X56737604Y-126608910D01*
X56550777Y-126665317D01*
X56539435Y-126669992D01*
X56367121Y-126761612D01*
X56356905Y-126768399D01*
X56205665Y-126891747D01*
X56196961Y-126900391D01*
X56072562Y-127050763D01*
X56065703Y-127060931D01*
X55972879Y-127232607D01*
X55968129Y-127243907D01*
X55926405Y-127378693D01*
X55926199Y-127392795D01*
X53205643Y-127392795D01*
X53348376Y-127305328D01*
X53540898Y-127140898D01*
X53705328Y-126948376D01*
X53837616Y-126732502D01*
X53863509Y-126669992D01*
X53932611Y-126503164D01*
X53932612Y-126503162D01*
X53934505Y-126498591D01*
X53960331Y-126391017D01*
X53992454Y-126257216D01*
X53992455Y-126257210D01*
X53993609Y-126252403D01*
X54013474Y-126000000D01*
X53993609Y-125747597D01*
X53934505Y-125501409D01*
X53932611Y-125496836D01*
X53839511Y-125272072D01*
X53839509Y-125272068D01*
X53837616Y-125267498D01*
X53705328Y-125051624D01*
X53540898Y-124859102D01*
X53348376Y-124694672D01*
X53132502Y-124562384D01*
X53127932Y-124560491D01*
X53127928Y-124560489D01*
X52903164Y-124467389D01*
X52903162Y-124467388D01*
X52898591Y-124465495D01*
X52813968Y-124445179D01*
X52657216Y-124407546D01*
X52657210Y-124407545D01*
X52652403Y-124406391D01*
X52552584Y-124398535D01*
X52465655Y-124391693D01*
X52465648Y-124391693D01*
X52463199Y-124391500D01*
X52336801Y-124391500D01*
X52334352Y-124391693D01*
X52334345Y-124391693D01*
X52247416Y-124398535D01*
X52147597Y-124406391D01*
X52142790Y-124407545D01*
X52142784Y-124407546D01*
X51986032Y-124445179D01*
X51901409Y-124465495D01*
X51896838Y-124467388D01*
X51896836Y-124467389D01*
X51672072Y-124560489D01*
X51672068Y-124560491D01*
X51667498Y-124562384D01*
X51451624Y-124694672D01*
X51259102Y-124859102D01*
X51094672Y-125051624D01*
X50962384Y-125267498D01*
X50960491Y-125272068D01*
X50960489Y-125272072D01*
X50867389Y-125496836D01*
X50865495Y-125501409D01*
X50806391Y-125747597D01*
X50786526Y-126000000D01*
X50408000Y-126000000D01*
X50408000Y-119600148D01*
X50428002Y-119532027D01*
X50481658Y-119485534D01*
X50551932Y-119475430D01*
X50616512Y-119504924D01*
X50656213Y-119570488D01*
X50656818Y-119575681D01*
X50681735Y-119644327D01*
X50683152Y-119648455D01*
X50705649Y-119717899D01*
X50709445Y-119724154D01*
X50711951Y-119729628D01*
X50714670Y-119735058D01*
X50717167Y-119741937D01*
X50721180Y-119748057D01*
X50721180Y-119748058D01*
X50757186Y-119802976D01*
X50759523Y-119806680D01*
X50797405Y-119869107D01*
X50801121Y-119873315D01*
X50801122Y-119873316D01*
X50804803Y-119877484D01*
X50804776Y-119877508D01*
X50807429Y-119880500D01*
X50810132Y-119883733D01*
X50814144Y-119889852D01*
X50819456Y-119894884D01*
X50870383Y-119943128D01*
X50872825Y-119945506D01*
X51616230Y-120688911D01*
X51628616Y-120703323D01*
X51637149Y-120714918D01*
X51637154Y-120714923D01*
X51641492Y-120720818D01*
X51647070Y-120725557D01*
X51647073Y-120725560D01*
X51681768Y-120755035D01*
X51689284Y-120761965D01*
X51694979Y-120767660D01*
X51697861Y-120769940D01*
X51717251Y-120785281D01*
X51720655Y-120788072D01*
X51770703Y-120830591D01*
X51776285Y-120835333D01*
X51782801Y-120838661D01*
X51787850Y-120842028D01*
X51792979Y-120845195D01*
X51798716Y-120849734D01*
X51864875Y-120880655D01*
X51868769Y-120882558D01*
X51933808Y-120915769D01*
X51940917Y-120917508D01*
X51946551Y-120919604D01*
X51952321Y-120921523D01*
X51958950Y-120924622D01*
X51966113Y-120926112D01*
X51966116Y-120926113D01*
X52016830Y-120936661D01*
X52030435Y-120939491D01*
X52034701Y-120940457D01*
X52105610Y-120957808D01*
X52111212Y-120958156D01*
X52111215Y-120958156D01*
X52116764Y-120958500D01*
X52116762Y-120958535D01*
X52120734Y-120958775D01*
X52124955Y-120959152D01*
X52132115Y-120960641D01*
X52209542Y-120958546D01*
X52212950Y-120958500D01*
X53765500Y-120958500D01*
X53833621Y-120978502D01*
X53880114Y-121032158D01*
X53891500Y-121084500D01*
X53891500Y-121248134D01*
X53898255Y-121310316D01*
X53949385Y-121446705D01*
X54036739Y-121563261D01*
X54153295Y-121650615D01*
X54289684Y-121701745D01*
X54351866Y-121708500D01*
X55448134Y-121708500D01*
X55510316Y-121701745D01*
X55646705Y-121650615D01*
X55763261Y-121563261D01*
X55799176Y-121515340D01*
X55856033Y-121472827D01*
X55926851Y-121467801D01*
X55989145Y-121501861D01*
X56000817Y-121515330D01*
X56036739Y-121563261D01*
X56153295Y-121650615D01*
X56289684Y-121701745D01*
X56351866Y-121708500D01*
X57448134Y-121708500D01*
X57510316Y-121701745D01*
X57646705Y-121650615D01*
X57763261Y-121563261D01*
X57799176Y-121515340D01*
X57856033Y-121472827D01*
X57926851Y-121467801D01*
X57989145Y-121501861D01*
X58000817Y-121515330D01*
X58036739Y-121563261D01*
X58153295Y-121650615D01*
X58289684Y-121701745D01*
X58351866Y-121708500D01*
X59448134Y-121708500D01*
X59510316Y-121701745D01*
X59646705Y-121650615D01*
X59763261Y-121563261D01*
X59799176Y-121515340D01*
X59856033Y-121472827D01*
X59926851Y-121467801D01*
X59989145Y-121501861D01*
X60000817Y-121515330D01*
X60036739Y-121563261D01*
X60153295Y-121650615D01*
X60289684Y-121701745D01*
X60351866Y-121708500D01*
X61448134Y-121708500D01*
X61510316Y-121701745D01*
X61646705Y-121650615D01*
X61763261Y-121563261D01*
X61799176Y-121515340D01*
X61856033Y-121472827D01*
X61926851Y-121467801D01*
X61989145Y-121501861D01*
X62000817Y-121515330D01*
X62036739Y-121563261D01*
X62153295Y-121650615D01*
X62289684Y-121701745D01*
X62351866Y-121708500D01*
X63448134Y-121708500D01*
X63510316Y-121701745D01*
X63646705Y-121650615D01*
X63763261Y-121563261D01*
X63799176Y-121515340D01*
X63856033Y-121472827D01*
X63926851Y-121467801D01*
X63989145Y-121501861D01*
X64000817Y-121515330D01*
X64036739Y-121563261D01*
X64153295Y-121650615D01*
X64289684Y-121701745D01*
X64333924Y-121706551D01*
X64340239Y-121707237D01*
X64405801Y-121734479D01*
X64446227Y-121792842D01*
X64448682Y-121863796D01*
X64415726Y-121921595D01*
X61032726Y-125304595D01*
X60970414Y-125338621D01*
X60943631Y-125341500D01*
X58911061Y-125341500D01*
X58848509Y-125324739D01*
X58844099Y-125321535D01*
X58838069Y-125318850D01*
X58675666Y-125246544D01*
X58675665Y-125246544D01*
X58669635Y-125243859D01*
X58576235Y-125224006D01*
X58489291Y-125205525D01*
X58489286Y-125205525D01*
X58482834Y-125204153D01*
X58291860Y-125204153D01*
X58285408Y-125205525D01*
X58285403Y-125205525D01*
X58198459Y-125224006D01*
X58105059Y-125243859D01*
X58099029Y-125246544D01*
X58099028Y-125246544D01*
X57936625Y-125318850D01*
X57936623Y-125318851D01*
X57930595Y-125321535D01*
X57925254Y-125325415D01*
X57925253Y-125325416D01*
X57875190Y-125361789D01*
X57776094Y-125433787D01*
X57648307Y-125575709D01*
X57552820Y-125741097D01*
X57493805Y-125922725D01*
X57473843Y-126112653D01*
X57474533Y-126119218D01*
X57488013Y-126247469D01*
X57493805Y-126302581D01*
X57552820Y-126484209D01*
X57648307Y-126649597D01*
X57721637Y-126731039D01*
X57752353Y-126795044D01*
X57754000Y-126815347D01*
X57754000Y-127377885D01*
X57758475Y-127393124D01*
X57759865Y-127394329D01*
X57767548Y-127396000D01*
X59060047Y-127396000D01*
X59073578Y-127392027D01*
X59074698Y-127384232D01*
X59037446Y-127257658D01*
X59032853Y-127246290D01*
X58942434Y-127073334D01*
X58932346Y-127057919D01*
X58933441Y-127057202D01*
X58908927Y-126997826D01*
X58921612Y-126927972D01*
X58970049Y-126876065D01*
X59034220Y-126858500D01*
X60727949Y-126858500D01*
X60796070Y-126878502D01*
X60806034Y-126886110D01*
X60806401Y-126886518D01*
X60827446Y-126901808D01*
X60870800Y-126958030D01*
X60876875Y-127028766D01*
X60864221Y-127063672D01*
X60772879Y-127232607D01*
X60768129Y-127243907D01*
X60726405Y-127378693D01*
X60726199Y-127392795D01*
X60732955Y-127396000D01*
X63860047Y-127396000D01*
X63873578Y-127392027D01*
X63874698Y-127384232D01*
X63837446Y-127257658D01*
X63832853Y-127246290D01*
X63742434Y-127073334D01*
X63735718Y-127063072D01*
X63613432Y-126910980D01*
X63604848Y-126902214D01*
X63455344Y-126776764D01*
X63445233Y-126769840D01*
X63274202Y-126675816D01*
X63262938Y-126670988D01*
X63076905Y-126611975D01*
X63064916Y-126609427D01*
X62913053Y-126592393D01*
X62906029Y-126592000D01*
X62421449Y-126592000D01*
X62353328Y-126571998D01*
X62306835Y-126518342D01*
X62296731Y-126448068D01*
X62301616Y-126427064D01*
X62309156Y-126403858D01*
X62311196Y-126397580D01*
X62321871Y-126296018D01*
X62330468Y-126214217D01*
X62331158Y-126207652D01*
X62330725Y-126203530D01*
X62350470Y-126136284D01*
X62367373Y-126115310D01*
X62482683Y-126000000D01*
X65786526Y-126000000D01*
X65806391Y-126252403D01*
X65807545Y-126257210D01*
X65807546Y-126257216D01*
X65839669Y-126391017D01*
X65865495Y-126498591D01*
X65867388Y-126503162D01*
X65867389Y-126503164D01*
X65936492Y-126669992D01*
X65962384Y-126732502D01*
X66094672Y-126948376D01*
X66259102Y-127140898D01*
X66451624Y-127305328D01*
X66667498Y-127437616D01*
X66672068Y-127439509D01*
X66672072Y-127439511D01*
X66896836Y-127532611D01*
X66901409Y-127534505D01*
X66986032Y-127554821D01*
X67142784Y-127592454D01*
X67142790Y-127592455D01*
X67147597Y-127593609D01*
X67247416Y-127601465D01*
X67334345Y-127608307D01*
X67334352Y-127608307D01*
X67336801Y-127608500D01*
X67463199Y-127608500D01*
X67465648Y-127608307D01*
X67465655Y-127608307D01*
X67552584Y-127601465D01*
X67652403Y-127593609D01*
X67657210Y-127592455D01*
X67657216Y-127592454D01*
X67813968Y-127554821D01*
X67898591Y-127534505D01*
X67903164Y-127532611D01*
X68127928Y-127439511D01*
X68127932Y-127439509D01*
X68132502Y-127437616D01*
X68348376Y-127305328D01*
X68540898Y-127140898D01*
X68705328Y-126948376D01*
X68837616Y-126732502D01*
X68863509Y-126669992D01*
X68932611Y-126503164D01*
X68932612Y-126503162D01*
X68934505Y-126498591D01*
X68960331Y-126391017D01*
X68992454Y-126257216D01*
X68992455Y-126257210D01*
X68993609Y-126252403D01*
X69013474Y-126000000D01*
X68993609Y-125747597D01*
X68934505Y-125501409D01*
X68932611Y-125496836D01*
X68839511Y-125272072D01*
X68839509Y-125272068D01*
X68837616Y-125267498D01*
X68705328Y-125051624D01*
X68540898Y-124859102D01*
X68348376Y-124694672D01*
X68132502Y-124562384D01*
X68127932Y-124560491D01*
X68127928Y-124560489D01*
X67903164Y-124467389D01*
X67903162Y-124467388D01*
X67898591Y-124465495D01*
X67813968Y-124445179D01*
X67657216Y-124407546D01*
X67657210Y-124407545D01*
X67652403Y-124406391D01*
X67552584Y-124398535D01*
X67465655Y-124391693D01*
X67465648Y-124391693D01*
X67463199Y-124391500D01*
X67336801Y-124391500D01*
X67334352Y-124391693D01*
X67334345Y-124391693D01*
X67247416Y-124398535D01*
X67147597Y-124406391D01*
X67142790Y-124407545D01*
X67142784Y-124407546D01*
X66986032Y-124445179D01*
X66901409Y-124465495D01*
X66896838Y-124467388D01*
X66896836Y-124467389D01*
X66672072Y-124560489D01*
X66672068Y-124560491D01*
X66667498Y-124562384D01*
X66451624Y-124694672D01*
X66259102Y-124859102D01*
X66094672Y-125051624D01*
X65962384Y-125267498D01*
X65960491Y-125272068D01*
X65960489Y-125272072D01*
X65867389Y-125496836D01*
X65865495Y-125501409D01*
X65806391Y-125747597D01*
X65786526Y-126000000D01*
X62482683Y-126000000D01*
X68288908Y-120193775D01*
X68303320Y-120181389D01*
X68314915Y-120172856D01*
X68314920Y-120172851D01*
X68320815Y-120168513D01*
X68325554Y-120162935D01*
X68325557Y-120162932D01*
X68355032Y-120128237D01*
X68361962Y-120120721D01*
X68367657Y-120115026D01*
X68385278Y-120092754D01*
X68388069Y-120089350D01*
X68430588Y-120039302D01*
X68430589Y-120039300D01*
X68435330Y-120033720D01*
X68438658Y-120027204D01*
X68442025Y-120022155D01*
X68445192Y-120017026D01*
X68449731Y-120011289D01*
X68480652Y-119945130D01*
X68482558Y-119941230D01*
X68515766Y-119876197D01*
X68517505Y-119869089D01*
X68519604Y-119863446D01*
X68521521Y-119857683D01*
X68524619Y-119851055D01*
X68539484Y-119779588D01*
X68540454Y-119775304D01*
X68551698Y-119729352D01*
X68557805Y-119704395D01*
X68558497Y-119693241D01*
X68558533Y-119693243D01*
X68558772Y-119689250D01*
X68559146Y-119685058D01*
X68560637Y-119677890D01*
X68558543Y-119600484D01*
X68558497Y-119597077D01*
X68558497Y-116467069D01*
X68559930Y-116448119D01*
X68562096Y-116433884D01*
X68562096Y-116433880D01*
X68563196Y-116426650D01*
X68558912Y-116373981D01*
X68558497Y-116363766D01*
X68558497Y-116355706D01*
X68555208Y-116327492D01*
X68554775Y-116323117D01*
X68549451Y-116257660D01*
X68549450Y-116257657D01*
X68548857Y-116250362D01*
X68546601Y-116243398D01*
X68545410Y-116237439D01*
X68544026Y-116231584D01*
X68543179Y-116224318D01*
X68518262Y-116155672D01*
X68516845Y-116151544D01*
X68496604Y-116089063D01*
X68496603Y-116089061D01*
X68494348Y-116082100D01*
X68490552Y-116075845D01*
X68488046Y-116070371D01*
X68485327Y-116064941D01*
X68482830Y-116058062D01*
X68442811Y-115997023D01*
X68440464Y-115993304D01*
X68402592Y-115930892D01*
X68395194Y-115922515D01*
X68395221Y-115922491D01*
X68392568Y-115919499D01*
X68389865Y-115916266D01*
X68385853Y-115910147D01*
X68329614Y-115856871D01*
X68327172Y-115854493D01*
X68320123Y-115847444D01*
X68289385Y-115797285D01*
X68236567Y-115634729D01*
X68234525Y-115628444D01*
X68139038Y-115463056D01*
X68011251Y-115321134D01*
X67901645Y-115241500D01*
X67862092Y-115212763D01*
X67862091Y-115212762D01*
X67856750Y-115208882D01*
X67850722Y-115206198D01*
X67850720Y-115206197D01*
X67688317Y-115133891D01*
X67688316Y-115133891D01*
X67682286Y-115131206D01*
X67588886Y-115111353D01*
X67501942Y-115092872D01*
X67501937Y-115092872D01*
X67495485Y-115091500D01*
X67304511Y-115091500D01*
X67298059Y-115092872D01*
X67298054Y-115092872D01*
X67211110Y-115111353D01*
X67117710Y-115131206D01*
X67111680Y-115133891D01*
X67111679Y-115133891D01*
X66949276Y-115206197D01*
X66949274Y-115206198D01*
X66943246Y-115208882D01*
X66937907Y-115212761D01*
X66937900Y-115212765D01*
X66931470Y-115217437D01*
X66857411Y-115241500D01*
X66034500Y-115241500D01*
X65966379Y-115221498D01*
X65919886Y-115167842D01*
X65908500Y-115115500D01*
X65908500Y-114951866D01*
X65901745Y-114889684D01*
X65850615Y-114753295D01*
X65763261Y-114636739D01*
X65646705Y-114549385D01*
X65510316Y-114498255D01*
X65448134Y-114491500D01*
X64351866Y-114491500D01*
X64289684Y-114498255D01*
X64153295Y-114549385D01*
X64036739Y-114636739D01*
X64031358Y-114643919D01*
X64000514Y-114685074D01*
X63943655Y-114727589D01*
X63872836Y-114732615D01*
X63810543Y-114698555D01*
X63798862Y-114685075D01*
X63768283Y-114644274D01*
X63755724Y-114631715D01*
X63653649Y-114555214D01*
X63638054Y-114546676D01*
X63517606Y-114501522D01*
X63502351Y-114497895D01*
X63451486Y-114492369D01*
X63444672Y-114492000D01*
X63172115Y-114492000D01*
X63156876Y-114496475D01*
X63155671Y-114497865D01*
X63154000Y-114505548D01*
X63154000Y-116128000D01*
X63133998Y-116196121D01*
X63080342Y-116242614D01*
X63028000Y-116254000D01*
X62772000Y-116254000D01*
X62703879Y-116233998D01*
X62657386Y-116180342D01*
X62646000Y-116128000D01*
X62646000Y-114510116D01*
X62641525Y-114494877D01*
X62640135Y-114493672D01*
X62632452Y-114492001D01*
X62355331Y-114492001D01*
X62348510Y-114492371D01*
X62297648Y-114497895D01*
X62282396Y-114501521D01*
X62161946Y-114546676D01*
X62146351Y-114555214D01*
X62044276Y-114631715D01*
X62031717Y-114644274D01*
X62001138Y-114685075D01*
X61944278Y-114727589D01*
X61873460Y-114732614D01*
X61811166Y-114698554D01*
X61799486Y-114685074D01*
X61768642Y-114643919D01*
X61763261Y-114636739D01*
X61747760Y-114625122D01*
X61705247Y-114568263D01*
X61700222Y-114497445D01*
X61734232Y-114435202D01*
X68913767Y-107255666D01*
X68922057Y-107248122D01*
X68928538Y-107244009D01*
X68975179Y-107194341D01*
X68977933Y-107191500D01*
X68997655Y-107171778D01*
X69000132Y-107168585D01*
X69007837Y-107159564D01*
X69032679Y-107133109D01*
X69038106Y-107127330D01*
X69041927Y-107120380D01*
X69047866Y-107109577D01*
X69058722Y-107093050D01*
X69066277Y-107083311D01*
X69066278Y-107083309D01*
X69071134Y-107077049D01*
X69088694Y-107036469D01*
X69093911Y-107025821D01*
X69111395Y-106994018D01*
X69111396Y-106994016D01*
X69115215Y-106987069D01*
X69120253Y-106967446D01*
X69126657Y-106948743D01*
X69131553Y-106937429D01*
X69131553Y-106937428D01*
X69134701Y-106930154D01*
X69141551Y-106886908D01*
X69171964Y-106822755D01*
X69232233Y-106785229D01*
X69303222Y-106786244D01*
G37*
%TD.AperFunction*%
%TA.AperFunction,Conductor*%
G36*
X63183621Y-73278502D02*
G01*
X63230114Y-73332158D01*
X63241500Y-73384500D01*
X63241500Y-75963001D01*
X63224619Y-76026001D01*
X63173457Y-76114616D01*
X63165473Y-76128444D01*
X63106458Y-76310072D01*
X63105768Y-76316633D01*
X63105768Y-76316635D01*
X63096256Y-76407137D01*
X63086496Y-76500000D01*
X63087186Y-76506565D01*
X63105418Y-76680030D01*
X63106458Y-76689928D01*
X63165473Y-76871556D01*
X63168776Y-76877278D01*
X63168777Y-76877279D01*
X63171251Y-76881564D01*
X63260960Y-77036944D01*
X63265378Y-77041851D01*
X63265379Y-77041852D01*
X63380407Y-77169604D01*
X63388747Y-77178866D01*
X63543248Y-77291118D01*
X63549276Y-77293802D01*
X63549278Y-77293803D01*
X63633294Y-77331209D01*
X63717712Y-77368794D01*
X63811113Y-77388647D01*
X63898056Y-77407128D01*
X63898061Y-77407128D01*
X63904513Y-77408500D01*
X64095487Y-77408500D01*
X64101939Y-77407128D01*
X64101944Y-77407128D01*
X64188887Y-77388647D01*
X64282288Y-77368794D01*
X64366706Y-77331209D01*
X64450722Y-77293803D01*
X64450724Y-77293802D01*
X64456752Y-77291118D01*
X64611253Y-77178866D01*
X64619593Y-77169604D01*
X64734621Y-77041852D01*
X64734622Y-77041851D01*
X64739040Y-77036944D01*
X64828749Y-76881564D01*
X64831223Y-76877279D01*
X64831224Y-76877278D01*
X64834527Y-76871556D01*
X64893542Y-76689928D01*
X64894583Y-76680030D01*
X64912814Y-76506565D01*
X64913504Y-76500000D01*
X64903744Y-76407137D01*
X64894232Y-76316635D01*
X64894232Y-76316633D01*
X64893542Y-76310072D01*
X64834527Y-76128444D01*
X64826544Y-76114616D01*
X64775381Y-76026001D01*
X64758500Y-75963001D01*
X64758500Y-73384500D01*
X64778502Y-73316379D01*
X64832158Y-73269886D01*
X64884500Y-73258500D01*
X67741405Y-73258500D01*
X67809526Y-73278502D01*
X67856019Y-73332158D01*
X67866123Y-73402432D01*
X67836629Y-73467012D01*
X67830500Y-73473595D01*
X66507747Y-74796348D01*
X66499461Y-74803888D01*
X66492982Y-74808000D01*
X66487557Y-74813777D01*
X66446357Y-74857651D01*
X66443602Y-74860493D01*
X66423865Y-74880230D01*
X66421385Y-74883427D01*
X66413682Y-74892447D01*
X66383414Y-74924679D01*
X66379595Y-74931625D01*
X66379593Y-74931628D01*
X66373652Y-74942434D01*
X66362801Y-74958953D01*
X66350386Y-74974959D01*
X66347241Y-74982228D01*
X66347238Y-74982232D01*
X66332826Y-75015537D01*
X66327609Y-75026187D01*
X66306305Y-75064940D01*
X66304334Y-75072615D01*
X66304334Y-75072616D01*
X66301267Y-75084562D01*
X66294863Y-75103266D01*
X66286819Y-75121855D01*
X66285580Y-75129678D01*
X66285577Y-75129688D01*
X66279901Y-75165524D01*
X66277495Y-75177144D01*
X66266500Y-75219970D01*
X66266500Y-75240224D01*
X66264949Y-75259934D01*
X66261780Y-75279943D01*
X66262526Y-75287835D01*
X66265941Y-75323961D01*
X66266500Y-75335819D01*
X66266500Y-106151090D01*
X66246498Y-106219211D01*
X66229595Y-106240185D01*
X61020855Y-111448925D01*
X60958543Y-111482951D01*
X60887728Y-111477886D01*
X60880512Y-111474937D01*
X60788323Y-111433892D01*
X60788315Y-111433889D01*
X60782288Y-111431206D01*
X60688887Y-111411353D01*
X60601944Y-111392872D01*
X60601939Y-111392872D01*
X60595487Y-111391500D01*
X60404513Y-111391500D01*
X60398061Y-111392872D01*
X60398056Y-111392872D01*
X60311112Y-111411353D01*
X60217712Y-111431206D01*
X60211682Y-111433891D01*
X60211681Y-111433891D01*
X60049278Y-111506197D01*
X60049276Y-111506198D01*
X60043248Y-111508882D01*
X59888747Y-111621134D01*
X59760960Y-111763056D01*
X59665473Y-111928444D01*
X59606458Y-112110072D01*
X59586496Y-112300000D01*
X59606458Y-112489928D01*
X59665473Y-112671556D01*
X59760960Y-112836944D01*
X59888747Y-112978866D01*
X59894088Y-112982746D01*
X59894093Y-112982751D01*
X59907576Y-112992546D01*
X59950931Y-113048767D01*
X59957008Y-113119503D01*
X59922612Y-113183578D01*
X59726605Y-113379585D01*
X59664293Y-113413611D01*
X59637510Y-113416490D01*
X56928778Y-113416490D01*
X56917595Y-113415963D01*
X56910102Y-113414288D01*
X56902176Y-113414537D01*
X56902175Y-113414537D01*
X56842012Y-113416428D01*
X56838054Y-113416490D01*
X56810154Y-113416490D01*
X56806164Y-113416994D01*
X56794330Y-113417926D01*
X56750121Y-113419316D01*
X56742505Y-113421529D01*
X56742503Y-113421529D01*
X56730662Y-113424969D01*
X56711303Y-113428978D01*
X56709993Y-113429144D01*
X56691213Y-113431516D01*
X56683847Y-113434432D01*
X56683841Y-113434434D01*
X56650108Y-113447790D01*
X56638878Y-113451635D01*
X56604027Y-113461760D01*
X56596417Y-113463971D01*
X56589594Y-113468006D01*
X56578976Y-113474285D01*
X56561223Y-113482982D01*
X56553578Y-113486009D01*
X56542393Y-113490438D01*
X56535978Y-113495099D01*
X56506622Y-113516427D01*
X56496705Y-113522941D01*
X56458648Y-113545448D01*
X56444327Y-113559769D01*
X56429294Y-113572609D01*
X56412903Y-113584518D01*
X56407853Y-113590622D01*
X56407848Y-113590627D01*
X56384717Y-113618588D01*
X56376727Y-113627369D01*
X55548869Y-114455226D01*
X55486557Y-114489251D01*
X55452964Y-114491946D01*
X55451521Y-114491868D01*
X55448134Y-114491500D01*
X54351866Y-114491500D01*
X54289684Y-114498255D01*
X54153295Y-114549385D01*
X54036739Y-114636739D01*
X53949385Y-114753295D01*
X53898255Y-114889684D01*
X53891500Y-114951866D01*
X53891500Y-116416000D01*
X53871498Y-116484121D01*
X53817842Y-116530614D01*
X53765500Y-116542000D01*
X52408702Y-116542000D01*
X52407932Y-116541998D01*
X52407078Y-116541993D01*
X52330348Y-116541524D01*
X52321717Y-116543991D01*
X52321716Y-116543991D01*
X52319122Y-116544732D01*
X52316446Y-116544713D01*
X52312823Y-116545209D01*
X52312751Y-116544686D01*
X52248127Y-116544218D01*
X52188681Y-116505403D01*
X52159656Y-116440610D01*
X52158500Y-116423582D01*
X52158500Y-109135371D01*
X52178502Y-109067250D01*
X52232158Y-109020757D01*
X52302432Y-109010653D01*
X52367012Y-109040147D01*
X52373595Y-109046276D01*
X52579875Y-109252556D01*
X52610613Y-109302714D01*
X52665473Y-109471556D01*
X52760960Y-109636944D01*
X52888747Y-109778866D01*
X53043248Y-109891118D01*
X53049276Y-109893802D01*
X53049278Y-109893803D01*
X53211681Y-109966109D01*
X53217712Y-109968794D01*
X53311112Y-109988647D01*
X53398056Y-110007128D01*
X53398061Y-110007128D01*
X53404513Y-110008500D01*
X53595487Y-110008500D01*
X53601939Y-110007128D01*
X53601944Y-110007128D01*
X53688887Y-109988647D01*
X53782288Y-109968794D01*
X53788319Y-109966109D01*
X53950722Y-109893803D01*
X53950724Y-109893802D01*
X53956752Y-109891118D01*
X54111253Y-109778866D01*
X54239040Y-109636944D01*
X54334527Y-109471556D01*
X54393542Y-109289928D01*
X54413504Y-109100000D01*
X54410062Y-109067250D01*
X54394232Y-108916635D01*
X54394232Y-108916633D01*
X54393542Y-108910072D01*
X54334527Y-108728444D01*
X54239040Y-108563056D01*
X54111253Y-108421134D01*
X53956752Y-108308882D01*
X53950724Y-108306198D01*
X53950722Y-108306197D01*
X53788319Y-108233891D01*
X53788318Y-108233891D01*
X53782288Y-108231206D01*
X53775833Y-108229834D01*
X53775824Y-108229831D01*
X53719228Y-108217801D01*
X53656331Y-108183650D01*
X52895405Y-107422724D01*
X52861379Y-107360412D01*
X52858500Y-107333629D01*
X52858500Y-101000000D01*
X54086496Y-101000000D01*
X54087186Y-101006565D01*
X54105762Y-101183303D01*
X54106458Y-101189928D01*
X54165473Y-101371556D01*
X54260960Y-101536944D01*
X54265378Y-101541851D01*
X54265379Y-101541852D01*
X54289501Y-101568642D01*
X54388747Y-101678866D01*
X54543248Y-101791118D01*
X54549276Y-101793802D01*
X54549278Y-101793803D01*
X54711681Y-101866109D01*
X54717712Y-101868794D01*
X54811112Y-101888647D01*
X54898056Y-101907128D01*
X54898061Y-101907128D01*
X54904513Y-101908500D01*
X55095487Y-101908500D01*
X55101939Y-101907128D01*
X55101944Y-101907128D01*
X55188888Y-101888647D01*
X55282288Y-101868794D01*
X55288319Y-101866109D01*
X55450722Y-101793803D01*
X55450724Y-101793802D01*
X55456752Y-101791118D01*
X55611253Y-101678866D01*
X55710499Y-101568642D01*
X55734621Y-101541852D01*
X55734622Y-101541851D01*
X55739040Y-101536944D01*
X55834527Y-101371556D01*
X55875740Y-101244717D01*
X55891500Y-101196213D01*
X55891500Y-101196212D01*
X55893542Y-101189928D01*
X55894233Y-101183356D01*
X55894244Y-101183303D01*
X55927973Y-101120829D01*
X55990122Y-101086508D01*
X56017491Y-101083500D01*
X57265500Y-101083500D01*
X57333621Y-101103502D01*
X57380114Y-101157158D01*
X57391500Y-101209500D01*
X57391500Y-101248134D01*
X57398255Y-101310316D01*
X57449385Y-101446705D01*
X57536739Y-101563261D01*
X57653295Y-101650615D01*
X57789684Y-101701745D01*
X57851866Y-101708500D01*
X58948134Y-101708500D01*
X59010316Y-101701745D01*
X59146705Y-101650615D01*
X59263261Y-101563261D01*
X59350615Y-101446705D01*
X59401745Y-101310316D01*
X59408500Y-101248134D01*
X59408500Y-101244669D01*
X60592001Y-101244669D01*
X60592371Y-101251490D01*
X60597895Y-101302352D01*
X60601521Y-101317604D01*
X60646676Y-101438054D01*
X60655214Y-101453649D01*
X60731715Y-101555724D01*
X60744276Y-101568285D01*
X60846351Y-101644786D01*
X60861946Y-101653324D01*
X60982394Y-101698478D01*
X60997649Y-101702105D01*
X61048514Y-101707631D01*
X61055328Y-101708000D01*
X61327885Y-101708000D01*
X61343124Y-101703525D01*
X61344329Y-101702135D01*
X61346000Y-101694452D01*
X61346000Y-101689884D01*
X61854000Y-101689884D01*
X61858475Y-101705123D01*
X61859865Y-101706328D01*
X61867548Y-101707999D01*
X62144669Y-101707999D01*
X62151490Y-101707629D01*
X62202352Y-101702105D01*
X62217604Y-101698479D01*
X62338054Y-101653324D01*
X62353649Y-101644786D01*
X62455724Y-101568285D01*
X62468285Y-101555724D01*
X62544786Y-101453649D01*
X62553324Y-101438054D01*
X62598478Y-101317606D01*
X62602105Y-101302351D01*
X62607631Y-101251486D01*
X62608000Y-101244672D01*
X62608000Y-100722115D01*
X62603525Y-100706876D01*
X62602135Y-100705671D01*
X62594452Y-100704000D01*
X61872115Y-100704000D01*
X61856876Y-100708475D01*
X61855671Y-100709865D01*
X61854000Y-100717548D01*
X61854000Y-101689884D01*
X61346000Y-101689884D01*
X61346000Y-100722115D01*
X61341525Y-100706876D01*
X61340135Y-100705671D01*
X61332452Y-100704000D01*
X60610116Y-100704000D01*
X60594877Y-100708475D01*
X60593672Y-100709865D01*
X60592001Y-100717548D01*
X60592001Y-101244669D01*
X59408500Y-101244669D01*
X59408500Y-100177885D01*
X60592000Y-100177885D01*
X60596475Y-100193124D01*
X60597865Y-100194329D01*
X60605548Y-100196000D01*
X61327885Y-100196000D01*
X61343124Y-100191525D01*
X61344329Y-100190135D01*
X61346000Y-100182452D01*
X61346000Y-100177885D01*
X61854000Y-100177885D01*
X61858475Y-100193124D01*
X61859865Y-100194329D01*
X61867548Y-100196000D01*
X62589884Y-100196000D01*
X62605123Y-100191525D01*
X62606328Y-100190135D01*
X62607999Y-100182452D01*
X62607999Y-99655331D01*
X62607629Y-99648510D01*
X62602105Y-99597648D01*
X62598479Y-99582396D01*
X62553324Y-99461946D01*
X62544786Y-99446351D01*
X62468285Y-99344276D01*
X62455724Y-99331715D01*
X62353649Y-99255214D01*
X62338054Y-99246676D01*
X62217606Y-99201522D01*
X62202351Y-99197895D01*
X62151486Y-99192369D01*
X62144672Y-99192000D01*
X61872115Y-99192000D01*
X61856876Y-99196475D01*
X61855671Y-99197865D01*
X61854000Y-99205548D01*
X61854000Y-100177885D01*
X61346000Y-100177885D01*
X61346000Y-99210116D01*
X61341525Y-99194877D01*
X61340135Y-99193672D01*
X61332452Y-99192001D01*
X61055331Y-99192001D01*
X61048510Y-99192371D01*
X60997648Y-99197895D01*
X60982396Y-99201521D01*
X60861946Y-99246676D01*
X60846351Y-99255214D01*
X60744276Y-99331715D01*
X60731715Y-99344276D01*
X60655214Y-99446351D01*
X60646676Y-99461946D01*
X60601522Y-99582394D01*
X60597895Y-99597649D01*
X60592369Y-99648514D01*
X60592000Y-99655328D01*
X60592000Y-100177885D01*
X59408500Y-100177885D01*
X59408500Y-99651866D01*
X59401745Y-99589684D01*
X59350615Y-99453295D01*
X59263261Y-99336739D01*
X59146705Y-99249385D01*
X59010316Y-99198255D01*
X58948134Y-99191500D01*
X57851866Y-99191500D01*
X57789684Y-99198255D01*
X57653295Y-99249385D01*
X57536739Y-99336739D01*
X57449385Y-99453295D01*
X57398255Y-99589684D01*
X57391500Y-99651866D01*
X57391500Y-99690500D01*
X57371498Y-99758621D01*
X57317842Y-99805114D01*
X57265500Y-99816500D01*
X55628763Y-99816500D01*
X55617579Y-99815973D01*
X55610091Y-99814299D01*
X55602168Y-99814548D01*
X55542033Y-99816438D01*
X55538075Y-99816500D01*
X55510144Y-99816500D01*
X55506229Y-99816995D01*
X55506225Y-99816995D01*
X55506167Y-99817003D01*
X55506138Y-99817006D01*
X55494296Y-99817939D01*
X55450110Y-99819327D01*
X55432744Y-99824372D01*
X55430658Y-99824978D01*
X55411306Y-99828986D01*
X55399068Y-99830532D01*
X55399066Y-99830533D01*
X55391203Y-99831526D01*
X55350086Y-99847806D01*
X55338885Y-99851641D01*
X55296406Y-99863982D01*
X55289587Y-99868015D01*
X55289582Y-99868017D01*
X55278971Y-99874293D01*
X55261221Y-99882990D01*
X55242383Y-99890448D01*
X55235967Y-99895109D01*
X55235966Y-99895110D01*
X55206625Y-99916428D01*
X55196701Y-99922947D01*
X55165460Y-99941422D01*
X55165455Y-99941426D01*
X55158637Y-99945458D01*
X55144313Y-99959782D01*
X55129281Y-99972621D01*
X55112893Y-99984528D01*
X55084712Y-100018593D01*
X55076722Y-100027373D01*
X55049500Y-100054595D01*
X54987188Y-100088621D01*
X54960405Y-100091500D01*
X54904513Y-100091500D01*
X54898061Y-100092872D01*
X54898056Y-100092872D01*
X54811113Y-100111353D01*
X54717712Y-100131206D01*
X54711682Y-100133891D01*
X54711681Y-100133891D01*
X54549278Y-100206197D01*
X54549276Y-100206198D01*
X54543248Y-100208882D01*
X54537907Y-100212763D01*
X54532189Y-100216064D01*
X54531204Y-100214357D01*
X54473199Y-100235058D01*
X54453488Y-100230476D01*
X54424133Y-100291956D01*
X54404391Y-100309768D01*
X54388747Y-100321134D01*
X54260960Y-100463056D01*
X54165473Y-100628444D01*
X54106458Y-100810072D01*
X54086496Y-101000000D01*
X52858500Y-101000000D01*
X52858500Y-100334000D01*
X52878502Y-100265879D01*
X52932158Y-100219386D01*
X52984500Y-100208000D01*
X53127885Y-100208000D01*
X53143124Y-100203525D01*
X53144329Y-100202135D01*
X53146000Y-100194452D01*
X53146000Y-100189884D01*
X53654000Y-100189884D01*
X53658475Y-100205123D01*
X53659865Y-100206328D01*
X53667548Y-100207999D01*
X53922095Y-100207999D01*
X53928614Y-100207662D01*
X54024206Y-100197743D01*
X54037600Y-100194851D01*
X54191784Y-100143412D01*
X54204962Y-100137238D01*
X54264027Y-100100688D01*
X54332479Y-100081850D01*
X54345369Y-100085875D01*
X54366212Y-100032329D01*
X54376824Y-100020246D01*
X54468739Y-99928171D01*
X54477751Y-99916760D01*
X54562816Y-99778757D01*
X54568963Y-99765576D01*
X54620138Y-99611290D01*
X54623005Y-99597914D01*
X54632672Y-99503562D01*
X54633000Y-99497146D01*
X54633000Y-99472115D01*
X54628525Y-99456876D01*
X54627135Y-99455671D01*
X54619452Y-99454000D01*
X53672115Y-99454000D01*
X53656876Y-99458475D01*
X53655671Y-99459865D01*
X53654000Y-99467548D01*
X53654000Y-100189884D01*
X53146000Y-100189884D01*
X53146000Y-99072000D01*
X53166002Y-99003879D01*
X53219658Y-98957386D01*
X53272000Y-98946000D01*
X54614884Y-98946000D01*
X54630123Y-98941525D01*
X54631328Y-98940135D01*
X54632999Y-98932452D01*
X54632999Y-98902905D01*
X54632662Y-98896386D01*
X54622743Y-98800794D01*
X54619851Y-98787400D01*
X54568412Y-98633216D01*
X54562239Y-98620038D01*
X54476937Y-98482193D01*
X54467901Y-98470792D01*
X54353172Y-98356262D01*
X54344238Y-98349206D01*
X54303177Y-98291288D01*
X54299947Y-98220365D01*
X54335574Y-98158954D01*
X54343407Y-98152154D01*
X54349348Y-98148478D01*
X54474305Y-98023303D01*
X54492749Y-97993382D01*
X54545522Y-97945890D01*
X54600008Y-97933500D01*
X56571233Y-97933500D01*
X56582416Y-97934027D01*
X56589909Y-97935702D01*
X56597835Y-97935453D01*
X56597836Y-97935453D01*
X56657986Y-97933562D01*
X56661945Y-97933500D01*
X56689856Y-97933500D01*
X56693791Y-97933003D01*
X56693856Y-97932995D01*
X56705693Y-97932062D01*
X56737951Y-97931048D01*
X56741970Y-97930922D01*
X56749889Y-97930673D01*
X56769343Y-97925021D01*
X56788700Y-97921013D01*
X56800930Y-97919468D01*
X56800931Y-97919468D01*
X56808797Y-97918474D01*
X56816168Y-97915555D01*
X56816170Y-97915555D01*
X56849912Y-97902196D01*
X56861142Y-97898351D01*
X56895983Y-97888229D01*
X56895984Y-97888229D01*
X56903593Y-97886018D01*
X56910412Y-97881985D01*
X56910417Y-97881983D01*
X56921028Y-97875707D01*
X56938776Y-97867012D01*
X56957617Y-97859552D01*
X56993387Y-97833564D01*
X57003307Y-97827048D01*
X57034535Y-97808580D01*
X57034538Y-97808578D01*
X57041362Y-97804542D01*
X57055683Y-97790221D01*
X57070717Y-97777380D01*
X57080694Y-97770131D01*
X57087107Y-97765472D01*
X57092157Y-97759368D01*
X57092162Y-97759363D01*
X57115293Y-97731402D01*
X57123283Y-97722621D01*
X58000501Y-96845404D01*
X58062813Y-96811379D01*
X58089596Y-96808500D01*
X58948134Y-96808500D01*
X59010316Y-96801745D01*
X59146705Y-96750615D01*
X59263261Y-96663261D01*
X59350615Y-96546705D01*
X59401745Y-96410316D01*
X59408500Y-96348134D01*
X59408500Y-94751866D01*
X59401745Y-94689684D01*
X59350615Y-94553295D01*
X59263261Y-94436739D01*
X59146705Y-94349385D01*
X59010316Y-94298255D01*
X58948134Y-94291500D01*
X57851866Y-94291500D01*
X57789684Y-94298255D01*
X57653295Y-94349385D01*
X57536739Y-94436739D01*
X57449385Y-94553295D01*
X57398255Y-94689684D01*
X57391500Y-94751866D01*
X57391500Y-95610406D01*
X57371498Y-95678527D01*
X57354599Y-95699497D01*
X56424498Y-96629597D01*
X56362188Y-96663621D01*
X56335405Y-96666500D01*
X54599899Y-96666500D01*
X54531778Y-96646498D01*
X54492755Y-96606803D01*
X54477332Y-96581880D01*
X54473478Y-96575652D01*
X54444481Y-96546705D01*
X54353483Y-96455866D01*
X54348303Y-96450695D01*
X54294800Y-96417715D01*
X54203968Y-96361725D01*
X54203966Y-96361724D01*
X54197738Y-96357885D01*
X54117995Y-96331436D01*
X54036389Y-96304368D01*
X54036387Y-96304368D01*
X54029861Y-96302203D01*
X54023025Y-96301503D01*
X54023022Y-96301502D01*
X53979969Y-96297091D01*
X53925400Y-96291500D01*
X52984500Y-96291500D01*
X52916379Y-96271498D01*
X52869886Y-96217842D01*
X52858500Y-96165500D01*
X52858500Y-90748134D01*
X57391500Y-90748134D01*
X57398255Y-90810316D01*
X57449385Y-90946705D01*
X57536739Y-91063261D01*
X57653295Y-91150615D01*
X57683614Y-91161981D01*
X57686908Y-91163216D01*
X57743672Y-91205859D01*
X57768615Y-91277239D01*
X57769327Y-91299889D01*
X57774978Y-91319339D01*
X57778987Y-91338700D01*
X57781526Y-91358797D01*
X57784445Y-91366168D01*
X57784445Y-91366170D01*
X57797804Y-91399912D01*
X57801649Y-91411142D01*
X57813982Y-91453593D01*
X57818015Y-91460412D01*
X57818017Y-91460417D01*
X57824293Y-91471028D01*
X57832988Y-91488776D01*
X57840448Y-91507617D01*
X57845110Y-91514033D01*
X57845110Y-91514034D01*
X57866436Y-91543387D01*
X57872952Y-91553307D01*
X57895458Y-91591362D01*
X57909779Y-91605683D01*
X57922619Y-91620716D01*
X57934528Y-91637107D01*
X57940634Y-91642158D01*
X57968605Y-91665298D01*
X57977384Y-91673288D01*
X60104594Y-93800499D01*
X60138620Y-93862811D01*
X60141499Y-93889594D01*
X60141499Y-94646232D01*
X60140972Y-94657415D01*
X60139297Y-94664908D01*
X60139546Y-94672834D01*
X60139546Y-94672835D01*
X60141437Y-94732985D01*
X60141499Y-94736944D01*
X60141499Y-94764855D01*
X60141996Y-94768789D01*
X60141996Y-94768790D01*
X60142004Y-94768855D01*
X60142937Y-94780692D01*
X60144326Y-94824888D01*
X60149977Y-94844338D01*
X60153986Y-94863699D01*
X60156525Y-94883796D01*
X60159444Y-94891167D01*
X60159444Y-94891169D01*
X60172803Y-94924911D01*
X60176648Y-94936141D01*
X60188981Y-94978592D01*
X60193014Y-94985411D01*
X60193016Y-94985416D01*
X60199292Y-94996027D01*
X60207987Y-95013775D01*
X60215447Y-95032616D01*
X60220109Y-95039032D01*
X60220109Y-95039033D01*
X60241435Y-95068386D01*
X60247951Y-95078306D01*
X60270457Y-95116361D01*
X60284778Y-95130682D01*
X60297618Y-95145715D01*
X60309527Y-95162106D01*
X60315633Y-95167157D01*
X60343604Y-95190297D01*
X60352383Y-95198287D01*
X60554595Y-95400499D01*
X60588621Y-95462811D01*
X60591500Y-95489594D01*
X60591500Y-96348134D01*
X60598255Y-96410316D01*
X60649385Y-96546705D01*
X60736739Y-96663261D01*
X60853295Y-96750615D01*
X60989684Y-96801745D01*
X61051866Y-96808500D01*
X62148134Y-96808500D01*
X62210316Y-96801745D01*
X62346705Y-96750615D01*
X62463261Y-96663261D01*
X62550615Y-96546705D01*
X62601745Y-96410316D01*
X62608500Y-96348134D01*
X62608500Y-94751866D01*
X62601745Y-94689684D01*
X62550615Y-94553295D01*
X62463261Y-94436739D01*
X62346705Y-94349385D01*
X62210316Y-94298255D01*
X62148134Y-94291500D01*
X61534499Y-94291500D01*
X61466378Y-94271498D01*
X61419885Y-94217842D01*
X61408499Y-94165500D01*
X61408499Y-93653766D01*
X61409026Y-93642583D01*
X61410701Y-93635090D01*
X61408561Y-93566999D01*
X61408499Y-93563042D01*
X61408499Y-93535143D01*
X61407995Y-93531152D01*
X61407062Y-93519310D01*
X61405922Y-93483035D01*
X61405673Y-93475110D01*
X61403461Y-93467496D01*
X61403460Y-93467491D01*
X61400022Y-93455658D01*
X61396011Y-93436294D01*
X61394466Y-93424063D01*
X61393473Y-93416202D01*
X61390556Y-93408835D01*
X61390555Y-93408830D01*
X61377197Y-93375091D01*
X61373353Y-93363864D01*
X61363229Y-93329021D01*
X61361017Y-93321406D01*
X61350706Y-93303971D01*
X61342011Y-93286223D01*
X61334551Y-93267382D01*
X61308563Y-93231612D01*
X61302047Y-93221692D01*
X61283579Y-93190464D01*
X61283577Y-93190461D01*
X61279541Y-93183637D01*
X61265220Y-93169316D01*
X61252379Y-93154282D01*
X61245130Y-93144305D01*
X61240471Y-93137892D01*
X61206394Y-93109701D01*
X61197615Y-93101711D01*
X59295912Y-91200007D01*
X59261886Y-91137695D01*
X59266951Y-91066879D01*
X59284181Y-91035347D01*
X59345229Y-90953891D01*
X59350615Y-90946705D01*
X59401745Y-90810316D01*
X59408500Y-90748134D01*
X59408500Y-90744669D01*
X60592001Y-90744669D01*
X60592371Y-90751490D01*
X60597895Y-90802352D01*
X60601521Y-90817604D01*
X60646676Y-90938054D01*
X60655214Y-90953649D01*
X60731715Y-91055724D01*
X60744276Y-91068285D01*
X60846351Y-91144786D01*
X60861946Y-91153324D01*
X60982394Y-91198478D01*
X60997649Y-91202105D01*
X61048514Y-91207631D01*
X61055328Y-91208000D01*
X61327885Y-91208000D01*
X61343124Y-91203525D01*
X61344329Y-91202135D01*
X61346000Y-91194452D01*
X61346000Y-91189884D01*
X61854000Y-91189884D01*
X61858475Y-91205123D01*
X61859865Y-91206328D01*
X61867548Y-91207999D01*
X62144669Y-91207999D01*
X62151490Y-91207629D01*
X62202352Y-91202105D01*
X62217604Y-91198479D01*
X62338054Y-91153324D01*
X62353649Y-91144786D01*
X62455724Y-91068285D01*
X62468285Y-91055724D01*
X62544786Y-90953649D01*
X62553324Y-90938054D01*
X62598478Y-90817606D01*
X62602105Y-90802351D01*
X62607631Y-90751486D01*
X62608000Y-90744672D01*
X62608000Y-90222115D01*
X62603525Y-90206876D01*
X62602135Y-90205671D01*
X62594452Y-90204000D01*
X61872115Y-90204000D01*
X61856876Y-90208475D01*
X61855671Y-90209865D01*
X61854000Y-90217548D01*
X61854000Y-91189884D01*
X61346000Y-91189884D01*
X61346000Y-90222115D01*
X61341525Y-90206876D01*
X61340135Y-90205671D01*
X61332452Y-90204000D01*
X60610116Y-90204000D01*
X60594877Y-90208475D01*
X60593672Y-90209865D01*
X60592001Y-90217548D01*
X60592001Y-90744669D01*
X59408500Y-90744669D01*
X59408500Y-89677885D01*
X60592000Y-89677885D01*
X60596475Y-89693124D01*
X60597865Y-89694329D01*
X60605548Y-89696000D01*
X61327885Y-89696000D01*
X61343124Y-89691525D01*
X61344329Y-89690135D01*
X61346000Y-89682452D01*
X61346000Y-89677885D01*
X61854000Y-89677885D01*
X61858475Y-89693124D01*
X61859865Y-89694329D01*
X61867548Y-89696000D01*
X62589884Y-89696000D01*
X62605123Y-89691525D01*
X62606328Y-89690135D01*
X62607999Y-89682452D01*
X62607999Y-89155331D01*
X62607629Y-89148510D01*
X62602105Y-89097648D01*
X62598479Y-89082396D01*
X62553324Y-88961946D01*
X62544786Y-88946351D01*
X62468285Y-88844276D01*
X62455724Y-88831715D01*
X62353649Y-88755214D01*
X62338054Y-88746676D01*
X62217606Y-88701522D01*
X62202351Y-88697895D01*
X62151486Y-88692369D01*
X62144672Y-88692000D01*
X61872115Y-88692000D01*
X61856876Y-88696475D01*
X61855671Y-88697865D01*
X61854000Y-88705548D01*
X61854000Y-89677885D01*
X61346000Y-89677885D01*
X61346000Y-88710116D01*
X61341525Y-88694877D01*
X61340135Y-88693672D01*
X61332452Y-88692001D01*
X61055331Y-88692001D01*
X61048510Y-88692371D01*
X60997648Y-88697895D01*
X60982396Y-88701521D01*
X60861946Y-88746676D01*
X60846351Y-88755214D01*
X60744276Y-88831715D01*
X60731715Y-88844276D01*
X60655214Y-88946351D01*
X60646676Y-88961946D01*
X60601522Y-89082394D01*
X60597895Y-89097649D01*
X60592369Y-89148514D01*
X60592000Y-89155328D01*
X60592000Y-89677885D01*
X59408500Y-89677885D01*
X59408500Y-89151866D01*
X59401745Y-89089684D01*
X59350615Y-88953295D01*
X59263261Y-88836739D01*
X59146705Y-88749385D01*
X59010316Y-88698255D01*
X58948134Y-88691500D01*
X57851866Y-88691500D01*
X57789684Y-88698255D01*
X57653295Y-88749385D01*
X57536739Y-88836739D01*
X57449385Y-88953295D01*
X57398255Y-89089684D01*
X57391500Y-89151866D01*
X57391500Y-90748134D01*
X52858500Y-90748134D01*
X52858500Y-89534000D01*
X52878502Y-89465879D01*
X52932158Y-89419386D01*
X52984500Y-89408000D01*
X53127885Y-89408000D01*
X53143124Y-89403525D01*
X53144329Y-89402135D01*
X53146000Y-89394452D01*
X53146000Y-89389884D01*
X53654000Y-89389884D01*
X53658475Y-89405123D01*
X53659865Y-89406328D01*
X53667548Y-89407999D01*
X53922095Y-89407999D01*
X53928614Y-89407662D01*
X54024206Y-89397743D01*
X54037600Y-89394851D01*
X54191784Y-89343412D01*
X54204962Y-89337239D01*
X54342807Y-89251937D01*
X54354208Y-89242901D01*
X54468739Y-89128171D01*
X54477751Y-89116760D01*
X54562816Y-88978757D01*
X54568963Y-88965576D01*
X54620138Y-88811290D01*
X54623005Y-88797914D01*
X54632672Y-88703562D01*
X54633000Y-88697146D01*
X54633000Y-88672115D01*
X54628525Y-88656876D01*
X54627135Y-88655671D01*
X54619452Y-88654000D01*
X53672115Y-88654000D01*
X53656876Y-88658475D01*
X53655671Y-88659865D01*
X53654000Y-88667548D01*
X53654000Y-89389884D01*
X53146000Y-89389884D01*
X53146000Y-88272000D01*
X53166002Y-88203879D01*
X53219658Y-88157386D01*
X53272000Y-88146000D01*
X54614884Y-88146000D01*
X54630123Y-88141525D01*
X54631328Y-88140135D01*
X54632999Y-88132452D01*
X54632999Y-88102905D01*
X54632662Y-88096386D01*
X54622743Y-88000794D01*
X54619851Y-87987400D01*
X54568412Y-87833216D01*
X54562239Y-87820038D01*
X54476937Y-87682193D01*
X54467901Y-87670792D01*
X54353172Y-87556262D01*
X54344238Y-87549206D01*
X54303177Y-87491288D01*
X54299947Y-87420365D01*
X54335574Y-87358954D01*
X54343407Y-87352154D01*
X54349348Y-87348478D01*
X54474305Y-87223303D01*
X54475945Y-87224941D01*
X54524744Y-87190344D01*
X54565706Y-87183500D01*
X55440224Y-87183500D01*
X55459934Y-87185051D01*
X55479943Y-87188220D01*
X55487835Y-87187474D01*
X55506580Y-87185702D01*
X55523962Y-87184059D01*
X55535819Y-87183500D01*
X56821233Y-87183500D01*
X56832416Y-87184027D01*
X56839909Y-87185702D01*
X56847835Y-87185453D01*
X56847836Y-87185453D01*
X56907986Y-87183562D01*
X56911945Y-87183500D01*
X56939856Y-87183500D01*
X56943791Y-87183003D01*
X56943856Y-87182995D01*
X56955693Y-87182062D01*
X56987951Y-87181048D01*
X56991970Y-87180922D01*
X56999889Y-87180673D01*
X57019343Y-87175021D01*
X57038700Y-87171013D01*
X57050930Y-87169468D01*
X57050931Y-87169468D01*
X57058797Y-87168474D01*
X57066168Y-87165555D01*
X57066170Y-87165555D01*
X57099912Y-87152196D01*
X57111142Y-87148351D01*
X57145983Y-87138229D01*
X57145984Y-87138229D01*
X57153593Y-87136018D01*
X57160412Y-87131985D01*
X57160417Y-87131983D01*
X57171028Y-87125707D01*
X57188776Y-87117012D01*
X57207617Y-87109552D01*
X57243387Y-87083564D01*
X57253307Y-87077048D01*
X57284535Y-87058580D01*
X57284538Y-87058578D01*
X57291362Y-87054542D01*
X57305683Y-87040221D01*
X57320717Y-87027380D01*
X57330694Y-87020131D01*
X57337107Y-87015472D01*
X57365298Y-86981395D01*
X57373288Y-86972616D01*
X58000499Y-86345405D01*
X58062811Y-86311379D01*
X58089594Y-86308500D01*
X58948134Y-86308500D01*
X59010316Y-86301745D01*
X59146705Y-86250615D01*
X59263261Y-86163261D01*
X59350615Y-86046705D01*
X59401745Y-85910316D01*
X59408500Y-85848134D01*
X59408500Y-84251866D01*
X59401745Y-84189684D01*
X59350615Y-84053295D01*
X59263261Y-83936739D01*
X59146705Y-83849385D01*
X59010316Y-83798255D01*
X58948134Y-83791500D01*
X57851866Y-83791500D01*
X57789684Y-83798255D01*
X57653295Y-83849385D01*
X57536739Y-83936739D01*
X57449385Y-84053295D01*
X57398255Y-84189684D01*
X57391500Y-84251866D01*
X57391500Y-85110405D01*
X57371498Y-85178526D01*
X57354595Y-85199500D01*
X56674500Y-85879595D01*
X56612188Y-85913621D01*
X56585405Y-85916500D01*
X55722826Y-85916500D01*
X55672788Y-85906138D01*
X55628145Y-85886819D01*
X55470057Y-85861780D01*
X55462165Y-85862526D01*
X55318596Y-85876097D01*
X55318593Y-85876098D01*
X55310708Y-85876843D01*
X55303254Y-85879526D01*
X55303252Y-85879527D01*
X55221246Y-85909051D01*
X55178565Y-85916500D01*
X54630840Y-85916500D01*
X54562719Y-85896498D01*
X54523696Y-85856803D01*
X54518332Y-85848134D01*
X54473478Y-85775652D01*
X54348303Y-85650695D01*
X54197738Y-85557885D01*
X54117995Y-85531436D01*
X54036389Y-85504368D01*
X54036387Y-85504368D01*
X54029861Y-85502203D01*
X54023025Y-85501503D01*
X54023022Y-85501502D01*
X53979969Y-85497091D01*
X53925400Y-85491500D01*
X52984500Y-85491500D01*
X52916379Y-85471498D01*
X52869886Y-85417842D01*
X52858500Y-85365500D01*
X52858500Y-83334000D01*
X52878502Y-83265879D01*
X52932158Y-83219386D01*
X52984500Y-83208000D01*
X53227885Y-83208000D01*
X53243124Y-83203525D01*
X53244329Y-83202135D01*
X53246000Y-83194452D01*
X53246000Y-83189884D01*
X53754000Y-83189884D01*
X53758475Y-83205123D01*
X53759865Y-83206328D01*
X53767548Y-83207999D01*
X54022095Y-83207999D01*
X54028614Y-83207662D01*
X54124206Y-83197743D01*
X54137600Y-83194851D01*
X54291784Y-83143412D01*
X54304962Y-83137239D01*
X54442807Y-83051937D01*
X54454208Y-83042901D01*
X54568739Y-82928171D01*
X54577751Y-82916760D01*
X54662816Y-82778757D01*
X54668963Y-82765576D01*
X54720138Y-82611290D01*
X54723005Y-82597914D01*
X54732672Y-82503562D01*
X54733000Y-82497146D01*
X54733000Y-82472115D01*
X54728525Y-82456876D01*
X54727135Y-82455671D01*
X54719452Y-82454000D01*
X53772115Y-82454000D01*
X53756876Y-82458475D01*
X53755671Y-82459865D01*
X53754000Y-82467548D01*
X53754000Y-83189884D01*
X53246000Y-83189884D01*
X53246000Y-82072000D01*
X53266002Y-82003879D01*
X53319658Y-81957386D01*
X53372000Y-81946000D01*
X54714884Y-81946000D01*
X54730123Y-81941525D01*
X54731328Y-81940135D01*
X54732999Y-81932452D01*
X54732999Y-81902905D01*
X54732662Y-81896386D01*
X54722743Y-81800794D01*
X54719851Y-81787400D01*
X54668412Y-81633216D01*
X54662239Y-81620038D01*
X54576937Y-81482193D01*
X54567901Y-81470792D01*
X54453172Y-81356262D01*
X54444238Y-81349206D01*
X54403177Y-81291288D01*
X54401212Y-81248134D01*
X57391500Y-81248134D01*
X57398255Y-81310316D01*
X57449385Y-81446705D01*
X57536739Y-81563261D01*
X57653295Y-81650615D01*
X57683614Y-81661981D01*
X57686908Y-81663216D01*
X57743672Y-81705859D01*
X57768615Y-81777239D01*
X57769327Y-81799889D01*
X57774978Y-81819339D01*
X57778987Y-81838700D01*
X57781526Y-81858797D01*
X57784445Y-81866168D01*
X57784445Y-81866170D01*
X57797804Y-81899912D01*
X57801649Y-81911142D01*
X57813982Y-81953593D01*
X57818015Y-81960412D01*
X57818017Y-81960417D01*
X57824293Y-81971028D01*
X57832988Y-81988776D01*
X57840448Y-82007617D01*
X57845110Y-82014033D01*
X57845110Y-82014034D01*
X57866436Y-82043387D01*
X57872952Y-82053307D01*
X57895458Y-82091362D01*
X57909779Y-82105683D01*
X57922619Y-82120716D01*
X57934528Y-82137107D01*
X57940634Y-82142158D01*
X57968605Y-82165298D01*
X57977384Y-82173288D01*
X60554595Y-84750499D01*
X60588621Y-84812811D01*
X60591500Y-84839594D01*
X60591500Y-85848134D01*
X60598255Y-85910316D01*
X60649385Y-86046705D01*
X60736739Y-86163261D01*
X60853295Y-86250615D01*
X60989684Y-86301745D01*
X61051866Y-86308500D01*
X62148134Y-86308500D01*
X62210316Y-86301745D01*
X62346705Y-86250615D01*
X62463261Y-86163261D01*
X62550615Y-86046705D01*
X62601745Y-85910316D01*
X62608500Y-85848134D01*
X62608500Y-84251866D01*
X62601745Y-84189684D01*
X62550615Y-84053295D01*
X62463261Y-83936739D01*
X62346705Y-83849385D01*
X62210316Y-83798255D01*
X62148134Y-83791500D01*
X61439595Y-83791500D01*
X61371474Y-83771498D01*
X61350500Y-83754595D01*
X59295912Y-81700007D01*
X59261886Y-81637695D01*
X59266951Y-81566880D01*
X59284181Y-81535347D01*
X59332563Y-81470792D01*
X59350615Y-81446705D01*
X59401745Y-81310316D01*
X59408500Y-81248134D01*
X59408500Y-81244669D01*
X60592001Y-81244669D01*
X60592371Y-81251490D01*
X60597895Y-81302352D01*
X60601521Y-81317604D01*
X60646676Y-81438054D01*
X60655214Y-81453649D01*
X60731715Y-81555724D01*
X60744276Y-81568285D01*
X60846351Y-81644786D01*
X60861946Y-81653324D01*
X60982394Y-81698478D01*
X60997649Y-81702105D01*
X61048514Y-81707631D01*
X61055328Y-81708000D01*
X61327885Y-81708000D01*
X61343124Y-81703525D01*
X61344329Y-81702135D01*
X61346000Y-81694452D01*
X61346000Y-81689884D01*
X61854000Y-81689884D01*
X61858475Y-81705123D01*
X61859865Y-81706328D01*
X61867548Y-81707999D01*
X62144669Y-81707999D01*
X62151490Y-81707629D01*
X62202352Y-81702105D01*
X62217604Y-81698479D01*
X62338054Y-81653324D01*
X62353649Y-81644786D01*
X62455724Y-81568285D01*
X62468285Y-81555724D01*
X62544786Y-81453649D01*
X62553324Y-81438054D01*
X62598478Y-81317606D01*
X62602105Y-81302351D01*
X62607631Y-81251486D01*
X62608000Y-81244672D01*
X62608000Y-80722115D01*
X62603525Y-80706876D01*
X62602135Y-80705671D01*
X62594452Y-80704000D01*
X61872115Y-80704000D01*
X61856876Y-80708475D01*
X61855671Y-80709865D01*
X61854000Y-80717548D01*
X61854000Y-81689884D01*
X61346000Y-81689884D01*
X61346000Y-80722115D01*
X61341525Y-80706876D01*
X61340135Y-80705671D01*
X61332452Y-80704000D01*
X60610116Y-80704000D01*
X60594877Y-80708475D01*
X60593672Y-80709865D01*
X60592001Y-80717548D01*
X60592001Y-81244669D01*
X59408500Y-81244669D01*
X59408500Y-80177885D01*
X60592000Y-80177885D01*
X60596475Y-80193124D01*
X60597865Y-80194329D01*
X60605548Y-80196000D01*
X61327885Y-80196000D01*
X61343124Y-80191525D01*
X61344329Y-80190135D01*
X61346000Y-80182452D01*
X61346000Y-80177885D01*
X61854000Y-80177885D01*
X61858475Y-80193124D01*
X61859865Y-80194329D01*
X61867548Y-80196000D01*
X62589884Y-80196000D01*
X62605123Y-80191525D01*
X62606328Y-80190135D01*
X62607999Y-80182452D01*
X62607999Y-79655331D01*
X62607629Y-79648510D01*
X62602105Y-79597648D01*
X62598479Y-79582396D01*
X62553324Y-79461946D01*
X62544786Y-79446351D01*
X62468285Y-79344276D01*
X62455724Y-79331715D01*
X62353649Y-79255214D01*
X62338054Y-79246676D01*
X62217606Y-79201522D01*
X62202351Y-79197895D01*
X62151486Y-79192369D01*
X62144672Y-79192000D01*
X61872115Y-79192000D01*
X61856876Y-79196475D01*
X61855671Y-79197865D01*
X61854000Y-79205548D01*
X61854000Y-80177885D01*
X61346000Y-80177885D01*
X61346000Y-79210116D01*
X61341525Y-79194877D01*
X61340135Y-79193672D01*
X61332452Y-79192001D01*
X61055331Y-79192001D01*
X61048510Y-79192371D01*
X60997648Y-79197895D01*
X60982396Y-79201521D01*
X60861946Y-79246676D01*
X60846351Y-79255214D01*
X60744276Y-79331715D01*
X60731715Y-79344276D01*
X60655214Y-79446351D01*
X60646676Y-79461946D01*
X60601522Y-79582394D01*
X60597895Y-79597649D01*
X60592369Y-79648514D01*
X60592000Y-79655328D01*
X60592000Y-80177885D01*
X59408500Y-80177885D01*
X59408500Y-79651866D01*
X59401745Y-79589684D01*
X59350615Y-79453295D01*
X59263261Y-79336739D01*
X59146705Y-79249385D01*
X59010316Y-79198255D01*
X58948134Y-79191500D01*
X57851866Y-79191500D01*
X57789684Y-79198255D01*
X57653295Y-79249385D01*
X57536739Y-79336739D01*
X57449385Y-79453295D01*
X57398255Y-79589684D01*
X57391500Y-79651866D01*
X57391500Y-81248134D01*
X54401212Y-81248134D01*
X54399947Y-81220365D01*
X54435574Y-81158954D01*
X54443407Y-81152154D01*
X54449348Y-81148478D01*
X54574305Y-81023303D01*
X54578146Y-81017072D01*
X54663275Y-80878968D01*
X54663276Y-80878966D01*
X54667115Y-80872738D01*
X54722797Y-80704861D01*
X54733500Y-80600400D01*
X54733500Y-80014594D01*
X54753502Y-79946473D01*
X54770405Y-79925499D01*
X57850499Y-76845405D01*
X57912811Y-76811379D01*
X57939594Y-76808500D01*
X58948134Y-76808500D01*
X59010316Y-76801745D01*
X59146705Y-76750615D01*
X59263261Y-76663261D01*
X59350615Y-76546705D01*
X59401745Y-76410316D01*
X59408500Y-76348134D01*
X60591500Y-76348134D01*
X60598255Y-76410316D01*
X60649385Y-76546705D01*
X60736739Y-76663261D01*
X60853295Y-76750615D01*
X60989684Y-76801745D01*
X61051866Y-76808500D01*
X62148134Y-76808500D01*
X62210316Y-76801745D01*
X62346705Y-76750615D01*
X62463261Y-76663261D01*
X62550615Y-76546705D01*
X62601745Y-76410316D01*
X62608500Y-76348134D01*
X62608500Y-74751866D01*
X62601745Y-74689684D01*
X62550615Y-74553295D01*
X62463261Y-74436739D01*
X62346705Y-74349385D01*
X62210316Y-74298255D01*
X62148134Y-74291500D01*
X61051866Y-74291500D01*
X60989684Y-74298255D01*
X60853295Y-74349385D01*
X60736739Y-74436739D01*
X60649385Y-74553295D01*
X60598255Y-74689684D01*
X60591500Y-74751866D01*
X60591500Y-76348134D01*
X59408500Y-76348134D01*
X59408500Y-74751866D01*
X59401745Y-74689684D01*
X59350615Y-74553295D01*
X59263261Y-74436739D01*
X59146705Y-74349385D01*
X59010316Y-74298255D01*
X58948134Y-74291500D01*
X57851866Y-74291500D01*
X57789684Y-74298255D01*
X57653295Y-74349385D01*
X57536739Y-74436739D01*
X57449385Y-74553295D01*
X57398255Y-74689684D01*
X57391500Y-74751866D01*
X57391500Y-75460405D01*
X57371498Y-75528526D01*
X57354595Y-75549500D01*
X53762369Y-79141726D01*
X53700057Y-79175752D01*
X53629242Y-79170687D01*
X53572406Y-79128140D01*
X53547595Y-79061620D01*
X53550885Y-79022684D01*
X53556473Y-78999847D01*
X53556473Y-78999844D01*
X53557808Y-78994390D01*
X53558500Y-78983236D01*
X53558536Y-78983238D01*
X53558775Y-78979248D01*
X53559150Y-78975050D01*
X53560640Y-78967885D01*
X53558546Y-78890496D01*
X53558500Y-78887088D01*
X53558500Y-78066371D01*
X53578502Y-77998250D01*
X53595405Y-77977276D01*
X53988911Y-77583770D01*
X54003323Y-77571384D01*
X54014918Y-77562851D01*
X54014923Y-77562846D01*
X54020818Y-77558508D01*
X54025557Y-77552930D01*
X54025560Y-77552927D01*
X54055035Y-77518232D01*
X54061965Y-77510716D01*
X54067660Y-77505021D01*
X54085281Y-77482749D01*
X54088072Y-77479345D01*
X54130591Y-77429297D01*
X54130592Y-77429295D01*
X54135333Y-77423715D01*
X54138661Y-77417199D01*
X54142020Y-77412162D01*
X54145194Y-77407023D01*
X54149734Y-77401284D01*
X54180636Y-77335163D01*
X54182569Y-77331209D01*
X54186239Y-77324021D01*
X54215769Y-77266192D01*
X54217510Y-77259076D01*
X54219604Y-77253446D01*
X54221523Y-77247679D01*
X54224621Y-77241050D01*
X54239483Y-77169600D01*
X54240453Y-77165315D01*
X54256473Y-77099844D01*
X54257808Y-77094390D01*
X54258500Y-77083236D01*
X54258536Y-77083238D01*
X54258775Y-77079248D01*
X54259150Y-77075050D01*
X54260640Y-77067885D01*
X54258546Y-76990496D01*
X54258500Y-76987088D01*
X54258500Y-75866371D01*
X54278502Y-75798250D01*
X54295405Y-75777276D01*
X56777276Y-73295405D01*
X56839588Y-73261379D01*
X56866371Y-73258500D01*
X63115500Y-73258500D01*
X63183621Y-73278502D01*
G37*
%TD.AperFunction*%
%TA.AperFunction,Conductor*%
G36*
X76363578Y-57028002D02*
G01*
X76410071Y-57081658D01*
X76420665Y-57119892D01*
X76460186Y-57470646D01*
X76460623Y-57472954D01*
X76460623Y-57472956D01*
X76549388Y-57942090D01*
X76550729Y-57949180D01*
X76676780Y-58419609D01*
X76837634Y-58879303D01*
X76838581Y-58881473D01*
X77019485Y-59296109D01*
X77032391Y-59325691D01*
X77033485Y-59327761D01*
X77033486Y-59327763D01*
X77258361Y-59753247D01*
X77259962Y-59756277D01*
X77261206Y-59758257D01*
X77261209Y-59758262D01*
X77404760Y-59986722D01*
X77519075Y-60168653D01*
X77520474Y-60170548D01*
X77520477Y-60170553D01*
X77608712Y-60290106D01*
X77808280Y-60560511D01*
X78125960Y-60929662D01*
X78470338Y-61274040D01*
X78839489Y-61591720D01*
X79231347Y-61880925D01*
X79233340Y-61882177D01*
X79233344Y-61882180D01*
X79570795Y-62094214D01*
X79643723Y-62140038D01*
X79645784Y-62141127D01*
X79645787Y-62141129D01*
X80072237Y-62366514D01*
X80074309Y-62367609D01*
X80076458Y-62368547D01*
X80076463Y-62368549D01*
X80189680Y-62417945D01*
X80520697Y-62562366D01*
X80980391Y-62723220D01*
X80982662Y-62723828D01*
X80982670Y-62723831D01*
X81308454Y-62811124D01*
X81450820Y-62849271D01*
X81453131Y-62849708D01*
X81453143Y-62849711D01*
X81927044Y-62939377D01*
X81929354Y-62939814D01*
X82114112Y-62960631D01*
X82280108Y-62979335D01*
X82345561Y-63006839D01*
X82385753Y-63065363D01*
X82392000Y-63104543D01*
X82392000Y-82866000D01*
X82371998Y-82934121D01*
X82318342Y-82980614D01*
X82266000Y-82992000D01*
X69908702Y-82992000D01*
X69907932Y-82991998D01*
X69907078Y-82991993D01*
X69830348Y-82991524D01*
X69821719Y-82993990D01*
X69821714Y-82993991D01*
X69801952Y-82999639D01*
X69785191Y-83003217D01*
X69764848Y-83006130D01*
X69764838Y-83006133D01*
X69755955Y-83007405D01*
X69732605Y-83018021D01*
X69715093Y-83024464D01*
X69707057Y-83026761D01*
X69690435Y-83031512D01*
X69665452Y-83047274D01*
X69650386Y-83055404D01*
X69623490Y-83067633D01*
X69604061Y-83084374D01*
X69589053Y-83095479D01*
X69567369Y-83109160D01*
X69561427Y-83115888D01*
X69547819Y-83131296D01*
X69535627Y-83143340D01*
X69513253Y-83162619D01*
X69508374Y-83170147D01*
X69508371Y-83170150D01*
X69499304Y-83184139D01*
X69488014Y-83199013D01*
X69471044Y-83218228D01*
X69458490Y-83244966D01*
X69450176Y-83259935D01*
X69434107Y-83284727D01*
X69431535Y-83293327D01*
X69426761Y-83309290D01*
X69420099Y-83326736D01*
X69409201Y-83349948D01*
X69407820Y-83358820D01*
X69405520Y-83373591D01*
X69375277Y-83437823D01*
X69315107Y-83475508D01*
X69244116Y-83474681D01*
X69184841Y-83435604D01*
X69156102Y-83370684D01*
X69155020Y-83354207D01*
X69155020Y-83050792D01*
X69175022Y-82982671D01*
X69191925Y-82961697D01*
X70483218Y-81670405D01*
X70545530Y-81636379D01*
X70572313Y-81633500D01*
X77291800Y-81633500D01*
X77359921Y-81653502D01*
X77379147Y-81669843D01*
X77379420Y-81669540D01*
X77384332Y-81673963D01*
X77388747Y-81678866D01*
X77403912Y-81689884D01*
X77425900Y-81705859D01*
X77543248Y-81791118D01*
X77549276Y-81793802D01*
X77549278Y-81793803D01*
X77695258Y-81858797D01*
X77717712Y-81868794D01*
X77811113Y-81888647D01*
X77898056Y-81907128D01*
X77898061Y-81907128D01*
X77904513Y-81908500D01*
X78095487Y-81908500D01*
X78101939Y-81907128D01*
X78101944Y-81907128D01*
X78188887Y-81888647D01*
X78282288Y-81868794D01*
X78304742Y-81858797D01*
X78450722Y-81793803D01*
X78450724Y-81793802D01*
X78456752Y-81791118D01*
X78611253Y-81678866D01*
X78641939Y-81644786D01*
X78734621Y-81541852D01*
X78734622Y-81541851D01*
X78739040Y-81536944D01*
X78834527Y-81371556D01*
X78893542Y-81189928D01*
X78896798Y-81158954D01*
X78912814Y-81006565D01*
X78913504Y-81000000D01*
X78900783Y-80878968D01*
X78894232Y-80816635D01*
X78894232Y-80816633D01*
X78893542Y-80810072D01*
X78834527Y-80628444D01*
X78816479Y-80597183D01*
X78742341Y-80468774D01*
X78739040Y-80463056D01*
X78611253Y-80321134D01*
X78512157Y-80249136D01*
X78462094Y-80212763D01*
X78462093Y-80212762D01*
X78456752Y-80208882D01*
X78450724Y-80206198D01*
X78450722Y-80206197D01*
X78288319Y-80133891D01*
X78288318Y-80133891D01*
X78282288Y-80131206D01*
X78174153Y-80108221D01*
X78101944Y-80092872D01*
X78101939Y-80092872D01*
X78095487Y-80091500D01*
X77904513Y-80091500D01*
X77898061Y-80092872D01*
X77898056Y-80092872D01*
X77825847Y-80108221D01*
X77717712Y-80131206D01*
X77543248Y-80208882D01*
X77542285Y-80206718D01*
X77483796Y-80220908D01*
X77416704Y-80197689D01*
X77372816Y-80141883D01*
X77364479Y-80108221D01*
X77348232Y-79953635D01*
X77348232Y-79953633D01*
X77347542Y-79947072D01*
X77288527Y-79765444D01*
X77193040Y-79600056D01*
X77176881Y-79582109D01*
X77069675Y-79463045D01*
X77069674Y-79463044D01*
X77065253Y-79458134D01*
X76966157Y-79386136D01*
X76916094Y-79349763D01*
X76916093Y-79349762D01*
X76910752Y-79345882D01*
X76904724Y-79343198D01*
X76904722Y-79343197D01*
X76742319Y-79270891D01*
X76742318Y-79270891D01*
X76736288Y-79268206D01*
X76632914Y-79246233D01*
X76555944Y-79229872D01*
X76555939Y-79229872D01*
X76549487Y-79228500D01*
X76358513Y-79228500D01*
X76352061Y-79229872D01*
X76352056Y-79229872D01*
X76275086Y-79246233D01*
X76171712Y-79268206D01*
X76165682Y-79270891D01*
X76165681Y-79270891D01*
X76003278Y-79343197D01*
X76003276Y-79343198D01*
X75997248Y-79345882D01*
X75991907Y-79349762D01*
X75991906Y-79349763D01*
X75864329Y-79442454D01*
X75842747Y-79458134D01*
X75838332Y-79463037D01*
X75833420Y-79467460D01*
X75832295Y-79466211D01*
X75778986Y-79499051D01*
X75745800Y-79503500D01*
X70563763Y-79503500D01*
X70552579Y-79502973D01*
X70545091Y-79501299D01*
X70537168Y-79501548D01*
X70477033Y-79503438D01*
X70473075Y-79503500D01*
X70445144Y-79503500D01*
X70441229Y-79503995D01*
X70441225Y-79503995D01*
X70441167Y-79504003D01*
X70441138Y-79504006D01*
X70429296Y-79504939D01*
X70385110Y-79506327D01*
X70367744Y-79511372D01*
X70365658Y-79511978D01*
X70346306Y-79515986D01*
X70339235Y-79516880D01*
X70326203Y-79518526D01*
X70318834Y-79521443D01*
X70318832Y-79521444D01*
X70285097Y-79534800D01*
X70273869Y-79538645D01*
X70231407Y-79550982D01*
X70224585Y-79555016D01*
X70224579Y-79555019D01*
X70213968Y-79561294D01*
X70196218Y-79569990D01*
X70184756Y-79574528D01*
X70184751Y-79574531D01*
X70177383Y-79577448D01*
X70170573Y-79582396D01*
X70141625Y-79603427D01*
X70131707Y-79609943D01*
X70113019Y-79620995D01*
X70093637Y-79632458D01*
X70079313Y-79646782D01*
X70064281Y-79659621D01*
X70047893Y-79671528D01*
X70019712Y-79705593D01*
X70011722Y-79714373D01*
X68198605Y-81527490D01*
X68136293Y-81561516D01*
X68065478Y-81556451D01*
X68008642Y-81513904D01*
X67983831Y-81447384D01*
X67983510Y-81438395D01*
X67983510Y-75800994D01*
X68003512Y-75732873D01*
X68020415Y-75711899D01*
X69892253Y-73840062D01*
X69900539Y-73832522D01*
X69907018Y-73828410D01*
X69953644Y-73778758D01*
X69956398Y-73775917D01*
X69976135Y-73756180D01*
X69978615Y-73752983D01*
X69986320Y-73743961D01*
X69995285Y-73734414D01*
X70016586Y-73711731D01*
X70020405Y-73704785D01*
X70020407Y-73704782D01*
X70026348Y-73693976D01*
X70037199Y-73677457D01*
X70037559Y-73676993D01*
X70049614Y-73661451D01*
X70052759Y-73654182D01*
X70052762Y-73654178D01*
X70067174Y-73620873D01*
X70072391Y-73610223D01*
X70093695Y-73571470D01*
X70098733Y-73551847D01*
X70105137Y-73533144D01*
X70110033Y-73521830D01*
X70110033Y-73521829D01*
X70113181Y-73514555D01*
X70114420Y-73506732D01*
X70114423Y-73506722D01*
X70120099Y-73470886D01*
X70122505Y-73459266D01*
X70131528Y-73424121D01*
X70131528Y-73424120D01*
X70133500Y-73416440D01*
X70133500Y-73396186D01*
X70135051Y-73376475D01*
X70136980Y-73364296D01*
X70138220Y-73356467D01*
X70134059Y-73312448D01*
X70133500Y-73300591D01*
X70133500Y-65953262D01*
X70153502Y-65885141D01*
X70186332Y-65850683D01*
X70251932Y-65803891D01*
X70339860Y-65741173D01*
X70498096Y-65583489D01*
X70628453Y-65402077D01*
X70629640Y-65402930D01*
X70676960Y-65359362D01*
X70746897Y-65347145D01*
X70812338Y-65374678D01*
X70840166Y-65406511D01*
X70897694Y-65500388D01*
X70903777Y-65508699D01*
X71043213Y-65669667D01*
X71050580Y-65676883D01*
X71214434Y-65812916D01*
X71222881Y-65818831D01*
X71406756Y-65926279D01*
X71416042Y-65930729D01*
X71615001Y-66006703D01*
X71624899Y-66009579D01*
X71728250Y-66030606D01*
X71742299Y-66029410D01*
X71746000Y-66019065D01*
X71746000Y-66018517D01*
X72254000Y-66018517D01*
X72258064Y-66032359D01*
X72271478Y-66034393D01*
X72278184Y-66033534D01*
X72288262Y-66031392D01*
X72492255Y-65970191D01*
X72501842Y-65966433D01*
X72693095Y-65872739D01*
X72701945Y-65867464D01*
X72875328Y-65743792D01*
X72883200Y-65737139D01*
X73034052Y-65586812D01*
X73040730Y-65578965D01*
X73168022Y-65401819D01*
X73169279Y-65402722D01*
X73216373Y-65359362D01*
X73286311Y-65347145D01*
X73351751Y-65374678D01*
X73379579Y-65406511D01*
X73439987Y-65505088D01*
X73586250Y-65673938D01*
X73758126Y-65816632D01*
X73951000Y-65929338D01*
X73955825Y-65931180D01*
X73955826Y-65931181D01*
X74028612Y-65958975D01*
X74159692Y-66009030D01*
X74164760Y-66010061D01*
X74164763Y-66010062D01*
X74259862Y-66029410D01*
X74378597Y-66053567D01*
X74383772Y-66053757D01*
X74383774Y-66053757D01*
X74596673Y-66061564D01*
X74596677Y-66061564D01*
X74601837Y-66061753D01*
X74606957Y-66061097D01*
X74606959Y-66061097D01*
X74818288Y-66034025D01*
X74818289Y-66034025D01*
X74823416Y-66033368D01*
X74828366Y-66031883D01*
X75032429Y-65970661D01*
X75032434Y-65970659D01*
X75037384Y-65969174D01*
X75237994Y-65870896D01*
X75419860Y-65741173D01*
X75578096Y-65583489D01*
X75708453Y-65402077D01*
X75721995Y-65374678D01*
X75805136Y-65206453D01*
X75805137Y-65206451D01*
X75807430Y-65201811D01*
X75872370Y-64988069D01*
X75901529Y-64766590D01*
X75903156Y-64700000D01*
X75884852Y-64477361D01*
X75830431Y-64260702D01*
X75741354Y-64055840D01*
X75620014Y-63868277D01*
X75469670Y-63703051D01*
X75465619Y-63699852D01*
X75465615Y-63699848D01*
X75298414Y-63567800D01*
X75298410Y-63567798D01*
X75294359Y-63564598D01*
X75258028Y-63544542D01*
X75242136Y-63535769D01*
X75098789Y-63456638D01*
X75093920Y-63454914D01*
X75093916Y-63454912D01*
X74893087Y-63383795D01*
X74893083Y-63383794D01*
X74888212Y-63382069D01*
X74883119Y-63381162D01*
X74883116Y-63381161D01*
X74673373Y-63343800D01*
X74673367Y-63343799D01*
X74668284Y-63342894D01*
X74594452Y-63341992D01*
X74450081Y-63340228D01*
X74450079Y-63340228D01*
X74444911Y-63340165D01*
X74224091Y-63373955D01*
X74011756Y-63443357D01*
X73813607Y-63546507D01*
X73809474Y-63549610D01*
X73809471Y-63549612D01*
X73639100Y-63677530D01*
X73634965Y-63680635D01*
X73631393Y-63684373D01*
X73523729Y-63797037D01*
X73480629Y-63842138D01*
X73477715Y-63846410D01*
X73477714Y-63846411D01*
X73372898Y-64000066D01*
X73317987Y-64045069D01*
X73247462Y-64053240D01*
X73183715Y-64021986D01*
X73163018Y-63997502D01*
X73082426Y-63872926D01*
X73076136Y-63864757D01*
X72932806Y-63707240D01*
X72925273Y-63700215D01*
X72758139Y-63568222D01*
X72749552Y-63562517D01*
X72563117Y-63459599D01*
X72553705Y-63455369D01*
X72352959Y-63384280D01*
X72342988Y-63381646D01*
X72271837Y-63368972D01*
X72258540Y-63370432D01*
X72254000Y-63384989D01*
X72254000Y-66018517D01*
X71746000Y-66018517D01*
X71746000Y-63383102D01*
X71742082Y-63369758D01*
X71727806Y-63367771D01*
X71689324Y-63373660D01*
X71679288Y-63376051D01*
X71476868Y-63442212D01*
X71467359Y-63446209D01*
X71278463Y-63544542D01*
X71269738Y-63550036D01*
X71099433Y-63677905D01*
X71091726Y-63684748D01*
X70944590Y-63838717D01*
X70938109Y-63846722D01*
X70833498Y-64000074D01*
X70778587Y-64045076D01*
X70708062Y-64053247D01*
X70644315Y-64021993D01*
X70623618Y-63997509D01*
X70542822Y-63872617D01*
X70542820Y-63872614D01*
X70540014Y-63868277D01*
X70389670Y-63703051D01*
X70385619Y-63699852D01*
X70385615Y-63699848D01*
X70218414Y-63567800D01*
X70218410Y-63567798D01*
X70214359Y-63564598D01*
X70178028Y-63544542D01*
X70162136Y-63535769D01*
X70018789Y-63456638D01*
X70013920Y-63454914D01*
X70013916Y-63454912D01*
X69813087Y-63383795D01*
X69813083Y-63383794D01*
X69808212Y-63382069D01*
X69803119Y-63381162D01*
X69803116Y-63381161D01*
X69593373Y-63343800D01*
X69593367Y-63343799D01*
X69588284Y-63342894D01*
X69514452Y-63341992D01*
X69370081Y-63340228D01*
X69370079Y-63340228D01*
X69364911Y-63340165D01*
X69144091Y-63373955D01*
X68931756Y-63443357D01*
X68733607Y-63546507D01*
X68729474Y-63549610D01*
X68729471Y-63549612D01*
X68559100Y-63677530D01*
X68554965Y-63680635D01*
X68498537Y-63739684D01*
X68474283Y-63765064D01*
X68412759Y-63800494D01*
X68341846Y-63797037D01*
X68284060Y-63755791D01*
X68265207Y-63722243D01*
X68223767Y-63611703D01*
X68220615Y-63603295D01*
X68133261Y-63486739D01*
X68016705Y-63399385D01*
X67880316Y-63348255D01*
X67818134Y-63341500D01*
X66021866Y-63341500D01*
X65959684Y-63348255D01*
X65823295Y-63399385D01*
X65706739Y-63486739D01*
X65619385Y-63603295D01*
X65568255Y-63739684D01*
X65561500Y-63801866D01*
X65561500Y-65598134D01*
X65568255Y-65660316D01*
X65619385Y-65796705D01*
X65706739Y-65913261D01*
X65823295Y-66000615D01*
X65959684Y-66051745D01*
X66021866Y-66058500D01*
X67330406Y-66058500D01*
X67398527Y-66078502D01*
X67419501Y-66095405D01*
X68354594Y-67030498D01*
X68388620Y-67092810D01*
X68391499Y-67119593D01*
X68391499Y-71465500D01*
X68371497Y-71533621D01*
X68317841Y-71580114D01*
X68265499Y-71591500D01*
X68204511Y-71591500D01*
X68198059Y-71592872D01*
X68198054Y-71592872D01*
X68111769Y-71611213D01*
X68017710Y-71631206D01*
X68011680Y-71633891D01*
X68011679Y-71633891D01*
X67849276Y-71706197D01*
X67849274Y-71706198D01*
X67843246Y-71708882D01*
X67837907Y-71712761D01*
X67837900Y-71712765D01*
X67831470Y-71717437D01*
X67757411Y-71741500D01*
X64708248Y-71741500D01*
X64640127Y-71721498D01*
X64593634Y-71667842D01*
X64590147Y-71658450D01*
X64588229Y-71654017D01*
X64586018Y-71646407D01*
X64581985Y-71639588D01*
X64581983Y-71639583D01*
X64575707Y-71628972D01*
X64567012Y-71611224D01*
X64559552Y-71592383D01*
X64533564Y-71556613D01*
X64527048Y-71546693D01*
X64508580Y-71515465D01*
X64508578Y-71515462D01*
X64504542Y-71508638D01*
X64490221Y-71494317D01*
X64477380Y-71479283D01*
X64470131Y-71469306D01*
X64465472Y-71462893D01*
X64431395Y-71434702D01*
X64422616Y-71426712D01*
X63270405Y-70274500D01*
X63236379Y-70212188D01*
X63233500Y-70185405D01*
X63233500Y-69634500D01*
X63253502Y-69566379D01*
X63307158Y-69519886D01*
X63359500Y-69508500D01*
X63648134Y-69508500D01*
X63710316Y-69501745D01*
X63846705Y-69450615D01*
X63963261Y-69363261D01*
X64050615Y-69246705D01*
X64101745Y-69110316D01*
X64108500Y-69048134D01*
X64108500Y-66951866D01*
X64101745Y-66889684D01*
X64050615Y-66753295D01*
X63963261Y-66636739D01*
X63846705Y-66549385D01*
X63710316Y-66498255D01*
X63648134Y-66491500D01*
X61551866Y-66491500D01*
X61489684Y-66498255D01*
X61353295Y-66549385D01*
X61236739Y-66636739D01*
X61149385Y-66753295D01*
X61098255Y-66889684D01*
X61091500Y-66951866D01*
X61091500Y-69048134D01*
X61098255Y-69110316D01*
X61149385Y-69246705D01*
X61236739Y-69363261D01*
X61353295Y-69450615D01*
X61489684Y-69501745D01*
X61551866Y-69508500D01*
X61840500Y-69508500D01*
X61908621Y-69528502D01*
X61955114Y-69582158D01*
X61966500Y-69634500D01*
X61966500Y-70421233D01*
X61965973Y-70432416D01*
X61964298Y-70439909D01*
X61964547Y-70447835D01*
X61964547Y-70447836D01*
X61966438Y-70507986D01*
X61966500Y-70511945D01*
X61966500Y-70539856D01*
X61966997Y-70543790D01*
X61966997Y-70543791D01*
X61967005Y-70543856D01*
X61967938Y-70555693D01*
X61969327Y-70599889D01*
X61974978Y-70619339D01*
X61978987Y-70638700D01*
X61981526Y-70658797D01*
X61984445Y-70666168D01*
X61984445Y-70666170D01*
X61997804Y-70699912D01*
X62001649Y-70711142D01*
X62013982Y-70753593D01*
X62018015Y-70760412D01*
X62018017Y-70760417D01*
X62024293Y-70771028D01*
X62032988Y-70788776D01*
X62040448Y-70807617D01*
X62045110Y-70814033D01*
X62045110Y-70814034D01*
X62066436Y-70843387D01*
X62072952Y-70853307D01*
X62095458Y-70891362D01*
X62109779Y-70905683D01*
X62122619Y-70920716D01*
X62134528Y-70937107D01*
X62140632Y-70942157D01*
X62140637Y-70942162D01*
X62168598Y-70965293D01*
X62177379Y-70973283D01*
X62730500Y-71526405D01*
X62764525Y-71588717D01*
X62759460Y-71659533D01*
X62716913Y-71716368D01*
X62650393Y-71741179D01*
X62641404Y-71741500D01*
X56567070Y-71741500D01*
X56548120Y-71740067D01*
X56533885Y-71737901D01*
X56533881Y-71737901D01*
X56526651Y-71736801D01*
X56519359Y-71737394D01*
X56519356Y-71737394D01*
X56473982Y-71741085D01*
X56463767Y-71741500D01*
X56455707Y-71741500D01*
X56452073Y-71741924D01*
X56452067Y-71741924D01*
X56439042Y-71743443D01*
X56427480Y-71744791D01*
X56423132Y-71745221D01*
X56401059Y-71747016D01*
X56357662Y-71750546D01*
X56357659Y-71750547D01*
X56350364Y-71751140D01*
X56343400Y-71753396D01*
X56337461Y-71754583D01*
X56331590Y-71755970D01*
X56324319Y-71756818D01*
X56317443Y-71759314D01*
X56317434Y-71759316D01*
X56255702Y-71781725D01*
X56251598Y-71783135D01*
X56182101Y-71805648D01*
X56175846Y-71809444D01*
X56170387Y-71811943D01*
X56164939Y-71814671D01*
X56158063Y-71817167D01*
X56097010Y-71857195D01*
X56093327Y-71859519D01*
X56035686Y-71894496D01*
X56035682Y-71894499D01*
X56030893Y-71897405D01*
X56026694Y-71901114D01*
X56026689Y-71901117D01*
X56022516Y-71904803D01*
X56022492Y-71904776D01*
X56019500Y-71907429D01*
X56016267Y-71910132D01*
X56010148Y-71914144D01*
X55974750Y-71951511D01*
X55956872Y-71970383D01*
X55954494Y-71972825D01*
X53445497Y-74481822D01*
X53383185Y-74515848D01*
X53356402Y-74518727D01*
X53331740Y-74518727D01*
X53325288Y-74520099D01*
X53325283Y-74520099D01*
X53238340Y-74538580D01*
X53144939Y-74558433D01*
X53138909Y-74561118D01*
X53138908Y-74561118D01*
X52976505Y-74633424D01*
X52976503Y-74633425D01*
X52970475Y-74636109D01*
X52965134Y-74639989D01*
X52965133Y-74639990D01*
X52833561Y-74735583D01*
X52766693Y-74759442D01*
X52697542Y-74743361D01*
X52648061Y-74692447D01*
X52633500Y-74633647D01*
X52633500Y-74572342D01*
X52653502Y-74504221D01*
X52708251Y-74457235D01*
X52850722Y-74393803D01*
X52850724Y-74393802D01*
X52856752Y-74391118D01*
X53011253Y-74278866D01*
X53031267Y-74256638D01*
X53134621Y-74141852D01*
X53134622Y-74141851D01*
X53139040Y-74136944D01*
X53204271Y-74023961D01*
X53231223Y-73977279D01*
X53231224Y-73977278D01*
X53234527Y-73971556D01*
X53293542Y-73789928D01*
X53296169Y-73764940D01*
X53312814Y-73606565D01*
X53313504Y-73600000D01*
X53305288Y-73521830D01*
X53294232Y-73416635D01*
X53294232Y-73416633D01*
X53293542Y-73410072D01*
X53234527Y-73228444D01*
X53139040Y-73063056D01*
X53011253Y-72921134D01*
X52856752Y-72808882D01*
X52850724Y-72806198D01*
X52850722Y-72806197D01*
X52688319Y-72733891D01*
X52688318Y-72733891D01*
X52682288Y-72731206D01*
X52563704Y-72706000D01*
X52501944Y-72692872D01*
X52501939Y-72692872D01*
X52495487Y-72691500D01*
X52304513Y-72691500D01*
X52298061Y-72692872D01*
X52298056Y-72692872D01*
X52236296Y-72706000D01*
X52117712Y-72731206D01*
X52111682Y-72733891D01*
X52111681Y-72733891D01*
X51949278Y-72806197D01*
X51949276Y-72806198D01*
X51943248Y-72808882D01*
X51788747Y-72921134D01*
X51660960Y-73063056D01*
X51565473Y-73228444D01*
X51506458Y-73410072D01*
X51505769Y-73416631D01*
X51505768Y-73416634D01*
X51486794Y-73597164D01*
X51461046Y-73661216D01*
X51450386Y-73674959D01*
X51447241Y-73682228D01*
X51447238Y-73682232D01*
X51432826Y-73715537D01*
X51427609Y-73726187D01*
X51406305Y-73764940D01*
X51404334Y-73772615D01*
X51404334Y-73772616D01*
X51401267Y-73784562D01*
X51394863Y-73803266D01*
X51386819Y-73821855D01*
X51385580Y-73829678D01*
X51385577Y-73829688D01*
X51379901Y-73865524D01*
X51377495Y-73877144D01*
X51366500Y-73919970D01*
X51366500Y-73940224D01*
X51364949Y-73959934D01*
X51361780Y-73979943D01*
X51362526Y-73987835D01*
X51365941Y-74023961D01*
X51366500Y-74035819D01*
X51366500Y-76285405D01*
X51346498Y-76353526D01*
X51329595Y-76374500D01*
X50249500Y-77454595D01*
X50187188Y-77488621D01*
X50160405Y-77491500D01*
X50104513Y-77491500D01*
X50098061Y-77492872D01*
X50098056Y-77492872D01*
X50014109Y-77510716D01*
X49917712Y-77531206D01*
X49911682Y-77533891D01*
X49911681Y-77533891D01*
X49749278Y-77606197D01*
X49749276Y-77606198D01*
X49743248Y-77608882D01*
X49588747Y-77721134D01*
X49460960Y-77863056D01*
X49457659Y-77868774D01*
X49382906Y-77998250D01*
X49365473Y-78028444D01*
X49306458Y-78210072D01*
X49286496Y-78400000D01*
X49306458Y-78589928D01*
X49365473Y-78771556D01*
X49460960Y-78936944D01*
X49465378Y-78941851D01*
X49465379Y-78941852D01*
X49584325Y-79073955D01*
X49588747Y-79078866D01*
X49656567Y-79128140D01*
X49722099Y-79175752D01*
X49743248Y-79191118D01*
X49749276Y-79193802D01*
X49749278Y-79193803D01*
X49911681Y-79266109D01*
X49917712Y-79268794D01*
X50011112Y-79288647D01*
X50098056Y-79307128D01*
X50098061Y-79307128D01*
X50104513Y-79308500D01*
X50295487Y-79308500D01*
X50301939Y-79307128D01*
X50301944Y-79307128D01*
X50475833Y-79270166D01*
X50475832Y-79270166D01*
X50482288Y-79268794D01*
X50482493Y-79269758D01*
X50547536Y-79267903D01*
X50608333Y-79304568D01*
X50639655Y-79368281D01*
X50641500Y-79389762D01*
X50641500Y-83331859D01*
X50621498Y-83399980D01*
X50567842Y-83446473D01*
X50497568Y-83456577D01*
X50432988Y-83427083D01*
X50394565Y-83367226D01*
X50393867Y-83364841D01*
X50392595Y-83355955D01*
X50381979Y-83332605D01*
X50375536Y-83315093D01*
X50370954Y-83299063D01*
X50368488Y-83290435D01*
X50352726Y-83265452D01*
X50344596Y-83250386D01*
X50332367Y-83223490D01*
X50315626Y-83204061D01*
X50304521Y-83189053D01*
X50295630Y-83174961D01*
X50290840Y-83167369D01*
X50268703Y-83147818D01*
X50256659Y-83135626D01*
X50243239Y-83120051D01*
X50243237Y-83120050D01*
X50237381Y-83113253D01*
X50229853Y-83108374D01*
X50229850Y-83108371D01*
X50215861Y-83099304D01*
X50200987Y-83088014D01*
X50188502Y-83076988D01*
X50181772Y-83071044D01*
X50173646Y-83067229D01*
X50173645Y-83067228D01*
X50167979Y-83064568D01*
X50155034Y-83058490D01*
X50140065Y-83050176D01*
X50115273Y-83034107D01*
X50090709Y-83026761D01*
X50073264Y-83020099D01*
X50068827Y-83018016D01*
X50050052Y-83009201D01*
X50020870Y-83004657D01*
X50004151Y-83000874D01*
X49984464Y-82994986D01*
X49984461Y-82994985D01*
X49975859Y-82992413D01*
X49966884Y-82992358D01*
X49966883Y-82992358D01*
X49960190Y-82992317D01*
X49941444Y-82992203D01*
X49940672Y-82992170D01*
X49939577Y-82992000D01*
X49908702Y-82992000D01*
X49907932Y-82991998D01*
X49834284Y-82991548D01*
X49834283Y-82991548D01*
X49830348Y-82991524D01*
X49829004Y-82991908D01*
X49827659Y-82992000D01*
X37534000Y-82992000D01*
X37465879Y-82971998D01*
X37419386Y-82918342D01*
X37408000Y-82866000D01*
X37408000Y-76275371D01*
X37428002Y-76207250D01*
X37481658Y-76160757D01*
X37551932Y-76150653D01*
X37616512Y-76180147D01*
X37641432Y-76209535D01*
X37699987Y-76305088D01*
X37846250Y-76473938D01*
X38018126Y-76616632D01*
X38211000Y-76729338D01*
X38215825Y-76731180D01*
X38215826Y-76731181D01*
X38263375Y-76749338D01*
X38419692Y-76809030D01*
X38424760Y-76810061D01*
X38424763Y-76810062D01*
X38523067Y-76830062D01*
X38638597Y-76853567D01*
X38643772Y-76853757D01*
X38643774Y-76853757D01*
X38856673Y-76861564D01*
X38856677Y-76861564D01*
X38861837Y-76861753D01*
X38866957Y-76861097D01*
X38866959Y-76861097D01*
X39078288Y-76834025D01*
X39078289Y-76834025D01*
X39083416Y-76833368D01*
X39088366Y-76831883D01*
X39292429Y-76770661D01*
X39292434Y-76770659D01*
X39297384Y-76769174D01*
X39497994Y-76670896D01*
X39679860Y-76541173D01*
X39838096Y-76383489D01*
X39859627Y-76353526D01*
X39965435Y-76206277D01*
X39968453Y-76202077D01*
X39979292Y-76180147D01*
X40065136Y-76006453D01*
X40065137Y-76006451D01*
X40067430Y-76001811D01*
X40132370Y-75788069D01*
X40161529Y-75566590D01*
X40162585Y-75523365D01*
X40163074Y-75503365D01*
X40163074Y-75503361D01*
X40163156Y-75500000D01*
X40162062Y-75486695D01*
X43537251Y-75486695D01*
X43537548Y-75491848D01*
X43537548Y-75491851D01*
X43543011Y-75586590D01*
X43550110Y-75709715D01*
X43551247Y-75714761D01*
X43551248Y-75714767D01*
X43570681Y-75800994D01*
X43599222Y-75927639D01*
X43683266Y-76134616D01*
X43799987Y-76325088D01*
X43946250Y-76493938D01*
X44118126Y-76636632D01*
X44311000Y-76749338D01*
X44519692Y-76829030D01*
X44524760Y-76830061D01*
X44524763Y-76830062D01*
X44600177Y-76845405D01*
X44738597Y-76873567D01*
X44743772Y-76873757D01*
X44743774Y-76873757D01*
X44956673Y-76881564D01*
X44956677Y-76881564D01*
X44961837Y-76881753D01*
X44966957Y-76881097D01*
X44966959Y-76881097D01*
X45178288Y-76854025D01*
X45178289Y-76854025D01*
X45183416Y-76853368D01*
X45209958Y-76845405D01*
X45392429Y-76790661D01*
X45392434Y-76790659D01*
X45397384Y-76789174D01*
X45597994Y-76690896D01*
X45779860Y-76561173D01*
X45787168Y-76553891D01*
X45934435Y-76407137D01*
X45938096Y-76403489D01*
X45952468Y-76383489D01*
X46065435Y-76226277D01*
X46068453Y-76222077D01*
X46080631Y-76197438D01*
X46165136Y-76026453D01*
X46165137Y-76026451D01*
X46167430Y-76021811D01*
X46213721Y-75869451D01*
X46230865Y-75813023D01*
X46230865Y-75813021D01*
X46232370Y-75808069D01*
X46261529Y-75586590D01*
X46263156Y-75520000D01*
X46244852Y-75297361D01*
X46190431Y-75080702D01*
X46101354Y-74875840D01*
X46018884Y-74748361D01*
X45982822Y-74692617D01*
X45982820Y-74692614D01*
X45980014Y-74688277D01*
X45829670Y-74523051D01*
X45825619Y-74519852D01*
X45825615Y-74519848D01*
X45658414Y-74387800D01*
X45658410Y-74387798D01*
X45654359Y-74384598D01*
X45612569Y-74361529D01*
X45562598Y-74311097D01*
X45547826Y-74241654D01*
X45572942Y-74175248D01*
X45600294Y-74148641D01*
X45775328Y-74023792D01*
X45783200Y-74017139D01*
X45934052Y-73866812D01*
X45940730Y-73858965D01*
X46065003Y-73686020D01*
X46070313Y-73677183D01*
X46164670Y-73486267D01*
X46168469Y-73476672D01*
X46230377Y-73272910D01*
X46232555Y-73262837D01*
X46233986Y-73251962D01*
X46231775Y-73237778D01*
X46218617Y-73234000D01*
X43583225Y-73234000D01*
X43569694Y-73237973D01*
X43568257Y-73247966D01*
X43598565Y-73382446D01*
X43601645Y-73392275D01*
X43681770Y-73589603D01*
X43686413Y-73598794D01*
X43797694Y-73780388D01*
X43803777Y-73788699D01*
X43943213Y-73949667D01*
X43950580Y-73956883D01*
X44114434Y-74092916D01*
X44122881Y-74098831D01*
X44191969Y-74139203D01*
X44240693Y-74190842D01*
X44253764Y-74260625D01*
X44227033Y-74326396D01*
X44186584Y-74359752D01*
X44173607Y-74366507D01*
X44169474Y-74369610D01*
X44169471Y-74369612D01*
X44016624Y-74484373D01*
X43994965Y-74500635D01*
X43991393Y-74504373D01*
X43863313Y-74638401D01*
X43840629Y-74662138D01*
X43837715Y-74666410D01*
X43837714Y-74666411D01*
X43777090Y-74755283D01*
X43714743Y-74846680D01*
X43695507Y-74888120D01*
X43629972Y-75029305D01*
X43620688Y-75049305D01*
X43560989Y-75264570D01*
X43537251Y-75486695D01*
X40162062Y-75486695D01*
X40144852Y-75277361D01*
X40090431Y-75060702D01*
X40001354Y-74855840D01*
X39898945Y-74697540D01*
X39882822Y-74672617D01*
X39882820Y-74672614D01*
X39880014Y-74668277D01*
X39729670Y-74503051D01*
X39725619Y-74499852D01*
X39725615Y-74499848D01*
X39558414Y-74367800D01*
X39558410Y-74367798D01*
X39554359Y-74364598D01*
X39548800Y-74361529D01*
X39527212Y-74349612D01*
X39512569Y-74341529D01*
X39462598Y-74291097D01*
X39447826Y-74221654D01*
X39472942Y-74155248D01*
X39500294Y-74128641D01*
X39675328Y-74003792D01*
X39683200Y-73997139D01*
X39834052Y-73846812D01*
X39840730Y-73838965D01*
X39965003Y-73666020D01*
X39970313Y-73657183D01*
X40064670Y-73466267D01*
X40068469Y-73456672D01*
X40130377Y-73252910D01*
X40132555Y-73242837D01*
X40133986Y-73231962D01*
X40131775Y-73217778D01*
X40118617Y-73214000D01*
X38672000Y-73214000D01*
X38603879Y-73193998D01*
X38557386Y-73140342D01*
X38546000Y-73088000D01*
X38546000Y-72832000D01*
X38566002Y-72763879D01*
X38619658Y-72717386D01*
X38672000Y-72706000D01*
X40118344Y-72706000D01*
X40131875Y-72702027D01*
X40133180Y-72692947D01*
X40091214Y-72525875D01*
X40087894Y-72516124D01*
X40002972Y-72320814D01*
X39998105Y-72311739D01*
X39882426Y-72132926D01*
X39876136Y-72124757D01*
X39732806Y-71967240D01*
X39725273Y-71960216D01*
X39714251Y-71951511D01*
X39673188Y-71893594D01*
X39669956Y-71822671D01*
X39705581Y-71761260D01*
X39759995Y-71731780D01*
X39760316Y-71731745D01*
X39896705Y-71680615D01*
X40013261Y-71593261D01*
X40100615Y-71476705D01*
X40151745Y-71340316D01*
X40158500Y-71278134D01*
X40158500Y-69481866D01*
X40151745Y-69419684D01*
X40100615Y-69283295D01*
X40013261Y-69166739D01*
X39896705Y-69079385D01*
X39888296Y-69076233D01*
X39888295Y-69076232D01*
X39807371Y-69045895D01*
X39750606Y-69003254D01*
X39725906Y-68936692D01*
X39741113Y-68867343D01*
X39762660Y-68838662D01*
X39834435Y-68767137D01*
X39838096Y-68763489D01*
X39848799Y-68748595D01*
X39965435Y-68586277D01*
X39968453Y-68582077D01*
X39970746Y-68577437D01*
X39972446Y-68574608D01*
X40024674Y-68526518D01*
X40080451Y-68513500D01*
X40387406Y-68513500D01*
X40455527Y-68533502D01*
X40476501Y-68550405D01*
X42758343Y-70832247D01*
X42765887Y-70840537D01*
X42770000Y-70847018D01*
X42775777Y-70852443D01*
X42819667Y-70893658D01*
X42822509Y-70896413D01*
X42842231Y-70916135D01*
X42845373Y-70918572D01*
X42845433Y-70918619D01*
X42854445Y-70926317D01*
X42865936Y-70937107D01*
X42886679Y-70956586D01*
X42893622Y-70960403D01*
X42904431Y-70966345D01*
X42920953Y-70977198D01*
X42936959Y-70989614D01*
X42944237Y-70992764D01*
X42944238Y-70992764D01*
X42977537Y-71007174D01*
X42988187Y-71012391D01*
X43026940Y-71033695D01*
X43034615Y-71035666D01*
X43034616Y-71035666D01*
X43046562Y-71038733D01*
X43065267Y-71045137D01*
X43083855Y-71053181D01*
X43091678Y-71054420D01*
X43091688Y-71054423D01*
X43127524Y-71060099D01*
X43139144Y-71062505D01*
X43170959Y-71070673D01*
X43181970Y-71073500D01*
X43202224Y-71073500D01*
X43221934Y-71075051D01*
X43241943Y-71078220D01*
X43249835Y-71077474D01*
X43268580Y-71075702D01*
X43285962Y-71074059D01*
X43297819Y-71073500D01*
X43624274Y-71073500D01*
X43692395Y-71093502D01*
X43731707Y-71133665D01*
X43799987Y-71245088D01*
X43946250Y-71413938D01*
X44118126Y-71556632D01*
X44168522Y-71586081D01*
X44191955Y-71599774D01*
X44240679Y-71651412D01*
X44253750Y-71721195D01*
X44227019Y-71786967D01*
X44186562Y-71820327D01*
X44178457Y-71824546D01*
X44169738Y-71830036D01*
X43999433Y-71957905D01*
X43991726Y-71964748D01*
X43844590Y-72118717D01*
X43838104Y-72126727D01*
X43718098Y-72302649D01*
X43713000Y-72311623D01*
X43623338Y-72504783D01*
X43619775Y-72514470D01*
X43564389Y-72714183D01*
X43565912Y-72722607D01*
X43578292Y-72726000D01*
X46218344Y-72726000D01*
X46231875Y-72722027D01*
X46233180Y-72712947D01*
X46191214Y-72545875D01*
X46187894Y-72536124D01*
X46102972Y-72340814D01*
X46098105Y-72331739D01*
X45982426Y-72152926D01*
X45976136Y-72144757D01*
X45832806Y-71987240D01*
X45825273Y-71980215D01*
X45658139Y-71848222D01*
X45649556Y-71842520D01*
X45612602Y-71822120D01*
X45562631Y-71771687D01*
X45547859Y-71702245D01*
X45572975Y-71635839D01*
X45600327Y-71609232D01*
X45632230Y-71586476D01*
X45779860Y-71481173D01*
X45938096Y-71323489D01*
X46068453Y-71142077D01*
X46070746Y-71137437D01*
X46072446Y-71134608D01*
X46124674Y-71086518D01*
X46180451Y-71073500D01*
X46981233Y-71073500D01*
X46992416Y-71074027D01*
X46999909Y-71075702D01*
X47007835Y-71075453D01*
X47007836Y-71075453D01*
X47067986Y-71073562D01*
X47071945Y-71073500D01*
X47099856Y-71073500D01*
X47103791Y-71073003D01*
X47103856Y-71072995D01*
X47115693Y-71072062D01*
X47147951Y-71071048D01*
X47151970Y-71070922D01*
X47159889Y-71070673D01*
X47179343Y-71065021D01*
X47198700Y-71061013D01*
X47210930Y-71059468D01*
X47210931Y-71059468D01*
X47218797Y-71058474D01*
X47226168Y-71055555D01*
X47226170Y-71055555D01*
X47259912Y-71042196D01*
X47271142Y-71038351D01*
X47305983Y-71028229D01*
X47305984Y-71028229D01*
X47313593Y-71026018D01*
X47320412Y-71021985D01*
X47320417Y-71021983D01*
X47331028Y-71015707D01*
X47348776Y-71007012D01*
X47367617Y-70999552D01*
X47403387Y-70973564D01*
X47413307Y-70967048D01*
X47444535Y-70948580D01*
X47444538Y-70948578D01*
X47451362Y-70944542D01*
X47465683Y-70930221D01*
X47480717Y-70917380D01*
X47482431Y-70916135D01*
X47497107Y-70905472D01*
X47525298Y-70871395D01*
X47533288Y-70862616D01*
X50395904Y-68000000D01*
X53486835Y-68000000D01*
X53505465Y-68236711D01*
X53506619Y-68241518D01*
X53506620Y-68241524D01*
X53541640Y-68387391D01*
X53560895Y-68467594D01*
X53562788Y-68472165D01*
X53562789Y-68472167D01*
X53640385Y-68659500D01*
X53651760Y-68686963D01*
X53654346Y-68691183D01*
X53773241Y-68885202D01*
X53773245Y-68885208D01*
X53775824Y-68889416D01*
X53930031Y-69069969D01*
X54110584Y-69224176D01*
X54114792Y-69226755D01*
X54114798Y-69226759D01*
X54212298Y-69286507D01*
X54313037Y-69348240D01*
X54317607Y-69350133D01*
X54317611Y-69350135D01*
X54504485Y-69427540D01*
X54532406Y-69439105D01*
X54575988Y-69449568D01*
X54758476Y-69493380D01*
X54758482Y-69493381D01*
X54763289Y-69494535D01*
X55000000Y-69513165D01*
X55236711Y-69494535D01*
X55241518Y-69493381D01*
X55241524Y-69493380D01*
X55424012Y-69449568D01*
X55467594Y-69439105D01*
X55495515Y-69427540D01*
X55682389Y-69350135D01*
X55682393Y-69350133D01*
X55686963Y-69348240D01*
X55787702Y-69286507D01*
X55885202Y-69226759D01*
X55885208Y-69226755D01*
X55889416Y-69224176D01*
X56069969Y-69069969D01*
X56224176Y-68889416D01*
X56226755Y-68885208D01*
X56226759Y-68885202D01*
X56345654Y-68691183D01*
X56348240Y-68686963D01*
X56359616Y-68659500D01*
X56437211Y-68472167D01*
X56437212Y-68472165D01*
X56439105Y-68467594D01*
X56458360Y-68387391D01*
X56493380Y-68241524D01*
X56493381Y-68241518D01*
X56494535Y-68236711D01*
X56513165Y-68000000D01*
X56494535Y-67763289D01*
X56439105Y-67532406D01*
X56418020Y-67481502D01*
X56350135Y-67317611D01*
X56350133Y-67317607D01*
X56348240Y-67313037D01*
X56321847Y-67269967D01*
X56226759Y-67114798D01*
X56226755Y-67114792D01*
X56224176Y-67110584D01*
X56069969Y-66930031D01*
X55889416Y-66775824D01*
X55885208Y-66773245D01*
X55885202Y-66773241D01*
X55691183Y-66654346D01*
X55686963Y-66651760D01*
X55682393Y-66649867D01*
X55682389Y-66649865D01*
X55472167Y-66562789D01*
X55472165Y-66562788D01*
X55467594Y-66560895D01*
X55386808Y-66541500D01*
X55241524Y-66506620D01*
X55241518Y-66506619D01*
X55236711Y-66505465D01*
X55000000Y-66486835D01*
X54763289Y-66505465D01*
X54758482Y-66506619D01*
X54758476Y-66506620D01*
X54613192Y-66541500D01*
X54532406Y-66560895D01*
X54527835Y-66562788D01*
X54527833Y-66562789D01*
X54317611Y-66649865D01*
X54317607Y-66649867D01*
X54313037Y-66651760D01*
X54308817Y-66654346D01*
X54114798Y-66773241D01*
X54114792Y-66773245D01*
X54110584Y-66775824D01*
X53930031Y-66930031D01*
X53775824Y-67110584D01*
X53773245Y-67114792D01*
X53773241Y-67114798D01*
X53678153Y-67269967D01*
X53651760Y-67313037D01*
X53649867Y-67317607D01*
X53649865Y-67317611D01*
X53581980Y-67481502D01*
X53560895Y-67532406D01*
X53505465Y-67763289D01*
X53486835Y-68000000D01*
X50395904Y-68000000D01*
X55725499Y-62670405D01*
X55787811Y-62636379D01*
X55814594Y-62633500D01*
X64661233Y-62633500D01*
X64672416Y-62634027D01*
X64679909Y-62635702D01*
X64687835Y-62635453D01*
X64687836Y-62635453D01*
X64747986Y-62633562D01*
X64751945Y-62633500D01*
X64779856Y-62633500D01*
X64783791Y-62633003D01*
X64783856Y-62632995D01*
X64795693Y-62632062D01*
X64827951Y-62631048D01*
X64831970Y-62630922D01*
X64839889Y-62630673D01*
X64859343Y-62625021D01*
X64878700Y-62621013D01*
X64890930Y-62619468D01*
X64890931Y-62619468D01*
X64898797Y-62618474D01*
X64906168Y-62615555D01*
X64906170Y-62615555D01*
X64939912Y-62602196D01*
X64951142Y-62598351D01*
X64985983Y-62588229D01*
X64985984Y-62588229D01*
X64993593Y-62586018D01*
X65000412Y-62581985D01*
X65000417Y-62581983D01*
X65011028Y-62575707D01*
X65028776Y-62567012D01*
X65047617Y-62559552D01*
X65083387Y-62533564D01*
X65093307Y-62527048D01*
X65124535Y-62508580D01*
X65124538Y-62508578D01*
X65131362Y-62504542D01*
X65145683Y-62490221D01*
X65160717Y-62477380D01*
X65170694Y-62470131D01*
X65177107Y-62465472D01*
X65205298Y-62431395D01*
X65213288Y-62422616D01*
X65884549Y-61751355D01*
X65946861Y-61717329D01*
X65998762Y-61716979D01*
X66178597Y-61753567D01*
X66183772Y-61753757D01*
X66183774Y-61753757D01*
X66396673Y-61761564D01*
X66396677Y-61761564D01*
X66401837Y-61761753D01*
X66406957Y-61761097D01*
X66406959Y-61761097D01*
X66618288Y-61734025D01*
X66618289Y-61734025D01*
X66623416Y-61733368D01*
X66628366Y-61731883D01*
X66832429Y-61670661D01*
X66832434Y-61670659D01*
X66837384Y-61669174D01*
X67037994Y-61570896D01*
X67219860Y-61441173D01*
X67378096Y-61283489D01*
X67383779Y-61275581D01*
X67508453Y-61102077D01*
X67509776Y-61103028D01*
X67556645Y-61059857D01*
X67626580Y-61047625D01*
X67692026Y-61075144D01*
X67719875Y-61106994D01*
X67735852Y-61133066D01*
X67779987Y-61205088D01*
X67926250Y-61373938D01*
X68098126Y-61516632D01*
X68291000Y-61629338D01*
X68499692Y-61709030D01*
X68504760Y-61710061D01*
X68504763Y-61710062D01*
X68599862Y-61729410D01*
X68718597Y-61753567D01*
X68723772Y-61753757D01*
X68723774Y-61753757D01*
X68936673Y-61761564D01*
X68936677Y-61761564D01*
X68941837Y-61761753D01*
X68946957Y-61761097D01*
X68946959Y-61761097D01*
X69158288Y-61734025D01*
X69158289Y-61734025D01*
X69163416Y-61733368D01*
X69168366Y-61731883D01*
X69372429Y-61670661D01*
X69372434Y-61670659D01*
X69377384Y-61669174D01*
X69577994Y-61570896D01*
X69759860Y-61441173D01*
X69918096Y-61283489D01*
X69923779Y-61275581D01*
X70048453Y-61102077D01*
X70049640Y-61102930D01*
X70096960Y-61059362D01*
X70166897Y-61047145D01*
X70232338Y-61074678D01*
X70260166Y-61106511D01*
X70317694Y-61200388D01*
X70323777Y-61208699D01*
X70463213Y-61369667D01*
X70470580Y-61376883D01*
X70634434Y-61512916D01*
X70642881Y-61518831D01*
X70826756Y-61626279D01*
X70836042Y-61630729D01*
X71035001Y-61706703D01*
X71044899Y-61709579D01*
X71148250Y-61730606D01*
X71162299Y-61729410D01*
X71166000Y-61719065D01*
X71166000Y-61718517D01*
X71674000Y-61718517D01*
X71678064Y-61732359D01*
X71691478Y-61734393D01*
X71698184Y-61733534D01*
X71708262Y-61731392D01*
X71912255Y-61670191D01*
X71921842Y-61666433D01*
X72113095Y-61572739D01*
X72121945Y-61567464D01*
X72295328Y-61443792D01*
X72303200Y-61437139D01*
X72454052Y-61286812D01*
X72460730Y-61278965D01*
X72585003Y-61106020D01*
X72590313Y-61097183D01*
X72684670Y-60906267D01*
X72688469Y-60896672D01*
X72750377Y-60692910D01*
X72752555Y-60682837D01*
X72753986Y-60671962D01*
X72751775Y-60657778D01*
X72738617Y-60654000D01*
X71692115Y-60654000D01*
X71676876Y-60658475D01*
X71675671Y-60659865D01*
X71674000Y-60667548D01*
X71674000Y-61718517D01*
X71166000Y-61718517D01*
X71166000Y-60127885D01*
X71674000Y-60127885D01*
X71678475Y-60143124D01*
X71679865Y-60144329D01*
X71687548Y-60146000D01*
X72738344Y-60146000D01*
X72751875Y-60142027D01*
X72753180Y-60132947D01*
X72711214Y-59965875D01*
X72707894Y-59956124D01*
X72622972Y-59760814D01*
X72618105Y-59751739D01*
X72502426Y-59572926D01*
X72496136Y-59564757D01*
X72352806Y-59407240D01*
X72345273Y-59400215D01*
X72178139Y-59268222D01*
X72169552Y-59262517D01*
X71983117Y-59159599D01*
X71973705Y-59155369D01*
X71772959Y-59084280D01*
X71762988Y-59081646D01*
X71691837Y-59068972D01*
X71678540Y-59070432D01*
X71674000Y-59084989D01*
X71674000Y-60127885D01*
X71166000Y-60127885D01*
X71166000Y-59083102D01*
X71162082Y-59069758D01*
X71147806Y-59067771D01*
X71109324Y-59073660D01*
X71099288Y-59076051D01*
X70896868Y-59142212D01*
X70887359Y-59146209D01*
X70698463Y-59244542D01*
X70689738Y-59250036D01*
X70519433Y-59377905D01*
X70511726Y-59384748D01*
X70364590Y-59538717D01*
X70358109Y-59546722D01*
X70253498Y-59700074D01*
X70198587Y-59745076D01*
X70128062Y-59753247D01*
X70064315Y-59721993D01*
X70043618Y-59697509D01*
X69962822Y-59572617D01*
X69962820Y-59572614D01*
X69960014Y-59568277D01*
X69809670Y-59403051D01*
X69805619Y-59399852D01*
X69805615Y-59399848D01*
X69638414Y-59267800D01*
X69638410Y-59267798D01*
X69634359Y-59264598D01*
X69616846Y-59254930D01*
X69582136Y-59235769D01*
X69438789Y-59156638D01*
X69433920Y-59154914D01*
X69433916Y-59154912D01*
X69233087Y-59083795D01*
X69233083Y-59083794D01*
X69228212Y-59082069D01*
X69223119Y-59081162D01*
X69223116Y-59081161D01*
X69013373Y-59043800D01*
X69013367Y-59043799D01*
X69008284Y-59042894D01*
X68934452Y-59041992D01*
X68790081Y-59040228D01*
X68790079Y-59040228D01*
X68784911Y-59040165D01*
X68564091Y-59073955D01*
X68351756Y-59143357D01*
X68153607Y-59246507D01*
X68149474Y-59249610D01*
X68149471Y-59249612D01*
X68045384Y-59327763D01*
X67974965Y-59380635D01*
X67971393Y-59384373D01*
X67863729Y-59497037D01*
X67820629Y-59542138D01*
X67713201Y-59699621D01*
X67658293Y-59744621D01*
X67587768Y-59752792D01*
X67524021Y-59721538D01*
X67503324Y-59697054D01*
X67422822Y-59572617D01*
X67422820Y-59572614D01*
X67420014Y-59568277D01*
X67269670Y-59403051D01*
X67265619Y-59399852D01*
X67265615Y-59399848D01*
X67098414Y-59267800D01*
X67098410Y-59267798D01*
X67094359Y-59264598D01*
X67076846Y-59254930D01*
X67042136Y-59235769D01*
X66898789Y-59156638D01*
X66893920Y-59154914D01*
X66893916Y-59154912D01*
X66693087Y-59083795D01*
X66693083Y-59083794D01*
X66688212Y-59082069D01*
X66683119Y-59081162D01*
X66683116Y-59081161D01*
X66473373Y-59043800D01*
X66473367Y-59043799D01*
X66468284Y-59042894D01*
X66394452Y-59041992D01*
X66250081Y-59040228D01*
X66250079Y-59040228D01*
X66244911Y-59040165D01*
X66024091Y-59073955D01*
X65811756Y-59143357D01*
X65613607Y-59246507D01*
X65609474Y-59249610D01*
X65609471Y-59249612D01*
X65505384Y-59327763D01*
X65434965Y-59380635D01*
X65378537Y-59439684D01*
X65354283Y-59465064D01*
X65292759Y-59500494D01*
X65221846Y-59497037D01*
X65164060Y-59455791D01*
X65145207Y-59422243D01*
X65103767Y-59311703D01*
X65100615Y-59303295D01*
X65013261Y-59186739D01*
X64896705Y-59099385D01*
X64760316Y-59048255D01*
X64698134Y-59041500D01*
X62901866Y-59041500D01*
X62839684Y-59048255D01*
X62703295Y-59099385D01*
X62586739Y-59186739D01*
X62499385Y-59303295D01*
X62448255Y-59439684D01*
X62441500Y-59501866D01*
X62441500Y-59640500D01*
X62421498Y-59708621D01*
X62367842Y-59755114D01*
X62315500Y-59766500D01*
X56478768Y-59766500D01*
X56467585Y-59765973D01*
X56460092Y-59764298D01*
X56452166Y-59764547D01*
X56452165Y-59764547D01*
X56392002Y-59766438D01*
X56388044Y-59766500D01*
X56360144Y-59766500D01*
X56356154Y-59767004D01*
X56344320Y-59767936D01*
X56300111Y-59769326D01*
X56292497Y-59771538D01*
X56292492Y-59771539D01*
X56280659Y-59774977D01*
X56261296Y-59778988D01*
X56241203Y-59781526D01*
X56233836Y-59784443D01*
X56233831Y-59784444D01*
X56200092Y-59797802D01*
X56188865Y-59801646D01*
X56146407Y-59813982D01*
X56139581Y-59818019D01*
X56128972Y-59824293D01*
X56111224Y-59832988D01*
X56092383Y-59840448D01*
X56085967Y-59845110D01*
X56085966Y-59845110D01*
X56056613Y-59866436D01*
X56046693Y-59872952D01*
X56015465Y-59891420D01*
X56015462Y-59891422D01*
X56008638Y-59895458D01*
X55994317Y-59909779D01*
X55979284Y-59922619D01*
X55962893Y-59934528D01*
X55957842Y-59940634D01*
X55934702Y-59968605D01*
X55926712Y-59977384D01*
X48674500Y-67229595D01*
X48612188Y-67263621D01*
X48585405Y-67266500D01*
X46384500Y-67266500D01*
X46316379Y-67246498D01*
X46269886Y-67192842D01*
X46258500Y-67140500D01*
X46258500Y-67001866D01*
X46251745Y-66939684D01*
X46200615Y-66803295D01*
X46113261Y-66686739D01*
X45996705Y-66599385D01*
X45860316Y-66548255D01*
X45798134Y-66541500D01*
X44001866Y-66541500D01*
X43939684Y-66548255D01*
X43803295Y-66599385D01*
X43686739Y-66686739D01*
X43599385Y-66803295D01*
X43548255Y-66939684D01*
X43541500Y-67001866D01*
X43541500Y-68798134D01*
X43548255Y-68860316D01*
X43599385Y-68996705D01*
X43686739Y-69113261D01*
X43803295Y-69200615D01*
X43811704Y-69203767D01*
X43811705Y-69203768D01*
X43920451Y-69244535D01*
X43977216Y-69287176D01*
X44001916Y-69353738D01*
X43986709Y-69423087D01*
X43967316Y-69449568D01*
X43840629Y-69582138D01*
X43837715Y-69586410D01*
X43837714Y-69586411D01*
X43725095Y-69751504D01*
X43670184Y-69796507D01*
X43621007Y-69806500D01*
X43576594Y-69806500D01*
X43508473Y-69786498D01*
X43487499Y-69769595D01*
X41205652Y-67487747D01*
X41198112Y-67479461D01*
X41194000Y-67472982D01*
X41144348Y-67426356D01*
X41141507Y-67423602D01*
X41121770Y-67403865D01*
X41118573Y-67401385D01*
X41109551Y-67393680D01*
X41083100Y-67368841D01*
X41077321Y-67363414D01*
X41070375Y-67359595D01*
X41070372Y-67359593D01*
X41059566Y-67353652D01*
X41043047Y-67342801D01*
X41042583Y-67342441D01*
X41027041Y-67330386D01*
X41019772Y-67327241D01*
X41019768Y-67327238D01*
X40986463Y-67312826D01*
X40975813Y-67307609D01*
X40937060Y-67286305D01*
X40917437Y-67281267D01*
X40898734Y-67274863D01*
X40887420Y-67269967D01*
X40887419Y-67269967D01*
X40880145Y-67266819D01*
X40872322Y-67265580D01*
X40872312Y-67265577D01*
X40836476Y-67259901D01*
X40824856Y-67257495D01*
X40789711Y-67248472D01*
X40789710Y-67248472D01*
X40782030Y-67246500D01*
X40761776Y-67246500D01*
X40742065Y-67244949D01*
X40729886Y-67243020D01*
X40722057Y-67241780D01*
X40714165Y-67242526D01*
X40678039Y-67245941D01*
X40666181Y-67246500D01*
X40076805Y-67246500D01*
X40008684Y-67226498D01*
X39971013Y-67188940D01*
X39882822Y-67052617D01*
X39882820Y-67052614D01*
X39880014Y-67048277D01*
X39729670Y-66883051D01*
X39725619Y-66879852D01*
X39725615Y-66879848D01*
X39558414Y-66747800D01*
X39558410Y-66747798D01*
X39554359Y-66744598D01*
X39358789Y-66636638D01*
X39353920Y-66634914D01*
X39353916Y-66634912D01*
X39153087Y-66563795D01*
X39153083Y-66563794D01*
X39148212Y-66562069D01*
X39143119Y-66561162D01*
X39143116Y-66561161D01*
X38933373Y-66523800D01*
X38933367Y-66523799D01*
X38928284Y-66522894D01*
X38854452Y-66521992D01*
X38710081Y-66520228D01*
X38710079Y-66520228D01*
X38704911Y-66520165D01*
X38484091Y-66553955D01*
X38271756Y-66623357D01*
X38073607Y-66726507D01*
X38069474Y-66729610D01*
X38069471Y-66729612D01*
X37960136Y-66811703D01*
X37894965Y-66860635D01*
X37740629Y-67022138D01*
X37664581Y-67133621D01*
X37638088Y-67172458D01*
X37583177Y-67217461D01*
X37512652Y-67225632D01*
X37448905Y-67194378D01*
X37412175Y-67133621D01*
X37408000Y-67101454D01*
X37408000Y-63104543D01*
X37428002Y-63036422D01*
X37481658Y-62989929D01*
X37519892Y-62979335D01*
X37685888Y-62960631D01*
X37870646Y-62939814D01*
X37872956Y-62939377D01*
X38346857Y-62849711D01*
X38346869Y-62849708D01*
X38349180Y-62849271D01*
X38491546Y-62811124D01*
X38817330Y-62723831D01*
X38817338Y-62723828D01*
X38819609Y-62723220D01*
X39279303Y-62562366D01*
X39610320Y-62417945D01*
X39723537Y-62368549D01*
X39723542Y-62368547D01*
X39725691Y-62367609D01*
X39727763Y-62366514D01*
X40154213Y-62141129D01*
X40154216Y-62141127D01*
X40156277Y-62140038D01*
X40229206Y-62094214D01*
X40566656Y-61882180D01*
X40566660Y-61882177D01*
X40568653Y-61880925D01*
X40960511Y-61591720D01*
X41329662Y-61274040D01*
X41674040Y-60929662D01*
X41991720Y-60560511D01*
X42191288Y-60290106D01*
X42279523Y-60170553D01*
X42279526Y-60170548D01*
X42280925Y-60168653D01*
X42395240Y-59986722D01*
X42538791Y-59758262D01*
X42538794Y-59758257D01*
X42540038Y-59756277D01*
X42541640Y-59753247D01*
X42766514Y-59327763D01*
X42766515Y-59327761D01*
X42767609Y-59325691D01*
X42780516Y-59296109D01*
X42800633Y-59250000D01*
X51786526Y-59250000D01*
X51806391Y-59502403D01*
X51807545Y-59507210D01*
X51807546Y-59507216D01*
X51823322Y-59572926D01*
X51865495Y-59748591D01*
X51867388Y-59753162D01*
X51867389Y-59753164D01*
X51958520Y-59973173D01*
X51962384Y-59982502D01*
X52094672Y-60198376D01*
X52259102Y-60390898D01*
X52451624Y-60555328D01*
X52667498Y-60687616D01*
X52672068Y-60689509D01*
X52672072Y-60689511D01*
X52896836Y-60782611D01*
X52901409Y-60784505D01*
X52986032Y-60804821D01*
X53142784Y-60842454D01*
X53142790Y-60842455D01*
X53147597Y-60843609D01*
X53247416Y-60851465D01*
X53334345Y-60858307D01*
X53334352Y-60858307D01*
X53336801Y-60858500D01*
X53463199Y-60858500D01*
X53465648Y-60858307D01*
X53465655Y-60858307D01*
X53552584Y-60851465D01*
X53652403Y-60843609D01*
X53657210Y-60842455D01*
X53657216Y-60842454D01*
X53813968Y-60804821D01*
X53898591Y-60784505D01*
X53903164Y-60782611D01*
X54127928Y-60689511D01*
X54127932Y-60689509D01*
X54132502Y-60687616D01*
X54348376Y-60555328D01*
X54540898Y-60390898D01*
X54705328Y-60198376D01*
X54837616Y-59982502D01*
X54841481Y-59973173D01*
X54932611Y-59753164D01*
X54932612Y-59753162D01*
X54934505Y-59748591D01*
X54976678Y-59572926D01*
X54992454Y-59507216D01*
X54992455Y-59507210D01*
X54993609Y-59502403D01*
X55013474Y-59250000D01*
X54993609Y-58997597D01*
X54965210Y-58879303D01*
X54935660Y-58756221D01*
X54934505Y-58751409D01*
X54837616Y-58517498D01*
X54705328Y-58301624D01*
X54540898Y-58109102D01*
X54348376Y-57944672D01*
X54132502Y-57812384D01*
X54127932Y-57810491D01*
X54127928Y-57810489D01*
X53903164Y-57717389D01*
X53903162Y-57717388D01*
X53898591Y-57715495D01*
X53813968Y-57695179D01*
X53657216Y-57657546D01*
X53657210Y-57657545D01*
X53652403Y-57656391D01*
X53552584Y-57648535D01*
X53465655Y-57641693D01*
X53465648Y-57641693D01*
X53463199Y-57641500D01*
X53336801Y-57641500D01*
X53334352Y-57641693D01*
X53334345Y-57641693D01*
X53247416Y-57648535D01*
X53147597Y-57656391D01*
X53142790Y-57657545D01*
X53142784Y-57657546D01*
X52986032Y-57695179D01*
X52901409Y-57715495D01*
X52896838Y-57717388D01*
X52896836Y-57717389D01*
X52672072Y-57810489D01*
X52672068Y-57810491D01*
X52667498Y-57812384D01*
X52451624Y-57944672D01*
X52259102Y-58109102D01*
X52094672Y-58301624D01*
X51962384Y-58517498D01*
X51865495Y-58751409D01*
X51864340Y-58756221D01*
X51834791Y-58879303D01*
X51806391Y-58997597D01*
X51786526Y-59250000D01*
X42800633Y-59250000D01*
X42961419Y-58881473D01*
X42962366Y-58879303D01*
X43123220Y-58419609D01*
X43249271Y-57949180D01*
X43250613Y-57942090D01*
X43339377Y-57472956D01*
X43339377Y-57472954D01*
X43339814Y-57470646D01*
X43379335Y-57119892D01*
X43406839Y-57054439D01*
X43465363Y-57014247D01*
X43504543Y-57008000D01*
X76295457Y-57008000D01*
X76363578Y-57028002D01*
G37*
%TD.AperFunction*%
%TD*%
M02*
